G75*
G70*
%OFA0B0*%
%FSLAX24Y24*%
%IPPOS*%
%LPD*%
%AMOC8*
5,1,8,0,0,1.08239X$1,22.5*
%
%ADD10C,0.0000*%
%ADD11C,0.0100*%
%ADD12C,0.0353*%
%ADD13OC8,0.0850*%
%ADD14C,0.0400*%
%ADD15R,0.0531X0.0256*%
%ADD16C,0.0700*%
D10*
X023676Y031647D02*
X032337Y022985D01*
X032337Y016686D01*
X017377Y016686D01*
X017377Y031647D01*
X023676Y031647D01*
X016196Y031647D02*
X016196Y016686D01*
X001235Y016686D01*
X001235Y022985D01*
X009896Y031647D01*
X016196Y031647D01*
X016196Y015505D02*
X001235Y015505D01*
X001235Y009206D01*
X009896Y000544D01*
X016196Y000544D01*
X016196Y015505D01*
D11*
X015763Y016922D02*
X015448Y016922D01*
X015251Y017119D01*
X015251Y017434D01*
X015448Y017631D01*
X015763Y017631D01*
X015959Y017434D01*
X015959Y017119D01*
X015763Y016922D01*
X015841Y017001D02*
X015369Y017001D01*
X015270Y017100D02*
X015940Y017100D01*
X015959Y017198D02*
X015251Y017198D01*
X015251Y017297D02*
X015959Y017297D01*
X015959Y017395D02*
X015251Y017395D01*
X015310Y017494D02*
X015900Y017494D01*
X015801Y017592D02*
X015409Y017592D01*
X015448Y018103D02*
X015251Y018300D01*
X015251Y018615D01*
X015448Y018812D01*
X015763Y018812D01*
X015959Y018615D01*
X015959Y018300D01*
X015763Y018103D01*
X015448Y018103D01*
X015367Y018184D02*
X015843Y018184D01*
X015941Y018282D02*
X015269Y018282D01*
X015251Y018381D02*
X015959Y018381D01*
X015959Y018479D02*
X015251Y018479D01*
X015251Y018578D02*
X015959Y018578D01*
X015898Y018676D02*
X015312Y018676D01*
X015410Y018775D02*
X015800Y018775D01*
X014620Y017592D02*
X014228Y017592D01*
X014266Y017631D02*
X014070Y017434D01*
X014070Y017119D01*
X014266Y016922D01*
X014581Y016922D01*
X014778Y017119D01*
X014778Y017434D01*
X014581Y017631D01*
X014266Y017631D01*
X014129Y017494D02*
X014719Y017494D01*
X014778Y017395D02*
X014070Y017395D01*
X014070Y017297D02*
X014778Y017297D01*
X014778Y017198D02*
X014070Y017198D01*
X014089Y017100D02*
X014759Y017100D01*
X014660Y017001D02*
X014188Y017001D01*
X013007Y019678D02*
X012692Y019678D01*
X012495Y019875D01*
X012495Y020190D01*
X012692Y020387D01*
X013007Y020387D01*
X013203Y020190D01*
X013203Y019875D01*
X013007Y019678D01*
X013089Y019760D02*
X012610Y019760D01*
X012511Y019859D02*
X013187Y019859D01*
X013203Y019957D02*
X012495Y019957D01*
X012495Y020056D02*
X013203Y020056D01*
X013203Y020154D02*
X012495Y020154D01*
X012558Y020253D02*
X013140Y020253D01*
X013042Y020351D02*
X012656Y020351D01*
X012692Y020859D02*
X012495Y021056D01*
X012495Y021371D01*
X012692Y021568D01*
X013007Y021568D01*
X013203Y021371D01*
X013203Y021056D01*
X013007Y020859D01*
X012692Y020859D01*
X012608Y020943D02*
X013090Y020943D01*
X013189Y021041D02*
X012510Y021041D01*
X012495Y021140D02*
X013203Y021140D01*
X013203Y021238D02*
X012495Y021238D01*
X012495Y021337D02*
X013203Y021337D01*
X013139Y021435D02*
X012559Y021435D01*
X012658Y021534D02*
X013041Y021534D01*
X012022Y021371D02*
X012022Y021056D01*
X011826Y020859D01*
X011511Y020859D01*
X011314Y021056D01*
X011314Y021371D01*
X011511Y021568D01*
X011826Y021568D01*
X012022Y021371D01*
X012022Y021337D02*
X011314Y021337D01*
X011314Y021238D02*
X012022Y021238D01*
X012022Y021140D02*
X011314Y021140D01*
X011329Y021041D02*
X012008Y021041D01*
X011909Y020943D02*
X011427Y020943D01*
X011378Y021435D02*
X011958Y021435D01*
X011859Y021534D02*
X011477Y021534D01*
X011511Y020387D02*
X011314Y020190D01*
X011314Y019875D01*
X011511Y019678D01*
X011826Y019678D01*
X012022Y019875D01*
X012022Y020190D01*
X011826Y020387D01*
X011511Y020387D01*
X011475Y020351D02*
X011861Y020351D01*
X011959Y020253D02*
X011377Y020253D01*
X011314Y020154D02*
X012022Y020154D01*
X012022Y020056D02*
X011314Y020056D01*
X011314Y019957D02*
X012022Y019957D01*
X012006Y019859D02*
X011330Y019859D01*
X011428Y019760D02*
X011908Y019760D01*
X007266Y022926D02*
X007268Y022951D01*
X007274Y022975D01*
X007284Y022997D01*
X007298Y023018D01*
X007314Y023036D01*
X007334Y023052D01*
X007356Y023063D01*
X007379Y023071D01*
X007404Y023075D01*
X007428Y023075D01*
X007453Y023071D01*
X007476Y023063D01*
X007498Y023052D01*
X007518Y023036D01*
X007534Y023018D01*
X007548Y022997D01*
X007558Y022975D01*
X007564Y022951D01*
X007566Y022926D01*
X007564Y022901D01*
X007558Y022877D01*
X007548Y022855D01*
X007534Y022834D01*
X007518Y022816D01*
X007498Y022800D01*
X007476Y022789D01*
X007453Y022781D01*
X007428Y022777D01*
X007404Y022777D01*
X007379Y022781D01*
X007356Y022789D01*
X007334Y022800D01*
X007314Y022816D01*
X007298Y022834D01*
X007284Y022855D01*
X007274Y022877D01*
X007268Y022901D01*
X007266Y022926D01*
X007262Y023418D02*
X007264Y023443D01*
X007270Y023467D01*
X007280Y023490D01*
X007293Y023511D01*
X007309Y023529D01*
X007329Y023545D01*
X007350Y023557D01*
X007373Y023566D01*
X007397Y023571D01*
X007422Y023572D01*
X007447Y023569D01*
X007471Y023562D01*
X007493Y023551D01*
X007513Y023537D01*
X007531Y023520D01*
X007546Y023500D01*
X007558Y023478D01*
X007566Y023455D01*
X007570Y023430D01*
X007570Y023406D01*
X007566Y023381D01*
X007558Y023358D01*
X007546Y023336D01*
X007531Y023316D01*
X007513Y023299D01*
X007493Y023285D01*
X007471Y023274D01*
X007447Y023267D01*
X007422Y023264D01*
X007397Y023265D01*
X007373Y023270D01*
X007350Y023279D01*
X007329Y023291D01*
X007309Y023307D01*
X007293Y023325D01*
X007280Y023346D01*
X007270Y023369D01*
X007264Y023393D01*
X007262Y023418D01*
X007266Y023910D02*
X007268Y023935D01*
X007274Y023959D01*
X007284Y023981D01*
X007298Y024002D01*
X007314Y024020D01*
X007334Y024036D01*
X007356Y024047D01*
X007379Y024055D01*
X007404Y024059D01*
X007428Y024059D01*
X007453Y024055D01*
X007476Y024047D01*
X007498Y024036D01*
X007518Y024020D01*
X007534Y024002D01*
X007548Y023981D01*
X007558Y023959D01*
X007564Y023935D01*
X007566Y023910D01*
X007564Y023885D01*
X007558Y023861D01*
X007548Y023839D01*
X007534Y023818D01*
X007518Y023800D01*
X007498Y023784D01*
X007476Y023773D01*
X007453Y023765D01*
X007428Y023761D01*
X007404Y023761D01*
X007379Y023765D01*
X007356Y023773D01*
X007334Y023784D01*
X007314Y023800D01*
X007298Y023818D01*
X007284Y023839D01*
X007274Y023861D01*
X007268Y023885D01*
X007266Y023910D01*
X007266Y024403D02*
X007268Y024428D01*
X007274Y024452D01*
X007284Y024474D01*
X007298Y024495D01*
X007314Y024513D01*
X007334Y024529D01*
X007356Y024540D01*
X007379Y024548D01*
X007404Y024552D01*
X007428Y024552D01*
X007453Y024548D01*
X007476Y024540D01*
X007498Y024529D01*
X007518Y024513D01*
X007534Y024495D01*
X007548Y024474D01*
X007558Y024452D01*
X007564Y024428D01*
X007566Y024403D01*
X007564Y024378D01*
X007558Y024354D01*
X007548Y024332D01*
X007534Y024311D01*
X007518Y024293D01*
X007498Y024277D01*
X007476Y024266D01*
X007453Y024258D01*
X007428Y024254D01*
X007404Y024254D01*
X007379Y024258D01*
X007356Y024266D01*
X007334Y024277D01*
X007314Y024293D01*
X007298Y024311D01*
X007284Y024332D01*
X007274Y024354D01*
X007268Y024378D01*
X007266Y024403D01*
X007266Y024895D02*
X007268Y024920D01*
X007274Y024944D01*
X007284Y024966D01*
X007298Y024987D01*
X007314Y025005D01*
X007334Y025021D01*
X007356Y025032D01*
X007379Y025040D01*
X007404Y025044D01*
X007428Y025044D01*
X007453Y025040D01*
X007476Y025032D01*
X007498Y025021D01*
X007518Y025005D01*
X007534Y024987D01*
X007548Y024966D01*
X007558Y024944D01*
X007564Y024920D01*
X007566Y024895D01*
X007564Y024870D01*
X007558Y024846D01*
X007548Y024824D01*
X007534Y024803D01*
X007518Y024785D01*
X007498Y024769D01*
X007476Y024758D01*
X007453Y024750D01*
X007428Y024746D01*
X007404Y024746D01*
X007379Y024750D01*
X007356Y024758D01*
X007334Y024769D01*
X007314Y024785D01*
X007298Y024803D01*
X007284Y024824D01*
X007274Y024846D01*
X007268Y024870D01*
X007266Y024895D01*
X007266Y025387D02*
X007268Y025412D01*
X007274Y025436D01*
X007284Y025458D01*
X007298Y025479D01*
X007314Y025497D01*
X007334Y025513D01*
X007356Y025524D01*
X007379Y025532D01*
X007404Y025536D01*
X007428Y025536D01*
X007453Y025532D01*
X007476Y025524D01*
X007498Y025513D01*
X007518Y025497D01*
X007534Y025479D01*
X007548Y025458D01*
X007558Y025436D01*
X007564Y025412D01*
X007566Y025387D01*
X007564Y025362D01*
X007558Y025338D01*
X007548Y025316D01*
X007534Y025295D01*
X007518Y025277D01*
X007498Y025261D01*
X007476Y025250D01*
X007453Y025242D01*
X007428Y025238D01*
X007404Y025238D01*
X007379Y025242D01*
X007356Y025250D01*
X007334Y025261D01*
X007314Y025277D01*
X007298Y025295D01*
X007284Y025316D01*
X007274Y025338D01*
X007268Y025362D01*
X007266Y025387D01*
D12*
X004628Y006603D02*
X004260Y006603D01*
X004260Y006691D01*
X004628Y006691D01*
X004628Y006603D01*
X004628Y007390D02*
X004260Y007390D01*
X004260Y007478D01*
X004628Y007478D01*
X004628Y007390D01*
X004628Y008571D02*
X004260Y008571D01*
X004260Y008659D01*
X004628Y008659D01*
X004628Y008571D01*
X004628Y009359D02*
X004260Y009359D01*
X004260Y009447D01*
X004628Y009447D01*
X004628Y009359D01*
X006346Y009359D02*
X006714Y009359D01*
X006346Y009359D02*
X006346Y009447D01*
X006714Y009447D01*
X006714Y009359D01*
X006714Y008571D02*
X006346Y008571D01*
X006346Y008659D01*
X006714Y008659D01*
X006714Y008571D01*
X006714Y007390D02*
X006346Y007390D01*
X006346Y007478D01*
X006714Y007478D01*
X006714Y007390D01*
X006714Y006603D02*
X006346Y006603D01*
X006346Y006691D01*
X006714Y006691D01*
X006714Y006603D01*
X007293Y005656D02*
X007381Y005656D01*
X007293Y005656D02*
X007293Y006024D01*
X007381Y006024D01*
X007381Y005656D01*
X007381Y006008D02*
X007293Y006008D01*
X008081Y005656D02*
X008169Y005656D01*
X008081Y005656D02*
X008081Y006024D01*
X008169Y006024D01*
X008169Y005656D01*
X008169Y006008D02*
X008081Y006008D01*
X009262Y005656D02*
X009350Y005656D01*
X009262Y005656D02*
X009262Y006024D01*
X009350Y006024D01*
X009350Y005656D01*
X009350Y006008D02*
X009262Y006008D01*
X010049Y005656D02*
X010137Y005656D01*
X010049Y005656D02*
X010049Y006024D01*
X010137Y006024D01*
X010137Y005656D01*
X010137Y006008D02*
X010049Y006008D01*
X010716Y006603D02*
X011084Y006603D01*
X010716Y006603D02*
X010716Y006691D01*
X011084Y006691D01*
X011084Y006603D01*
X011084Y007390D02*
X010716Y007390D01*
X010716Y007478D01*
X011084Y007478D01*
X011084Y007390D01*
X011084Y008571D02*
X010716Y008571D01*
X010716Y008659D01*
X011084Y008659D01*
X011084Y008571D01*
X011084Y009359D02*
X010716Y009359D01*
X010716Y009447D01*
X011084Y009447D01*
X011084Y009359D01*
X010137Y010026D02*
X010049Y010026D01*
X010049Y010394D01*
X010137Y010394D01*
X010137Y010026D01*
X010137Y010378D02*
X010049Y010378D01*
X009350Y010026D02*
X009262Y010026D01*
X009262Y010394D01*
X009350Y010394D01*
X009350Y010026D01*
X009350Y010378D02*
X009262Y010378D01*
X008169Y010026D02*
X008081Y010026D01*
X008081Y010394D01*
X008169Y010394D01*
X008169Y010026D01*
X008169Y010378D02*
X008081Y010378D01*
X007381Y010026D02*
X007293Y010026D01*
X007293Y010394D01*
X007381Y010394D01*
X007381Y010026D01*
X007381Y010378D02*
X007293Y010378D01*
X007293Y012112D02*
X007381Y012112D01*
X007293Y012112D02*
X007293Y012480D01*
X007381Y012480D01*
X007381Y012112D01*
X007381Y012464D02*
X007293Y012464D01*
X008081Y012112D02*
X008169Y012112D01*
X008081Y012112D02*
X008081Y012480D01*
X008169Y012480D01*
X008169Y012112D01*
X008169Y012464D02*
X008081Y012464D01*
X009262Y012112D02*
X009350Y012112D01*
X009262Y012112D02*
X009262Y012480D01*
X009350Y012480D01*
X009350Y012112D01*
X009350Y012464D02*
X009262Y012464D01*
X010049Y012112D02*
X010137Y012112D01*
X010049Y012112D02*
X010049Y012480D01*
X010137Y012480D01*
X010137Y012112D01*
X010137Y012464D02*
X010049Y012464D01*
X012803Y009359D02*
X013171Y009359D01*
X012803Y009359D02*
X012803Y009447D01*
X013171Y009447D01*
X013171Y009359D01*
X013171Y008571D02*
X012803Y008571D01*
X012803Y008659D01*
X013171Y008659D01*
X013171Y008571D01*
X013171Y007390D02*
X012803Y007390D01*
X012803Y007478D01*
X013171Y007478D01*
X013171Y007390D01*
X013171Y006603D02*
X012803Y006603D01*
X012803Y006691D01*
X013171Y006691D01*
X013171Y006603D01*
X010137Y003569D02*
X010049Y003569D01*
X010049Y003937D01*
X010137Y003937D01*
X010137Y003569D01*
X010137Y003921D02*
X010049Y003921D01*
X009350Y003569D02*
X009262Y003569D01*
X009262Y003937D01*
X009350Y003937D01*
X009350Y003569D01*
X009350Y003921D02*
X009262Y003921D01*
X008169Y003569D02*
X008081Y003569D01*
X008081Y003937D01*
X008169Y003937D01*
X008169Y003569D01*
X008169Y003921D02*
X008081Y003921D01*
X007381Y003569D02*
X007293Y003569D01*
X007293Y003937D01*
X007381Y003937D01*
X007381Y003569D01*
X007381Y003921D02*
X007293Y003921D01*
X007381Y019711D02*
X007293Y019711D01*
X007293Y020079D01*
X007381Y020079D01*
X007381Y019711D01*
X007381Y020063D02*
X007293Y020063D01*
X008081Y019711D02*
X008169Y019711D01*
X008081Y019711D02*
X008081Y020079D01*
X008169Y020079D01*
X008169Y019711D01*
X008169Y020063D02*
X008081Y020063D01*
X009262Y019711D02*
X009350Y019711D01*
X009262Y019711D02*
X009262Y020079D01*
X009350Y020079D01*
X009350Y019711D01*
X009350Y020063D02*
X009262Y020063D01*
X010049Y019711D02*
X010137Y019711D01*
X010049Y019711D02*
X010049Y020079D01*
X010137Y020079D01*
X010137Y019711D01*
X010137Y020063D02*
X010049Y020063D01*
X010049Y021797D02*
X010137Y021797D01*
X010049Y021797D02*
X010049Y022165D01*
X010137Y022165D01*
X010137Y021797D01*
X010137Y022149D02*
X010049Y022149D01*
X009350Y021797D02*
X009262Y021797D01*
X009262Y022165D01*
X009350Y022165D01*
X009350Y021797D01*
X009350Y022149D02*
X009262Y022149D01*
X008169Y021797D02*
X008081Y021797D01*
X008081Y022165D01*
X008169Y022165D01*
X008169Y021797D01*
X008169Y022149D02*
X008081Y022149D01*
X007381Y021797D02*
X007293Y021797D01*
X007293Y022165D01*
X007381Y022165D01*
X007381Y021797D01*
X007381Y022149D02*
X007293Y022149D01*
X006714Y022744D02*
X006346Y022744D01*
X006346Y022832D01*
X006714Y022832D01*
X006714Y022744D01*
X006714Y023532D02*
X006346Y023532D01*
X006346Y023620D01*
X006714Y023620D01*
X006714Y023532D01*
X006714Y024713D02*
X006346Y024713D01*
X006346Y024801D01*
X006714Y024801D01*
X006714Y024713D01*
X006714Y025500D02*
X006346Y025500D01*
X006346Y025588D01*
X006714Y025588D01*
X006714Y025500D01*
X007293Y026167D02*
X007381Y026167D01*
X007293Y026167D02*
X007293Y026535D01*
X007381Y026535D01*
X007381Y026167D01*
X007381Y026519D02*
X007293Y026519D01*
X008081Y026167D02*
X008169Y026167D01*
X008081Y026167D02*
X008081Y026535D01*
X008169Y026535D01*
X008169Y026167D01*
X008169Y026519D02*
X008081Y026519D01*
X009262Y026167D02*
X009350Y026167D01*
X009262Y026167D02*
X009262Y026535D01*
X009350Y026535D01*
X009350Y026167D01*
X009350Y026519D02*
X009262Y026519D01*
X010049Y026167D02*
X010137Y026167D01*
X010049Y026167D02*
X010049Y026535D01*
X010137Y026535D01*
X010137Y026167D01*
X010137Y026519D02*
X010049Y026519D01*
X010716Y025500D02*
X011084Y025500D01*
X010716Y025500D02*
X010716Y025588D01*
X011084Y025588D01*
X011084Y025500D01*
X011084Y024713D02*
X010716Y024713D01*
X010716Y024801D01*
X011084Y024801D01*
X011084Y024713D01*
X011084Y023532D02*
X010716Y023532D01*
X010716Y023620D01*
X011084Y023620D01*
X011084Y023532D01*
X011084Y022744D02*
X010716Y022744D01*
X010716Y022832D01*
X011084Y022832D01*
X011084Y022744D01*
X012803Y022744D02*
X013171Y022744D01*
X012803Y022744D02*
X012803Y022832D01*
X013171Y022832D01*
X013171Y022744D01*
X013171Y023532D02*
X012803Y023532D01*
X012803Y023620D01*
X013171Y023620D01*
X013171Y023532D01*
X013171Y024713D02*
X012803Y024713D01*
X012803Y024801D01*
X013171Y024801D01*
X013171Y024713D01*
X013171Y025500D02*
X012803Y025500D01*
X012803Y025588D01*
X013171Y025588D01*
X013171Y025500D01*
X010137Y028254D02*
X010049Y028254D01*
X010049Y028622D01*
X010137Y028622D01*
X010137Y028254D01*
X010137Y028606D02*
X010049Y028606D01*
X009350Y028254D02*
X009262Y028254D01*
X009262Y028622D01*
X009350Y028622D01*
X009350Y028254D01*
X009350Y028606D02*
X009262Y028606D01*
X008169Y028254D02*
X008081Y028254D01*
X008081Y028622D01*
X008169Y028622D01*
X008169Y028254D01*
X008169Y028606D02*
X008081Y028606D01*
X007381Y028254D02*
X007293Y028254D01*
X007293Y028622D01*
X007381Y028622D01*
X007381Y028254D01*
X007381Y028606D02*
X007293Y028606D01*
X004628Y025500D02*
X004260Y025500D01*
X004260Y025588D01*
X004628Y025588D01*
X004628Y025500D01*
X004628Y024713D02*
X004260Y024713D01*
X004260Y024801D01*
X004628Y024801D01*
X004628Y024713D01*
X004628Y023532D02*
X004260Y023532D01*
X004260Y023620D01*
X004628Y023620D01*
X004628Y023532D01*
X004628Y022744D02*
X004260Y022744D01*
X004260Y022832D01*
X004628Y022832D01*
X004628Y022744D01*
X020401Y022744D02*
X020769Y022744D01*
X020401Y022744D02*
X020401Y022832D01*
X020769Y022832D01*
X020769Y022744D01*
X020769Y023532D02*
X020401Y023532D01*
X020401Y023620D01*
X020769Y023620D01*
X020769Y023532D01*
X020769Y024713D02*
X020401Y024713D01*
X020401Y024801D01*
X020769Y024801D01*
X020769Y024713D01*
X020769Y025500D02*
X020401Y025500D01*
X020401Y025588D01*
X020769Y025588D01*
X020769Y025500D01*
X022488Y025500D02*
X022856Y025500D01*
X022488Y025500D02*
X022488Y025588D01*
X022856Y025588D01*
X022856Y025500D01*
X022856Y024713D02*
X022488Y024713D01*
X022488Y024801D01*
X022856Y024801D01*
X022856Y024713D01*
X022856Y023532D02*
X022488Y023532D01*
X022488Y023620D01*
X022856Y023620D01*
X022856Y023532D01*
X022856Y022744D02*
X022488Y022744D01*
X022488Y022832D01*
X022856Y022832D01*
X022856Y022744D01*
X023435Y021797D02*
X023523Y021797D01*
X023435Y021797D02*
X023435Y022165D01*
X023523Y022165D01*
X023523Y021797D01*
X023523Y022149D02*
X023435Y022149D01*
X024222Y021797D02*
X024310Y021797D01*
X024222Y021797D02*
X024222Y022165D01*
X024310Y022165D01*
X024310Y021797D01*
X024310Y022149D02*
X024222Y022149D01*
X025404Y021797D02*
X025492Y021797D01*
X025404Y021797D02*
X025404Y022165D01*
X025492Y022165D01*
X025492Y021797D01*
X025492Y022149D02*
X025404Y022149D01*
X026191Y021797D02*
X026279Y021797D01*
X026191Y021797D02*
X026191Y022165D01*
X026279Y022165D01*
X026279Y021797D01*
X026279Y022149D02*
X026191Y022149D01*
X026858Y022744D02*
X027226Y022744D01*
X026858Y022744D02*
X026858Y022832D01*
X027226Y022832D01*
X027226Y022744D01*
X027226Y023532D02*
X026858Y023532D01*
X026858Y023620D01*
X027226Y023620D01*
X027226Y023532D01*
X027226Y024713D02*
X026858Y024713D01*
X026858Y024801D01*
X027226Y024801D01*
X027226Y024713D01*
X027226Y025500D02*
X026858Y025500D01*
X026858Y025588D01*
X027226Y025588D01*
X027226Y025500D01*
X026279Y026167D02*
X026191Y026167D01*
X026191Y026535D01*
X026279Y026535D01*
X026279Y026167D01*
X026279Y026519D02*
X026191Y026519D01*
X025492Y026167D02*
X025404Y026167D01*
X025404Y026535D01*
X025492Y026535D01*
X025492Y026167D01*
X025492Y026519D02*
X025404Y026519D01*
X024310Y026167D02*
X024222Y026167D01*
X024222Y026535D01*
X024310Y026535D01*
X024310Y026167D01*
X024310Y026519D02*
X024222Y026519D01*
X023523Y026167D02*
X023435Y026167D01*
X023435Y026535D01*
X023523Y026535D01*
X023523Y026167D01*
X023523Y026519D02*
X023435Y026519D01*
X023435Y028254D02*
X023523Y028254D01*
X023435Y028254D02*
X023435Y028622D01*
X023523Y028622D01*
X023523Y028254D01*
X023523Y028606D02*
X023435Y028606D01*
X024222Y028254D02*
X024310Y028254D01*
X024222Y028254D02*
X024222Y028622D01*
X024310Y028622D01*
X024310Y028254D01*
X024310Y028606D02*
X024222Y028606D01*
X025404Y028254D02*
X025492Y028254D01*
X025404Y028254D02*
X025404Y028622D01*
X025492Y028622D01*
X025492Y028254D01*
X025492Y028606D02*
X025404Y028606D01*
X026191Y028254D02*
X026279Y028254D01*
X026191Y028254D02*
X026191Y028622D01*
X026279Y028622D01*
X026279Y028254D01*
X026279Y028606D02*
X026191Y028606D01*
X028945Y025500D02*
X029313Y025500D01*
X028945Y025500D02*
X028945Y025588D01*
X029313Y025588D01*
X029313Y025500D01*
X029313Y024713D02*
X028945Y024713D01*
X028945Y024801D01*
X029313Y024801D01*
X029313Y024713D01*
X029313Y023532D02*
X028945Y023532D01*
X028945Y023620D01*
X029313Y023620D01*
X029313Y023532D01*
X029313Y022744D02*
X028945Y022744D01*
X028945Y022832D01*
X029313Y022832D01*
X029313Y022744D01*
X026279Y019711D02*
X026191Y019711D01*
X026191Y020079D01*
X026279Y020079D01*
X026279Y019711D01*
X026279Y020063D02*
X026191Y020063D01*
X025492Y019711D02*
X025404Y019711D01*
X025404Y020079D01*
X025492Y020079D01*
X025492Y019711D01*
X025492Y020063D02*
X025404Y020063D01*
X024310Y019711D02*
X024222Y019711D01*
X024222Y020079D01*
X024310Y020079D01*
X024310Y019711D01*
X024310Y020063D02*
X024222Y020063D01*
X023523Y019711D02*
X023435Y019711D01*
X023435Y020079D01*
X023523Y020079D01*
X023523Y019711D01*
X023523Y020063D02*
X023435Y020063D01*
D13*
X015605Y018458D03*
X015605Y017277D03*
X014424Y017277D03*
X012849Y020032D03*
X011668Y020032D03*
X011668Y021214D03*
X012849Y021214D03*
D14*
X007416Y022936D03*
X007416Y023428D03*
X007416Y023920D03*
X007416Y024412D03*
X007416Y024904D03*
X007416Y025397D03*
D15*
X008243Y024403D03*
X008243Y023930D03*
X009188Y023931D03*
X009188Y024401D03*
X024385Y024402D03*
X024385Y023932D03*
X025329Y023930D03*
X025329Y024403D03*
X009148Y008259D03*
X009148Y007789D03*
X008203Y007788D03*
X008203Y008261D03*
D16*
X014227Y010560D03*
X014227Y011560D03*
X014227Y012560D03*
X014227Y013560D03*
X018089Y017414D03*
X019089Y017414D03*
X020089Y017414D03*
X020637Y029674D03*
X021637Y029674D03*
X022637Y029674D03*
X014152Y002513D03*
X013152Y002513D03*
X012152Y002513D03*
X011152Y002513D03*
M02*
