G75*
G70*
%OFA0B0*%
%FSLAX24Y24*%
%IPPOS*%
%LPD*%
%AMOC8*
5,1,8,0,0,1.08239X$1,22.5*
%
%ADD10C,0.0000*%
%ADD11C,0.0353*%
%ADD12OC8,0.0850*%
%ADD13C,0.0400*%
%ADD14R,0.0531X0.0256*%
%ADD15C,0.0700*%
%ADD16C,0.0700*%
%ADD17C,0.1000*%
%ADD18C,0.0360*%
%ADD19C,0.0500*%
%ADD20C,0.0400*%
%ADD21C,0.0320*%
%ADD22C,0.0160*%
%ADD23C,0.0100*%
%ADD24C,0.0240*%
%ADD25C,0.0560*%
%ADD26C,0.0660*%
%ADD27C,0.1102*%
%ADD28C,0.0120*%
D10*
X023676Y031647D02*
X032337Y022985D01*
X032337Y016686D01*
X017377Y016686D01*
X017377Y031647D01*
X023676Y031647D01*
X016196Y031647D02*
X016196Y016686D01*
X001235Y016686D01*
X001235Y022985D01*
X009896Y031647D01*
X016196Y031647D01*
X016196Y015505D02*
X001235Y015505D01*
X001235Y009206D01*
X009896Y000544D01*
X016196Y000544D01*
X016196Y015505D01*
D11*
X010137Y012112D02*
X010049Y012112D01*
X010049Y012480D01*
X010137Y012480D01*
X010137Y012112D01*
X010137Y012464D02*
X010049Y012464D01*
X009350Y012112D02*
X009262Y012112D01*
X009262Y012480D01*
X009350Y012480D01*
X009350Y012112D01*
X009350Y012464D02*
X009262Y012464D01*
X008169Y012112D02*
X008081Y012112D01*
X008081Y012480D01*
X008169Y012480D01*
X008169Y012112D01*
X008169Y012464D02*
X008081Y012464D01*
X007381Y012112D02*
X007293Y012112D01*
X007293Y012480D01*
X007381Y012480D01*
X007381Y012112D01*
X007381Y012464D02*
X007293Y012464D01*
X007293Y010026D02*
X007381Y010026D01*
X007293Y010026D02*
X007293Y010394D01*
X007381Y010394D01*
X007381Y010026D01*
X007381Y010378D02*
X007293Y010378D01*
X008081Y010026D02*
X008169Y010026D01*
X008081Y010026D02*
X008081Y010394D01*
X008169Y010394D01*
X008169Y010026D01*
X008169Y010378D02*
X008081Y010378D01*
X009262Y010026D02*
X009350Y010026D01*
X009262Y010026D02*
X009262Y010394D01*
X009350Y010394D01*
X009350Y010026D01*
X009350Y010378D02*
X009262Y010378D01*
X010049Y010026D02*
X010137Y010026D01*
X010049Y010026D02*
X010049Y010394D01*
X010137Y010394D01*
X010137Y010026D01*
X010137Y010378D02*
X010049Y010378D01*
X010716Y009359D02*
X011084Y009359D01*
X010716Y009359D02*
X010716Y009447D01*
X011084Y009447D01*
X011084Y009359D01*
X011084Y008571D02*
X010716Y008571D01*
X010716Y008659D01*
X011084Y008659D01*
X011084Y008571D01*
X011084Y007390D02*
X010716Y007390D01*
X010716Y007478D01*
X011084Y007478D01*
X011084Y007390D01*
X011084Y006603D02*
X010716Y006603D01*
X010716Y006691D01*
X011084Y006691D01*
X011084Y006603D01*
X010137Y005656D02*
X010049Y005656D01*
X010049Y006024D01*
X010137Y006024D01*
X010137Y005656D01*
X010137Y006008D02*
X010049Y006008D01*
X009350Y005656D02*
X009262Y005656D01*
X009262Y006024D01*
X009350Y006024D01*
X009350Y005656D01*
X009350Y006008D02*
X009262Y006008D01*
X008169Y005656D02*
X008081Y005656D01*
X008081Y006024D01*
X008169Y006024D01*
X008169Y005656D01*
X008169Y006008D02*
X008081Y006008D01*
X007381Y005656D02*
X007293Y005656D01*
X007293Y006024D01*
X007381Y006024D01*
X007381Y005656D01*
X007381Y006008D02*
X007293Y006008D01*
X006714Y006603D02*
X006346Y006603D01*
X006346Y006691D01*
X006714Y006691D01*
X006714Y006603D01*
X006714Y007390D02*
X006346Y007390D01*
X006346Y007478D01*
X006714Y007478D01*
X006714Y007390D01*
X006714Y008571D02*
X006346Y008571D01*
X006346Y008659D01*
X006714Y008659D01*
X006714Y008571D01*
X006714Y009359D02*
X006346Y009359D01*
X006346Y009447D01*
X006714Y009447D01*
X006714Y009359D01*
X004628Y009359D02*
X004260Y009359D01*
X004260Y009447D01*
X004628Y009447D01*
X004628Y009359D01*
X004628Y008571D02*
X004260Y008571D01*
X004260Y008659D01*
X004628Y008659D01*
X004628Y008571D01*
X004628Y007390D02*
X004260Y007390D01*
X004260Y007478D01*
X004628Y007478D01*
X004628Y007390D01*
X004628Y006603D02*
X004260Y006603D01*
X004260Y006691D01*
X004628Y006691D01*
X004628Y006603D01*
X007293Y003569D02*
X007381Y003569D01*
X007293Y003569D02*
X007293Y003937D01*
X007381Y003937D01*
X007381Y003569D01*
X007381Y003921D02*
X007293Y003921D01*
X008081Y003569D02*
X008169Y003569D01*
X008081Y003569D02*
X008081Y003937D01*
X008169Y003937D01*
X008169Y003569D01*
X008169Y003921D02*
X008081Y003921D01*
X009262Y003569D02*
X009350Y003569D01*
X009262Y003569D02*
X009262Y003937D01*
X009350Y003937D01*
X009350Y003569D01*
X009350Y003921D02*
X009262Y003921D01*
X010049Y003569D02*
X010137Y003569D01*
X010049Y003569D02*
X010049Y003937D01*
X010137Y003937D01*
X010137Y003569D01*
X010137Y003921D02*
X010049Y003921D01*
X012803Y006603D02*
X013171Y006603D01*
X012803Y006603D02*
X012803Y006691D01*
X013171Y006691D01*
X013171Y006603D01*
X013171Y007390D02*
X012803Y007390D01*
X012803Y007478D01*
X013171Y007478D01*
X013171Y007390D01*
X013171Y008571D02*
X012803Y008571D01*
X012803Y008659D01*
X013171Y008659D01*
X013171Y008571D01*
X013171Y009359D02*
X012803Y009359D01*
X012803Y009447D01*
X013171Y009447D01*
X013171Y009359D01*
X010137Y019711D02*
X010049Y019711D01*
X010049Y020079D01*
X010137Y020079D01*
X010137Y019711D01*
X010137Y020063D02*
X010049Y020063D01*
X009350Y019711D02*
X009262Y019711D01*
X009262Y020079D01*
X009350Y020079D01*
X009350Y019711D01*
X009350Y020063D02*
X009262Y020063D01*
X008169Y019711D02*
X008081Y019711D01*
X008081Y020079D01*
X008169Y020079D01*
X008169Y019711D01*
X008169Y020063D02*
X008081Y020063D01*
X007381Y019711D02*
X007293Y019711D01*
X007293Y020079D01*
X007381Y020079D01*
X007381Y019711D01*
X007381Y020063D02*
X007293Y020063D01*
X007293Y021797D02*
X007381Y021797D01*
X007293Y021797D02*
X007293Y022165D01*
X007381Y022165D01*
X007381Y021797D01*
X007381Y022149D02*
X007293Y022149D01*
X006714Y022744D02*
X006346Y022744D01*
X006346Y022832D01*
X006714Y022832D01*
X006714Y022744D01*
X006714Y023532D02*
X006346Y023532D01*
X006346Y023620D01*
X006714Y023620D01*
X006714Y023532D01*
X006714Y024713D02*
X006346Y024713D01*
X006346Y024801D01*
X006714Y024801D01*
X006714Y024713D01*
X006714Y025500D02*
X006346Y025500D01*
X006346Y025588D01*
X006714Y025588D01*
X006714Y025500D01*
X007293Y026167D02*
X007381Y026167D01*
X007293Y026167D02*
X007293Y026535D01*
X007381Y026535D01*
X007381Y026167D01*
X007381Y026519D02*
X007293Y026519D01*
X008081Y026167D02*
X008169Y026167D01*
X008081Y026167D02*
X008081Y026535D01*
X008169Y026535D01*
X008169Y026167D01*
X008169Y026519D02*
X008081Y026519D01*
X009262Y026167D02*
X009350Y026167D01*
X009262Y026167D02*
X009262Y026535D01*
X009350Y026535D01*
X009350Y026167D01*
X009350Y026519D02*
X009262Y026519D01*
X010049Y026167D02*
X010137Y026167D01*
X010049Y026167D02*
X010049Y026535D01*
X010137Y026535D01*
X010137Y026167D01*
X010137Y026519D02*
X010049Y026519D01*
X010716Y025500D02*
X011084Y025500D01*
X010716Y025500D02*
X010716Y025588D01*
X011084Y025588D01*
X011084Y025500D01*
X011084Y024713D02*
X010716Y024713D01*
X010716Y024801D01*
X011084Y024801D01*
X011084Y024713D01*
X011084Y023532D02*
X010716Y023532D01*
X010716Y023620D01*
X011084Y023620D01*
X011084Y023532D01*
X011084Y022744D02*
X010716Y022744D01*
X010716Y022832D01*
X011084Y022832D01*
X011084Y022744D01*
X010137Y021797D02*
X010049Y021797D01*
X010049Y022165D01*
X010137Y022165D01*
X010137Y021797D01*
X010137Y022149D02*
X010049Y022149D01*
X009350Y021797D02*
X009262Y021797D01*
X009262Y022165D01*
X009350Y022165D01*
X009350Y021797D01*
X009350Y022149D02*
X009262Y022149D01*
X008169Y021797D02*
X008081Y021797D01*
X008081Y022165D01*
X008169Y022165D01*
X008169Y021797D01*
X008169Y022149D02*
X008081Y022149D01*
X004628Y022744D02*
X004260Y022744D01*
X004260Y022832D01*
X004628Y022832D01*
X004628Y022744D01*
X004628Y023532D02*
X004260Y023532D01*
X004260Y023620D01*
X004628Y023620D01*
X004628Y023532D01*
X004628Y024713D02*
X004260Y024713D01*
X004260Y024801D01*
X004628Y024801D01*
X004628Y024713D01*
X004628Y025500D02*
X004260Y025500D01*
X004260Y025588D01*
X004628Y025588D01*
X004628Y025500D01*
X007293Y028254D02*
X007381Y028254D01*
X007293Y028254D02*
X007293Y028622D01*
X007381Y028622D01*
X007381Y028254D01*
X007381Y028606D02*
X007293Y028606D01*
X008081Y028254D02*
X008169Y028254D01*
X008081Y028254D02*
X008081Y028622D01*
X008169Y028622D01*
X008169Y028254D01*
X008169Y028606D02*
X008081Y028606D01*
X009262Y028254D02*
X009350Y028254D01*
X009262Y028254D02*
X009262Y028622D01*
X009350Y028622D01*
X009350Y028254D01*
X009350Y028606D02*
X009262Y028606D01*
X010049Y028254D02*
X010137Y028254D01*
X010049Y028254D02*
X010049Y028622D01*
X010137Y028622D01*
X010137Y028254D01*
X010137Y028606D02*
X010049Y028606D01*
X012803Y025500D02*
X013171Y025500D01*
X012803Y025500D02*
X012803Y025588D01*
X013171Y025588D01*
X013171Y025500D01*
X013171Y024713D02*
X012803Y024713D01*
X012803Y024801D01*
X013171Y024801D01*
X013171Y024713D01*
X013171Y023532D02*
X012803Y023532D01*
X012803Y023620D01*
X013171Y023620D01*
X013171Y023532D01*
X013171Y022744D02*
X012803Y022744D01*
X012803Y022832D01*
X013171Y022832D01*
X013171Y022744D01*
X020401Y022744D02*
X020769Y022744D01*
X020401Y022744D02*
X020401Y022832D01*
X020769Y022832D01*
X020769Y022744D01*
X020769Y023532D02*
X020401Y023532D01*
X020401Y023620D01*
X020769Y023620D01*
X020769Y023532D01*
X020769Y024713D02*
X020401Y024713D01*
X020401Y024801D01*
X020769Y024801D01*
X020769Y024713D01*
X020769Y025500D02*
X020401Y025500D01*
X020401Y025588D01*
X020769Y025588D01*
X020769Y025500D01*
X022488Y025500D02*
X022856Y025500D01*
X022488Y025500D02*
X022488Y025588D01*
X022856Y025588D01*
X022856Y025500D01*
X022856Y024713D02*
X022488Y024713D01*
X022488Y024801D01*
X022856Y024801D01*
X022856Y024713D01*
X022856Y023532D02*
X022488Y023532D01*
X022488Y023620D01*
X022856Y023620D01*
X022856Y023532D01*
X022856Y022744D02*
X022488Y022744D01*
X022488Y022832D01*
X022856Y022832D01*
X022856Y022744D01*
X023435Y021797D02*
X023523Y021797D01*
X023435Y021797D02*
X023435Y022165D01*
X023523Y022165D01*
X023523Y021797D01*
X023523Y022149D02*
X023435Y022149D01*
X024222Y021797D02*
X024310Y021797D01*
X024222Y021797D02*
X024222Y022165D01*
X024310Y022165D01*
X024310Y021797D01*
X024310Y022149D02*
X024222Y022149D01*
X025404Y021797D02*
X025492Y021797D01*
X025404Y021797D02*
X025404Y022165D01*
X025492Y022165D01*
X025492Y021797D01*
X025492Y022149D02*
X025404Y022149D01*
X026191Y021797D02*
X026279Y021797D01*
X026191Y021797D02*
X026191Y022165D01*
X026279Y022165D01*
X026279Y021797D01*
X026279Y022149D02*
X026191Y022149D01*
X026858Y022744D02*
X027226Y022744D01*
X026858Y022744D02*
X026858Y022832D01*
X027226Y022832D01*
X027226Y022744D01*
X027226Y023532D02*
X026858Y023532D01*
X026858Y023620D01*
X027226Y023620D01*
X027226Y023532D01*
X027226Y024713D02*
X026858Y024713D01*
X026858Y024801D01*
X027226Y024801D01*
X027226Y024713D01*
X027226Y025500D02*
X026858Y025500D01*
X026858Y025588D01*
X027226Y025588D01*
X027226Y025500D01*
X026279Y026167D02*
X026191Y026167D01*
X026191Y026535D01*
X026279Y026535D01*
X026279Y026167D01*
X026279Y026519D02*
X026191Y026519D01*
X025492Y026167D02*
X025404Y026167D01*
X025404Y026535D01*
X025492Y026535D01*
X025492Y026167D01*
X025492Y026519D02*
X025404Y026519D01*
X024310Y026167D02*
X024222Y026167D01*
X024222Y026535D01*
X024310Y026535D01*
X024310Y026167D01*
X024310Y026519D02*
X024222Y026519D01*
X023523Y026167D02*
X023435Y026167D01*
X023435Y026535D01*
X023523Y026535D01*
X023523Y026167D01*
X023523Y026519D02*
X023435Y026519D01*
X023435Y028254D02*
X023523Y028254D01*
X023435Y028254D02*
X023435Y028622D01*
X023523Y028622D01*
X023523Y028254D01*
X023523Y028606D02*
X023435Y028606D01*
X024222Y028254D02*
X024310Y028254D01*
X024222Y028254D02*
X024222Y028622D01*
X024310Y028622D01*
X024310Y028254D01*
X024310Y028606D02*
X024222Y028606D01*
X025404Y028254D02*
X025492Y028254D01*
X025404Y028254D02*
X025404Y028622D01*
X025492Y028622D01*
X025492Y028254D01*
X025492Y028606D02*
X025404Y028606D01*
X026191Y028254D02*
X026279Y028254D01*
X026191Y028254D02*
X026191Y028622D01*
X026279Y028622D01*
X026279Y028254D01*
X026279Y028606D02*
X026191Y028606D01*
X028945Y025500D02*
X029313Y025500D01*
X028945Y025500D02*
X028945Y025588D01*
X029313Y025588D01*
X029313Y025500D01*
X029313Y024713D02*
X028945Y024713D01*
X028945Y024801D01*
X029313Y024801D01*
X029313Y024713D01*
X029313Y023532D02*
X028945Y023532D01*
X028945Y023620D01*
X029313Y023620D01*
X029313Y023532D01*
X029313Y022744D02*
X028945Y022744D01*
X028945Y022832D01*
X029313Y022832D01*
X029313Y022744D01*
X026279Y019711D02*
X026191Y019711D01*
X026191Y020079D01*
X026279Y020079D01*
X026279Y019711D01*
X026279Y020063D02*
X026191Y020063D01*
X025492Y019711D02*
X025404Y019711D01*
X025404Y020079D01*
X025492Y020079D01*
X025492Y019711D01*
X025492Y020063D02*
X025404Y020063D01*
X024310Y019711D02*
X024222Y019711D01*
X024222Y020079D01*
X024310Y020079D01*
X024310Y019711D01*
X024310Y020063D02*
X024222Y020063D01*
X023523Y019711D02*
X023435Y019711D01*
X023435Y020079D01*
X023523Y020079D01*
X023523Y019711D01*
X023523Y020063D02*
X023435Y020063D01*
D12*
X015605Y018458D03*
X015605Y017277D03*
X014424Y017277D03*
X012849Y020032D03*
X011668Y020032D03*
X011668Y021214D03*
X012849Y021214D03*
D13*
X007416Y022936D03*
X007416Y023428D03*
X007416Y023920D03*
X007416Y024412D03*
X007416Y024904D03*
X007416Y025397D03*
D14*
X008243Y024403D03*
X008243Y023930D03*
X009188Y023931D03*
X009188Y024401D03*
X024385Y024402D03*
X024385Y023932D03*
X025329Y023930D03*
X025329Y024403D03*
X009148Y008259D03*
X009148Y007789D03*
X008203Y007788D03*
X008203Y008261D03*
D15*
X014227Y010560D03*
X014227Y011560D03*
X014227Y012560D03*
X014227Y013560D03*
X018089Y017414D03*
X019089Y017414D03*
X020089Y017414D03*
X020637Y029674D03*
X021637Y029674D03*
X022637Y029674D03*
X014152Y002513D03*
X013152Y002513D03*
X012152Y002513D03*
X011152Y002513D03*
D16*
X015605Y018458D02*
X015605Y021312D01*
X015566Y021351D01*
X015566Y021214D01*
D17*
X015566Y023576D01*
X015566Y024757D01*
X015566Y031036D01*
X015566Y021214D02*
X012849Y021214D01*
X030389Y023910D02*
X031629Y022670D01*
D18*
X028105Y022946D03*
X026314Y024442D03*
X025940Y024737D03*
X025054Y024993D03*
X023459Y024599D03*
X022022Y024324D03*
X021255Y026214D03*
X020802Y026115D03*
X020408Y027375D03*
X019070Y025840D03*
X019070Y024855D03*
X018991Y024166D03*
X019070Y023497D03*
X019070Y022099D03*
X019070Y021509D03*
X019070Y020918D03*
X014567Y022794D03*
X013164Y024265D03*
X012751Y024068D03*
X012455Y023103D03*
X012396Y022572D03*
X011570Y022296D03*
X010999Y022296D03*
X010566Y022139D03*
X009070Y020997D03*
X009109Y020544D03*
X008814Y020091D03*
X007377Y020525D03*
X006963Y020721D03*
X006629Y021056D03*
X006727Y021824D03*
X006117Y021942D03*
X005349Y024206D03*
X003735Y024166D03*
X002652Y021922D03*
X003144Y021469D03*
X004995Y018615D03*
X006707Y018517D03*
X007537Y018534D03*
X010088Y018059D03*
X010979Y013812D03*
X011570Y013792D03*
X012160Y013812D03*
X011137Y011430D03*
X010979Y010918D03*
X009660Y011076D03*
X009345Y011430D03*
X008755Y011765D03*
X008755Y010741D03*
X009955Y009363D03*
X009601Y008733D03*
X009542Y007119D03*
X007829Y007237D03*
X007534Y007769D03*
X007534Y008399D03*
X007829Y008812D03*
X005940Y009186D03*
X005113Y009501D03*
X005487Y010170D03*
X004168Y011076D03*
X004483Y011430D03*
X002948Y011371D03*
X006058Y013674D03*
X007829Y013674D03*
X008420Y013674D03*
X009306Y013714D03*
X012062Y009914D03*
X014562Y008025D03*
X011589Y006332D03*
X010861Y004836D03*
X008715Y003123D03*
X005487Y008143D03*
X003774Y008025D03*
X004011Y017080D03*
X002928Y017158D03*
X010310Y024265D03*
X008715Y026214D03*
X009481Y027353D03*
X009877Y027552D03*
X010211Y026980D03*
X010631Y026374D03*
X011255Y026548D03*
X011077Y027395D03*
X012357Y025662D03*
X014522Y025525D03*
X012775Y029910D03*
X011077Y029875D03*
X008912Y029422D03*
X008892Y027788D03*
X015566Y031036D03*
X022101Y027690D03*
X022377Y027178D03*
X022357Y026647D03*
X024837Y029127D03*
X028066Y026017D03*
X025014Y020741D03*
X013991Y004009D03*
D19*
X012987Y007434D02*
X012987Y008025D01*
X012987Y008615D01*
X012987Y008025D02*
X014562Y008025D01*
X009306Y012296D02*
X009306Y013714D01*
X009306Y012296D02*
X009286Y012277D01*
X009266Y012296D01*
X008125Y012296D01*
X004444Y008615D02*
X004444Y008025D01*
X004444Y007434D01*
X004444Y008025D02*
X003774Y008025D01*
X008125Y003753D02*
X008696Y003753D01*
X009306Y003753D01*
X008715Y003733D02*
X008715Y003123D01*
X008715Y003733D02*
X008696Y003753D01*
X010093Y001529D02*
X009995Y001430D01*
X010088Y018059D02*
X010093Y019895D01*
X007537Y018534D02*
X007337Y018536D01*
X007337Y019895D01*
X004444Y023576D02*
X004444Y024166D01*
X003735Y024166D01*
X003715Y024166D01*
X004444Y024166D02*
X004444Y024757D01*
X008125Y028438D02*
X008715Y028438D01*
X009306Y028438D01*
X008715Y028438D02*
X008715Y029225D01*
X008912Y029422D01*
X008794Y030032D02*
X011058Y030032D01*
X011077Y029875D02*
X010093Y028891D01*
X012987Y025544D02*
X014323Y025549D01*
X014503Y025662D01*
X015566Y024757D02*
X015625Y024757D01*
X014567Y022794D02*
X014227Y022788D01*
X012987Y022788D01*
X018991Y024166D02*
X020585Y024166D01*
X020585Y023576D01*
X020585Y024166D02*
X020585Y024757D01*
X024266Y019895D02*
X025448Y019895D01*
D20*
X026235Y019895D02*
X026235Y017395D01*
X023479Y017395D02*
X023479Y019895D01*
X024877Y020702D02*
X025014Y020741D01*
X023479Y017395D02*
X023479Y017375D01*
X020585Y022788D02*
X018085Y022788D01*
X018085Y023497D02*
X019070Y023497D01*
X019070Y024855D02*
X018085Y024855D01*
X018085Y025544D02*
X020585Y025544D01*
X019070Y025840D02*
X018085Y025840D01*
X015566Y024757D02*
X012987Y024757D01*
X012987Y023576D02*
X015566Y023576D01*
X010093Y028438D02*
X010093Y028891D01*
X008735Y030032D02*
X007337Y028635D01*
X004444Y022788D02*
X001629Y022769D01*
X001609Y022788D01*
X007337Y014816D02*
X007337Y012296D01*
X008125Y012296D02*
X009306Y012296D01*
X010093Y012296D02*
X010093Y014816D01*
X014227Y013560D02*
X015542Y013560D01*
X015479Y009422D02*
X015467Y009422D01*
X015448Y009403D01*
X012987Y009403D01*
X012987Y006647D02*
X015475Y006647D01*
X014152Y002513D02*
X014152Y001277D01*
X010093Y001529D02*
X010093Y003753D01*
X009326Y002099D02*
X009011Y001922D01*
X007315Y003613D01*
X007337Y003654D01*
X007337Y003753D01*
X007315Y003613D02*
X004344Y006587D01*
X004404Y006647D01*
X004444Y006647D01*
X004344Y006587D02*
X002613Y008320D01*
X003105Y008359D02*
X002042Y009422D01*
X002022Y009403D01*
X003105Y008359D02*
X004129Y009403D01*
X004444Y009403D01*
X024266Y028438D02*
X024837Y028438D01*
X024837Y029127D01*
X024837Y028438D02*
X025448Y028438D01*
X029129Y024757D02*
X029129Y024225D01*
X028479Y024225D01*
X029129Y024225D02*
X029129Y023576D01*
D21*
X029129Y022788D02*
X029266Y022788D01*
X030389Y023910D01*
X031629Y022670D02*
X031826Y022867D01*
X031826Y023025D01*
X029306Y025544D01*
X028459Y026391D01*
X028440Y026391D01*
X028066Y026017D01*
X028459Y026391D02*
X029129Y025721D01*
X029129Y025544D01*
X029306Y025544D01*
X028459Y026391D02*
X026235Y028615D01*
X026235Y028635D01*
X026235Y028615D02*
X024709Y030141D01*
X024148Y029560D01*
X024148Y029304D01*
X023479Y028635D01*
X023479Y028438D01*
X024709Y030141D02*
X024503Y030347D01*
X024266Y026351D02*
X025428Y026351D01*
X025448Y026371D01*
X025448Y026351D01*
X025448Y026056D01*
X026747Y024757D01*
X027003Y024757D01*
X027022Y024737D01*
X027042Y024757D01*
X027042Y023576D01*
X026766Y023576D01*
X025448Y022257D01*
X025448Y021981D01*
X024306Y021981D01*
X024286Y021962D01*
X024266Y021981D01*
X024266Y022099D02*
X024266Y022257D01*
X022967Y023556D01*
X022948Y023576D02*
X022672Y023576D01*
X022672Y024757D01*
X022928Y024777D01*
X023203Y025052D01*
X023715Y025544D01*
X024266Y026095D01*
X024266Y026351D01*
X022613Y024324D02*
X022022Y024324D01*
X024818Y020662D02*
X024877Y020702D01*
X024818Y020662D02*
X024837Y019934D01*
X024877Y019895D01*
X025448Y019895D01*
X028105Y022946D02*
X028105Y023851D01*
X028479Y024225D01*
X013164Y024265D02*
X013164Y024580D01*
X011117Y024757D02*
X011117Y023576D01*
X010703Y023576D02*
X010467Y023576D01*
X009286Y022395D01*
X009286Y021784D01*
X008125Y021784D02*
X008125Y021903D01*
X008125Y021981D01*
X009109Y020544D02*
X010999Y020544D01*
X011668Y021214D01*
X009326Y020091D02*
X009306Y020072D01*
X009306Y019895D01*
X009326Y020091D02*
X008814Y020091D01*
X008125Y020091D01*
X008125Y019895D01*
X008125Y018221D01*
X007711Y017808D01*
X006707Y017808D01*
X006707Y018517D01*
X006707Y017808D02*
X005802Y017808D01*
X004995Y018615D01*
X004011Y017080D02*
X002652Y018438D01*
X002652Y021922D01*
X006530Y023576D02*
X006530Y024757D01*
X008105Y026351D02*
X008125Y026351D01*
X009326Y026076D02*
X009483Y026076D01*
X010743Y024816D01*
X010900Y024757D02*
X011117Y024757D01*
X010644Y026371D02*
X010644Y027296D01*
X010644Y027906D01*
X010644Y028595D01*
X011668Y029639D01*
X012514Y029639D01*
X012775Y029910D01*
X009306Y010210D02*
X008125Y010210D01*
X008125Y010032D01*
X006707Y008615D01*
X006530Y008615D01*
X006530Y007434D02*
X006747Y007434D01*
X008125Y006056D01*
X008125Y005840D02*
X009306Y005840D01*
X009326Y005840D01*
X009306Y005840D02*
X009306Y006095D01*
X010644Y007434D01*
X010900Y007434D02*
X010900Y008615D01*
X010703Y008615D01*
X009955Y009363D01*
X009306Y010013D01*
X009306Y010210D01*
X002770Y008654D02*
X002613Y008320D01*
D22*
X012987Y024757D02*
X013007Y024757D01*
X009306Y026351D02*
X009306Y026647D01*
X008125Y026647D01*
X008125Y026351D01*
D23*
X004975Y007198D02*
X006333Y005840D01*
X007337Y005840D01*
X007337Y005525D01*
X007593Y005269D01*
X009483Y005269D01*
X010054Y005840D01*
X010093Y005840D01*
X010900Y006647D02*
X010900Y006686D01*
X011373Y006686D01*
X011865Y007178D01*
X011865Y009658D01*
X011747Y009777D01*
X011747Y010249D01*
X010900Y009403D01*
X010093Y010210D02*
X010054Y010210D01*
X009522Y010741D01*
X008755Y010741D01*
X007337Y010741D01*
X007337Y010210D01*
X006530Y009403D02*
X006156Y009403D01*
X005999Y009245D01*
X005999Y007257D01*
X006530Y006725D01*
X006530Y006647D01*
X007534Y007769D02*
X008164Y007769D01*
X008184Y007788D01*
X008203Y007788D01*
X008046Y007454D02*
X008794Y007454D01*
X009130Y007789D01*
X009148Y007789D01*
X009542Y007395D02*
X009601Y007454D01*
X009601Y008733D01*
X009148Y008261D02*
X008833Y008576D01*
X008066Y008576D01*
X007829Y008812D01*
X007534Y008399D02*
X007731Y008202D01*
X008125Y008202D01*
X008184Y008261D01*
X008203Y008261D01*
X008046Y007454D02*
X007829Y007237D01*
X008125Y006056D02*
X008125Y005879D01*
X008105Y005859D01*
X008125Y005840D01*
X009542Y007119D02*
X009542Y007395D01*
X009148Y008259D02*
X009148Y008261D01*
X010644Y007434D02*
X010900Y007434D01*
X012062Y006351D02*
X012062Y009914D01*
X011747Y010249D02*
X011747Y011292D01*
X011274Y011765D01*
X008755Y011765D01*
X003341Y011765D01*
X002948Y011371D01*
X004168Y011076D02*
X009660Y011076D01*
X009680Y011056D01*
X010841Y011056D01*
X010979Y010918D01*
X011137Y011430D02*
X011038Y011529D01*
X009444Y011529D01*
X009345Y011430D01*
X004483Y011430D01*
X005487Y010170D02*
X005487Y008143D01*
X004975Y007198D02*
X004975Y009363D01*
X005113Y009501D01*
X005940Y009186D02*
X006156Y009403D01*
X010861Y004836D02*
X010841Y003300D01*
X011018Y003123D01*
X011806Y003123D01*
X012152Y002777D01*
X012152Y002513D01*
X013144Y002513D02*
X013152Y002513D01*
X013144Y002513D02*
X013999Y003367D01*
X013999Y004009D01*
X013991Y004009D01*
X013999Y004009D02*
X013999Y004414D01*
X012062Y006351D01*
X014152Y001277D02*
X014148Y001273D01*
X015485Y013556D02*
X015546Y013556D01*
X015546Y013556D01*
X015542Y013560D01*
X011314Y017434D02*
X012849Y018969D01*
X012849Y020032D01*
X012121Y022296D02*
X011570Y022296D01*
X011570Y022611D02*
X012062Y023103D01*
X012455Y023103D01*
X012396Y022572D02*
X012121Y022296D01*
X011570Y022611D02*
X011373Y022611D01*
X011058Y022296D01*
X010999Y022296D01*
X010566Y022139D02*
X010566Y021666D01*
X010369Y021469D01*
X009542Y021469D01*
X009070Y020997D01*
X008755Y021115D02*
X008755Y020741D01*
X008951Y020544D01*
X009109Y020544D01*
X008755Y021115D02*
X009286Y021647D01*
X009286Y021784D01*
X009286Y021942D01*
X009306Y021962D01*
X009306Y021981D01*
X008912Y021529D02*
X008912Y022788D01*
X009759Y023635D01*
X009759Y024206D01*
X009581Y024383D01*
X009188Y024383D01*
X009188Y024401D01*
X009188Y023931D02*
X009188Y023930D01*
X008696Y023438D01*
X008696Y021588D01*
X008184Y021076D01*
X007928Y021076D01*
X007790Y020938D01*
X007180Y020938D01*
X006963Y020721D01*
X007377Y020525D02*
X007633Y020525D01*
X007987Y020879D01*
X008263Y020879D01*
X008912Y021529D01*
X008479Y021647D02*
X008479Y022316D01*
X008243Y022552D01*
X008243Y023930D01*
X008243Y024403D02*
X007416Y024403D01*
X007416Y024412D01*
X007416Y024422D01*
X007042Y024796D01*
X007042Y025820D01*
X006904Y025958D01*
X006904Y026627D01*
X007318Y027040D01*
X009818Y027040D01*
X010074Y027296D01*
X010644Y027296D01*
X010940Y026883D02*
X011264Y027208D01*
X011077Y027395D01*
X011264Y027208D02*
X011570Y026903D01*
X011570Y026725D01*
X011589Y026706D01*
X011589Y022887D01*
X011491Y022788D01*
X010900Y022788D01*
X010625Y023182D02*
X011412Y023182D01*
X011412Y026548D01*
X011255Y026548D01*
X011077Y026253D02*
X010940Y026391D01*
X010940Y026883D01*
X010644Y026371D02*
X010631Y026374D01*
X010211Y026588D02*
X010211Y026980D01*
X010211Y026588D02*
X010093Y026588D01*
X009818Y026863D01*
X007495Y026863D01*
X007337Y026706D01*
X007337Y026351D01*
X007022Y027257D02*
X009483Y027257D01*
X009481Y027353D01*
X009326Y027690D02*
X009739Y027690D01*
X009877Y027552D01*
X009326Y027690D02*
X009109Y027454D01*
X006845Y027454D01*
X005743Y026332D01*
X005743Y022985D01*
X005999Y022729D01*
X005999Y022434D01*
X006885Y022434D01*
X007337Y021981D01*
X007318Y022473D02*
X007062Y022729D01*
X007062Y023182D01*
X006727Y023517D01*
X006589Y023517D01*
X006530Y023576D01*
X005959Y023064D02*
X006255Y022788D01*
X006530Y022788D01*
X005959Y023064D02*
X005959Y025544D01*
X006530Y025544D01*
X005959Y025544D02*
X005959Y026194D01*
X007022Y027257D01*
X006924Y027906D02*
X008774Y027906D01*
X008892Y027788D01*
X008774Y027906D02*
X010644Y027906D01*
X010093Y026588D02*
X010093Y026351D01*
X009326Y026312D02*
X009306Y026332D01*
X009306Y026351D01*
X009326Y026312D02*
X009326Y026076D01*
X008715Y026036D02*
X007593Y024914D01*
X007416Y024914D01*
X007416Y024904D01*
X008715Y026036D02*
X008715Y026214D01*
X006924Y027906D02*
X005349Y026332D01*
X005349Y024048D01*
X005349Y024206D01*
X005349Y024048D02*
X005349Y023044D01*
X005782Y022611D01*
X005782Y022277D01*
X006117Y021942D01*
X006688Y021115D02*
X007711Y021115D01*
X007849Y021253D01*
X008085Y021253D01*
X008479Y021647D01*
X008125Y021784D02*
X008125Y021863D01*
X007514Y022473D01*
X007318Y022473D01*
X006688Y021115D02*
X006629Y021056D01*
X004975Y018635D02*
X004995Y018615D01*
X004306Y017434D02*
X011314Y017434D01*
X010093Y021981D02*
X010093Y022651D01*
X010625Y023182D01*
X010703Y023576D02*
X010900Y023576D01*
X011117Y023576D01*
X010900Y024757D02*
X010743Y024816D01*
X010900Y025544D02*
X011077Y025544D01*
X011077Y026253D01*
X012357Y025662D02*
X012475Y025544D01*
X012475Y024343D01*
X012751Y024068D01*
X013164Y024580D02*
X012987Y024757D01*
X014323Y025549D02*
X014343Y026117D01*
X014345Y026115D01*
X014522Y025525D01*
X020408Y027375D02*
X021629Y027375D01*
X022357Y026647D01*
X022377Y027178D02*
X023203Y026351D01*
X023479Y026351D01*
X023479Y026706D01*
X024089Y027316D01*
X025644Y027316D01*
X026235Y026725D01*
X026235Y026351D01*
X027042Y026883D02*
X026412Y027513D01*
X022278Y027513D01*
X022101Y027690D01*
X021255Y026214D02*
X021609Y025859D01*
X021609Y025544D01*
X022672Y025544D01*
X021609Y025544D02*
X021609Y023340D01*
X022160Y022788D01*
X022672Y022788D01*
X022967Y023556D02*
X022948Y023576D01*
X023459Y024599D02*
X024266Y025406D01*
X025329Y025406D01*
X025526Y025210D01*
X025526Y024836D01*
X025369Y024678D01*
X024936Y024678D01*
X024877Y024619D01*
X024877Y024009D01*
X024955Y023930D01*
X025329Y023930D01*
X025605Y023458D02*
X024837Y023458D01*
X024385Y023910D01*
X024385Y023932D01*
X024385Y024402D02*
X024403Y024402D01*
X024522Y024521D01*
X024522Y024993D01*
X025054Y024993D01*
X025329Y024403D02*
X025389Y024403D01*
X025723Y024737D01*
X025940Y024737D01*
X026314Y024442D02*
X026314Y024166D01*
X025605Y023458D01*
X027042Y022788D02*
X027259Y022788D01*
X027534Y023064D01*
X027534Y025347D01*
X027337Y025544D01*
X027042Y025544D01*
X027042Y026883D01*
X026235Y028438D02*
X026235Y028615D01*
X024503Y030347D02*
X024168Y030151D01*
X020802Y026115D02*
X021077Y025840D01*
X021077Y022395D01*
X022003Y021469D01*
X023479Y021469D01*
X023479Y021981D01*
X023479Y021469D02*
X025723Y021469D01*
X026235Y021981D01*
X024837Y020328D02*
X024837Y019934D01*
X024837Y019895D01*
X025448Y019895D01*
X004306Y017434D02*
X003144Y018595D01*
X003144Y021469D01*
D24*
X001629Y022769D02*
X001629Y023044D01*
X004129Y025544D01*
X004444Y025544D01*
X007337Y028438D02*
X007337Y028635D01*
X008735Y030032D02*
X008794Y030032D01*
X011058Y030032D02*
X011077Y030013D01*
X011077Y029875D01*
X008125Y021903D02*
X007593Y021371D01*
X007180Y021371D01*
X006727Y021824D01*
X011589Y006332D02*
X010014Y004757D01*
X008026Y004757D01*
X007315Y004046D01*
X007315Y003613D01*
D25*
X010979Y013812D02*
X010979Y014816D01*
X011570Y014816D02*
X011570Y013792D01*
X012160Y013812D02*
X012180Y014816D01*
X002928Y017158D02*
X001629Y017158D01*
X001629Y022769D01*
X001629Y022769D01*
X011077Y029875D02*
X011077Y030899D01*
X011432Y031253D01*
X014503Y031253D01*
X014503Y025662D01*
D26*
X018085Y022099D02*
X019070Y022099D01*
X019070Y021509D02*
X018085Y021509D01*
X018085Y020918D02*
X019070Y020918D01*
X008420Y014619D02*
X008420Y013674D01*
X007829Y013674D02*
X007829Y014816D01*
X006058Y014816D02*
X006058Y013674D01*
D27*
X006058Y014816D02*
X001924Y014816D01*
X001904Y009521D01*
X002022Y009403D01*
X002770Y008654D01*
X006058Y014816D02*
X007337Y014816D01*
X007829Y014816D01*
X010093Y014816D01*
X010979Y014816D01*
X012180Y014816D01*
X015487Y014816D01*
X015485Y013556D01*
X015479Y009422D01*
X015475Y006647D01*
X015467Y001273D01*
X014148Y001273D01*
X010152Y001273D01*
X009995Y001430D01*
X009326Y002099D01*
X023479Y017395D02*
X026235Y017395D01*
X031629Y017395D01*
X031629Y022670D01*
X024168Y030151D02*
X023361Y030938D01*
X018085Y030938D01*
X018085Y025840D01*
X018085Y025544D01*
X018085Y024855D01*
X018085Y023497D01*
X018085Y022788D01*
X018085Y022099D01*
X018085Y021509D01*
X018085Y020918D01*
X018085Y019717D01*
X022180Y019717D01*
X023479Y018418D01*
X023479Y017395D01*
D28*
X015605Y017277D02*
X015585Y017670D01*
X014975Y018280D01*
X014995Y019599D01*
X014581Y020032D01*
X012849Y020032D01*
M02*
