G75*
G70*
%OFA0B0*%
%FSLAX24Y24*%
%IPPOS*%
%LPD*%
%AMOC8*
5,1,8,0,0,1.08239X$1,22.5*
%
%ADD10C,0.0000*%
%ADD11R,0.0236X0.0118*%
%ADD12R,0.0630X0.0118*%
%ADD13R,0.0394X0.0433*%
%ADD14R,0.0630X0.0709*%
%ADD15C,0.0047*%
%ADD16OC8,0.0850*%
%ADD17C,0.0400*%
%ADD18C,0.0059*%
%ADD19R,0.0118X0.0236*%
%ADD20R,0.0425X0.0413*%
%ADD21R,0.0394X0.0394*%
%ADD22R,0.0394X0.0551*%
%ADD23R,0.0118X0.0197*%
%ADD24R,0.0197X0.0197*%
%ADD25R,0.0197X0.0118*%
%ADD26R,0.0472X0.0126*%
%ADD27R,0.0433X0.0394*%
%ADD28C,0.0700*%
%ADD29R,0.0709X0.0630*%
%ADD30R,0.0880X0.0480*%
%ADD31R,0.0866X0.1417*%
%ADD32R,0.0480X0.0880*%
%ADD33R,0.1417X0.0866*%
%ADD34R,0.0236X0.0866*%
%ADD35R,0.1299X0.0630*%
%ADD36R,0.0472X0.0591*%
%ADD37R,0.1063X0.1004*%
%ADD38R,0.0413X0.0425*%
%ADD39C,0.1000*%
%ADD40C,0.1260*%
%ADD41C,0.0160*%
%ADD42C,0.0120*%
%ADD43C,0.0500*%
%ADD44C,0.0320*%
%ADD45C,0.0100*%
%ADD46C,0.0560*%
%ADD47C,0.0360*%
%ADD48C,0.0400*%
%ADD49C,0.0240*%
%ADD50C,0.1181*%
%ADD51C,0.1102*%
%ADD52C,0.1378*%
%ADD53C,0.1500*%
D10*
X023676Y031647D02*
X032337Y022985D01*
X032337Y016686D01*
X017377Y016686D01*
X017377Y031647D01*
X023676Y031647D01*
X016196Y031647D02*
X016196Y016686D01*
X001235Y016686D01*
X001235Y022985D01*
X009896Y031647D01*
X016196Y031647D01*
X016196Y015505D02*
X001235Y015505D01*
X001235Y009206D01*
X009896Y000544D01*
X016196Y000544D01*
X016196Y015505D01*
D11*
X005920Y023615D03*
X005920Y023812D03*
X005920Y024009D03*
X005920Y024206D03*
X004818Y024206D03*
X004818Y024009D03*
X004818Y023812D03*
X004818Y023615D03*
D12*
X008322Y023694D03*
X008322Y023320D03*
X008322Y024068D03*
D13*
X005703Y021607D03*
X005034Y021607D03*
X005172Y020918D03*
X005172Y020249D03*
X009975Y029343D03*
X009975Y030013D03*
X021963Y028792D03*
X022633Y028792D03*
X025113Y026135D03*
X025113Y025544D03*
X025782Y025544D03*
X025782Y026135D03*
X025585Y024245D03*
X024916Y024245D03*
X026629Y018576D03*
X027298Y018576D03*
X010349Y005840D03*
X009680Y005840D03*
X009680Y005091D03*
X010349Y005091D03*
X009050Y007237D03*
X008381Y007237D03*
X008381Y008025D03*
X009050Y008025D03*
X009050Y008812D03*
X008381Y008812D03*
D14*
X004463Y022926D03*
X003361Y022926D03*
X011668Y027729D03*
X012770Y027729D03*
D15*
X013463Y027772D02*
X013889Y027772D01*
X013463Y027772D02*
X013463Y027844D01*
X013889Y027844D01*
X013889Y027772D01*
X013889Y027818D02*
X013463Y027818D01*
X013463Y027969D02*
X013889Y027969D01*
X013463Y027969D02*
X013463Y028041D01*
X013889Y028041D01*
X013889Y027969D01*
X013889Y028015D02*
X013463Y028015D01*
X013463Y028166D02*
X013889Y028166D01*
X013463Y028166D02*
X013463Y028238D01*
X013889Y028238D01*
X013889Y028166D01*
X013889Y028212D02*
X013463Y028212D01*
X013463Y028363D02*
X013889Y028363D01*
X013463Y028363D02*
X013463Y028435D01*
X013889Y028435D01*
X013889Y028363D01*
X013889Y028409D02*
X013463Y028409D01*
X013463Y028559D02*
X013889Y028559D01*
X013463Y028559D02*
X013463Y028631D01*
X013889Y028631D01*
X013889Y028559D01*
X013889Y028605D02*
X013463Y028605D01*
X013463Y028756D02*
X013889Y028756D01*
X013463Y028756D02*
X013463Y028828D01*
X013889Y028828D01*
X013889Y028756D01*
X013889Y028802D02*
X013463Y028802D01*
X013463Y028953D02*
X013889Y028953D01*
X013463Y028953D02*
X013463Y029025D01*
X013889Y029025D01*
X013889Y028953D01*
X013889Y028999D02*
X013463Y028999D01*
X013463Y029150D02*
X013889Y029150D01*
X013463Y029150D02*
X013463Y029222D01*
X013889Y029222D01*
X013889Y029150D01*
X013889Y029196D02*
X013463Y029196D01*
X013463Y029347D02*
X013889Y029347D01*
X013463Y029347D02*
X013463Y029419D01*
X013889Y029419D01*
X013889Y029347D01*
X013889Y029393D02*
X013463Y029393D01*
X013463Y029544D02*
X013889Y029544D01*
X013463Y029544D02*
X013463Y029616D01*
X013889Y029616D01*
X013889Y029544D01*
X013889Y029590D02*
X013463Y029590D01*
X013463Y029741D02*
X013889Y029741D01*
X013463Y029741D02*
X013463Y029813D01*
X013889Y029813D01*
X013889Y029741D01*
X013889Y029787D02*
X013463Y029787D01*
X013463Y029937D02*
X013889Y029937D01*
X013463Y029937D02*
X013463Y030009D01*
X013889Y030009D01*
X013889Y029937D01*
X013889Y029983D02*
X013463Y029983D01*
X013463Y030134D02*
X013889Y030134D01*
X013463Y030134D02*
X013463Y030206D01*
X013889Y030206D01*
X013889Y030134D01*
X013889Y030180D02*
X013463Y030180D01*
X013463Y027575D02*
X013889Y027575D01*
X013463Y027575D02*
X013463Y027647D01*
X013889Y027647D01*
X013889Y027575D01*
X013889Y027621D02*
X013463Y027621D01*
X013463Y027378D02*
X013889Y027378D01*
X013463Y027378D02*
X013463Y027450D01*
X013889Y027450D01*
X013889Y027378D01*
X013889Y027424D02*
X013463Y027424D01*
X013463Y027181D02*
X013889Y027181D01*
X013463Y027181D02*
X013463Y027253D01*
X013889Y027253D01*
X013889Y027181D01*
X013889Y027227D02*
X013463Y027227D01*
X013463Y026985D02*
X013889Y026985D01*
X013463Y026985D02*
X013463Y027057D01*
X013889Y027057D01*
X013889Y026985D01*
X013889Y027031D02*
X013463Y027031D01*
X013463Y026788D02*
X013889Y026788D01*
X013463Y026788D02*
X013463Y026860D01*
X013889Y026860D01*
X013889Y026788D01*
X013889Y026834D02*
X013463Y026834D01*
X013463Y026591D02*
X013889Y026591D01*
X013463Y026591D02*
X013463Y026663D01*
X013889Y026663D01*
X013889Y026591D01*
X013889Y026637D02*
X013463Y026637D01*
X013463Y026394D02*
X013889Y026394D01*
X013463Y026394D02*
X013463Y026466D01*
X013889Y026466D01*
X013889Y026394D01*
X013889Y026440D02*
X013463Y026440D01*
X013463Y026197D02*
X013889Y026197D01*
X013463Y026197D02*
X013463Y026269D01*
X013889Y026269D01*
X013889Y026197D01*
X013889Y026243D02*
X013463Y026243D01*
X013463Y026000D02*
X013889Y026000D01*
X013463Y026000D02*
X013463Y026072D01*
X013889Y026072D01*
X013889Y026000D01*
X013889Y026046D02*
X013463Y026046D01*
X013463Y025804D02*
X013889Y025804D01*
X013463Y025804D02*
X013463Y025876D01*
X013889Y025876D01*
X013889Y025804D01*
X013889Y025850D02*
X013463Y025850D01*
X013463Y025607D02*
X013889Y025607D01*
X013463Y025607D02*
X013463Y025679D01*
X013889Y025679D01*
X013889Y025607D01*
X013889Y025653D02*
X013463Y025653D01*
X013463Y025410D02*
X013889Y025410D01*
X013463Y025410D02*
X013463Y025482D01*
X013889Y025482D01*
X013889Y025410D01*
X013889Y025456D02*
X013463Y025456D01*
X013463Y025213D02*
X013889Y025213D01*
X013463Y025213D02*
X013463Y025285D01*
X013889Y025285D01*
X013889Y025213D01*
X013889Y025259D02*
X013463Y025259D01*
X013463Y025016D02*
X013889Y025016D01*
X013463Y025016D02*
X013463Y025088D01*
X013889Y025088D01*
X013889Y025016D01*
X013889Y025062D02*
X013463Y025062D01*
X013463Y024819D02*
X013889Y024819D01*
X013463Y024819D02*
X013463Y024891D01*
X013889Y024891D01*
X013889Y024819D01*
X013889Y024865D02*
X013463Y024865D01*
X013463Y024622D02*
X013889Y024622D01*
X013463Y024622D02*
X013463Y024694D01*
X013889Y024694D01*
X013889Y024622D01*
X013889Y024668D02*
X013463Y024668D01*
X013463Y024426D02*
X013889Y024426D01*
X013463Y024426D02*
X013463Y024498D01*
X013889Y024498D01*
X013889Y024426D01*
X013889Y024472D02*
X013463Y024472D01*
X013463Y024229D02*
X013889Y024229D01*
X013463Y024229D02*
X013463Y024301D01*
X013889Y024301D01*
X013889Y024229D01*
X013889Y024275D02*
X013463Y024275D01*
X013463Y024032D02*
X013889Y024032D01*
X013463Y024032D02*
X013463Y024104D01*
X013889Y024104D01*
X013889Y024032D01*
X013889Y024078D02*
X013463Y024078D01*
X013463Y023835D02*
X013889Y023835D01*
X013463Y023835D02*
X013463Y023907D01*
X013889Y023907D01*
X013889Y023835D01*
X013889Y023881D02*
X013463Y023881D01*
X013463Y023638D02*
X013889Y023638D01*
X013463Y023638D02*
X013463Y023710D01*
X013889Y023710D01*
X013889Y023638D01*
X013889Y023684D02*
X013463Y023684D01*
X013463Y023441D02*
X013889Y023441D01*
X013463Y023441D02*
X013463Y023513D01*
X013889Y023513D01*
X013889Y023441D01*
X013889Y023487D02*
X013463Y023487D01*
X013463Y023244D02*
X013889Y023244D01*
X013463Y023244D02*
X013463Y023316D01*
X013889Y023316D01*
X013889Y023244D01*
X013889Y023290D02*
X013463Y023290D01*
X013463Y023048D02*
X013889Y023048D01*
X013463Y023048D02*
X013463Y023120D01*
X013889Y023120D01*
X013889Y023048D01*
X013889Y023094D02*
X013463Y023094D01*
X013463Y022851D02*
X013889Y022851D01*
X013463Y022851D02*
X013463Y022923D01*
X013889Y022923D01*
X013889Y022851D01*
X013889Y022897D02*
X013463Y022897D01*
X013463Y022654D02*
X013889Y022654D01*
X013463Y022654D02*
X013463Y022726D01*
X013889Y022726D01*
X013889Y022654D01*
X013889Y022700D02*
X013463Y022700D01*
X013463Y022457D02*
X013889Y022457D01*
X013463Y022457D02*
X013463Y022529D01*
X013889Y022529D01*
X013889Y022457D01*
X013889Y022503D02*
X013463Y022503D01*
X013463Y022260D02*
X013889Y022260D01*
X013463Y022260D02*
X013463Y022332D01*
X013889Y022332D01*
X013889Y022260D01*
X013889Y022306D02*
X013463Y022306D01*
X013463Y022063D02*
X013889Y022063D01*
X013463Y022063D02*
X013463Y022135D01*
X013889Y022135D01*
X013889Y022063D01*
X013889Y022109D02*
X013463Y022109D01*
X013463Y021867D02*
X013889Y021867D01*
X013463Y021867D02*
X013463Y021939D01*
X013889Y021939D01*
X013889Y021867D01*
X013889Y021913D02*
X013463Y021913D01*
X013463Y021670D02*
X013889Y021670D01*
X013463Y021670D02*
X013463Y021742D01*
X013889Y021742D01*
X013889Y021670D01*
X013889Y021716D02*
X013463Y021716D01*
X013463Y021473D02*
X013889Y021473D01*
X013463Y021473D02*
X013463Y021545D01*
X013889Y021545D01*
X013889Y021473D01*
X013889Y021519D02*
X013463Y021519D01*
X013463Y021276D02*
X013889Y021276D01*
X013463Y021276D02*
X013463Y021348D01*
X013889Y021348D01*
X013889Y021276D01*
X013889Y021322D02*
X013463Y021322D01*
X013463Y021079D02*
X013889Y021079D01*
X013463Y021079D02*
X013463Y021151D01*
X013889Y021151D01*
X013889Y021079D01*
X013889Y021125D02*
X013463Y021125D01*
X013463Y020882D02*
X013889Y020882D01*
X013463Y020882D02*
X013463Y020954D01*
X013889Y020954D01*
X013889Y020882D01*
X013889Y020928D02*
X013463Y020928D01*
X013463Y020685D02*
X013889Y020685D01*
X013463Y020685D02*
X013463Y020757D01*
X013889Y020757D01*
X013889Y020685D01*
X013889Y020731D02*
X013463Y020731D01*
X013463Y020489D02*
X013889Y020489D01*
X013463Y020489D02*
X013463Y020561D01*
X013889Y020561D01*
X013889Y020489D01*
X013889Y020535D02*
X013463Y020535D01*
X012393Y018993D02*
X012321Y018993D01*
X012321Y019419D01*
X012393Y019419D01*
X012393Y018993D01*
X012393Y019039D02*
X012321Y019039D01*
X012321Y019085D02*
X012393Y019085D01*
X012393Y019131D02*
X012321Y019131D01*
X012321Y019177D02*
X012393Y019177D01*
X012393Y019223D02*
X012321Y019223D01*
X012321Y019269D02*
X012393Y019269D01*
X012393Y019315D02*
X012321Y019315D01*
X012321Y019361D02*
X012393Y019361D01*
X012393Y019407D02*
X012321Y019407D01*
X012196Y018993D02*
X012124Y018993D01*
X012124Y019419D01*
X012196Y019419D01*
X012196Y018993D01*
X012196Y019039D02*
X012124Y019039D01*
X012124Y019085D02*
X012196Y019085D01*
X012196Y019131D02*
X012124Y019131D01*
X012124Y019177D02*
X012196Y019177D01*
X012196Y019223D02*
X012124Y019223D01*
X012124Y019269D02*
X012196Y019269D01*
X012196Y019315D02*
X012124Y019315D01*
X012124Y019361D02*
X012196Y019361D01*
X012196Y019407D02*
X012124Y019407D01*
X011999Y018993D02*
X011927Y018993D01*
X011927Y019419D01*
X011999Y019419D01*
X011999Y018993D01*
X011999Y019039D02*
X011927Y019039D01*
X011927Y019085D02*
X011999Y019085D01*
X011999Y019131D02*
X011927Y019131D01*
X011927Y019177D02*
X011999Y019177D01*
X011999Y019223D02*
X011927Y019223D01*
X011927Y019269D02*
X011999Y019269D01*
X011999Y019315D02*
X011927Y019315D01*
X011927Y019361D02*
X011999Y019361D01*
X011999Y019407D02*
X011927Y019407D01*
X011802Y018993D02*
X011730Y018993D01*
X011730Y019419D01*
X011802Y019419D01*
X011802Y018993D01*
X011802Y019039D02*
X011730Y019039D01*
X011730Y019085D02*
X011802Y019085D01*
X011802Y019131D02*
X011730Y019131D01*
X011730Y019177D02*
X011802Y019177D01*
X011802Y019223D02*
X011730Y019223D01*
X011730Y019269D02*
X011802Y019269D01*
X011802Y019315D02*
X011730Y019315D01*
X011730Y019361D02*
X011802Y019361D01*
X011802Y019407D02*
X011730Y019407D01*
X011606Y018993D02*
X011534Y018993D01*
X011534Y019419D01*
X011606Y019419D01*
X011606Y018993D01*
X011606Y019039D02*
X011534Y019039D01*
X011534Y019085D02*
X011606Y019085D01*
X011606Y019131D02*
X011534Y019131D01*
X011534Y019177D02*
X011606Y019177D01*
X011606Y019223D02*
X011534Y019223D01*
X011534Y019269D02*
X011606Y019269D01*
X011606Y019315D02*
X011534Y019315D01*
X011534Y019361D02*
X011606Y019361D01*
X011606Y019407D02*
X011534Y019407D01*
X011409Y018993D02*
X011337Y018993D01*
X011337Y019419D01*
X011409Y019419D01*
X011409Y018993D01*
X011409Y019039D02*
X011337Y019039D01*
X011337Y019085D02*
X011409Y019085D01*
X011409Y019131D02*
X011337Y019131D01*
X011337Y019177D02*
X011409Y019177D01*
X011409Y019223D02*
X011337Y019223D01*
X011337Y019269D02*
X011409Y019269D01*
X011409Y019315D02*
X011337Y019315D01*
X011337Y019361D02*
X011409Y019361D01*
X011409Y019407D02*
X011337Y019407D01*
X011212Y018993D02*
X011140Y018993D01*
X011140Y019419D01*
X011212Y019419D01*
X011212Y018993D01*
X011212Y019039D02*
X011140Y019039D01*
X011140Y019085D02*
X011212Y019085D01*
X011212Y019131D02*
X011140Y019131D01*
X011140Y019177D02*
X011212Y019177D01*
X011212Y019223D02*
X011140Y019223D01*
X011140Y019269D02*
X011212Y019269D01*
X011212Y019315D02*
X011140Y019315D01*
X011140Y019361D02*
X011212Y019361D01*
X011212Y019407D02*
X011140Y019407D01*
X011015Y018993D02*
X010943Y018993D01*
X010943Y019419D01*
X011015Y019419D01*
X011015Y018993D01*
X011015Y019039D02*
X010943Y019039D01*
X010943Y019085D02*
X011015Y019085D01*
X011015Y019131D02*
X010943Y019131D01*
X010943Y019177D02*
X011015Y019177D01*
X011015Y019223D02*
X010943Y019223D01*
X010943Y019269D02*
X011015Y019269D01*
X011015Y019315D02*
X010943Y019315D01*
X010943Y019361D02*
X011015Y019361D01*
X011015Y019407D02*
X010943Y019407D01*
X010818Y018993D02*
X010746Y018993D01*
X010746Y019419D01*
X010818Y019419D01*
X010818Y018993D01*
X010818Y019039D02*
X010746Y019039D01*
X010746Y019085D02*
X010818Y019085D01*
X010818Y019131D02*
X010746Y019131D01*
X010746Y019177D02*
X010818Y019177D01*
X010818Y019223D02*
X010746Y019223D01*
X010746Y019269D02*
X010818Y019269D01*
X010818Y019315D02*
X010746Y019315D01*
X010746Y019361D02*
X010818Y019361D01*
X010818Y019407D02*
X010746Y019407D01*
X010621Y018993D02*
X010549Y018993D01*
X010549Y019419D01*
X010621Y019419D01*
X010621Y018993D01*
X010621Y019039D02*
X010549Y019039D01*
X010549Y019085D02*
X010621Y019085D01*
X010621Y019131D02*
X010549Y019131D01*
X010549Y019177D02*
X010621Y019177D01*
X010621Y019223D02*
X010549Y019223D01*
X010549Y019269D02*
X010621Y019269D01*
X010621Y019315D02*
X010549Y019315D01*
X010549Y019361D02*
X010621Y019361D01*
X010621Y019407D02*
X010549Y019407D01*
X010425Y018993D02*
X010353Y018993D01*
X010353Y019419D01*
X010425Y019419D01*
X010425Y018993D01*
X010425Y019039D02*
X010353Y019039D01*
X010353Y019085D02*
X010425Y019085D01*
X010425Y019131D02*
X010353Y019131D01*
X010353Y019177D02*
X010425Y019177D01*
X010425Y019223D02*
X010353Y019223D01*
X010353Y019269D02*
X010425Y019269D01*
X010425Y019315D02*
X010353Y019315D01*
X010353Y019361D02*
X010425Y019361D01*
X010425Y019407D02*
X010353Y019407D01*
X010228Y018993D02*
X010156Y018993D01*
X010156Y019419D01*
X010228Y019419D01*
X010228Y018993D01*
X010228Y019039D02*
X010156Y019039D01*
X010156Y019085D02*
X010228Y019085D01*
X010228Y019131D02*
X010156Y019131D01*
X010156Y019177D02*
X010228Y019177D01*
X010228Y019223D02*
X010156Y019223D01*
X010156Y019269D02*
X010228Y019269D01*
X010228Y019315D02*
X010156Y019315D01*
X010156Y019361D02*
X010228Y019361D01*
X010228Y019407D02*
X010156Y019407D01*
X010031Y018993D02*
X009959Y018993D01*
X009959Y019419D01*
X010031Y019419D01*
X010031Y018993D01*
X010031Y019039D02*
X009959Y019039D01*
X009959Y019085D02*
X010031Y019085D01*
X010031Y019131D02*
X009959Y019131D01*
X009959Y019177D02*
X010031Y019177D01*
X010031Y019223D02*
X009959Y019223D01*
X009959Y019269D02*
X010031Y019269D01*
X010031Y019315D02*
X009959Y019315D01*
X009959Y019361D02*
X010031Y019361D01*
X010031Y019407D02*
X009959Y019407D01*
X009834Y018993D02*
X009762Y018993D01*
X009762Y019419D01*
X009834Y019419D01*
X009834Y018993D01*
X009834Y019039D02*
X009762Y019039D01*
X009762Y019085D02*
X009834Y019085D01*
X009834Y019131D02*
X009762Y019131D01*
X009762Y019177D02*
X009834Y019177D01*
X009834Y019223D02*
X009762Y019223D01*
X009762Y019269D02*
X009834Y019269D01*
X009834Y019315D02*
X009762Y019315D01*
X009762Y019361D02*
X009834Y019361D01*
X009834Y019407D02*
X009762Y019407D01*
X009637Y018993D02*
X009565Y018993D01*
X009565Y019419D01*
X009637Y019419D01*
X009637Y018993D01*
X009637Y019039D02*
X009565Y019039D01*
X009565Y019085D02*
X009637Y019085D01*
X009637Y019131D02*
X009565Y019131D01*
X009565Y019177D02*
X009637Y019177D01*
X009637Y019223D02*
X009565Y019223D01*
X009565Y019269D02*
X009637Y019269D01*
X009637Y019315D02*
X009565Y019315D01*
X009565Y019361D02*
X009637Y019361D01*
X009637Y019407D02*
X009565Y019407D01*
X009440Y018993D02*
X009368Y018993D01*
X009368Y019419D01*
X009440Y019419D01*
X009440Y018993D01*
X009440Y019039D02*
X009368Y019039D01*
X009368Y019085D02*
X009440Y019085D01*
X009440Y019131D02*
X009368Y019131D01*
X009368Y019177D02*
X009440Y019177D01*
X009440Y019223D02*
X009368Y019223D01*
X009368Y019269D02*
X009440Y019269D01*
X009440Y019315D02*
X009368Y019315D01*
X009368Y019361D02*
X009440Y019361D01*
X009440Y019407D02*
X009368Y019407D01*
X009243Y018993D02*
X009171Y018993D01*
X009171Y019419D01*
X009243Y019419D01*
X009243Y018993D01*
X009243Y019039D02*
X009171Y019039D01*
X009171Y019085D02*
X009243Y019085D01*
X009243Y019131D02*
X009171Y019131D01*
X009171Y019177D02*
X009243Y019177D01*
X009243Y019223D02*
X009171Y019223D01*
X009171Y019269D02*
X009243Y019269D01*
X009243Y019315D02*
X009171Y019315D01*
X009171Y019361D02*
X009243Y019361D01*
X009243Y019407D02*
X009171Y019407D01*
X009047Y018993D02*
X008975Y018993D01*
X008975Y019419D01*
X009047Y019419D01*
X009047Y018993D01*
X009047Y019039D02*
X008975Y019039D01*
X008975Y019085D02*
X009047Y019085D01*
X009047Y019131D02*
X008975Y019131D01*
X008975Y019177D02*
X009047Y019177D01*
X009047Y019223D02*
X008975Y019223D01*
X008975Y019269D02*
X009047Y019269D01*
X009047Y019315D02*
X008975Y019315D01*
X008975Y019361D02*
X009047Y019361D01*
X009047Y019407D02*
X008975Y019407D01*
X008850Y018993D02*
X008778Y018993D01*
X008778Y019419D01*
X008850Y019419D01*
X008850Y018993D01*
X008850Y019039D02*
X008778Y019039D01*
X008778Y019085D02*
X008850Y019085D01*
X008850Y019131D02*
X008778Y019131D01*
X008778Y019177D02*
X008850Y019177D01*
X008850Y019223D02*
X008778Y019223D01*
X008778Y019269D02*
X008850Y019269D01*
X008850Y019315D02*
X008778Y019315D01*
X008778Y019361D02*
X008850Y019361D01*
X008850Y019407D02*
X008778Y019407D01*
X008653Y018993D02*
X008581Y018993D01*
X008581Y019419D01*
X008653Y019419D01*
X008653Y018993D01*
X008653Y019039D02*
X008581Y019039D01*
X008581Y019085D02*
X008653Y019085D01*
X008653Y019131D02*
X008581Y019131D01*
X008581Y019177D02*
X008653Y019177D01*
X008653Y019223D02*
X008581Y019223D01*
X008581Y019269D02*
X008653Y019269D01*
X008653Y019315D02*
X008581Y019315D01*
X008581Y019361D02*
X008653Y019361D01*
X008653Y019407D02*
X008581Y019407D01*
X008456Y018993D02*
X008384Y018993D01*
X008384Y019419D01*
X008456Y019419D01*
X008456Y018993D01*
X008456Y019039D02*
X008384Y019039D01*
X008384Y019085D02*
X008456Y019085D01*
X008456Y019131D02*
X008384Y019131D01*
X008384Y019177D02*
X008456Y019177D01*
X008456Y019223D02*
X008384Y019223D01*
X008384Y019269D02*
X008456Y019269D01*
X008456Y019315D02*
X008384Y019315D01*
X008384Y019361D02*
X008456Y019361D01*
X008456Y019407D02*
X008384Y019407D01*
X008259Y018993D02*
X008187Y018993D01*
X008187Y019419D01*
X008259Y019419D01*
X008259Y018993D01*
X008259Y019039D02*
X008187Y019039D01*
X008187Y019085D02*
X008259Y019085D01*
X008259Y019131D02*
X008187Y019131D01*
X008187Y019177D02*
X008259Y019177D01*
X008259Y019223D02*
X008187Y019223D01*
X008187Y019269D02*
X008259Y019269D01*
X008259Y019315D02*
X008187Y019315D01*
X008187Y019361D02*
X008259Y019361D01*
X008259Y019407D02*
X008187Y019407D01*
X008062Y018993D02*
X007990Y018993D01*
X007990Y019419D01*
X008062Y019419D01*
X008062Y018993D01*
X008062Y019039D02*
X007990Y019039D01*
X007990Y019085D02*
X008062Y019085D01*
X008062Y019131D02*
X007990Y019131D01*
X007990Y019177D02*
X008062Y019177D01*
X008062Y019223D02*
X007990Y019223D01*
X007990Y019269D02*
X008062Y019269D01*
X008062Y019315D02*
X007990Y019315D01*
X007990Y019361D02*
X008062Y019361D01*
X008062Y019407D02*
X007990Y019407D01*
X007865Y018993D02*
X007793Y018993D01*
X007793Y019419D01*
X007865Y019419D01*
X007865Y018993D01*
X007865Y019039D02*
X007793Y019039D01*
X007793Y019085D02*
X007865Y019085D01*
X007865Y019131D02*
X007793Y019131D01*
X007793Y019177D02*
X007865Y019177D01*
X007865Y019223D02*
X007793Y019223D01*
X007793Y019269D02*
X007865Y019269D01*
X007865Y019315D02*
X007793Y019315D01*
X007793Y019361D02*
X007865Y019361D01*
X007865Y019407D02*
X007793Y019407D01*
X007669Y018993D02*
X007597Y018993D01*
X007597Y019419D01*
X007669Y019419D01*
X007669Y018993D01*
X007669Y019039D02*
X007597Y019039D01*
X007597Y019085D02*
X007669Y019085D01*
X007669Y019131D02*
X007597Y019131D01*
X007597Y019177D02*
X007669Y019177D01*
X007669Y019223D02*
X007597Y019223D01*
X007597Y019269D02*
X007669Y019269D01*
X007669Y019315D02*
X007597Y019315D01*
X007597Y019361D02*
X007669Y019361D01*
X007669Y019407D02*
X007597Y019407D01*
X007472Y018993D02*
X007400Y018993D01*
X007400Y019419D01*
X007472Y019419D01*
X007472Y018993D01*
X007472Y019039D02*
X007400Y019039D01*
X007400Y019085D02*
X007472Y019085D01*
X007472Y019131D02*
X007400Y019131D01*
X007400Y019177D02*
X007472Y019177D01*
X007472Y019223D02*
X007400Y019223D01*
X007400Y019269D02*
X007472Y019269D01*
X007472Y019315D02*
X007400Y019315D01*
X007400Y019361D02*
X007472Y019361D01*
X007472Y019407D02*
X007400Y019407D01*
X007275Y018993D02*
X007203Y018993D01*
X007203Y019419D01*
X007275Y019419D01*
X007275Y018993D01*
X007275Y019039D02*
X007203Y019039D01*
X007203Y019085D02*
X007275Y019085D01*
X007275Y019131D02*
X007203Y019131D01*
X007203Y019177D02*
X007275Y019177D01*
X007275Y019223D02*
X007203Y019223D01*
X007203Y019269D02*
X007275Y019269D01*
X007275Y019315D02*
X007203Y019315D01*
X007203Y019361D02*
X007275Y019361D01*
X007275Y019407D02*
X007203Y019407D01*
X007078Y018993D02*
X007006Y018993D01*
X007006Y019419D01*
X007078Y019419D01*
X007078Y018993D01*
X007078Y019039D02*
X007006Y019039D01*
X007006Y019085D02*
X007078Y019085D01*
X007078Y019131D02*
X007006Y019131D01*
X007006Y019177D02*
X007078Y019177D01*
X007078Y019223D02*
X007006Y019223D01*
X007006Y019269D02*
X007078Y019269D01*
X007078Y019315D02*
X007006Y019315D01*
X007006Y019361D02*
X007078Y019361D01*
X007078Y019407D02*
X007006Y019407D01*
X006881Y018993D02*
X006809Y018993D01*
X006809Y019419D01*
X006881Y019419D01*
X006881Y018993D01*
X006881Y019039D02*
X006809Y019039D01*
X006809Y019085D02*
X006881Y019085D01*
X006881Y019131D02*
X006809Y019131D01*
X006809Y019177D02*
X006881Y019177D01*
X006881Y019223D02*
X006809Y019223D01*
X006809Y019269D02*
X006881Y019269D01*
X006881Y019315D02*
X006809Y019315D01*
X006809Y019361D02*
X006881Y019361D01*
X006881Y019407D02*
X006809Y019407D01*
X006684Y018993D02*
X006612Y018993D01*
X006612Y019419D01*
X006684Y019419D01*
X006684Y018993D01*
X006684Y019039D02*
X006612Y019039D01*
X006612Y019085D02*
X006684Y019085D01*
X006684Y019131D02*
X006612Y019131D01*
X006612Y019177D02*
X006684Y019177D01*
X006684Y019223D02*
X006612Y019223D01*
X006612Y019269D02*
X006684Y019269D01*
X006684Y019315D02*
X006612Y019315D01*
X006612Y019361D02*
X006684Y019361D01*
X006684Y019407D02*
X006612Y019407D01*
X006487Y018993D02*
X006415Y018993D01*
X006415Y019419D01*
X006487Y019419D01*
X006487Y018993D01*
X006487Y019039D02*
X006415Y019039D01*
X006415Y019085D02*
X006487Y019085D01*
X006487Y019131D02*
X006415Y019131D01*
X006415Y019177D02*
X006487Y019177D01*
X006487Y019223D02*
X006415Y019223D01*
X006415Y019269D02*
X006487Y019269D01*
X006487Y019315D02*
X006415Y019315D01*
X006415Y019361D02*
X006487Y019361D01*
X006487Y019407D02*
X006415Y019407D01*
X006291Y018993D02*
X006219Y018993D01*
X006219Y019419D01*
X006291Y019419D01*
X006291Y018993D01*
X006291Y019039D02*
X006219Y019039D01*
X006219Y019085D02*
X006291Y019085D01*
X006291Y019131D02*
X006219Y019131D01*
X006219Y019177D02*
X006291Y019177D01*
X006291Y019223D02*
X006219Y019223D01*
X006219Y019269D02*
X006291Y019269D01*
X006291Y019315D02*
X006219Y019315D01*
X006219Y019361D02*
X006291Y019361D01*
X006291Y019407D02*
X006219Y019407D01*
X006094Y018993D02*
X006022Y018993D01*
X006022Y019419D01*
X006094Y019419D01*
X006094Y018993D01*
X006094Y019039D02*
X006022Y019039D01*
X006022Y019085D02*
X006094Y019085D01*
X006094Y019131D02*
X006022Y019131D01*
X006022Y019177D02*
X006094Y019177D01*
X006094Y019223D02*
X006022Y019223D01*
X006022Y019269D02*
X006094Y019269D01*
X006094Y019315D02*
X006022Y019315D01*
X006022Y019361D02*
X006094Y019361D01*
X006094Y019407D02*
X006022Y019407D01*
X005897Y018993D02*
X005825Y018993D01*
X005825Y019419D01*
X005897Y019419D01*
X005897Y018993D01*
X005897Y019039D02*
X005825Y019039D01*
X005825Y019085D02*
X005897Y019085D01*
X005897Y019131D02*
X005825Y019131D01*
X005825Y019177D02*
X005897Y019177D01*
X005897Y019223D02*
X005825Y019223D01*
X005825Y019269D02*
X005897Y019269D01*
X005897Y019315D02*
X005825Y019315D01*
X005825Y019361D02*
X005897Y019361D01*
X005897Y019407D02*
X005825Y019407D01*
X005700Y018993D02*
X005628Y018993D01*
X005628Y019419D01*
X005700Y019419D01*
X005700Y018993D01*
X005700Y019039D02*
X005628Y019039D01*
X005628Y019085D02*
X005700Y019085D01*
X005700Y019131D02*
X005628Y019131D01*
X005628Y019177D02*
X005700Y019177D01*
X005700Y019223D02*
X005628Y019223D01*
X005628Y019269D02*
X005700Y019269D01*
X005700Y019315D02*
X005628Y019315D01*
X005628Y019361D02*
X005700Y019361D01*
X005700Y019407D02*
X005628Y019407D01*
X005503Y018993D02*
X005431Y018993D01*
X005431Y019419D01*
X005503Y019419D01*
X005503Y018993D01*
X005503Y019039D02*
X005431Y019039D01*
X005431Y019085D02*
X005503Y019085D01*
X005503Y019131D02*
X005431Y019131D01*
X005431Y019177D02*
X005503Y019177D01*
X005503Y019223D02*
X005431Y019223D01*
X005431Y019269D02*
X005503Y019269D01*
X005503Y019315D02*
X005431Y019315D01*
X005431Y019361D02*
X005503Y019361D01*
X005503Y019407D02*
X005431Y019407D01*
X005306Y018993D02*
X005234Y018993D01*
X005234Y019419D01*
X005306Y019419D01*
X005306Y018993D01*
X005306Y019039D02*
X005234Y019039D01*
X005234Y019085D02*
X005306Y019085D01*
X005306Y019131D02*
X005234Y019131D01*
X005234Y019177D02*
X005306Y019177D01*
X005306Y019223D02*
X005234Y019223D01*
X005234Y019269D02*
X005306Y019269D01*
X005306Y019315D02*
X005234Y019315D01*
X005234Y019361D02*
X005306Y019361D01*
X005306Y019407D02*
X005234Y019407D01*
X005110Y018993D02*
X005038Y018993D01*
X005038Y019419D01*
X005110Y019419D01*
X005110Y018993D01*
X005110Y019039D02*
X005038Y019039D01*
X005038Y019085D02*
X005110Y019085D01*
X005110Y019131D02*
X005038Y019131D01*
X005038Y019177D02*
X005110Y019177D01*
X005110Y019223D02*
X005038Y019223D01*
X005038Y019269D02*
X005110Y019269D01*
X005110Y019315D02*
X005038Y019315D01*
X005038Y019361D02*
X005110Y019361D01*
X005110Y019407D02*
X005038Y019407D01*
X004913Y018993D02*
X004841Y018993D01*
X004841Y019419D01*
X004913Y019419D01*
X004913Y018993D01*
X004913Y019039D02*
X004841Y019039D01*
X004841Y019085D02*
X004913Y019085D01*
X004913Y019131D02*
X004841Y019131D01*
X004841Y019177D02*
X004913Y019177D01*
X004913Y019223D02*
X004841Y019223D01*
X004841Y019269D02*
X004913Y019269D01*
X004913Y019315D02*
X004841Y019315D01*
X004841Y019361D02*
X004913Y019361D01*
X004913Y019407D02*
X004841Y019407D01*
X004716Y018993D02*
X004644Y018993D01*
X004644Y019419D01*
X004716Y019419D01*
X004716Y018993D01*
X004716Y019039D02*
X004644Y019039D01*
X004644Y019085D02*
X004716Y019085D01*
X004716Y019131D02*
X004644Y019131D01*
X004644Y019177D02*
X004716Y019177D01*
X004716Y019223D02*
X004644Y019223D01*
X004644Y019269D02*
X004716Y019269D01*
X004716Y019315D02*
X004644Y019315D01*
X004644Y019361D02*
X004716Y019361D01*
X004716Y019407D02*
X004644Y019407D01*
X004519Y018993D02*
X004447Y018993D01*
X004447Y019419D01*
X004519Y019419D01*
X004519Y018993D01*
X004519Y019039D02*
X004447Y019039D01*
X004447Y019085D02*
X004519Y019085D01*
X004519Y019131D02*
X004447Y019131D01*
X004447Y019177D02*
X004519Y019177D01*
X004519Y019223D02*
X004447Y019223D01*
X004447Y019269D02*
X004519Y019269D01*
X004519Y019315D02*
X004447Y019315D01*
X004447Y019361D02*
X004519Y019361D01*
X004519Y019407D02*
X004447Y019407D01*
X004322Y018993D02*
X004250Y018993D01*
X004250Y019419D01*
X004322Y019419D01*
X004322Y018993D01*
X004322Y019039D02*
X004250Y019039D01*
X004250Y019085D02*
X004322Y019085D01*
X004322Y019131D02*
X004250Y019131D01*
X004250Y019177D02*
X004322Y019177D01*
X004322Y019223D02*
X004250Y019223D01*
X004250Y019269D02*
X004322Y019269D01*
X004322Y019315D02*
X004250Y019315D01*
X004250Y019361D02*
X004322Y019361D01*
X004322Y019407D02*
X004250Y019407D01*
X004125Y018993D02*
X004053Y018993D01*
X004053Y019419D01*
X004125Y019419D01*
X004125Y018993D01*
X004125Y019039D02*
X004053Y019039D01*
X004053Y019085D02*
X004125Y019085D01*
X004125Y019131D02*
X004053Y019131D01*
X004053Y019177D02*
X004125Y019177D01*
X004125Y019223D02*
X004053Y019223D01*
X004053Y019269D02*
X004125Y019269D01*
X004125Y019315D02*
X004053Y019315D01*
X004053Y019361D02*
X004125Y019361D01*
X004125Y019407D02*
X004053Y019407D01*
X003928Y018993D02*
X003856Y018993D01*
X003856Y019419D01*
X003928Y019419D01*
X003928Y018993D01*
X003928Y019039D02*
X003856Y019039D01*
X003856Y019085D02*
X003928Y019085D01*
X003928Y019131D02*
X003856Y019131D01*
X003856Y019177D02*
X003928Y019177D01*
X003928Y019223D02*
X003856Y019223D01*
X003856Y019269D02*
X003928Y019269D01*
X003928Y019315D02*
X003856Y019315D01*
X003856Y019361D02*
X003928Y019361D01*
X003928Y019407D02*
X003856Y019407D01*
X003732Y018993D02*
X003660Y018993D01*
X003660Y019419D01*
X003732Y019419D01*
X003732Y018993D01*
X003732Y019039D02*
X003660Y019039D01*
X003660Y019085D02*
X003732Y019085D01*
X003732Y019131D02*
X003660Y019131D01*
X003660Y019177D02*
X003732Y019177D01*
X003732Y019223D02*
X003660Y019223D01*
X003660Y019269D02*
X003732Y019269D01*
X003732Y019315D02*
X003660Y019315D01*
X003660Y019361D02*
X003732Y019361D01*
X003732Y019407D02*
X003660Y019407D01*
X003535Y018993D02*
X003463Y018993D01*
X003463Y019419D01*
X003535Y019419D01*
X003535Y018993D01*
X003535Y019039D02*
X003463Y019039D01*
X003463Y019085D02*
X003535Y019085D01*
X003535Y019131D02*
X003463Y019131D01*
X003463Y019177D02*
X003535Y019177D01*
X003535Y019223D02*
X003463Y019223D01*
X003463Y019269D02*
X003535Y019269D01*
X003535Y019315D02*
X003463Y019315D01*
X003463Y019361D02*
X003535Y019361D01*
X003535Y019407D02*
X003463Y019407D01*
X003338Y018993D02*
X003266Y018993D01*
X003266Y019419D01*
X003338Y019419D01*
X003338Y018993D01*
X003338Y019039D02*
X003266Y019039D01*
X003266Y019085D02*
X003338Y019085D01*
X003338Y019131D02*
X003266Y019131D01*
X003266Y019177D02*
X003338Y019177D01*
X003338Y019223D02*
X003266Y019223D01*
X003266Y019269D02*
X003338Y019269D01*
X003338Y019315D02*
X003266Y019315D01*
X003266Y019361D02*
X003338Y019361D01*
X003338Y019407D02*
X003266Y019407D01*
X003141Y018993D02*
X003069Y018993D01*
X003069Y019419D01*
X003141Y019419D01*
X003141Y018993D01*
X003141Y019039D02*
X003069Y019039D01*
X003069Y019085D02*
X003141Y019085D01*
X003141Y019131D02*
X003069Y019131D01*
X003069Y019177D02*
X003141Y019177D01*
X003141Y019223D02*
X003069Y019223D01*
X003069Y019269D02*
X003141Y019269D01*
X003141Y019315D02*
X003069Y019315D01*
X003069Y019361D02*
X003141Y019361D01*
X003141Y019407D02*
X003069Y019407D01*
X002944Y018993D02*
X002872Y018993D01*
X002872Y019419D01*
X002944Y019419D01*
X002944Y018993D01*
X002944Y019039D02*
X002872Y019039D01*
X002872Y019085D02*
X002944Y019085D01*
X002944Y019131D02*
X002872Y019131D01*
X002872Y019177D02*
X002944Y019177D01*
X002944Y019223D02*
X002872Y019223D01*
X002872Y019269D02*
X002944Y019269D01*
X002944Y019315D02*
X002872Y019315D01*
X002872Y019361D02*
X002944Y019361D01*
X002944Y019407D02*
X002872Y019407D01*
X002747Y018993D02*
X002675Y018993D01*
X002675Y019419D01*
X002747Y019419D01*
X002747Y018993D01*
X002747Y019039D02*
X002675Y019039D01*
X002675Y019085D02*
X002747Y019085D01*
X002747Y019131D02*
X002675Y019131D01*
X002675Y019177D02*
X002747Y019177D01*
X002747Y019223D02*
X002675Y019223D01*
X002675Y019269D02*
X002747Y019269D01*
X002747Y019315D02*
X002675Y019315D01*
X002675Y019361D02*
X002747Y019361D01*
X002747Y019407D02*
X002675Y019407D01*
X002747Y012772D02*
X002675Y012772D01*
X002675Y013198D01*
X002747Y013198D01*
X002747Y012772D01*
X002747Y012818D02*
X002675Y012818D01*
X002675Y012864D02*
X002747Y012864D01*
X002747Y012910D02*
X002675Y012910D01*
X002675Y012956D02*
X002747Y012956D01*
X002747Y013002D02*
X002675Y013002D01*
X002675Y013048D02*
X002747Y013048D01*
X002747Y013094D02*
X002675Y013094D01*
X002675Y013140D02*
X002747Y013140D01*
X002747Y013186D02*
X002675Y013186D01*
X002872Y012772D02*
X002944Y012772D01*
X002872Y012772D02*
X002872Y013198D01*
X002944Y013198D01*
X002944Y012772D01*
X002944Y012818D02*
X002872Y012818D01*
X002872Y012864D02*
X002944Y012864D01*
X002944Y012910D02*
X002872Y012910D01*
X002872Y012956D02*
X002944Y012956D01*
X002944Y013002D02*
X002872Y013002D01*
X002872Y013048D02*
X002944Y013048D01*
X002944Y013094D02*
X002872Y013094D01*
X002872Y013140D02*
X002944Y013140D01*
X002944Y013186D02*
X002872Y013186D01*
X003069Y012772D02*
X003141Y012772D01*
X003069Y012772D02*
X003069Y013198D01*
X003141Y013198D01*
X003141Y012772D01*
X003141Y012818D02*
X003069Y012818D01*
X003069Y012864D02*
X003141Y012864D01*
X003141Y012910D02*
X003069Y012910D01*
X003069Y012956D02*
X003141Y012956D01*
X003141Y013002D02*
X003069Y013002D01*
X003069Y013048D02*
X003141Y013048D01*
X003141Y013094D02*
X003069Y013094D01*
X003069Y013140D02*
X003141Y013140D01*
X003141Y013186D02*
X003069Y013186D01*
X003266Y012772D02*
X003338Y012772D01*
X003266Y012772D02*
X003266Y013198D01*
X003338Y013198D01*
X003338Y012772D01*
X003338Y012818D02*
X003266Y012818D01*
X003266Y012864D02*
X003338Y012864D01*
X003338Y012910D02*
X003266Y012910D01*
X003266Y012956D02*
X003338Y012956D01*
X003338Y013002D02*
X003266Y013002D01*
X003266Y013048D02*
X003338Y013048D01*
X003338Y013094D02*
X003266Y013094D01*
X003266Y013140D02*
X003338Y013140D01*
X003338Y013186D02*
X003266Y013186D01*
X003463Y012772D02*
X003535Y012772D01*
X003463Y012772D02*
X003463Y013198D01*
X003535Y013198D01*
X003535Y012772D01*
X003535Y012818D02*
X003463Y012818D01*
X003463Y012864D02*
X003535Y012864D01*
X003535Y012910D02*
X003463Y012910D01*
X003463Y012956D02*
X003535Y012956D01*
X003535Y013002D02*
X003463Y013002D01*
X003463Y013048D02*
X003535Y013048D01*
X003535Y013094D02*
X003463Y013094D01*
X003463Y013140D02*
X003535Y013140D01*
X003535Y013186D02*
X003463Y013186D01*
X003660Y012772D02*
X003732Y012772D01*
X003660Y012772D02*
X003660Y013198D01*
X003732Y013198D01*
X003732Y012772D01*
X003732Y012818D02*
X003660Y012818D01*
X003660Y012864D02*
X003732Y012864D01*
X003732Y012910D02*
X003660Y012910D01*
X003660Y012956D02*
X003732Y012956D01*
X003732Y013002D02*
X003660Y013002D01*
X003660Y013048D02*
X003732Y013048D01*
X003732Y013094D02*
X003660Y013094D01*
X003660Y013140D02*
X003732Y013140D01*
X003732Y013186D02*
X003660Y013186D01*
X003856Y012772D02*
X003928Y012772D01*
X003856Y012772D02*
X003856Y013198D01*
X003928Y013198D01*
X003928Y012772D01*
X003928Y012818D02*
X003856Y012818D01*
X003856Y012864D02*
X003928Y012864D01*
X003928Y012910D02*
X003856Y012910D01*
X003856Y012956D02*
X003928Y012956D01*
X003928Y013002D02*
X003856Y013002D01*
X003856Y013048D02*
X003928Y013048D01*
X003928Y013094D02*
X003856Y013094D01*
X003856Y013140D02*
X003928Y013140D01*
X003928Y013186D02*
X003856Y013186D01*
X004053Y012772D02*
X004125Y012772D01*
X004053Y012772D02*
X004053Y013198D01*
X004125Y013198D01*
X004125Y012772D01*
X004125Y012818D02*
X004053Y012818D01*
X004053Y012864D02*
X004125Y012864D01*
X004125Y012910D02*
X004053Y012910D01*
X004053Y012956D02*
X004125Y012956D01*
X004125Y013002D02*
X004053Y013002D01*
X004053Y013048D02*
X004125Y013048D01*
X004125Y013094D02*
X004053Y013094D01*
X004053Y013140D02*
X004125Y013140D01*
X004125Y013186D02*
X004053Y013186D01*
X004250Y012772D02*
X004322Y012772D01*
X004250Y012772D02*
X004250Y013198D01*
X004322Y013198D01*
X004322Y012772D01*
X004322Y012818D02*
X004250Y012818D01*
X004250Y012864D02*
X004322Y012864D01*
X004322Y012910D02*
X004250Y012910D01*
X004250Y012956D02*
X004322Y012956D01*
X004322Y013002D02*
X004250Y013002D01*
X004250Y013048D02*
X004322Y013048D01*
X004322Y013094D02*
X004250Y013094D01*
X004250Y013140D02*
X004322Y013140D01*
X004322Y013186D02*
X004250Y013186D01*
X004447Y012772D02*
X004519Y012772D01*
X004447Y012772D02*
X004447Y013198D01*
X004519Y013198D01*
X004519Y012772D01*
X004519Y012818D02*
X004447Y012818D01*
X004447Y012864D02*
X004519Y012864D01*
X004519Y012910D02*
X004447Y012910D01*
X004447Y012956D02*
X004519Y012956D01*
X004519Y013002D02*
X004447Y013002D01*
X004447Y013048D02*
X004519Y013048D01*
X004519Y013094D02*
X004447Y013094D01*
X004447Y013140D02*
X004519Y013140D01*
X004519Y013186D02*
X004447Y013186D01*
X004644Y012772D02*
X004716Y012772D01*
X004644Y012772D02*
X004644Y013198D01*
X004716Y013198D01*
X004716Y012772D01*
X004716Y012818D02*
X004644Y012818D01*
X004644Y012864D02*
X004716Y012864D01*
X004716Y012910D02*
X004644Y012910D01*
X004644Y012956D02*
X004716Y012956D01*
X004716Y013002D02*
X004644Y013002D01*
X004644Y013048D02*
X004716Y013048D01*
X004716Y013094D02*
X004644Y013094D01*
X004644Y013140D02*
X004716Y013140D01*
X004716Y013186D02*
X004644Y013186D01*
X004841Y012772D02*
X004913Y012772D01*
X004841Y012772D02*
X004841Y013198D01*
X004913Y013198D01*
X004913Y012772D01*
X004913Y012818D02*
X004841Y012818D01*
X004841Y012864D02*
X004913Y012864D01*
X004913Y012910D02*
X004841Y012910D01*
X004841Y012956D02*
X004913Y012956D01*
X004913Y013002D02*
X004841Y013002D01*
X004841Y013048D02*
X004913Y013048D01*
X004913Y013094D02*
X004841Y013094D01*
X004841Y013140D02*
X004913Y013140D01*
X004913Y013186D02*
X004841Y013186D01*
X005038Y012772D02*
X005110Y012772D01*
X005038Y012772D02*
X005038Y013198D01*
X005110Y013198D01*
X005110Y012772D01*
X005110Y012818D02*
X005038Y012818D01*
X005038Y012864D02*
X005110Y012864D01*
X005110Y012910D02*
X005038Y012910D01*
X005038Y012956D02*
X005110Y012956D01*
X005110Y013002D02*
X005038Y013002D01*
X005038Y013048D02*
X005110Y013048D01*
X005110Y013094D02*
X005038Y013094D01*
X005038Y013140D02*
X005110Y013140D01*
X005110Y013186D02*
X005038Y013186D01*
X005234Y012772D02*
X005306Y012772D01*
X005234Y012772D02*
X005234Y013198D01*
X005306Y013198D01*
X005306Y012772D01*
X005306Y012818D02*
X005234Y012818D01*
X005234Y012864D02*
X005306Y012864D01*
X005306Y012910D02*
X005234Y012910D01*
X005234Y012956D02*
X005306Y012956D01*
X005306Y013002D02*
X005234Y013002D01*
X005234Y013048D02*
X005306Y013048D01*
X005306Y013094D02*
X005234Y013094D01*
X005234Y013140D02*
X005306Y013140D01*
X005306Y013186D02*
X005234Y013186D01*
X005431Y012772D02*
X005503Y012772D01*
X005431Y012772D02*
X005431Y013198D01*
X005503Y013198D01*
X005503Y012772D01*
X005503Y012818D02*
X005431Y012818D01*
X005431Y012864D02*
X005503Y012864D01*
X005503Y012910D02*
X005431Y012910D01*
X005431Y012956D02*
X005503Y012956D01*
X005503Y013002D02*
X005431Y013002D01*
X005431Y013048D02*
X005503Y013048D01*
X005503Y013094D02*
X005431Y013094D01*
X005431Y013140D02*
X005503Y013140D01*
X005503Y013186D02*
X005431Y013186D01*
X005628Y012772D02*
X005700Y012772D01*
X005628Y012772D02*
X005628Y013198D01*
X005700Y013198D01*
X005700Y012772D01*
X005700Y012818D02*
X005628Y012818D01*
X005628Y012864D02*
X005700Y012864D01*
X005700Y012910D02*
X005628Y012910D01*
X005628Y012956D02*
X005700Y012956D01*
X005700Y013002D02*
X005628Y013002D01*
X005628Y013048D02*
X005700Y013048D01*
X005700Y013094D02*
X005628Y013094D01*
X005628Y013140D02*
X005700Y013140D01*
X005700Y013186D02*
X005628Y013186D01*
X005825Y012772D02*
X005897Y012772D01*
X005825Y012772D02*
X005825Y013198D01*
X005897Y013198D01*
X005897Y012772D01*
X005897Y012818D02*
X005825Y012818D01*
X005825Y012864D02*
X005897Y012864D01*
X005897Y012910D02*
X005825Y012910D01*
X005825Y012956D02*
X005897Y012956D01*
X005897Y013002D02*
X005825Y013002D01*
X005825Y013048D02*
X005897Y013048D01*
X005897Y013094D02*
X005825Y013094D01*
X005825Y013140D02*
X005897Y013140D01*
X005897Y013186D02*
X005825Y013186D01*
X006022Y012772D02*
X006094Y012772D01*
X006022Y012772D02*
X006022Y013198D01*
X006094Y013198D01*
X006094Y012772D01*
X006094Y012818D02*
X006022Y012818D01*
X006022Y012864D02*
X006094Y012864D01*
X006094Y012910D02*
X006022Y012910D01*
X006022Y012956D02*
X006094Y012956D01*
X006094Y013002D02*
X006022Y013002D01*
X006022Y013048D02*
X006094Y013048D01*
X006094Y013094D02*
X006022Y013094D01*
X006022Y013140D02*
X006094Y013140D01*
X006094Y013186D02*
X006022Y013186D01*
X006219Y012772D02*
X006291Y012772D01*
X006219Y012772D02*
X006219Y013198D01*
X006291Y013198D01*
X006291Y012772D01*
X006291Y012818D02*
X006219Y012818D01*
X006219Y012864D02*
X006291Y012864D01*
X006291Y012910D02*
X006219Y012910D01*
X006219Y012956D02*
X006291Y012956D01*
X006291Y013002D02*
X006219Y013002D01*
X006219Y013048D02*
X006291Y013048D01*
X006291Y013094D02*
X006219Y013094D01*
X006219Y013140D02*
X006291Y013140D01*
X006291Y013186D02*
X006219Y013186D01*
X006415Y012772D02*
X006487Y012772D01*
X006415Y012772D02*
X006415Y013198D01*
X006487Y013198D01*
X006487Y012772D01*
X006487Y012818D02*
X006415Y012818D01*
X006415Y012864D02*
X006487Y012864D01*
X006487Y012910D02*
X006415Y012910D01*
X006415Y012956D02*
X006487Y012956D01*
X006487Y013002D02*
X006415Y013002D01*
X006415Y013048D02*
X006487Y013048D01*
X006487Y013094D02*
X006415Y013094D01*
X006415Y013140D02*
X006487Y013140D01*
X006487Y013186D02*
X006415Y013186D01*
X006612Y012772D02*
X006684Y012772D01*
X006612Y012772D02*
X006612Y013198D01*
X006684Y013198D01*
X006684Y012772D01*
X006684Y012818D02*
X006612Y012818D01*
X006612Y012864D02*
X006684Y012864D01*
X006684Y012910D02*
X006612Y012910D01*
X006612Y012956D02*
X006684Y012956D01*
X006684Y013002D02*
X006612Y013002D01*
X006612Y013048D02*
X006684Y013048D01*
X006684Y013094D02*
X006612Y013094D01*
X006612Y013140D02*
X006684Y013140D01*
X006684Y013186D02*
X006612Y013186D01*
X006809Y012772D02*
X006881Y012772D01*
X006809Y012772D02*
X006809Y013198D01*
X006881Y013198D01*
X006881Y012772D01*
X006881Y012818D02*
X006809Y012818D01*
X006809Y012864D02*
X006881Y012864D01*
X006881Y012910D02*
X006809Y012910D01*
X006809Y012956D02*
X006881Y012956D01*
X006881Y013002D02*
X006809Y013002D01*
X006809Y013048D02*
X006881Y013048D01*
X006881Y013094D02*
X006809Y013094D01*
X006809Y013140D02*
X006881Y013140D01*
X006881Y013186D02*
X006809Y013186D01*
X007006Y012772D02*
X007078Y012772D01*
X007006Y012772D02*
X007006Y013198D01*
X007078Y013198D01*
X007078Y012772D01*
X007078Y012818D02*
X007006Y012818D01*
X007006Y012864D02*
X007078Y012864D01*
X007078Y012910D02*
X007006Y012910D01*
X007006Y012956D02*
X007078Y012956D01*
X007078Y013002D02*
X007006Y013002D01*
X007006Y013048D02*
X007078Y013048D01*
X007078Y013094D02*
X007006Y013094D01*
X007006Y013140D02*
X007078Y013140D01*
X007078Y013186D02*
X007006Y013186D01*
X007203Y012772D02*
X007275Y012772D01*
X007203Y012772D02*
X007203Y013198D01*
X007275Y013198D01*
X007275Y012772D01*
X007275Y012818D02*
X007203Y012818D01*
X007203Y012864D02*
X007275Y012864D01*
X007275Y012910D02*
X007203Y012910D01*
X007203Y012956D02*
X007275Y012956D01*
X007275Y013002D02*
X007203Y013002D01*
X007203Y013048D02*
X007275Y013048D01*
X007275Y013094D02*
X007203Y013094D01*
X007203Y013140D02*
X007275Y013140D01*
X007275Y013186D02*
X007203Y013186D01*
X007400Y012772D02*
X007472Y012772D01*
X007400Y012772D02*
X007400Y013198D01*
X007472Y013198D01*
X007472Y012772D01*
X007472Y012818D02*
X007400Y012818D01*
X007400Y012864D02*
X007472Y012864D01*
X007472Y012910D02*
X007400Y012910D01*
X007400Y012956D02*
X007472Y012956D01*
X007472Y013002D02*
X007400Y013002D01*
X007400Y013048D02*
X007472Y013048D01*
X007472Y013094D02*
X007400Y013094D01*
X007400Y013140D02*
X007472Y013140D01*
X007472Y013186D02*
X007400Y013186D01*
X007597Y012772D02*
X007669Y012772D01*
X007597Y012772D02*
X007597Y013198D01*
X007669Y013198D01*
X007669Y012772D01*
X007669Y012818D02*
X007597Y012818D01*
X007597Y012864D02*
X007669Y012864D01*
X007669Y012910D02*
X007597Y012910D01*
X007597Y012956D02*
X007669Y012956D01*
X007669Y013002D02*
X007597Y013002D01*
X007597Y013048D02*
X007669Y013048D01*
X007669Y013094D02*
X007597Y013094D01*
X007597Y013140D02*
X007669Y013140D01*
X007669Y013186D02*
X007597Y013186D01*
X007793Y012772D02*
X007865Y012772D01*
X007793Y012772D02*
X007793Y013198D01*
X007865Y013198D01*
X007865Y012772D01*
X007865Y012818D02*
X007793Y012818D01*
X007793Y012864D02*
X007865Y012864D01*
X007865Y012910D02*
X007793Y012910D01*
X007793Y012956D02*
X007865Y012956D01*
X007865Y013002D02*
X007793Y013002D01*
X007793Y013048D02*
X007865Y013048D01*
X007865Y013094D02*
X007793Y013094D01*
X007793Y013140D02*
X007865Y013140D01*
X007865Y013186D02*
X007793Y013186D01*
X007990Y012772D02*
X008062Y012772D01*
X007990Y012772D02*
X007990Y013198D01*
X008062Y013198D01*
X008062Y012772D01*
X008062Y012818D02*
X007990Y012818D01*
X007990Y012864D02*
X008062Y012864D01*
X008062Y012910D02*
X007990Y012910D01*
X007990Y012956D02*
X008062Y012956D01*
X008062Y013002D02*
X007990Y013002D01*
X007990Y013048D02*
X008062Y013048D01*
X008062Y013094D02*
X007990Y013094D01*
X007990Y013140D02*
X008062Y013140D01*
X008062Y013186D02*
X007990Y013186D01*
X008187Y012772D02*
X008259Y012772D01*
X008187Y012772D02*
X008187Y013198D01*
X008259Y013198D01*
X008259Y012772D01*
X008259Y012818D02*
X008187Y012818D01*
X008187Y012864D02*
X008259Y012864D01*
X008259Y012910D02*
X008187Y012910D01*
X008187Y012956D02*
X008259Y012956D01*
X008259Y013002D02*
X008187Y013002D01*
X008187Y013048D02*
X008259Y013048D01*
X008259Y013094D02*
X008187Y013094D01*
X008187Y013140D02*
X008259Y013140D01*
X008259Y013186D02*
X008187Y013186D01*
X008384Y012772D02*
X008456Y012772D01*
X008384Y012772D02*
X008384Y013198D01*
X008456Y013198D01*
X008456Y012772D01*
X008456Y012818D02*
X008384Y012818D01*
X008384Y012864D02*
X008456Y012864D01*
X008456Y012910D02*
X008384Y012910D01*
X008384Y012956D02*
X008456Y012956D01*
X008456Y013002D02*
X008384Y013002D01*
X008384Y013048D02*
X008456Y013048D01*
X008456Y013094D02*
X008384Y013094D01*
X008384Y013140D02*
X008456Y013140D01*
X008456Y013186D02*
X008384Y013186D01*
X008581Y012772D02*
X008653Y012772D01*
X008581Y012772D02*
X008581Y013198D01*
X008653Y013198D01*
X008653Y012772D01*
X008653Y012818D02*
X008581Y012818D01*
X008581Y012864D02*
X008653Y012864D01*
X008653Y012910D02*
X008581Y012910D01*
X008581Y012956D02*
X008653Y012956D01*
X008653Y013002D02*
X008581Y013002D01*
X008581Y013048D02*
X008653Y013048D01*
X008653Y013094D02*
X008581Y013094D01*
X008581Y013140D02*
X008653Y013140D01*
X008653Y013186D02*
X008581Y013186D01*
X008778Y012772D02*
X008850Y012772D01*
X008778Y012772D02*
X008778Y013198D01*
X008850Y013198D01*
X008850Y012772D01*
X008850Y012818D02*
X008778Y012818D01*
X008778Y012864D02*
X008850Y012864D01*
X008850Y012910D02*
X008778Y012910D01*
X008778Y012956D02*
X008850Y012956D01*
X008850Y013002D02*
X008778Y013002D01*
X008778Y013048D02*
X008850Y013048D01*
X008850Y013094D02*
X008778Y013094D01*
X008778Y013140D02*
X008850Y013140D01*
X008850Y013186D02*
X008778Y013186D01*
X008975Y012772D02*
X009047Y012772D01*
X008975Y012772D02*
X008975Y013198D01*
X009047Y013198D01*
X009047Y012772D01*
X009047Y012818D02*
X008975Y012818D01*
X008975Y012864D02*
X009047Y012864D01*
X009047Y012910D02*
X008975Y012910D01*
X008975Y012956D02*
X009047Y012956D01*
X009047Y013002D02*
X008975Y013002D01*
X008975Y013048D02*
X009047Y013048D01*
X009047Y013094D02*
X008975Y013094D01*
X008975Y013140D02*
X009047Y013140D01*
X009047Y013186D02*
X008975Y013186D01*
X009171Y012772D02*
X009243Y012772D01*
X009171Y012772D02*
X009171Y013198D01*
X009243Y013198D01*
X009243Y012772D01*
X009243Y012818D02*
X009171Y012818D01*
X009171Y012864D02*
X009243Y012864D01*
X009243Y012910D02*
X009171Y012910D01*
X009171Y012956D02*
X009243Y012956D01*
X009243Y013002D02*
X009171Y013002D01*
X009171Y013048D02*
X009243Y013048D01*
X009243Y013094D02*
X009171Y013094D01*
X009171Y013140D02*
X009243Y013140D01*
X009243Y013186D02*
X009171Y013186D01*
X009368Y012772D02*
X009440Y012772D01*
X009368Y012772D02*
X009368Y013198D01*
X009440Y013198D01*
X009440Y012772D01*
X009440Y012818D02*
X009368Y012818D01*
X009368Y012864D02*
X009440Y012864D01*
X009440Y012910D02*
X009368Y012910D01*
X009368Y012956D02*
X009440Y012956D01*
X009440Y013002D02*
X009368Y013002D01*
X009368Y013048D02*
X009440Y013048D01*
X009440Y013094D02*
X009368Y013094D01*
X009368Y013140D02*
X009440Y013140D01*
X009440Y013186D02*
X009368Y013186D01*
X009565Y012772D02*
X009637Y012772D01*
X009565Y012772D02*
X009565Y013198D01*
X009637Y013198D01*
X009637Y012772D01*
X009637Y012818D02*
X009565Y012818D01*
X009565Y012864D02*
X009637Y012864D01*
X009637Y012910D02*
X009565Y012910D01*
X009565Y012956D02*
X009637Y012956D01*
X009637Y013002D02*
X009565Y013002D01*
X009565Y013048D02*
X009637Y013048D01*
X009637Y013094D02*
X009565Y013094D01*
X009565Y013140D02*
X009637Y013140D01*
X009637Y013186D02*
X009565Y013186D01*
X009762Y012772D02*
X009834Y012772D01*
X009762Y012772D02*
X009762Y013198D01*
X009834Y013198D01*
X009834Y012772D01*
X009834Y012818D02*
X009762Y012818D01*
X009762Y012864D02*
X009834Y012864D01*
X009834Y012910D02*
X009762Y012910D01*
X009762Y012956D02*
X009834Y012956D01*
X009834Y013002D02*
X009762Y013002D01*
X009762Y013048D02*
X009834Y013048D01*
X009834Y013094D02*
X009762Y013094D01*
X009762Y013140D02*
X009834Y013140D01*
X009834Y013186D02*
X009762Y013186D01*
X009959Y012772D02*
X010031Y012772D01*
X009959Y012772D02*
X009959Y013198D01*
X010031Y013198D01*
X010031Y012772D01*
X010031Y012818D02*
X009959Y012818D01*
X009959Y012864D02*
X010031Y012864D01*
X010031Y012910D02*
X009959Y012910D01*
X009959Y012956D02*
X010031Y012956D01*
X010031Y013002D02*
X009959Y013002D01*
X009959Y013048D02*
X010031Y013048D01*
X010031Y013094D02*
X009959Y013094D01*
X009959Y013140D02*
X010031Y013140D01*
X010031Y013186D02*
X009959Y013186D01*
X010156Y012772D02*
X010228Y012772D01*
X010156Y012772D02*
X010156Y013198D01*
X010228Y013198D01*
X010228Y012772D01*
X010228Y012818D02*
X010156Y012818D01*
X010156Y012864D02*
X010228Y012864D01*
X010228Y012910D02*
X010156Y012910D01*
X010156Y012956D02*
X010228Y012956D01*
X010228Y013002D02*
X010156Y013002D01*
X010156Y013048D02*
X010228Y013048D01*
X010228Y013094D02*
X010156Y013094D01*
X010156Y013140D02*
X010228Y013140D01*
X010228Y013186D02*
X010156Y013186D01*
X010353Y012772D02*
X010425Y012772D01*
X010353Y012772D02*
X010353Y013198D01*
X010425Y013198D01*
X010425Y012772D01*
X010425Y012818D02*
X010353Y012818D01*
X010353Y012864D02*
X010425Y012864D01*
X010425Y012910D02*
X010353Y012910D01*
X010353Y012956D02*
X010425Y012956D01*
X010425Y013002D02*
X010353Y013002D01*
X010353Y013048D02*
X010425Y013048D01*
X010425Y013094D02*
X010353Y013094D01*
X010353Y013140D02*
X010425Y013140D01*
X010425Y013186D02*
X010353Y013186D01*
X010549Y012772D02*
X010621Y012772D01*
X010549Y012772D02*
X010549Y013198D01*
X010621Y013198D01*
X010621Y012772D01*
X010621Y012818D02*
X010549Y012818D01*
X010549Y012864D02*
X010621Y012864D01*
X010621Y012910D02*
X010549Y012910D01*
X010549Y012956D02*
X010621Y012956D01*
X010621Y013002D02*
X010549Y013002D01*
X010549Y013048D02*
X010621Y013048D01*
X010621Y013094D02*
X010549Y013094D01*
X010549Y013140D02*
X010621Y013140D01*
X010621Y013186D02*
X010549Y013186D01*
X010746Y012772D02*
X010818Y012772D01*
X010746Y012772D02*
X010746Y013198D01*
X010818Y013198D01*
X010818Y012772D01*
X010818Y012818D02*
X010746Y012818D01*
X010746Y012864D02*
X010818Y012864D01*
X010818Y012910D02*
X010746Y012910D01*
X010746Y012956D02*
X010818Y012956D01*
X010818Y013002D02*
X010746Y013002D01*
X010746Y013048D02*
X010818Y013048D01*
X010818Y013094D02*
X010746Y013094D01*
X010746Y013140D02*
X010818Y013140D01*
X010818Y013186D02*
X010746Y013186D01*
X010943Y012772D02*
X011015Y012772D01*
X010943Y012772D02*
X010943Y013198D01*
X011015Y013198D01*
X011015Y012772D01*
X011015Y012818D02*
X010943Y012818D01*
X010943Y012864D02*
X011015Y012864D01*
X011015Y012910D02*
X010943Y012910D01*
X010943Y012956D02*
X011015Y012956D01*
X011015Y013002D02*
X010943Y013002D01*
X010943Y013048D02*
X011015Y013048D01*
X011015Y013094D02*
X010943Y013094D01*
X010943Y013140D02*
X011015Y013140D01*
X011015Y013186D02*
X010943Y013186D01*
X011140Y012772D02*
X011212Y012772D01*
X011140Y012772D02*
X011140Y013198D01*
X011212Y013198D01*
X011212Y012772D01*
X011212Y012818D02*
X011140Y012818D01*
X011140Y012864D02*
X011212Y012864D01*
X011212Y012910D02*
X011140Y012910D01*
X011140Y012956D02*
X011212Y012956D01*
X011212Y013002D02*
X011140Y013002D01*
X011140Y013048D02*
X011212Y013048D01*
X011212Y013094D02*
X011140Y013094D01*
X011140Y013140D02*
X011212Y013140D01*
X011212Y013186D02*
X011140Y013186D01*
X011337Y012772D02*
X011409Y012772D01*
X011337Y012772D02*
X011337Y013198D01*
X011409Y013198D01*
X011409Y012772D01*
X011409Y012818D02*
X011337Y012818D01*
X011337Y012864D02*
X011409Y012864D01*
X011409Y012910D02*
X011337Y012910D01*
X011337Y012956D02*
X011409Y012956D01*
X011409Y013002D02*
X011337Y013002D01*
X011337Y013048D02*
X011409Y013048D01*
X011409Y013094D02*
X011337Y013094D01*
X011337Y013140D02*
X011409Y013140D01*
X011409Y013186D02*
X011337Y013186D01*
X011534Y012772D02*
X011606Y012772D01*
X011534Y012772D02*
X011534Y013198D01*
X011606Y013198D01*
X011606Y012772D01*
X011606Y012818D02*
X011534Y012818D01*
X011534Y012864D02*
X011606Y012864D01*
X011606Y012910D02*
X011534Y012910D01*
X011534Y012956D02*
X011606Y012956D01*
X011606Y013002D02*
X011534Y013002D01*
X011534Y013048D02*
X011606Y013048D01*
X011606Y013094D02*
X011534Y013094D01*
X011534Y013140D02*
X011606Y013140D01*
X011606Y013186D02*
X011534Y013186D01*
X011730Y012772D02*
X011802Y012772D01*
X011730Y012772D02*
X011730Y013198D01*
X011802Y013198D01*
X011802Y012772D01*
X011802Y012818D02*
X011730Y012818D01*
X011730Y012864D02*
X011802Y012864D01*
X011802Y012910D02*
X011730Y012910D01*
X011730Y012956D02*
X011802Y012956D01*
X011802Y013002D02*
X011730Y013002D01*
X011730Y013048D02*
X011802Y013048D01*
X011802Y013094D02*
X011730Y013094D01*
X011730Y013140D02*
X011802Y013140D01*
X011802Y013186D02*
X011730Y013186D01*
X011927Y012772D02*
X011999Y012772D01*
X011927Y012772D02*
X011927Y013198D01*
X011999Y013198D01*
X011999Y012772D01*
X011999Y012818D02*
X011927Y012818D01*
X011927Y012864D02*
X011999Y012864D01*
X011999Y012910D02*
X011927Y012910D01*
X011927Y012956D02*
X011999Y012956D01*
X011999Y013002D02*
X011927Y013002D01*
X011927Y013048D02*
X011999Y013048D01*
X011999Y013094D02*
X011927Y013094D01*
X011927Y013140D02*
X011999Y013140D01*
X011999Y013186D02*
X011927Y013186D01*
X012124Y012772D02*
X012196Y012772D01*
X012124Y012772D02*
X012124Y013198D01*
X012196Y013198D01*
X012196Y012772D01*
X012196Y012818D02*
X012124Y012818D01*
X012124Y012864D02*
X012196Y012864D01*
X012196Y012910D02*
X012124Y012910D01*
X012124Y012956D02*
X012196Y012956D01*
X012196Y013002D02*
X012124Y013002D01*
X012124Y013048D02*
X012196Y013048D01*
X012196Y013094D02*
X012124Y013094D01*
X012124Y013140D02*
X012196Y013140D01*
X012196Y013186D02*
X012124Y013186D01*
X012321Y012772D02*
X012393Y012772D01*
X012321Y012772D02*
X012321Y013198D01*
X012393Y013198D01*
X012393Y012772D01*
X012393Y012818D02*
X012321Y012818D01*
X012321Y012864D02*
X012393Y012864D01*
X012393Y012910D02*
X012321Y012910D01*
X012321Y012956D02*
X012393Y012956D01*
X012393Y013002D02*
X012321Y013002D01*
X012321Y013048D02*
X012393Y013048D01*
X012393Y013094D02*
X012321Y013094D01*
X012321Y013140D02*
X012393Y013140D01*
X012393Y013186D02*
X012321Y013186D01*
X019683Y020489D02*
X020109Y020489D01*
X019683Y020489D02*
X019683Y020561D01*
X020109Y020561D01*
X020109Y020489D01*
X020109Y020535D02*
X019683Y020535D01*
X019683Y020685D02*
X020109Y020685D01*
X019683Y020685D02*
X019683Y020757D01*
X020109Y020757D01*
X020109Y020685D01*
X020109Y020731D02*
X019683Y020731D01*
X019683Y020882D02*
X020109Y020882D01*
X019683Y020882D02*
X019683Y020954D01*
X020109Y020954D01*
X020109Y020882D01*
X020109Y020928D02*
X019683Y020928D01*
X019683Y021079D02*
X020109Y021079D01*
X019683Y021079D02*
X019683Y021151D01*
X020109Y021151D01*
X020109Y021079D01*
X020109Y021125D02*
X019683Y021125D01*
X019683Y021276D02*
X020109Y021276D01*
X019683Y021276D02*
X019683Y021348D01*
X020109Y021348D01*
X020109Y021276D01*
X020109Y021322D02*
X019683Y021322D01*
X019683Y021473D02*
X020109Y021473D01*
X019683Y021473D02*
X019683Y021545D01*
X020109Y021545D01*
X020109Y021473D01*
X020109Y021519D02*
X019683Y021519D01*
X019683Y021670D02*
X020109Y021670D01*
X019683Y021670D02*
X019683Y021742D01*
X020109Y021742D01*
X020109Y021670D01*
X020109Y021716D02*
X019683Y021716D01*
X019683Y021867D02*
X020109Y021867D01*
X019683Y021867D02*
X019683Y021939D01*
X020109Y021939D01*
X020109Y021867D01*
X020109Y021913D02*
X019683Y021913D01*
X019683Y022063D02*
X020109Y022063D01*
X019683Y022063D02*
X019683Y022135D01*
X020109Y022135D01*
X020109Y022063D01*
X020109Y022109D02*
X019683Y022109D01*
X019683Y022260D02*
X020109Y022260D01*
X019683Y022260D02*
X019683Y022332D01*
X020109Y022332D01*
X020109Y022260D01*
X020109Y022306D02*
X019683Y022306D01*
X019683Y022457D02*
X020109Y022457D01*
X019683Y022457D02*
X019683Y022529D01*
X020109Y022529D01*
X020109Y022457D01*
X020109Y022503D02*
X019683Y022503D01*
X019683Y022654D02*
X020109Y022654D01*
X019683Y022654D02*
X019683Y022726D01*
X020109Y022726D01*
X020109Y022654D01*
X020109Y022700D02*
X019683Y022700D01*
X019683Y022851D02*
X020109Y022851D01*
X019683Y022851D02*
X019683Y022923D01*
X020109Y022923D01*
X020109Y022851D01*
X020109Y022897D02*
X019683Y022897D01*
X019683Y023048D02*
X020109Y023048D01*
X019683Y023048D02*
X019683Y023120D01*
X020109Y023120D01*
X020109Y023048D01*
X020109Y023094D02*
X019683Y023094D01*
X019683Y023244D02*
X020109Y023244D01*
X019683Y023244D02*
X019683Y023316D01*
X020109Y023316D01*
X020109Y023244D01*
X020109Y023290D02*
X019683Y023290D01*
X019683Y023441D02*
X020109Y023441D01*
X019683Y023441D02*
X019683Y023513D01*
X020109Y023513D01*
X020109Y023441D01*
X020109Y023487D02*
X019683Y023487D01*
X019683Y023638D02*
X020109Y023638D01*
X019683Y023638D02*
X019683Y023710D01*
X020109Y023710D01*
X020109Y023638D01*
X020109Y023684D02*
X019683Y023684D01*
X019683Y023835D02*
X020109Y023835D01*
X019683Y023835D02*
X019683Y023907D01*
X020109Y023907D01*
X020109Y023835D01*
X020109Y023881D02*
X019683Y023881D01*
X019683Y024032D02*
X020109Y024032D01*
X019683Y024032D02*
X019683Y024104D01*
X020109Y024104D01*
X020109Y024032D01*
X020109Y024078D02*
X019683Y024078D01*
X019683Y024229D02*
X020109Y024229D01*
X019683Y024229D02*
X019683Y024301D01*
X020109Y024301D01*
X020109Y024229D01*
X020109Y024275D02*
X019683Y024275D01*
X019683Y024426D02*
X020109Y024426D01*
X019683Y024426D02*
X019683Y024498D01*
X020109Y024498D01*
X020109Y024426D01*
X020109Y024472D02*
X019683Y024472D01*
X019683Y024622D02*
X020109Y024622D01*
X019683Y024622D02*
X019683Y024694D01*
X020109Y024694D01*
X020109Y024622D01*
X020109Y024668D02*
X019683Y024668D01*
X019683Y024819D02*
X020109Y024819D01*
X019683Y024819D02*
X019683Y024891D01*
X020109Y024891D01*
X020109Y024819D01*
X020109Y024865D02*
X019683Y024865D01*
X019683Y025016D02*
X020109Y025016D01*
X019683Y025016D02*
X019683Y025088D01*
X020109Y025088D01*
X020109Y025016D01*
X020109Y025062D02*
X019683Y025062D01*
X019683Y025213D02*
X020109Y025213D01*
X019683Y025213D02*
X019683Y025285D01*
X020109Y025285D01*
X020109Y025213D01*
X020109Y025259D02*
X019683Y025259D01*
X019683Y025410D02*
X020109Y025410D01*
X019683Y025410D02*
X019683Y025482D01*
X020109Y025482D01*
X020109Y025410D01*
X020109Y025456D02*
X019683Y025456D01*
X019683Y025607D02*
X020109Y025607D01*
X019683Y025607D02*
X019683Y025679D01*
X020109Y025679D01*
X020109Y025607D01*
X020109Y025653D02*
X019683Y025653D01*
X019683Y025804D02*
X020109Y025804D01*
X019683Y025804D02*
X019683Y025876D01*
X020109Y025876D01*
X020109Y025804D01*
X020109Y025850D02*
X019683Y025850D01*
X019683Y026000D02*
X020109Y026000D01*
X019683Y026000D02*
X019683Y026072D01*
X020109Y026072D01*
X020109Y026000D01*
X020109Y026046D02*
X019683Y026046D01*
X019683Y026197D02*
X020109Y026197D01*
X019683Y026197D02*
X019683Y026269D01*
X020109Y026269D01*
X020109Y026197D01*
X020109Y026243D02*
X019683Y026243D01*
X019683Y026394D02*
X020109Y026394D01*
X019683Y026394D02*
X019683Y026466D01*
X020109Y026466D01*
X020109Y026394D01*
X020109Y026440D02*
X019683Y026440D01*
X019683Y026591D02*
X020109Y026591D01*
X019683Y026591D02*
X019683Y026663D01*
X020109Y026663D01*
X020109Y026591D01*
X020109Y026637D02*
X019683Y026637D01*
X019683Y026788D02*
X020109Y026788D01*
X019683Y026788D02*
X019683Y026860D01*
X020109Y026860D01*
X020109Y026788D01*
X020109Y026834D02*
X019683Y026834D01*
X019683Y026985D02*
X020109Y026985D01*
X019683Y026985D02*
X019683Y027057D01*
X020109Y027057D01*
X020109Y026985D01*
X020109Y027031D02*
X019683Y027031D01*
X019683Y027181D02*
X020109Y027181D01*
X019683Y027181D02*
X019683Y027253D01*
X020109Y027253D01*
X020109Y027181D01*
X020109Y027227D02*
X019683Y027227D01*
X019683Y027378D02*
X020109Y027378D01*
X019683Y027378D02*
X019683Y027450D01*
X020109Y027450D01*
X020109Y027378D01*
X020109Y027424D02*
X019683Y027424D01*
X019683Y027575D02*
X020109Y027575D01*
X019683Y027575D02*
X019683Y027647D01*
X020109Y027647D01*
X020109Y027575D01*
X020109Y027621D02*
X019683Y027621D01*
X019683Y027772D02*
X020109Y027772D01*
X019683Y027772D02*
X019683Y027844D01*
X020109Y027844D01*
X020109Y027772D01*
X020109Y027818D02*
X019683Y027818D01*
X019683Y027969D02*
X020109Y027969D01*
X019683Y027969D02*
X019683Y028041D01*
X020109Y028041D01*
X020109Y027969D01*
X020109Y028015D02*
X019683Y028015D01*
X019683Y028166D02*
X020109Y028166D01*
X019683Y028166D02*
X019683Y028238D01*
X020109Y028238D01*
X020109Y028166D01*
X020109Y028212D02*
X019683Y028212D01*
X019683Y028363D02*
X020109Y028363D01*
X019683Y028363D02*
X019683Y028435D01*
X020109Y028435D01*
X020109Y028363D01*
X020109Y028409D02*
X019683Y028409D01*
X019683Y028559D02*
X020109Y028559D01*
X019683Y028559D02*
X019683Y028631D01*
X020109Y028631D01*
X020109Y028559D01*
X020109Y028605D02*
X019683Y028605D01*
X019683Y028756D02*
X020109Y028756D01*
X019683Y028756D02*
X019683Y028828D01*
X020109Y028828D01*
X020109Y028756D01*
X020109Y028802D02*
X019683Y028802D01*
X019683Y028953D02*
X020109Y028953D01*
X019683Y028953D02*
X019683Y029025D01*
X020109Y029025D01*
X020109Y028953D01*
X020109Y028999D02*
X019683Y028999D01*
X019683Y029150D02*
X020109Y029150D01*
X019683Y029150D02*
X019683Y029222D01*
X020109Y029222D01*
X020109Y029150D01*
X020109Y029196D02*
X019683Y029196D01*
X019683Y029347D02*
X020109Y029347D01*
X019683Y029347D02*
X019683Y029419D01*
X020109Y029419D01*
X020109Y029347D01*
X020109Y029393D02*
X019683Y029393D01*
X019683Y029544D02*
X020109Y029544D01*
X019683Y029544D02*
X019683Y029616D01*
X020109Y029616D01*
X020109Y029544D01*
X020109Y029590D02*
X019683Y029590D01*
X019683Y029741D02*
X020109Y029741D01*
X019683Y029741D02*
X019683Y029813D01*
X020109Y029813D01*
X020109Y029741D01*
X020109Y029787D02*
X019683Y029787D01*
X019683Y029937D02*
X020109Y029937D01*
X019683Y029937D02*
X019683Y030009D01*
X020109Y030009D01*
X020109Y029937D01*
X020109Y029983D02*
X019683Y029983D01*
X019683Y030134D02*
X020109Y030134D01*
X019683Y030134D02*
X019683Y030206D01*
X020109Y030206D01*
X020109Y030134D01*
X020109Y030180D02*
X019683Y030180D01*
D16*
X012849Y021214D03*
X011668Y021214D03*
X011668Y020032D03*
X012849Y020032D03*
X014424Y017277D03*
X015605Y017277D03*
X015605Y018458D03*
D17*
X007416Y022936D03*
X007416Y023428D03*
X007416Y023920D03*
X007416Y024412D03*
X007416Y024904D03*
X007416Y025397D03*
D18*
X009364Y025219D02*
X009582Y025219D01*
X009364Y025219D02*
X009364Y025279D01*
X009582Y025279D01*
X009582Y025219D01*
X009582Y025277D02*
X009364Y025277D01*
X009364Y025022D02*
X009582Y025022D01*
X009364Y025022D02*
X009364Y025082D01*
X009582Y025082D01*
X009582Y025022D01*
X009582Y025080D02*
X009364Y025080D01*
X009364Y024825D02*
X009582Y024825D01*
X009364Y024825D02*
X009364Y024885D01*
X009582Y024885D01*
X009582Y024825D01*
X009582Y024883D02*
X009364Y024883D01*
X009364Y024628D02*
X009582Y024628D01*
X009364Y024628D02*
X009364Y024688D01*
X009582Y024688D01*
X009582Y024628D01*
X009582Y024686D02*
X009364Y024686D01*
X009364Y024432D02*
X009582Y024432D01*
X009364Y024432D02*
X009364Y024492D01*
X009582Y024492D01*
X009582Y024432D01*
X009582Y024490D02*
X009364Y024490D01*
X009364Y024235D02*
X009582Y024235D01*
X009364Y024235D02*
X009364Y024295D01*
X009582Y024295D01*
X009582Y024235D01*
X009582Y024293D02*
X009364Y024293D01*
X009364Y024038D02*
X009582Y024038D01*
X009364Y024038D02*
X009364Y024098D01*
X009582Y024098D01*
X009582Y024038D01*
X009582Y024096D02*
X009364Y024096D01*
X009364Y023841D02*
X009582Y023841D01*
X009364Y023841D02*
X009364Y023901D01*
X009582Y023901D01*
X009582Y023841D01*
X009582Y023899D02*
X009364Y023899D01*
X009364Y023644D02*
X009582Y023644D01*
X009364Y023644D02*
X009364Y023704D01*
X009582Y023704D01*
X009582Y023644D01*
X009582Y023702D02*
X009364Y023702D01*
X009364Y023447D02*
X009582Y023447D01*
X009364Y023447D02*
X009364Y023507D01*
X009582Y023507D01*
X009582Y023447D01*
X009582Y023505D02*
X009364Y023505D01*
X009364Y023250D02*
X009582Y023250D01*
X009364Y023250D02*
X009364Y023310D01*
X009582Y023310D01*
X009582Y023250D01*
X009582Y023308D02*
X009364Y023308D01*
X009768Y022847D02*
X009828Y022847D01*
X009768Y022847D02*
X009768Y023065D01*
X009828Y023065D01*
X009828Y022847D01*
X009828Y022905D02*
X009768Y022905D01*
X009768Y022963D02*
X009828Y022963D01*
X009828Y023021D02*
X009768Y023021D01*
X009965Y022847D02*
X010025Y022847D01*
X009965Y022847D02*
X009965Y023065D01*
X010025Y023065D01*
X010025Y022847D01*
X010025Y022905D02*
X009965Y022905D01*
X009965Y022963D02*
X010025Y022963D01*
X010025Y023021D02*
X009965Y023021D01*
X010162Y022847D02*
X010222Y022847D01*
X010162Y022847D02*
X010162Y023065D01*
X010222Y023065D01*
X010222Y022847D01*
X010222Y022905D02*
X010162Y022905D01*
X010162Y022963D02*
X010222Y022963D01*
X010222Y023021D02*
X010162Y023021D01*
X010359Y022847D02*
X010419Y022847D01*
X010359Y022847D02*
X010359Y023065D01*
X010419Y023065D01*
X010419Y022847D01*
X010419Y022905D02*
X010359Y022905D01*
X010359Y022963D02*
X010419Y022963D01*
X010419Y023021D02*
X010359Y023021D01*
X010555Y022847D02*
X010615Y022847D01*
X010555Y022847D02*
X010555Y023065D01*
X010615Y023065D01*
X010615Y022847D01*
X010615Y022905D02*
X010555Y022905D01*
X010555Y022963D02*
X010615Y022963D01*
X010615Y023021D02*
X010555Y023021D01*
X010752Y022847D02*
X010812Y022847D01*
X010752Y022847D02*
X010752Y023065D01*
X010812Y023065D01*
X010812Y022847D01*
X010812Y022905D02*
X010752Y022905D01*
X010752Y022963D02*
X010812Y022963D01*
X010812Y023021D02*
X010752Y023021D01*
X010949Y022847D02*
X011009Y022847D01*
X010949Y022847D02*
X010949Y023065D01*
X011009Y023065D01*
X011009Y022847D01*
X011009Y022905D02*
X010949Y022905D01*
X010949Y022963D02*
X011009Y022963D01*
X011009Y023021D02*
X010949Y023021D01*
X011146Y022847D02*
X011206Y022847D01*
X011146Y022847D02*
X011146Y023065D01*
X011206Y023065D01*
X011206Y022847D01*
X011206Y022905D02*
X011146Y022905D01*
X011146Y022963D02*
X011206Y022963D01*
X011206Y023021D02*
X011146Y023021D01*
X011343Y022847D02*
X011403Y022847D01*
X011343Y022847D02*
X011343Y023065D01*
X011403Y023065D01*
X011403Y022847D01*
X011403Y022905D02*
X011343Y022905D01*
X011343Y022963D02*
X011403Y022963D01*
X011403Y023021D02*
X011343Y023021D01*
X011540Y022847D02*
X011600Y022847D01*
X011540Y022847D02*
X011540Y023065D01*
X011600Y023065D01*
X011600Y022847D01*
X011600Y022905D02*
X011540Y022905D01*
X011540Y022963D02*
X011600Y022963D01*
X011600Y023021D02*
X011540Y023021D01*
X011736Y022847D02*
X011796Y022847D01*
X011736Y022847D02*
X011736Y023065D01*
X011796Y023065D01*
X011796Y022847D01*
X011796Y022905D02*
X011736Y022905D01*
X011736Y022963D02*
X011796Y022963D01*
X011796Y023021D02*
X011736Y023021D01*
X011982Y023250D02*
X012200Y023250D01*
X011982Y023250D02*
X011982Y023310D01*
X012200Y023310D01*
X012200Y023250D01*
X012200Y023308D02*
X011982Y023308D01*
X011982Y023447D02*
X012200Y023447D01*
X011982Y023447D02*
X011982Y023507D01*
X012200Y023507D01*
X012200Y023447D01*
X012200Y023505D02*
X011982Y023505D01*
X011982Y023644D02*
X012200Y023644D01*
X011982Y023644D02*
X011982Y023704D01*
X012200Y023704D01*
X012200Y023644D01*
X012200Y023702D02*
X011982Y023702D01*
X011982Y023841D02*
X012200Y023841D01*
X011982Y023841D02*
X011982Y023901D01*
X012200Y023901D01*
X012200Y023841D01*
X012200Y023899D02*
X011982Y023899D01*
X011982Y024038D02*
X012200Y024038D01*
X011982Y024038D02*
X011982Y024098D01*
X012200Y024098D01*
X012200Y024038D01*
X012200Y024096D02*
X011982Y024096D01*
X011982Y024235D02*
X012200Y024235D01*
X011982Y024235D02*
X011982Y024295D01*
X012200Y024295D01*
X012200Y024235D01*
X012200Y024293D02*
X011982Y024293D01*
X011982Y024432D02*
X012200Y024432D01*
X011982Y024432D02*
X011982Y024492D01*
X012200Y024492D01*
X012200Y024432D01*
X012200Y024490D02*
X011982Y024490D01*
X011982Y024628D02*
X012200Y024628D01*
X011982Y024628D02*
X011982Y024688D01*
X012200Y024688D01*
X012200Y024628D01*
X012200Y024686D02*
X011982Y024686D01*
X011982Y024825D02*
X012200Y024825D01*
X011982Y024825D02*
X011982Y024885D01*
X012200Y024885D01*
X012200Y024825D01*
X012200Y024883D02*
X011982Y024883D01*
X011982Y025022D02*
X012200Y025022D01*
X011982Y025022D02*
X011982Y025082D01*
X012200Y025082D01*
X012200Y025022D01*
X012200Y025080D02*
X011982Y025080D01*
X011982Y025219D02*
X012200Y025219D01*
X011982Y025219D02*
X011982Y025279D01*
X012200Y025279D01*
X012200Y025219D01*
X012200Y025277D02*
X011982Y025277D01*
X011796Y025465D02*
X011736Y025465D01*
X011736Y025683D01*
X011796Y025683D01*
X011796Y025465D01*
X011796Y025523D02*
X011736Y025523D01*
X011736Y025581D02*
X011796Y025581D01*
X011796Y025639D02*
X011736Y025639D01*
X011600Y025465D02*
X011540Y025465D01*
X011540Y025683D01*
X011600Y025683D01*
X011600Y025465D01*
X011600Y025523D02*
X011540Y025523D01*
X011540Y025581D02*
X011600Y025581D01*
X011600Y025639D02*
X011540Y025639D01*
X011403Y025465D02*
X011343Y025465D01*
X011343Y025683D01*
X011403Y025683D01*
X011403Y025465D01*
X011403Y025523D02*
X011343Y025523D01*
X011343Y025581D02*
X011403Y025581D01*
X011403Y025639D02*
X011343Y025639D01*
X011206Y025465D02*
X011146Y025465D01*
X011146Y025683D01*
X011206Y025683D01*
X011206Y025465D01*
X011206Y025523D02*
X011146Y025523D01*
X011146Y025581D02*
X011206Y025581D01*
X011206Y025639D02*
X011146Y025639D01*
X011009Y025465D02*
X010949Y025465D01*
X010949Y025683D01*
X011009Y025683D01*
X011009Y025465D01*
X011009Y025523D02*
X010949Y025523D01*
X010949Y025581D02*
X011009Y025581D01*
X011009Y025639D02*
X010949Y025639D01*
X010812Y025465D02*
X010752Y025465D01*
X010752Y025683D01*
X010812Y025683D01*
X010812Y025465D01*
X010812Y025523D02*
X010752Y025523D01*
X010752Y025581D02*
X010812Y025581D01*
X010812Y025639D02*
X010752Y025639D01*
X010615Y025465D02*
X010555Y025465D01*
X010555Y025683D01*
X010615Y025683D01*
X010615Y025465D01*
X010615Y025523D02*
X010555Y025523D01*
X010555Y025581D02*
X010615Y025581D01*
X010615Y025639D02*
X010555Y025639D01*
X010419Y025465D02*
X010359Y025465D01*
X010359Y025683D01*
X010419Y025683D01*
X010419Y025465D01*
X010419Y025523D02*
X010359Y025523D01*
X010359Y025581D02*
X010419Y025581D01*
X010419Y025639D02*
X010359Y025639D01*
X010222Y025465D02*
X010162Y025465D01*
X010162Y025683D01*
X010222Y025683D01*
X010222Y025465D01*
X010222Y025523D02*
X010162Y025523D01*
X010162Y025581D02*
X010222Y025581D01*
X010222Y025639D02*
X010162Y025639D01*
X010025Y025465D02*
X009965Y025465D01*
X009965Y025683D01*
X010025Y025683D01*
X010025Y025465D01*
X010025Y025523D02*
X009965Y025523D01*
X009965Y025581D02*
X010025Y025581D01*
X010025Y025639D02*
X009965Y025639D01*
X009828Y025465D02*
X009768Y025465D01*
X009768Y025683D01*
X009828Y025683D01*
X009828Y025465D01*
X009828Y025523D02*
X009768Y025523D01*
X009768Y025581D02*
X009828Y025581D01*
X009828Y025639D02*
X009768Y025639D01*
D19*
X009542Y022690D03*
X009345Y022690D03*
X009148Y022690D03*
X008951Y022690D03*
X008951Y021588D03*
X009148Y021588D03*
X009345Y021588D03*
X009542Y021588D03*
D20*
X012849Y026223D03*
X012849Y026912D03*
X008995Y028247D03*
X008995Y028936D03*
D21*
X012121Y026981D03*
X012121Y026194D03*
D22*
X008798Y026780D03*
X008424Y027647D03*
X008050Y026780D03*
D23*
X009656Y028501D03*
X009851Y028501D03*
X009855Y028855D03*
X009656Y028855D03*
D24*
X009418Y028855D03*
X009422Y028501D03*
X010090Y028501D03*
X010088Y028855D03*
X023538Y027235D03*
X023892Y027239D03*
X023892Y026569D03*
X023538Y026567D03*
X003109Y010885D03*
X002755Y010881D03*
X002755Y010213D03*
X003109Y010215D03*
D25*
X003109Y010448D03*
X003109Y010647D03*
X002755Y010647D03*
X002755Y010452D03*
X023538Y026806D03*
X023538Y027001D03*
X023892Y027001D03*
X023892Y026802D03*
D26*
X024326Y025544D03*
X024326Y025347D03*
X024326Y025151D03*
X024326Y024954D03*
X024326Y024757D03*
X022357Y024757D03*
X022357Y024954D03*
X022357Y025151D03*
X022357Y025347D03*
X022357Y025544D03*
X005585Y011942D03*
X005585Y011745D03*
X005585Y011548D03*
X005585Y011351D03*
X005585Y011154D03*
X003617Y011154D03*
X003617Y011351D03*
X003617Y011548D03*
X003617Y011745D03*
X003617Y011942D03*
X010093Y007631D03*
X010093Y007434D03*
X010093Y007237D03*
X010093Y007040D03*
X010093Y006843D03*
X012062Y006843D03*
X012062Y007040D03*
X012062Y007237D03*
X012062Y007434D03*
X012062Y007631D03*
D27*
X011979Y005859D03*
X011310Y005859D03*
X008125Y010840D03*
X008125Y011509D03*
X007337Y011509D03*
X007337Y010840D03*
X006550Y010840D03*
X006550Y011509D03*
X020546Y028792D03*
X021215Y028792D03*
X025664Y018576D03*
X025664Y017906D03*
D28*
X020089Y017414D03*
X019089Y017414D03*
X018089Y017414D03*
X014227Y013560D03*
X014227Y012560D03*
X014227Y011560D03*
X014227Y010560D03*
X014152Y002513D03*
X013152Y002513D03*
X012152Y002513D03*
X011152Y002513D03*
X020637Y029674D03*
X021637Y029674D03*
X022637Y029674D03*
D29*
X011660Y004828D03*
X011660Y003725D03*
D30*
X012960Y003788D03*
X012960Y004698D03*
X012960Y005608D03*
X004254Y020107D03*
X004254Y021017D03*
X004254Y021927D03*
D31*
X001814Y021017D03*
X015400Y004698D03*
D32*
X012775Y028667D03*
X011865Y028667D03*
X010955Y028667D03*
D33*
X011865Y031107D03*
D34*
X025131Y021529D03*
X025631Y021529D03*
X026131Y021529D03*
X026631Y021529D03*
X026631Y019481D03*
X026131Y019481D03*
X025631Y019481D03*
X025131Y019481D03*
D35*
X022318Y017946D03*
X022318Y021450D03*
D36*
X024900Y022836D03*
X026554Y022836D03*
D37*
X028491Y022042D03*
X028558Y020129D03*
X028558Y017629D03*
X028491Y024542D03*
D38*
X024316Y022001D03*
X023627Y022001D03*
D39*
X014817Y021903D02*
X014818Y021706D01*
X014818Y021509D01*
X014818Y021312D01*
X014819Y021115D01*
X014721Y020977D01*
X014721Y020781D01*
X014817Y021903D02*
X014817Y022099D01*
X014817Y022296D01*
X014817Y022296D01*
X014816Y022493D01*
X014816Y022690D01*
X014816Y022794D01*
X014816Y023674D01*
X014817Y023871D01*
X014817Y024068D01*
X014817Y024265D01*
X014817Y024284D01*
X014817Y024462D01*
X014817Y024658D01*
X014817Y024855D01*
X014818Y025485D01*
X014030Y027080D02*
X014030Y027217D01*
X014030Y027414D01*
X014030Y031017D01*
X013951Y031036D01*
X012062Y031036D01*
X010172Y031036D01*
X009975Y030840D01*
X008528Y029393D01*
X008568Y029255D01*
X003597Y024304D02*
X003479Y024363D01*
X002692Y023576D01*
X001846Y022730D01*
X001846Y021017D01*
X001846Y018930D01*
X001865Y018851D01*
X004660Y018851D01*
X005211Y018851D01*
X007615Y018062D02*
X007869Y018062D01*
X008105Y018062D01*
X008026Y018061D01*
X008223Y018061D01*
X008223Y018061D01*
X008420Y018061D01*
X008420Y018061D01*
X008617Y018061D01*
X010088Y018059D01*
X010782Y018061D01*
X010979Y018061D01*
X011176Y018061D01*
X011373Y018062D01*
X011589Y018062D01*
X011766Y018063D01*
X011963Y018063D01*
X012160Y018064D01*
X012140Y018143D01*
X011570Y018064D02*
X011570Y019206D01*
X011668Y019206D02*
X011668Y020032D01*
X014030Y031036D02*
X015566Y031036D01*
D40*
X008568Y029255D02*
X007828Y028518D01*
X007729Y028420D01*
X003597Y024304D01*
D41*
X010955Y029241D02*
X011058Y029343D01*
X011058Y029855D01*
X011077Y029875D01*
X011865Y031095D02*
X012062Y031036D01*
D42*
X013676Y030170D02*
X013676Y029973D01*
X013676Y029777D01*
X013676Y029580D01*
X013676Y029383D01*
X013676Y029186D01*
X013676Y028989D01*
X013676Y028792D01*
X013676Y028595D01*
X013676Y028379D01*
X013676Y028399D01*
X013676Y028379D02*
X013676Y028202D01*
X013676Y027985D01*
X013676Y028005D01*
X013676Y027985D02*
X013676Y027808D01*
X013676Y027611D01*
X013676Y027414D01*
X013676Y027316D02*
X014030Y027080D01*
D43*
X014522Y025525D02*
X014818Y025485D01*
X014816Y022794D02*
X014567Y022794D01*
X018085Y024166D02*
X018991Y024166D01*
X012775Y028667D02*
X012775Y029910D01*
X012770Y029914D01*
X011865Y030269D02*
X011865Y028667D01*
X011865Y028182D01*
X010959Y028654D02*
X010959Y028674D01*
X010955Y028670D01*
X010955Y028667D01*
X010959Y028674D02*
X010959Y029245D01*
X011058Y029343D01*
X011077Y029363D01*
X011077Y029875D01*
X011865Y030288D02*
X011865Y031056D01*
X011865Y031095D01*
X010959Y028655D02*
X010959Y028654D01*
X008912Y029422D02*
X008568Y029255D01*
X008420Y029383D01*
X003597Y024304D02*
X002829Y023812D01*
X003597Y024304D02*
X003735Y024166D01*
X003735Y021017D02*
X003577Y020859D01*
X001845Y020859D01*
X001846Y020860D01*
X001846Y021017D01*
X007537Y018534D02*
X007537Y018064D01*
X007615Y018062D01*
X009326Y014836D02*
X009306Y014816D01*
X009306Y013714D01*
X014562Y008025D02*
X015487Y008025D01*
X008715Y003123D02*
X008538Y003084D01*
X003784Y007818D02*
X003774Y008025D01*
X003784Y007818D02*
X003538Y007867D01*
D44*
X003499Y012985D02*
X003499Y014836D01*
X003696Y014836D02*
X003696Y012985D01*
X003892Y012985D02*
X003892Y014836D01*
X004089Y014836D02*
X004089Y012985D01*
X004286Y012985D02*
X004286Y014836D01*
X004483Y014836D02*
X004483Y012985D01*
X004680Y012985D02*
X004680Y014836D01*
X004877Y014836D02*
X004877Y012985D01*
X005074Y012985D02*
X005074Y014836D01*
X005270Y014836D02*
X005270Y012985D01*
X005467Y012985D02*
X005467Y014836D01*
X006058Y013674D02*
X006058Y012985D01*
X007042Y012985D02*
X007042Y014836D01*
X007829Y013674D02*
X008026Y013477D01*
X008026Y012985D01*
X007829Y012985D02*
X007829Y013674D01*
X007633Y013477D01*
X007633Y012985D01*
X008223Y012985D02*
X008223Y013477D01*
X008420Y013674D01*
X008420Y012985D01*
X010487Y012847D02*
X010487Y009875D01*
X009955Y009343D01*
X009955Y009363D01*
X010979Y012985D02*
X010979Y013812D01*
X011176Y013615D02*
X011176Y012985D01*
X011373Y012985D02*
X011373Y013595D01*
X011570Y013792D02*
X011570Y012985D01*
X011766Y012985D02*
X011766Y013595D01*
X011963Y013615D02*
X011963Y012985D01*
X012160Y012985D02*
X012160Y013812D01*
X014148Y016981D02*
X014424Y017277D01*
X014148Y016981D02*
X004109Y016981D01*
X004011Y017080D01*
X004660Y018615D02*
X004660Y018851D01*
X004660Y018615D02*
X004995Y018615D01*
X006058Y019206D02*
X006058Y019442D01*
X005251Y020249D01*
X005172Y020249D01*
X005167Y020244D01*
X004428Y020244D01*
X004286Y020111D01*
X004227Y021927D02*
X003031Y021927D01*
X002652Y021922D01*
X006058Y019206D02*
X006058Y017847D01*
X006845Y018654D02*
X007042Y018851D01*
X007042Y019206D01*
X007633Y019206D02*
X007633Y018595D01*
X007829Y018162D02*
X007829Y019206D01*
X008026Y019206D02*
X008026Y018061D01*
X008223Y018061D02*
X008223Y019206D01*
X008420Y019206D02*
X008420Y018061D01*
X007537Y018064D02*
X007337Y018064D01*
X007337Y017847D01*
X010487Y019206D02*
X010487Y019521D01*
X010920Y019954D01*
X010920Y020643D01*
X011511Y021233D01*
X011668Y021214D01*
X013046Y022591D01*
X013676Y022591D01*
X013676Y023871D02*
X014817Y023871D01*
X014818Y024068D02*
X013676Y024068D01*
X013676Y024265D02*
X014798Y024265D01*
X014817Y024462D02*
X013676Y024462D01*
X013676Y024658D02*
X014817Y024658D01*
X012775Y027557D02*
X012775Y028667D01*
X012775Y029910D01*
X011865Y028182D02*
X011629Y027946D01*
X011668Y027729D01*
X010959Y028655D02*
X010270Y029343D01*
X009975Y029343D01*
X009975Y030013D02*
X009975Y030840D01*
X012770Y027729D02*
X012775Y027557D01*
X018085Y027611D02*
X019896Y027611D01*
X019896Y027414D02*
X018085Y027414D01*
X018085Y027217D02*
X018085Y028064D01*
X019759Y028064D01*
X019759Y027217D01*
X019759Y026824D01*
X019896Y026824D01*
X019896Y027021D02*
X019719Y027021D01*
X019719Y027847D01*
X018085Y027847D01*
X018085Y026824D01*
X018085Y027021D02*
X018085Y027847D01*
X018085Y027867D02*
X019759Y027867D01*
X019759Y027217D01*
X019896Y027217D01*
X019896Y027808D02*
X018085Y027808D01*
X018085Y028005D02*
X019896Y028005D01*
X019896Y028202D02*
X018085Y028202D01*
X018085Y028399D02*
X019896Y028399D01*
X019896Y028595D02*
X018085Y028595D01*
X018085Y028792D02*
X019896Y028792D01*
X019896Y028989D02*
X018085Y028989D01*
X018085Y029186D02*
X019896Y029186D01*
X019896Y029383D02*
X018085Y029383D01*
X018085Y029580D02*
X019896Y029580D01*
X019896Y029777D02*
X018085Y029777D01*
X018085Y029973D02*
X019896Y029973D01*
X023371Y030692D02*
X024837Y029127D01*
X028066Y026017D02*
X028066Y024954D01*
X028479Y024540D01*
X028481Y024542D01*
X028491Y024542D01*
X026554Y022843D02*
X026550Y022847D01*
X026554Y022843D02*
X026554Y022836D01*
X028479Y022158D02*
X028491Y022158D01*
X030644Y022158D01*
X026038Y020721D02*
X025822Y020702D01*
X025841Y020702D02*
X026038Y020721D01*
X022022Y024324D02*
X021530Y024324D01*
X021156Y023950D01*
X021156Y023221D01*
X020546Y022591D01*
X019916Y022591D01*
X019896Y022099D02*
X019070Y022099D01*
X019266Y021903D02*
X019896Y021903D01*
X019896Y021706D02*
X019266Y021706D01*
X019070Y021509D02*
X019896Y021509D01*
X019896Y021312D02*
X019266Y021312D01*
X019266Y021115D02*
X019896Y021115D01*
X019070Y023497D02*
X019247Y023674D01*
X019444Y023871D01*
X019640Y024068D01*
X019896Y024068D01*
X019896Y024265D02*
X019660Y024265D01*
X019463Y024462D01*
X019266Y024658D01*
X019070Y024855D01*
X019266Y024658D02*
X019896Y024658D01*
X019896Y024462D02*
X019463Y024462D01*
X019444Y023871D02*
X019896Y023871D01*
X012160Y019206D02*
X012160Y018064D01*
X011963Y018063D02*
X011963Y019206D01*
X011766Y019206D02*
X011766Y018063D01*
X011176Y018061D02*
X011176Y019206D01*
X010979Y019206D02*
X010979Y018061D01*
X003302Y014836D02*
X003302Y012985D01*
X003105Y012985D02*
X003105Y014836D01*
X002908Y014836D02*
X002908Y012985D01*
D45*
X006255Y005308D02*
X008538Y003084D01*
X010349Y004462D02*
X010566Y004245D01*
X013755Y004245D01*
X013991Y004009D01*
X012960Y005608D02*
X012960Y005611D01*
X012062Y006843D02*
X012062Y007040D01*
X013794Y007040D01*
X014562Y007808D01*
X014562Y008025D01*
X012672Y007316D02*
X012672Y010997D01*
X013235Y011560D01*
X014227Y011560D01*
X014227Y012560D02*
X011656Y012560D01*
X010822Y011725D01*
X010822Y011076D01*
X010979Y010918D01*
X012200Y010918D01*
X012475Y010643D01*
X012475Y010328D01*
X012062Y009914D01*
X012475Y010328D02*
X012475Y007493D01*
X012416Y007434D01*
X012062Y007434D01*
X012062Y007237D02*
X011471Y007237D01*
X010349Y006115D01*
X010349Y005840D01*
X010526Y005840D01*
X010861Y005505D01*
X010861Y004836D01*
X011314Y005229D02*
X011314Y005840D01*
X011310Y005843D01*
X011310Y005859D01*
X011314Y005229D02*
X011660Y004883D01*
X011660Y004828D01*
X010349Y005091D02*
X010349Y004462D01*
X009700Y005072D02*
X009680Y005052D01*
X009700Y005072D02*
X009680Y005091D01*
X009660Y005111D01*
X009680Y005131D01*
X009680Y005840D01*
X009680Y006725D01*
X009798Y006843D01*
X010093Y006843D01*
X010546Y006843D01*
X010881Y007178D01*
X010881Y007631D01*
X012062Y007631D01*
X012062Y007237D02*
X012593Y007237D01*
X012672Y007316D01*
X010881Y007631D02*
X010841Y007631D01*
X010074Y008399D01*
X007534Y008399D01*
X007278Y008143D01*
X005487Y008143D01*
X005940Y009186D02*
X004148Y009186D01*
X003120Y010215D01*
X003109Y010215D01*
X003109Y010448D02*
X003261Y010448D01*
X004207Y009501D01*
X005113Y009501D01*
X008577Y009501D01*
X009995Y010918D01*
X009995Y012985D01*
X010192Y012985D02*
X010192Y010840D01*
X008538Y009186D01*
X005940Y009186D01*
X005487Y010170D02*
X005211Y010170D01*
X004837Y010544D01*
X004837Y010643D01*
X004089Y010643D01*
X003617Y011115D01*
X003617Y011154D01*
X003617Y011351D02*
X003892Y011351D01*
X004168Y011076D01*
X004483Y011430D02*
X004365Y011548D01*
X003617Y011548D01*
X003617Y011745D02*
X003617Y011942D01*
X003617Y012906D01*
X003696Y012985D01*
X002711Y012985D02*
X002711Y014836D01*
X002908Y014836D02*
X002908Y014895D01*
X003105Y014895D02*
X003105Y014836D01*
X003302Y014836D02*
X003302Y014895D01*
X003499Y014855D02*
X003499Y014836D01*
X003696Y014836D02*
X003696Y014855D01*
X004089Y014836D02*
X004089Y014875D01*
X004286Y014875D02*
X004286Y014836D01*
X004483Y014836D02*
X004483Y014914D01*
X004680Y014914D02*
X004680Y014836D01*
X004877Y014836D02*
X004877Y014875D01*
X005074Y014895D02*
X005074Y014836D01*
X005270Y014836D02*
X005270Y014895D01*
X005467Y014875D02*
X005467Y014836D01*
X005664Y014836D02*
X005664Y012985D01*
X005644Y012985D01*
X005585Y012926D01*
X005585Y011942D01*
X005585Y011548D02*
X005900Y011548D01*
X006274Y011174D01*
X007829Y011174D01*
X008125Y010879D01*
X008125Y010840D01*
X008755Y010741D02*
X008755Y011292D01*
X009404Y011942D01*
X009404Y012985D01*
X009207Y012985D02*
X009207Y012217D01*
X008755Y011765D01*
X008125Y011706D02*
X008125Y011509D01*
X008125Y011706D02*
X009011Y012591D01*
X009011Y012985D01*
X008814Y012985D02*
X008814Y012670D01*
X008085Y011942D01*
X007652Y011942D01*
X007337Y011627D01*
X007337Y011509D01*
X007337Y010840D02*
X007337Y010761D01*
X007062Y010485D01*
X005408Y010485D01*
X005054Y010840D01*
X005054Y011135D01*
X005270Y011351D01*
X005585Y011351D01*
X005585Y011154D02*
X005959Y011154D01*
X006274Y010840D01*
X006550Y010840D01*
X006550Y011509D02*
X006550Y012572D01*
X006648Y012670D01*
X006648Y012985D01*
X006845Y012985D02*
X006845Y014836D01*
X006865Y014855D01*
X006865Y014836D01*
X007239Y014836D02*
X007239Y012985D01*
X007436Y012985D02*
X007436Y013280D01*
X007633Y013477D01*
X008026Y012985D02*
X008223Y012985D01*
X008617Y012985D02*
X008617Y013477D01*
X008420Y013674D01*
X009601Y012985D02*
X009601Y011686D01*
X009345Y011430D01*
X009660Y011076D02*
X009798Y011214D01*
X009798Y012985D01*
X010389Y012985D02*
X010487Y012887D01*
X010585Y012887D01*
X010526Y012887D01*
X010487Y012847D01*
X010585Y012887D02*
X010585Y012985D01*
X010782Y012985D02*
X010782Y013615D01*
X010979Y013812D01*
X011176Y013615D01*
X011373Y013595D02*
X011570Y013792D01*
X011766Y013595D01*
X011963Y013615D02*
X012160Y013812D01*
X012357Y013615D01*
X012357Y012985D01*
X011373Y012985D02*
X011176Y012985D01*
X011137Y011430D02*
X012239Y011430D01*
X012672Y010997D01*
X015487Y010564D02*
X015507Y010564D01*
X015503Y010560D01*
X010093Y007631D02*
X009483Y007631D01*
X009089Y008025D01*
X009050Y008025D01*
X009286Y007434D02*
X009089Y007237D01*
X009050Y007237D01*
X009286Y007434D02*
X010093Y007434D01*
X010093Y007237D02*
X009660Y007237D01*
X009542Y007119D01*
X008381Y007237D02*
X007829Y007237D01*
X007534Y007769D02*
X007790Y008025D01*
X008381Y008025D01*
X008381Y008812D02*
X007829Y008812D01*
X009050Y008812D02*
X009522Y008812D01*
X009601Y008733D01*
X008637Y009816D02*
X008755Y009934D01*
X008755Y010741D01*
X008637Y009816D02*
X004207Y009816D01*
X003381Y010643D01*
X003144Y010643D01*
X003140Y010647D01*
X003109Y010647D01*
X003109Y010885D02*
X003109Y010903D01*
X003125Y010918D01*
X003125Y011194D01*
X002948Y011371D01*
X002755Y010881D02*
X002753Y010881D01*
X002751Y010879D01*
X002396Y010879D01*
X002396Y010859D01*
X002357Y010859D01*
X002357Y010879D01*
X002359Y010881D01*
X002357Y010859D02*
X001904Y010859D01*
X001905Y010878D02*
X001904Y010879D01*
X001888Y010744D02*
X001885Y010741D01*
X001904Y010741D01*
X001905Y010683D02*
X001904Y010682D01*
X001885Y010485D02*
X001887Y010483D01*
X001885Y010485D02*
X001904Y009777D01*
X001904Y009580D02*
X001885Y010288D01*
X002400Y010855D02*
X002396Y010859D01*
X002400Y010863D01*
X002751Y010879D02*
X002755Y010875D01*
X002755Y010647D01*
X002751Y010643D01*
X002755Y010639D01*
X002755Y010452D01*
X002755Y010450D01*
X002751Y010446D01*
X002751Y010229D01*
X002755Y010233D01*
X002751Y010229D02*
X002755Y010225D01*
X002755Y010213D01*
X001922Y011078D02*
X001904Y011095D01*
X001906Y011467D02*
X001904Y011469D01*
X005664Y014836D02*
X005664Y014855D01*
X006058Y013674D02*
X006255Y013477D01*
X006255Y012985D01*
X005861Y012985D02*
X005861Y013477D01*
X006058Y013674D01*
X007239Y014836D02*
X007239Y014875D01*
X006255Y017847D02*
X006255Y019206D01*
X006648Y019206D02*
X006648Y021036D01*
X006629Y021056D01*
X006963Y020721D02*
X006963Y019737D01*
X007160Y019580D01*
X008715Y019580D01*
X008814Y019481D01*
X008814Y019206D01*
X009011Y019206D02*
X009011Y019540D01*
X008774Y019777D01*
X007475Y019777D01*
X007377Y019914D01*
X007377Y020525D01*
X007436Y019206D02*
X007436Y018615D01*
X007517Y018534D01*
X007537Y018534D01*
X007554Y018517D01*
X007633Y018595D01*
X007829Y018162D02*
X007869Y018123D01*
X007869Y018123D01*
X007869Y018062D01*
X008223Y018061D02*
X008223Y018103D01*
X008223Y018103D01*
X008420Y018084D02*
X008420Y018061D01*
X008420Y018084D02*
X008420Y018084D01*
X008617Y018061D02*
X008617Y019206D01*
X009207Y019206D02*
X009207Y019934D01*
X009739Y020466D01*
X009739Y021351D01*
X009896Y021509D01*
X009896Y022178D01*
X010389Y022670D01*
X010389Y022956D01*
X010585Y022956D02*
X010585Y022611D01*
X010093Y022119D01*
X010093Y021450D01*
X009916Y021273D01*
X009916Y020387D01*
X009404Y019875D01*
X009404Y019206D01*
X009601Y019206D02*
X009601Y019816D01*
X010093Y020308D01*
X010093Y021194D01*
X010999Y022119D01*
X010999Y022296D01*
X010999Y022572D01*
X011176Y022749D01*
X011176Y022956D01*
X011373Y022956D02*
X011373Y022493D01*
X011570Y022296D01*
X011570Y022277D01*
X011471Y022178D01*
X011333Y022178D01*
X010270Y021115D01*
X010270Y020229D01*
X009798Y019757D01*
X009798Y019206D01*
X009995Y019206D02*
X009995Y019698D01*
X010448Y020151D01*
X010448Y021036D01*
X011392Y021981D01*
X011707Y021981D01*
X011904Y022178D01*
X011904Y022631D01*
X011845Y022690D01*
X011629Y022690D01*
X011570Y022749D01*
X011570Y022956D01*
X011766Y022956D02*
X011766Y022926D01*
X011904Y022926D01*
X012081Y022749D01*
X012081Y022099D01*
X011786Y021804D01*
X011471Y021804D01*
X010625Y020958D01*
X010625Y020072D01*
X010192Y019639D01*
X010192Y019206D01*
X010389Y019206D02*
X010487Y019206D01*
X010585Y019206D01*
X010782Y019206D02*
X010782Y018084D01*
X010782Y018084D01*
X010782Y018061D01*
X011373Y018062D02*
X011373Y019206D01*
X011570Y019206D02*
X011668Y019206D01*
X012357Y019206D02*
X012357Y018123D01*
X012337Y018143D01*
X013046Y018143D01*
X013341Y019599D02*
X012672Y019599D01*
X012436Y019836D01*
X012436Y020210D01*
X012672Y020446D01*
X013184Y020446D01*
X013427Y020689D01*
X013873Y020689D01*
X013873Y020131D01*
X013341Y019599D01*
X013404Y019662D02*
X012610Y019662D01*
X012511Y019760D02*
X013502Y019760D01*
X013601Y019859D02*
X012436Y019859D01*
X012436Y019957D02*
X013699Y019957D01*
X013798Y020056D02*
X012436Y020056D01*
X012436Y020154D02*
X013873Y020154D01*
X013873Y020253D02*
X012479Y020253D01*
X012578Y020351D02*
X013873Y020351D01*
X013873Y020450D02*
X013188Y020450D01*
X013286Y020549D02*
X013873Y020549D01*
X013873Y020647D02*
X013385Y020647D01*
X013341Y020525D02*
X012849Y020032D01*
X013341Y020525D02*
X013676Y020525D01*
X013676Y020721D01*
X013676Y020918D02*
X013676Y021115D01*
X013676Y021312D01*
X013676Y021509D01*
X013676Y021706D01*
X013676Y021903D01*
X013676Y022099D01*
X013676Y022296D01*
X014798Y022296D01*
X014798Y022296D01*
X014817Y022296D01*
X014818Y022296D01*
X014817Y022099D02*
X014818Y022099D01*
X014817Y021903D02*
X014818Y021903D01*
X014818Y021706D02*
X014818Y021706D01*
X014503Y021731D02*
X013499Y021731D01*
X013499Y021633D02*
X014503Y021633D01*
X014503Y021534D02*
X013499Y021534D01*
X013499Y021435D02*
X014503Y021435D01*
X014503Y021337D02*
X013499Y021337D01*
X013499Y021238D02*
X014503Y021238D01*
X014503Y021140D02*
X013499Y021140D01*
X013499Y021041D02*
X014503Y021041D01*
X014503Y020977D02*
X014503Y022296D01*
X014001Y022296D01*
X013969Y022264D01*
X013815Y022264D01*
X013813Y022261D01*
X013499Y022261D01*
X013499Y020977D01*
X014503Y020977D01*
X014345Y020943D02*
X016026Y020943D01*
X016026Y021041D02*
X014345Y021041D01*
X014345Y021140D02*
X016026Y021140D01*
X016026Y021238D02*
X014345Y021238D01*
X014345Y021337D02*
X016026Y021337D01*
X016026Y021435D02*
X014345Y021435D01*
X014345Y021534D02*
X016026Y021534D01*
X016026Y021633D02*
X014345Y021633D01*
X014345Y021731D02*
X016026Y021731D01*
X016026Y021830D02*
X014345Y021830D01*
X014345Y021928D02*
X016026Y021928D01*
X016026Y022027D02*
X014345Y022027D01*
X014345Y022125D02*
X016026Y022125D01*
X016026Y022224D02*
X014345Y022224D01*
X014345Y022322D02*
X016026Y022322D01*
X016026Y022421D02*
X014345Y022421D01*
X014345Y022519D02*
X016026Y022519D01*
X016026Y022618D02*
X014345Y022618D01*
X014345Y022716D02*
X016026Y022716D01*
X016026Y022815D02*
X014345Y022815D01*
X014345Y022914D02*
X016026Y022914D01*
X016026Y023012D02*
X014345Y023012D01*
X014345Y023111D02*
X016026Y023111D01*
X016026Y023209D02*
X014345Y023209D01*
X014345Y023308D02*
X016026Y023308D01*
X016026Y023406D02*
X014345Y023406D01*
X014345Y023505D02*
X016026Y023505D01*
X016026Y023603D02*
X014345Y023603D01*
X014345Y023702D02*
X016026Y023702D01*
X016026Y023800D02*
X014345Y023800D01*
X014345Y023899D02*
X016026Y023899D01*
X016026Y023998D02*
X014345Y023998D01*
X014345Y024096D02*
X016026Y024096D01*
X016026Y024195D02*
X014345Y024195D01*
X014345Y024293D02*
X016026Y024293D01*
X016026Y024392D02*
X014345Y024392D01*
X014345Y024490D02*
X016026Y024490D01*
X016026Y024589D02*
X014345Y024589D01*
X014345Y024687D02*
X016026Y024687D01*
X016026Y024786D02*
X014345Y024786D01*
X014345Y024884D02*
X016026Y024884D01*
X016026Y024983D02*
X014345Y024983D01*
X014345Y025082D02*
X016026Y025082D01*
X016026Y025180D02*
X014345Y025180D01*
X014345Y025279D02*
X016026Y025279D01*
X016026Y025377D02*
X014345Y025377D01*
X014385Y025446D02*
X014483Y025525D01*
X014168Y025840D01*
X013676Y025840D01*
X013502Y025872D02*
X013502Y026398D01*
X013969Y026398D01*
X013981Y026410D01*
X014308Y026410D01*
X014328Y026430D01*
X016026Y026430D01*
X016026Y019206D01*
X014345Y019206D01*
X014345Y025840D01*
X014001Y025840D01*
X013969Y025872D01*
X013502Y025872D01*
X013502Y025968D02*
X016026Y025968D01*
X016026Y025870D02*
X013971Y025870D01*
X014109Y026036D02*
X013676Y026036D01*
X013676Y026233D01*
X013676Y026430D01*
X013502Y026363D02*
X016026Y026363D01*
X016026Y026264D02*
X013502Y026264D01*
X013502Y026166D02*
X016026Y026166D01*
X016026Y026067D02*
X013502Y026067D01*
X013282Y025721D02*
X013361Y025643D01*
X013676Y025643D01*
X013676Y025446D02*
X013263Y025446D01*
X012869Y025052D01*
X012091Y025052D01*
X012091Y024855D02*
X012928Y024855D01*
X013322Y025249D01*
X013676Y025249D01*
X013676Y025052D02*
X013381Y025052D01*
X012987Y024658D01*
X012091Y024658D01*
X012081Y024265D02*
X012091Y024265D01*
X012091Y024255D02*
X012081Y024265D01*
X010979Y024265D01*
X010979Y022956D01*
X010782Y022956D02*
X010782Y022552D01*
X010566Y022336D01*
X010566Y022139D01*
X010192Y022729D02*
X009660Y022198D01*
X009345Y022198D01*
X008951Y021804D01*
X008951Y021588D01*
X009148Y021588D02*
X009345Y021588D01*
X009345Y021410D01*
X009385Y021371D01*
X009385Y020820D01*
X009109Y020544D01*
X009109Y020091D02*
X008814Y020091D01*
X009109Y020091D02*
X009562Y020544D01*
X009562Y021568D01*
X009542Y021588D01*
X009070Y020997D02*
X008637Y020997D01*
X008637Y022139D01*
X008951Y022454D01*
X008951Y022690D01*
X009148Y022690D02*
X009148Y022414D01*
X009621Y022414D01*
X009995Y022788D01*
X009995Y022956D01*
X010192Y022956D02*
X010192Y022729D01*
X009798Y022956D02*
X009778Y022946D01*
X009680Y022946D01*
X009542Y022808D01*
X009542Y022690D01*
X009345Y022690D02*
X009345Y022887D01*
X009473Y023015D01*
X009473Y023280D01*
X009473Y023477D02*
X009227Y023477D01*
X009188Y023438D01*
X009188Y023320D01*
X008617Y022749D01*
X008007Y022749D01*
X007692Y022434D01*
X007200Y022434D01*
X006018Y023615D01*
X005920Y023615D01*
X005920Y023812D02*
X006077Y023812D01*
X007278Y022611D01*
X007593Y022611D01*
X007908Y022926D01*
X008518Y022926D01*
X009011Y023418D01*
X009011Y023536D01*
X009148Y023674D01*
X009473Y023674D01*
X009473Y023871D02*
X009070Y023871D01*
X008814Y023615D01*
X008814Y023497D01*
X008637Y023320D01*
X008322Y023320D01*
X008322Y023694D02*
X007987Y023694D01*
X007810Y023871D01*
X007475Y023871D01*
X007426Y023920D01*
X007416Y023920D01*
X007062Y023714D02*
X007357Y023418D01*
X007367Y023428D01*
X007416Y023428D01*
X007062Y023714D02*
X007062Y025564D01*
X007278Y025780D01*
X007574Y025780D01*
X008085Y025269D01*
X008814Y025269D01*
X009030Y025052D01*
X009473Y025052D01*
X009473Y024855D02*
X008971Y024855D01*
X008735Y025091D01*
X007731Y025091D01*
X007426Y025397D01*
X007416Y025397D01*
X006885Y025643D02*
X007200Y025958D01*
X007672Y025958D01*
X008164Y025466D01*
X008873Y025466D01*
X009089Y025249D01*
X009473Y025249D01*
X009385Y025643D02*
X009719Y025977D01*
X010014Y025977D01*
X010192Y025800D01*
X010192Y025574D01*
X010389Y025574D02*
X010389Y025859D01*
X010093Y026154D01*
X009640Y026154D01*
X009306Y025820D01*
X008322Y025820D01*
X007829Y026312D01*
X006924Y026312D01*
X004818Y024206D01*
X004818Y024009D02*
X004818Y023812D01*
X004995Y023812D01*
X005113Y023694D01*
X005113Y021588D01*
X005083Y021558D01*
X005074Y021548D01*
X005083Y021558D02*
X005034Y021607D01*
X005083Y021558D02*
X005172Y021469D01*
X003144Y021469D01*
X003341Y022926D02*
X003361Y022926D01*
X004286Y023615D02*
X003735Y024166D01*
X004286Y023615D02*
X004818Y023615D01*
X004818Y023812D02*
X004818Y024009D01*
X005349Y024206D02*
X005920Y024206D01*
X005920Y024009D02*
X006077Y024009D01*
X006255Y024186D01*
X006255Y025269D01*
X007121Y026135D01*
X007751Y026135D01*
X008243Y025643D01*
X009385Y025643D01*
X009896Y025151D02*
X011668Y025151D01*
X011668Y023379D01*
X009896Y023379D01*
X009896Y025151D01*
X009896Y025082D02*
X011668Y025082D01*
X011668Y024983D02*
X009896Y024983D01*
X009896Y024884D02*
X011668Y024884D01*
X011668Y024786D02*
X009896Y024786D01*
X009896Y024687D02*
X011668Y024687D01*
X011668Y024589D02*
X009896Y024589D01*
X009896Y024490D02*
X011668Y024490D01*
X011668Y024392D02*
X009896Y024392D01*
X009896Y024293D02*
X011668Y024293D01*
X011668Y024195D02*
X009896Y024195D01*
X009896Y024096D02*
X011668Y024096D01*
X011668Y023998D02*
X009896Y023998D01*
X009896Y023899D02*
X011668Y023899D01*
X011668Y023800D02*
X009896Y023800D01*
X009896Y023702D02*
X011668Y023702D01*
X011668Y023603D02*
X009896Y023603D01*
X009896Y023505D02*
X011668Y023505D01*
X011668Y023406D02*
X009896Y023406D01*
X009473Y024068D02*
X008322Y024068D01*
X008774Y024265D02*
X008479Y024560D01*
X008164Y024560D01*
X007810Y024206D01*
X007810Y023871D01*
X007751Y024403D02*
X007436Y024403D01*
X007426Y024412D01*
X007416Y024412D01*
X007751Y024403D02*
X008085Y024737D01*
X008558Y024737D01*
X008833Y024462D01*
X009473Y024462D01*
X009473Y024658D02*
X008912Y024658D01*
X008656Y024914D01*
X007436Y024914D01*
X007426Y024904D01*
X007416Y024904D01*
X006885Y025643D02*
X006885Y023438D01*
X007416Y022906D01*
X007416Y022936D01*
X006314Y022139D02*
X008637Y022139D01*
X008774Y024265D02*
X009473Y024265D01*
X010093Y024265D01*
X010310Y024265D01*
X010093Y024265D02*
X010605Y024265D01*
X010782Y024442D01*
X010782Y025574D01*
X010585Y025574D02*
X010585Y025958D01*
X010211Y026332D01*
X010211Y026980D01*
X010211Y026981D01*
X009168Y026981D01*
X009168Y027611D01*
X009422Y027865D01*
X009422Y028501D01*
X009656Y028501D02*
X009656Y027824D01*
X009481Y027649D01*
X009481Y027353D01*
X009483Y027316D01*
X009621Y027178D01*
X009955Y027178D01*
X010072Y027294D01*
X010371Y027294D01*
X010940Y026725D01*
X010940Y026391D01*
X011176Y026154D01*
X011176Y025574D01*
X011373Y025574D02*
X011373Y026548D01*
X011255Y026548D01*
X011255Y026686D01*
X009995Y027946D01*
X009995Y027966D01*
X009851Y028109D01*
X009851Y028501D01*
X010090Y028501D02*
X010090Y028264D01*
X010192Y028162D01*
X010192Y028164D01*
X010190Y028164D01*
X010192Y028164D02*
X010310Y028162D01*
X011077Y027395D01*
X011570Y026903D01*
X011570Y025574D01*
X010979Y025574D02*
X010979Y026017D01*
X010631Y026374D01*
X009877Y027552D02*
X009995Y027690D01*
X009995Y027946D01*
X010192Y028162D02*
X010192Y028162D01*
X010088Y028855D02*
X009861Y028855D01*
X009857Y028851D01*
X009855Y028853D01*
X009855Y028855D01*
X009664Y028855D01*
X009660Y028851D01*
X009656Y028855D01*
X009448Y028855D01*
X009444Y028851D01*
X009440Y028855D01*
X009418Y028855D01*
X008948Y028855D01*
X008755Y029048D01*
X008816Y028987D01*
X008827Y028995D02*
X008696Y029127D01*
X008814Y029009D01*
X008814Y028950D01*
X008833Y028930D01*
X008833Y028694D01*
X008995Y028936D02*
X008827Y028995D01*
X008755Y029048D02*
X008912Y029422D01*
X008696Y029127D02*
X008568Y029255D01*
X008164Y028438D02*
X007908Y028438D01*
X007828Y028518D01*
X007729Y028420D02*
X007971Y028414D01*
X008164Y028438D02*
X008424Y028178D01*
X008424Y027647D01*
X008794Y027497D02*
X008794Y027194D01*
X008798Y026780D01*
X008715Y026214D02*
X008400Y026214D01*
X008050Y026564D01*
X008050Y026780D01*
X008794Y027497D02*
X008798Y027497D01*
X008892Y027591D01*
X008892Y027788D01*
X008995Y027891D01*
X008991Y027891D01*
X008991Y028247D01*
X008995Y028247D01*
X011865Y029954D02*
X011865Y030269D01*
X011865Y030288D01*
X011865Y031056D02*
X011865Y031107D01*
X014030Y031017D02*
X014030Y031036D01*
X014030Y027414D02*
X013676Y027414D01*
X013676Y027316D02*
X013440Y027316D01*
X013036Y026912D01*
X012849Y026912D01*
X013203Y026568D02*
X012416Y026568D01*
X012121Y026863D01*
X012121Y026981D01*
X012121Y027040D01*
X012637Y027557D01*
X012786Y027557D01*
X013676Y027217D02*
X013676Y027021D01*
X013676Y026824D01*
X013676Y026627D01*
X014109Y026036D02*
X014601Y025544D01*
X014522Y025525D01*
X014503Y025525D01*
X014483Y025544D01*
X014483Y025525D01*
X014483Y025505D01*
X014345Y025476D02*
X016026Y025476D01*
X016026Y025574D02*
X014345Y025574D01*
X014345Y025673D02*
X016026Y025673D01*
X016026Y025771D02*
X014345Y025771D01*
X014817Y024855D02*
X013676Y024855D01*
X013164Y024265D02*
X013026Y024403D01*
X012593Y024403D01*
X012455Y024265D01*
X012101Y024265D01*
X012091Y024255D01*
X012091Y024068D02*
X012751Y024068D01*
X012436Y023871D02*
X012091Y023871D01*
X012091Y023674D02*
X012357Y023674D01*
X012751Y023280D01*
X013676Y023280D01*
X013676Y023084D02*
X012455Y023103D01*
X012810Y022887D02*
X013676Y022887D01*
X013676Y022690D02*
X013676Y022591D01*
X013676Y022493D01*
X013499Y022224D02*
X014503Y022224D01*
X014503Y022125D02*
X013499Y022125D01*
X013499Y022027D02*
X014503Y022027D01*
X014503Y021928D02*
X013499Y021928D01*
X013499Y021830D02*
X014503Y021830D01*
X014816Y022493D02*
X014857Y022493D01*
X014857Y022493D01*
X014837Y022690D02*
X014816Y022690D01*
X014837Y022690D02*
X014837Y022690D01*
X014816Y023674D02*
X014818Y023674D01*
X014816Y023674D02*
X013676Y023674D01*
X013676Y023477D02*
X012829Y023477D01*
X012436Y023871D01*
X012810Y022887D02*
X012495Y022572D01*
X012396Y022572D01*
X010979Y024265D02*
X010959Y024265D01*
X010782Y024442D01*
X012357Y025662D02*
X012357Y026115D01*
X012278Y026194D01*
X012278Y026223D01*
X012849Y026223D01*
X013203Y026568D02*
X013282Y026489D01*
X013282Y025721D01*
X012278Y026223D02*
X012170Y026223D01*
X012140Y026194D01*
X012121Y026194D01*
X013676Y027217D02*
X014030Y027217D01*
X014089Y027217D01*
X014050Y027414D02*
X014030Y027414D01*
X014817Y024855D02*
X014818Y024855D01*
X014817Y024658D02*
X014837Y024658D01*
X014818Y024658D02*
X014817Y024658D01*
X014817Y024462D02*
X014818Y024462D01*
X014818Y024284D02*
X014798Y024265D01*
X014817Y024265D02*
X014818Y024265D01*
X014817Y024284D02*
X014818Y024284D01*
X014818Y024068D02*
X014837Y024068D01*
X014818Y024068D02*
X014817Y024068D01*
X014817Y023871D02*
X014818Y023871D01*
X014819Y021115D02*
X014837Y021115D01*
X014837Y021115D01*
X014721Y020977D02*
X014837Y020918D01*
X014837Y020918D01*
X014721Y020781D02*
X014798Y020721D01*
X014798Y020721D01*
X014700Y020525D02*
X014719Y019816D01*
X014345Y019859D02*
X016026Y019859D01*
X016026Y019957D02*
X014345Y019957D01*
X014345Y020056D02*
X016026Y020056D01*
X016026Y020154D02*
X014345Y020154D01*
X014345Y020253D02*
X016026Y020253D01*
X016026Y020351D02*
X014345Y020351D01*
X014345Y020450D02*
X016026Y020450D01*
X016026Y020549D02*
X014345Y020549D01*
X014345Y020647D02*
X016026Y020647D01*
X016026Y020746D02*
X014345Y020746D01*
X014345Y020844D02*
X016026Y020844D01*
X016026Y019760D02*
X014345Y019760D01*
X014345Y019662D02*
X016026Y019662D01*
X016026Y019563D02*
X014345Y019563D01*
X014345Y019465D02*
X016026Y019465D01*
X016026Y019366D02*
X014345Y019366D01*
X014345Y019267D02*
X016026Y019267D01*
X018833Y019267D02*
X019326Y019267D01*
X019326Y019169D02*
X018833Y019169D01*
X018833Y019070D02*
X019326Y019070D01*
X019326Y018972D02*
X018833Y018972D01*
X018833Y018873D02*
X019326Y018873D01*
X019326Y018775D02*
X018833Y018775D01*
X018833Y018676D02*
X019326Y018676D01*
X019326Y018578D02*
X018833Y018578D01*
X018833Y018479D02*
X019326Y018479D01*
X019326Y018381D02*
X018833Y018381D01*
X018833Y018282D02*
X019326Y018282D01*
X019326Y018184D02*
X018833Y018184D01*
X018833Y018085D02*
X019326Y018085D01*
X019326Y017986D02*
X018833Y017986D01*
X018833Y017888D02*
X019326Y017888D01*
X019326Y017789D02*
X018833Y017789D01*
X018833Y017691D02*
X019326Y017691D01*
X019326Y017592D02*
X018833Y017592D01*
X018833Y017494D02*
X019326Y017494D01*
X019326Y017395D02*
X018833Y017395D01*
X018833Y017375D02*
X018833Y020426D01*
X018892Y020485D01*
X019286Y020485D01*
X019483Y020682D01*
X020034Y020682D01*
X020041Y020689D01*
X020074Y020689D01*
X020074Y020525D01*
X019483Y020525D01*
X019326Y020367D01*
X019326Y017375D01*
X018833Y017375D01*
X019089Y017414D02*
X019089Y020151D01*
X019463Y020525D01*
X019896Y020525D01*
X019896Y020721D01*
X020074Y020647D02*
X019448Y020647D01*
X019349Y020549D02*
X020074Y020549D01*
X020329Y020549D02*
X024050Y020549D01*
X024050Y020647D02*
X020329Y020647D01*
X020329Y020746D02*
X024050Y020746D01*
X024050Y020800D02*
X024050Y018084D01*
X032140Y018084D01*
X032140Y016883D01*
X019640Y016883D01*
X019640Y020131D01*
X020329Y020131D01*
X020329Y020800D01*
X024050Y020800D01*
X024326Y020844D02*
X024503Y020844D01*
X024503Y020746D02*
X024326Y020746D01*
X024326Y020647D02*
X024503Y020647D01*
X024503Y020549D02*
X024326Y020549D01*
X024326Y020450D02*
X024503Y020450D01*
X024503Y020351D02*
X024326Y020351D01*
X024326Y020253D02*
X024503Y020253D01*
X024503Y020154D02*
X024326Y020154D01*
X024326Y020056D02*
X024503Y020056D01*
X024503Y019957D02*
X024326Y019957D01*
X024326Y019859D02*
X025231Y019859D01*
X025231Y019895D02*
X025231Y019048D01*
X025074Y019048D01*
X025074Y018379D01*
X024326Y018379D01*
X024326Y021115D01*
X024089Y021115D01*
X024089Y022198D01*
X024503Y022198D01*
X024503Y019895D01*
X025231Y019895D01*
X025231Y019760D02*
X024326Y019760D01*
X024326Y019662D02*
X025231Y019662D01*
X025231Y019563D02*
X024326Y019563D01*
X024365Y019560D02*
X024365Y021922D01*
X024316Y021971D01*
X024316Y022001D01*
X024503Y022027D02*
X024089Y022027D01*
X024089Y022125D02*
X024503Y022125D01*
X024503Y021928D02*
X024089Y021928D01*
X024089Y021830D02*
X024503Y021830D01*
X024503Y021731D02*
X024089Y021731D01*
X024089Y021633D02*
X024503Y021633D01*
X024503Y021534D02*
X024089Y021534D01*
X024089Y021435D02*
X024503Y021435D01*
X024503Y021337D02*
X024089Y021337D01*
X024089Y021238D02*
X024503Y021238D01*
X024503Y021140D02*
X024089Y021140D01*
X024326Y021041D02*
X024503Y021041D01*
X024503Y020943D02*
X024326Y020943D01*
X023814Y021115D02*
X023814Y022493D01*
X024778Y022493D01*
X024778Y021135D01*
X025231Y021135D01*
X025231Y023792D01*
X021786Y023792D01*
X021786Y023044D01*
X020664Y021922D01*
X020329Y021922D01*
X020329Y021115D01*
X023814Y021115D01*
X023814Y021140D02*
X020329Y021140D01*
X020329Y021238D02*
X023814Y021238D01*
X023814Y021337D02*
X020329Y021337D01*
X020329Y021435D02*
X023814Y021435D01*
X023814Y021534D02*
X020329Y021534D01*
X020329Y021633D02*
X023814Y021633D01*
X023814Y021731D02*
X020329Y021731D01*
X020329Y021830D02*
X023814Y021830D01*
X023814Y021928D02*
X020670Y021928D01*
X020769Y022027D02*
X023814Y022027D01*
X023814Y022125D02*
X020867Y022125D01*
X020966Y022224D02*
X023814Y022224D01*
X023814Y022322D02*
X021064Y022322D01*
X021163Y022421D02*
X023814Y022421D01*
X023637Y022631D02*
X023841Y022836D01*
X024900Y022836D01*
X024885Y022836D01*
X024877Y022828D01*
X025131Y022574D01*
X025131Y021529D01*
X025231Y021534D02*
X024778Y021534D01*
X024778Y021633D02*
X025231Y021633D01*
X025231Y021731D02*
X024778Y021731D01*
X024778Y021830D02*
X025231Y021830D01*
X025231Y021928D02*
X024778Y021928D01*
X024778Y022027D02*
X025231Y022027D01*
X025231Y022125D02*
X024778Y022125D01*
X024778Y022224D02*
X025231Y022224D01*
X025231Y022322D02*
X024778Y022322D01*
X024778Y022421D02*
X025231Y022421D01*
X025231Y022519D02*
X021261Y022519D01*
X021360Y022618D02*
X025231Y022618D01*
X025231Y022716D02*
X021458Y022716D01*
X021557Y022815D02*
X025231Y022815D01*
X025231Y022914D02*
X021655Y022914D01*
X021754Y023012D02*
X025231Y023012D01*
X025231Y023111D02*
X021786Y023111D01*
X021786Y023209D02*
X025231Y023209D01*
X025231Y023308D02*
X021786Y023308D01*
X021786Y023406D02*
X025231Y023406D01*
X025231Y023505D02*
X021786Y023505D01*
X021786Y023603D02*
X025231Y023603D01*
X025231Y023702D02*
X021786Y023702D01*
X020861Y023359D02*
X020861Y024068D01*
X021747Y024954D01*
X022357Y024954D01*
X022357Y025151D02*
X021648Y025151D01*
X020664Y024166D01*
X020664Y023438D01*
X020310Y023084D01*
X019896Y023084D01*
X019896Y023280D02*
X020231Y023280D01*
X020467Y023517D01*
X020467Y024225D01*
X021786Y025544D01*
X021786Y026588D01*
X022377Y027178D01*
X022672Y027178D01*
X023282Y026568D01*
X023518Y026568D01*
X023519Y026567D01*
X023538Y026567D01*
X023538Y026804D02*
X023302Y026804D01*
X022690Y027416D01*
X022416Y027690D01*
X022101Y027690D01*
X021589Y027178D01*
X021589Y025643D01*
X020270Y024324D01*
X020270Y023576D01*
X020172Y023477D01*
X019896Y023477D01*
X019896Y023674D02*
X019247Y023674D01*
X019896Y022887D02*
X020389Y022887D01*
X020861Y023359D01*
X019936Y022690D02*
X019896Y022651D01*
X019896Y022493D01*
X019896Y022572D01*
X019916Y022591D01*
X019896Y022493D02*
X019896Y022690D01*
X019936Y022690D01*
X019896Y022296D02*
X019266Y022296D01*
X019070Y022099D01*
X019070Y020918D02*
X019896Y020918D01*
X020329Y020450D02*
X024050Y020450D01*
X024050Y020351D02*
X020329Y020351D01*
X020329Y020253D02*
X024050Y020253D01*
X024050Y020154D02*
X020329Y020154D01*
X019640Y020056D02*
X024050Y020056D01*
X024050Y019957D02*
X019640Y019957D01*
X019640Y019859D02*
X024050Y019859D01*
X024050Y019760D02*
X019640Y019760D01*
X019640Y019662D02*
X024050Y019662D01*
X024050Y019563D02*
X019640Y019563D01*
X019640Y019465D02*
X024050Y019465D01*
X024050Y019366D02*
X019640Y019366D01*
X019640Y019267D02*
X024050Y019267D01*
X024050Y019169D02*
X019640Y019169D01*
X019640Y019070D02*
X024050Y019070D01*
X024050Y018972D02*
X019640Y018972D01*
X019640Y018873D02*
X024050Y018873D01*
X024050Y018775D02*
X019640Y018775D01*
X019640Y018676D02*
X024050Y018676D01*
X024050Y018578D02*
X019640Y018578D01*
X019640Y018479D02*
X024050Y018479D01*
X024050Y018381D02*
X019640Y018381D01*
X019640Y018282D02*
X024050Y018282D01*
X024050Y018184D02*
X019640Y018184D01*
X019640Y018085D02*
X024050Y018085D01*
X024326Y018381D02*
X025074Y018381D01*
X025074Y018479D02*
X024326Y018479D01*
X024326Y018578D02*
X025074Y018578D01*
X025074Y018676D02*
X024326Y018676D01*
X024326Y018775D02*
X025074Y018775D01*
X025074Y018873D02*
X024326Y018873D01*
X024326Y018972D02*
X025074Y018972D01*
X025231Y019070D02*
X024326Y019070D01*
X024326Y019169D02*
X025231Y019169D01*
X025231Y019267D02*
X024326Y019267D01*
X024326Y019366D02*
X025231Y019366D01*
X025231Y019465D02*
X024326Y019465D01*
X024365Y019560D02*
X024444Y019481D01*
X025131Y019481D01*
X025428Y018773D02*
X026491Y018773D01*
X026491Y019914D01*
X026806Y019914D01*
X026806Y018359D01*
X025428Y018359D01*
X025428Y018773D01*
X025428Y018676D02*
X026806Y018676D01*
X026806Y018578D02*
X025428Y018578D01*
X025428Y018479D02*
X026806Y018479D01*
X026806Y018381D02*
X025428Y018381D01*
X025664Y018576D02*
X026629Y018576D01*
X026629Y019442D01*
X026631Y019444D01*
X026631Y019481D01*
X026491Y019465D02*
X026806Y019465D01*
X026806Y019563D02*
X026491Y019563D01*
X026491Y019662D02*
X026806Y019662D01*
X026806Y019760D02*
X026491Y019760D01*
X026491Y019859D02*
X026806Y019859D01*
X027042Y019859D02*
X032140Y019859D01*
X032140Y019957D02*
X027042Y019957D01*
X027042Y020056D02*
X032140Y020056D01*
X032140Y020154D02*
X027042Y020154D01*
X027042Y020210D02*
X024877Y020210D01*
X024877Y020899D01*
X026038Y020899D01*
X026038Y023202D01*
X026058Y023182D01*
X030467Y023182D01*
X030467Y024245D01*
X030763Y024245D01*
X032140Y022867D01*
X032140Y018379D01*
X027042Y018379D01*
X027042Y020210D01*
X027298Y020306D02*
X027298Y018576D01*
X027042Y018578D02*
X032140Y018578D01*
X032140Y018676D02*
X027042Y018676D01*
X027042Y018775D02*
X032140Y018775D01*
X032140Y018873D02*
X027042Y018873D01*
X027042Y018972D02*
X032140Y018972D01*
X032140Y019070D02*
X027042Y019070D01*
X027042Y019169D02*
X032140Y019169D01*
X032140Y019267D02*
X027042Y019267D01*
X027042Y019366D02*
X032140Y019366D01*
X032140Y019465D02*
X027042Y019465D01*
X027042Y019563D02*
X032140Y019563D01*
X032140Y019662D02*
X027042Y019662D01*
X027042Y019760D02*
X032140Y019760D01*
X032140Y020253D02*
X024877Y020253D01*
X024877Y020351D02*
X032140Y020351D01*
X032140Y020450D02*
X024877Y020450D01*
X024877Y020549D02*
X032140Y020549D01*
X032140Y020647D02*
X024877Y020647D01*
X024877Y020746D02*
X032140Y020746D01*
X032140Y020844D02*
X024877Y020844D01*
X024778Y021140D02*
X025231Y021140D01*
X025231Y021238D02*
X024778Y021238D01*
X024778Y021337D02*
X025231Y021337D01*
X025231Y021435D02*
X024778Y021435D01*
X025507Y021435D02*
X025743Y021435D01*
X025743Y021337D02*
X025507Y021337D01*
X025507Y021238D02*
X025743Y021238D01*
X025743Y021140D02*
X025507Y021140D01*
X025507Y021135D02*
X025507Y023812D01*
X026688Y023812D01*
X026688Y026489D01*
X027672Y026489D01*
X030113Y024048D01*
X030093Y024029D01*
X030113Y024009D01*
X030113Y023497D01*
X025743Y023497D01*
X025743Y021135D01*
X025507Y021135D01*
X025507Y021534D02*
X025743Y021534D01*
X025743Y021633D02*
X025507Y021633D01*
X025507Y021731D02*
X025743Y021731D01*
X025743Y021830D02*
X025507Y021830D01*
X025507Y021928D02*
X025743Y021928D01*
X025743Y022027D02*
X025507Y022027D01*
X025507Y022125D02*
X025743Y022125D01*
X025743Y022224D02*
X025507Y022224D01*
X025507Y022322D02*
X025743Y022322D01*
X025743Y022421D02*
X025507Y022421D01*
X025507Y022519D02*
X025743Y022519D01*
X025743Y022618D02*
X025507Y022618D01*
X025507Y022716D02*
X025743Y022716D01*
X025743Y022815D02*
X025507Y022815D01*
X025507Y022914D02*
X025743Y022914D01*
X025743Y023012D02*
X025507Y023012D01*
X025507Y023111D02*
X025743Y023111D01*
X025743Y023209D02*
X025507Y023209D01*
X025507Y023308D02*
X025743Y023308D01*
X025743Y023406D02*
X025507Y023406D01*
X025507Y023505D02*
X030113Y023505D01*
X030113Y023603D02*
X025507Y023603D01*
X025507Y023702D02*
X030113Y023702D01*
X030113Y023800D02*
X025507Y023800D01*
X025881Y023635D02*
X026530Y023635D01*
X027396Y024501D01*
X028420Y024501D01*
X028461Y024542D01*
X028491Y024542D01*
X029080Y025082D02*
X026688Y025082D01*
X026688Y025180D02*
X028981Y025180D01*
X028882Y025279D02*
X026688Y025279D01*
X026688Y025377D02*
X028784Y025377D01*
X028685Y025476D02*
X026688Y025476D01*
X026688Y025574D02*
X028587Y025574D01*
X028488Y025673D02*
X026688Y025673D01*
X026688Y025771D02*
X028390Y025771D01*
X028291Y025870D02*
X026688Y025870D01*
X026688Y025968D02*
X028193Y025968D01*
X028094Y026067D02*
X026688Y026067D01*
X026688Y026166D02*
X027996Y026166D01*
X027897Y026264D02*
X026688Y026264D01*
X026688Y026363D02*
X027799Y026363D01*
X027700Y026461D02*
X026688Y026461D01*
X026314Y025603D02*
X025782Y026135D01*
X025449Y026569D02*
X026464Y027584D01*
X026464Y027584D01*
X026471Y027591D01*
X026156Y028123D02*
X025266Y028944D01*
X025270Y028944D01*
X025270Y028556D01*
X025270Y028944D02*
X025270Y028950D01*
X025266Y028944D02*
X023371Y030692D01*
X022637Y029674D02*
X022637Y029662D01*
X022633Y029658D01*
X022633Y028792D01*
X022633Y028773D01*
X022278Y028418D01*
X021471Y028418D01*
X020763Y027710D01*
X020763Y026922D01*
X020703Y026863D01*
X020467Y026627D01*
X020467Y025623D01*
X020290Y025446D01*
X019896Y025446D01*
X019896Y025643D02*
X020172Y025643D01*
X020270Y025741D01*
X020270Y027237D01*
X020408Y027375D01*
X020408Y027966D01*
X021215Y028773D01*
X021215Y028792D01*
X021648Y028792D01*
X021637Y028804D01*
X021637Y029674D01*
X021648Y028792D02*
X021963Y028792D01*
X021530Y028202D02*
X022475Y028202D01*
X022829Y027847D01*
X023442Y027235D01*
X023538Y027235D01*
X023538Y027001D02*
X023381Y027001D01*
X022377Y028005D01*
X021688Y028005D01*
X021255Y027572D01*
X021255Y026450D01*
X021137Y026332D01*
X021137Y025466D01*
X020723Y025052D01*
X019896Y025052D01*
X019896Y024855D02*
X019070Y024855D01*
X018971Y025603D02*
X018833Y025741D01*
X018833Y026430D01*
X019546Y026430D01*
X019569Y026407D01*
X019594Y026407D01*
X019604Y026398D01*
X020050Y026398D01*
X020050Y025872D01*
X019604Y025872D01*
X019571Y025840D01*
X019365Y025840D01*
X019365Y025721D01*
X019247Y025603D01*
X018971Y025603D01*
X018902Y025673D02*
X019316Y025673D01*
X019365Y025771D02*
X018833Y025771D01*
X018833Y025870D02*
X019602Y025870D01*
X019896Y025840D02*
X019070Y025840D01*
X019266Y026036D01*
X019896Y026036D01*
X019896Y026233D01*
X019896Y026430D01*
X020050Y026363D02*
X018833Y026363D01*
X018833Y026264D02*
X020050Y026264D01*
X020050Y026166D02*
X018833Y026166D01*
X018833Y026067D02*
X020050Y026067D01*
X020050Y025968D02*
X018833Y025968D01*
X019660Y026627D02*
X019896Y026627D01*
X019660Y026627D02*
X019660Y027749D01*
X018085Y027749D01*
X018085Y026627D01*
X018085Y028202D02*
X018066Y028202D01*
X018085Y029383D02*
X018066Y029383D01*
X018085Y029580D02*
X018066Y029580D01*
X018085Y029777D02*
X018046Y029777D01*
X018085Y030170D02*
X019896Y030170D01*
X019640Y030170D01*
X019640Y029777D02*
X019896Y029777D01*
X020546Y029580D02*
X020640Y029674D01*
X020637Y029674D01*
X020640Y029674D02*
X020644Y029678D01*
X020546Y029580D02*
X020546Y028792D01*
X019896Y028989D02*
X019621Y028989D01*
X019621Y028202D02*
X019896Y028202D01*
X019896Y027808D02*
X019621Y027808D01*
X019621Y027414D02*
X019896Y027414D01*
X021038Y027710D02*
X021038Y026568D01*
X020782Y026312D01*
X020782Y026115D01*
X020802Y026115D01*
X020802Y025446D01*
X020605Y025249D01*
X019896Y025249D01*
X021137Y026332D02*
X021255Y026214D01*
X021983Y025997D02*
X021983Y025426D01*
X022062Y025347D01*
X022357Y025347D01*
X022829Y025347D01*
X022829Y024816D01*
X023243Y024816D01*
X023459Y024599D01*
X022829Y024816D02*
X022770Y024757D01*
X022357Y024757D01*
X022357Y025544D02*
X022613Y025544D01*
X022613Y026312D01*
X023892Y026312D01*
X023892Y026569D01*
X025449Y026569D01*
X025113Y026135D02*
X024719Y025741D01*
X024719Y025229D01*
X024640Y025151D01*
X024326Y025151D01*
X024326Y024954D02*
X024640Y024954D01*
X024955Y024639D01*
X025152Y024639D01*
X025487Y024973D01*
X025487Y025249D01*
X025782Y025544D01*
X026314Y025603D02*
X026314Y024442D01*
X026688Y024490D02*
X029671Y024490D01*
X029769Y024392D02*
X026688Y024392D01*
X026688Y024293D02*
X029868Y024293D01*
X029966Y024195D02*
X026688Y024195D01*
X026688Y024096D02*
X030065Y024096D01*
X030113Y023998D02*
X026688Y023998D01*
X026688Y023899D02*
X030113Y023899D01*
X030467Y023899D02*
X031109Y023899D01*
X031207Y023800D02*
X030467Y023800D01*
X030467Y023702D02*
X031306Y023702D01*
X031404Y023603D02*
X030467Y023603D01*
X030467Y023505D02*
X031503Y023505D01*
X031601Y023406D02*
X030467Y023406D01*
X030467Y023308D02*
X031700Y023308D01*
X031798Y023209D02*
X030467Y023209D01*
X030467Y023998D02*
X031010Y023998D01*
X030911Y024096D02*
X030467Y024096D01*
X030467Y024195D02*
X030813Y024195D01*
X029572Y024589D02*
X026688Y024589D01*
X026688Y024687D02*
X029474Y024687D01*
X029375Y024786D02*
X026688Y024786D01*
X026688Y024884D02*
X029277Y024884D01*
X029178Y024983D02*
X026688Y024983D01*
X025940Y024737D02*
X025940Y024599D01*
X025585Y024245D01*
X024916Y024245D02*
X024660Y024245D01*
X024326Y024580D01*
X024326Y024757D01*
X024326Y025544D02*
X022613Y025544D01*
X022357Y025997D02*
X021983Y025997D01*
X022357Y025997D02*
X022357Y026647D01*
X022378Y027177D02*
X022377Y027178D01*
X022690Y027416D02*
X022692Y027414D01*
X022831Y027845D02*
X022829Y027847D01*
X023892Y027239D02*
X023892Y027001D01*
X023892Y026802D01*
X023892Y026569D01*
X023538Y026804D02*
X023536Y026806D01*
X023538Y026806D01*
X025113Y025544D02*
X025113Y025052D01*
X025054Y024993D01*
X025881Y023635D02*
X025631Y023385D01*
X025631Y021529D01*
X026038Y021534D02*
X026343Y021534D01*
X026343Y021633D02*
X026038Y021633D01*
X026038Y021731D02*
X026343Y021731D01*
X026343Y021830D02*
X026038Y021830D01*
X026038Y021928D02*
X026343Y021928D01*
X026343Y022027D02*
X026038Y022027D01*
X026038Y022125D02*
X026436Y022125D01*
X026442Y022132D02*
X026343Y022032D01*
X026343Y021025D01*
X026442Y020925D01*
X026819Y020925D01*
X026919Y021025D01*
X026919Y022032D01*
X026819Y022132D01*
X026442Y022132D01*
X026825Y022125D02*
X032140Y022125D01*
X032140Y022027D02*
X026919Y022027D01*
X026919Y021928D02*
X032140Y021928D01*
X032140Y021830D02*
X026919Y021830D01*
X026919Y021731D02*
X032140Y021731D01*
X032140Y021633D02*
X026919Y021633D01*
X026919Y021534D02*
X032140Y021534D01*
X032140Y021435D02*
X026919Y021435D01*
X026919Y021337D02*
X032140Y021337D01*
X032140Y021238D02*
X026919Y021238D01*
X026919Y021140D02*
X032140Y021140D01*
X032140Y021041D02*
X026919Y021041D01*
X026836Y020943D02*
X032140Y020943D01*
X032140Y022224D02*
X026038Y022224D01*
X026038Y022322D02*
X032140Y022322D01*
X032140Y022421D02*
X026038Y022421D01*
X026131Y022389D02*
X026554Y022812D01*
X026554Y022836D01*
X027995Y022836D01*
X028105Y022946D01*
X028491Y022560D01*
X028491Y022158D01*
X028491Y022042D01*
X028420Y020308D02*
X027298Y020306D01*
X027298Y020308D01*
X027298Y020306D02*
X026591Y020306D01*
X026137Y020761D01*
X026137Y020780D01*
X026058Y020702D01*
X025841Y020702D01*
X026137Y020780D02*
X026137Y021450D01*
X026117Y021469D01*
X026131Y021483D01*
X026131Y021529D01*
X026131Y022389D01*
X026038Y022519D02*
X032140Y022519D01*
X032140Y022618D02*
X026038Y022618D01*
X026038Y022716D02*
X032140Y022716D01*
X032140Y022815D02*
X026038Y022815D01*
X026038Y022914D02*
X032094Y022914D01*
X031995Y023012D02*
X026038Y023012D01*
X026038Y023111D02*
X031897Y023111D01*
X028558Y020170D02*
X028558Y020129D01*
X028558Y020170D02*
X028420Y020308D01*
X026806Y019366D02*
X026491Y019366D01*
X026491Y019267D02*
X026806Y019267D01*
X026806Y019169D02*
X026491Y019169D01*
X026491Y019070D02*
X026806Y019070D01*
X026806Y018972D02*
X026491Y018972D01*
X026491Y018873D02*
X026806Y018873D01*
X026806Y018775D02*
X026491Y018775D01*
X026629Y018576D02*
X026648Y018556D01*
X027042Y018479D02*
X032140Y018479D01*
X032140Y018381D02*
X027042Y018381D01*
X025764Y017806D02*
X025664Y017906D01*
X022633Y017906D01*
X022318Y017946D01*
X020585Y017946D01*
X020074Y017434D01*
X020089Y017418D01*
X020089Y017414D01*
X019640Y017395D02*
X032140Y017395D01*
X032140Y017297D02*
X019640Y017297D01*
X019640Y017198D02*
X032140Y017198D01*
X032140Y017100D02*
X019640Y017100D01*
X019640Y017001D02*
X032140Y017001D01*
X032140Y016902D02*
X019640Y016902D01*
X019640Y017494D02*
X032140Y017494D01*
X032140Y017592D02*
X019640Y017592D01*
X019640Y017691D02*
X032140Y017691D01*
X032140Y017789D02*
X019640Y017789D01*
X019640Y017888D02*
X032140Y017888D01*
X032140Y017986D02*
X019640Y017986D01*
X019326Y019366D02*
X018833Y019366D01*
X018833Y019465D02*
X019326Y019465D01*
X019326Y019563D02*
X018833Y019563D01*
X018833Y019662D02*
X019326Y019662D01*
X019326Y019760D02*
X018833Y019760D01*
X018833Y019859D02*
X019326Y019859D01*
X019326Y019957D02*
X018833Y019957D01*
X018833Y020056D02*
X019326Y020056D01*
X019326Y020154D02*
X018833Y020154D01*
X018833Y020253D02*
X019326Y020253D01*
X019326Y020351D02*
X018833Y020351D01*
X018857Y020450D02*
X019408Y020450D01*
X022318Y021450D02*
X022318Y021725D01*
X022593Y022001D01*
X023627Y022001D01*
X023627Y022011D01*
X023637Y022021D01*
X023637Y022631D01*
X026038Y021435D02*
X026343Y021435D01*
X026343Y021337D02*
X026038Y021337D01*
X026038Y021238D02*
X026343Y021238D01*
X026343Y021140D02*
X026038Y021140D01*
X026038Y021041D02*
X026343Y021041D01*
X026425Y020943D02*
X026038Y020943D01*
X025764Y017806D02*
X028479Y017808D01*
X028558Y017729D01*
X028558Y017629D01*
X021038Y027710D02*
X021530Y028202D01*
X021451Y030937D02*
X021451Y030938D01*
X021412Y030938D02*
X021412Y030958D01*
X021217Y030956D02*
X021215Y030958D01*
X021215Y030938D01*
X021607Y030975D02*
X021609Y030977D01*
X021609Y030938D01*
X021806Y030938D02*
X021806Y030997D01*
X021807Y030996D01*
X022003Y030977D02*
X022002Y030976D01*
X022003Y030977D02*
X022003Y030938D01*
X022200Y030938D02*
X022200Y030958D01*
X022201Y030956D01*
X011589Y018062D02*
X011589Y018044D01*
X011570Y018064D01*
X011589Y018044D02*
X011589Y018044D01*
X007239Y019048D02*
X007042Y018851D01*
X006845Y018654D02*
X006707Y018517D01*
X006845Y018654D02*
X006845Y019206D01*
X007239Y019206D02*
X007239Y019048D01*
X005861Y019206D02*
X005861Y017847D01*
X005861Y017828D01*
X005211Y018851D02*
X005270Y018910D01*
X005270Y019206D01*
X005467Y019206D01*
X005664Y019206D01*
X005270Y019206D02*
X005074Y019206D01*
X004877Y019206D01*
X004680Y019206D01*
X004483Y019206D01*
X004286Y019206D01*
X004089Y019206D01*
X003892Y019206D01*
X003696Y019206D01*
X003479Y019206D01*
X003499Y019206D01*
X003479Y019206D02*
X003302Y019206D01*
X003105Y019206D01*
X002908Y019206D01*
X002711Y019206D01*
X004483Y019206D02*
X004503Y019206D01*
X004680Y019206D02*
X004700Y019206D01*
X004877Y019206D02*
X004896Y019206D01*
X005074Y019206D02*
X005093Y019206D01*
X004286Y020111D02*
X004247Y020111D01*
X004251Y020107D01*
X004254Y020107D01*
X005703Y021588D02*
X005763Y021588D01*
X006117Y021942D01*
X006314Y022139D01*
X005703Y021607D02*
X005684Y021607D01*
X005703Y021607D02*
X005703Y021588D01*
X011152Y001257D02*
X011156Y001253D01*
X011156Y001233D01*
D46*
X002928Y017158D02*
X003617Y017847D01*
X005861Y017847D01*
X006058Y017847D01*
X006255Y017847D01*
X007337Y017847D01*
X001846Y021017D02*
X001814Y021017D01*
X001786Y021017D01*
D47*
X002652Y021922D03*
X003144Y021469D03*
X003735Y024166D03*
X005349Y024206D03*
X006117Y021942D03*
X006727Y021824D03*
X006629Y021056D03*
X006963Y020721D03*
X007377Y020525D03*
X008814Y020091D03*
X009109Y020544D03*
X009070Y020997D03*
X010566Y022139D03*
X010999Y022296D03*
X011570Y022296D03*
X012396Y022572D03*
X012455Y023103D03*
X012751Y024068D03*
X013164Y024265D03*
X012357Y025662D03*
X011255Y026548D03*
X010631Y026374D03*
X010211Y026980D03*
X009877Y027552D03*
X009481Y027353D03*
X008892Y027788D03*
X008715Y026214D03*
X010310Y024265D03*
X011077Y027395D03*
X011077Y029875D03*
X012775Y029910D03*
X015566Y031036D03*
X020408Y027375D03*
X020802Y026115D03*
X021255Y026214D03*
X022357Y026647D03*
X022377Y027178D03*
X022101Y027690D03*
X024837Y029127D03*
X028066Y026017D03*
X026314Y024442D03*
X025940Y024737D03*
X025054Y024993D03*
X023459Y024599D03*
X022022Y024324D03*
X019070Y024855D03*
X018991Y024166D03*
X019070Y023497D03*
X019070Y022099D03*
X019070Y021509D03*
X019070Y020918D03*
X014567Y022794D03*
X014522Y025525D03*
X019070Y025840D03*
X025014Y020741D03*
X028105Y022946D03*
X014562Y008025D03*
X012062Y009914D03*
X010979Y010918D03*
X011137Y011430D03*
X009660Y011076D03*
X009345Y011430D03*
X008755Y011765D03*
X008755Y010741D03*
X009955Y009363D03*
X009601Y008733D03*
X009542Y007119D03*
X007829Y007237D03*
X007534Y007769D03*
X007534Y008399D03*
X007829Y008812D03*
X005940Y009186D03*
X005113Y009501D03*
X005487Y010170D03*
X004168Y011076D03*
X004483Y011430D03*
X002948Y011371D03*
X006058Y013674D03*
X007829Y013674D03*
X008420Y013674D03*
X009306Y013714D03*
X010979Y013812D03*
X011570Y013792D03*
X012160Y013812D03*
X010088Y018059D03*
X007537Y018534D03*
X006707Y018517D03*
X004995Y018615D03*
X004011Y017080D03*
X002928Y017158D03*
X003774Y008025D03*
X005487Y008143D03*
X008715Y003123D03*
X010861Y004836D03*
X011589Y006332D03*
X013991Y004009D03*
X008912Y029422D03*
D48*
X011865Y030288D02*
X011865Y030840D01*
X012062Y031036D01*
X004463Y022926D02*
X004463Y021922D01*
X004286Y021922D01*
X004266Y021903D01*
X004242Y021927D01*
X004227Y021927D01*
X004227Y021922D01*
X004232Y021927D01*
X004254Y021927D01*
X004254Y021017D02*
X003735Y021017D01*
X004254Y021017D02*
X005093Y021017D01*
X005172Y020918D01*
X014227Y010560D02*
X015503Y010560D01*
X015487Y004698D02*
X015400Y004698D01*
X012960Y004698D01*
X011983Y004698D01*
X011853Y004828D01*
X011660Y004828D01*
X011660Y003725D02*
X012900Y003725D01*
X012963Y003788D01*
X012960Y003788D01*
X012963Y003788D02*
X012967Y003792D01*
X011152Y002513D02*
X011152Y001257D01*
X025014Y020741D02*
X030428Y020741D01*
X030625Y020938D01*
X030625Y022178D01*
X030644Y022178D01*
X030644Y022158D01*
X030644Y022178D02*
X030644Y024166D01*
X027062Y027769D01*
X026464Y027584D01*
X020637Y029674D02*
X020637Y030930D01*
X020644Y030938D01*
X019070Y022099D02*
X019266Y021903D01*
X019266Y021706D02*
X019070Y021509D01*
X019266Y021312D01*
X019266Y021115D02*
X019070Y020918D01*
D49*
X012786Y027557D02*
X012775Y027557D01*
X007790Y021824D02*
X007790Y020072D01*
X008263Y020072D01*
X008735Y020544D01*
X009109Y020544D01*
X007790Y021824D02*
X006727Y021824D01*
X003341Y022926D02*
X002692Y023576D01*
X005487Y008143D02*
X005487Y008123D01*
X005467Y008103D01*
X005487Y008084D01*
X005487Y007749D01*
X009511Y003725D01*
X011660Y003725D01*
X011979Y005859D02*
X011979Y005895D01*
X011983Y005899D01*
X011983Y006332D01*
X011589Y006332D01*
X011979Y005859D02*
X012711Y005859D01*
X012960Y005611D01*
D50*
X013046Y018143D02*
X012140Y018143D01*
X013046Y018143D02*
X014719Y019816D01*
X014721Y020781D01*
D51*
X018085Y024166D02*
X018085Y026627D01*
X018085Y026824D01*
X018085Y027021D01*
X018085Y027217D01*
X018085Y027414D01*
X018085Y027611D01*
X018085Y027808D01*
X018085Y027847D01*
X018085Y027867D01*
X018085Y028005D01*
X018085Y028202D01*
X018085Y028399D01*
X018085Y028595D01*
X018085Y028792D01*
X018085Y028989D01*
X018085Y029186D01*
X018085Y029383D01*
X018085Y029580D01*
X018085Y029777D01*
X018085Y029973D01*
X018085Y030170D01*
X018085Y030938D01*
X020644Y030938D01*
X021215Y030938D01*
X021412Y030938D01*
X021451Y030938D01*
X021609Y030938D01*
X021806Y030938D01*
X022003Y030938D01*
X022200Y030938D01*
X023361Y030938D01*
X023371Y030692D01*
X018085Y024166D02*
X018085Y017395D01*
X015487Y014836D02*
X015487Y010564D01*
X015487Y008025D01*
X015487Y004698D01*
X015487Y001233D01*
X011156Y001233D01*
X010310Y001233D01*
X010251Y001292D01*
X010251Y001371D01*
X002042Y009560D02*
X001904Y009580D01*
X001904Y009777D01*
X001904Y010682D01*
X001904Y010741D01*
X001904Y010859D01*
X001904Y010879D01*
X001904Y011095D01*
X001904Y011469D01*
X001904Y014836D01*
X002711Y014836D01*
X002908Y014836D01*
X003105Y014836D01*
X003302Y014836D01*
X003499Y014836D01*
X003696Y014836D01*
X003892Y014836D01*
X004089Y014836D01*
X004286Y014836D01*
X004483Y014836D01*
X004680Y014836D01*
X004877Y014836D01*
X005074Y014836D01*
X005270Y014836D01*
X005467Y014836D01*
X005664Y014836D01*
X006865Y014836D01*
X007042Y014836D01*
X007239Y014836D01*
X009326Y014836D01*
X015487Y014836D01*
D52*
X008381Y003241D02*
X003784Y007818D01*
X002042Y009560D01*
X008381Y003241D02*
X008587Y003034D01*
X008538Y003084D01*
X008587Y003034D02*
X010251Y001371D01*
D53*
X026464Y027584D02*
X023371Y030692D01*
M02*
