G75*
G70*
%OFA0B0*%
%FSLAX24Y24*%
%IPPOS*%
%LPD*%
%AMOC8*
5,1,8,0,0,1.08239X$1,22.5*
%
%ADD10C,0.0000*%
%ADD11C,0.0100*%
%ADD12R,0.0236X0.0118*%
%ADD13R,0.0630X0.0118*%
%ADD14R,0.0394X0.0433*%
%ADD15R,0.0630X0.0709*%
%ADD16C,0.0047*%
%ADD17OC8,0.0850*%
%ADD18C,0.0400*%
%ADD19C,0.0059*%
%ADD20R,0.0118X0.0236*%
%ADD21R,0.0425X0.0413*%
%ADD22R,0.0394X0.0394*%
%ADD23R,0.0394X0.0551*%
%ADD24R,0.0118X0.0197*%
%ADD25R,0.0197X0.0197*%
%ADD26R,0.0197X0.0118*%
%ADD27R,0.0472X0.0126*%
%ADD28R,0.0433X0.0394*%
%ADD29C,0.0700*%
%ADD30R,0.0709X0.0630*%
%ADD31R,0.0880X0.0480*%
%ADD32R,0.0866X0.1417*%
%ADD33R,0.0480X0.0880*%
%ADD34R,0.1417X0.0866*%
%ADD35R,0.0236X0.0866*%
%ADD36R,0.1299X0.0630*%
%ADD37R,0.0472X0.0591*%
%ADD38R,0.1063X0.1004*%
%ADD39R,0.0413X0.0425*%
D10*
X023676Y031647D02*
X032337Y022985D01*
X032337Y016686D01*
X017377Y016686D01*
X017377Y031647D01*
X023676Y031647D01*
X016196Y031647D02*
X016196Y016686D01*
X001235Y016686D01*
X001235Y022985D01*
X009896Y031647D01*
X016196Y031647D01*
X016196Y015505D02*
X001235Y015505D01*
X001235Y009206D01*
X009896Y000544D01*
X016196Y000544D01*
X016196Y015505D01*
D11*
X015763Y016922D02*
X015448Y016922D01*
X015251Y017119D01*
X015251Y017434D01*
X015448Y017631D01*
X015763Y017631D01*
X015959Y017434D01*
X015959Y017119D01*
X015763Y016922D01*
X015841Y017001D02*
X015369Y017001D01*
X015270Y017100D02*
X015940Y017100D01*
X015959Y017198D02*
X015251Y017198D01*
X015251Y017297D02*
X015959Y017297D01*
X015959Y017395D02*
X015251Y017395D01*
X015310Y017494D02*
X015900Y017494D01*
X015801Y017592D02*
X015409Y017592D01*
X015448Y018103D02*
X015251Y018300D01*
X015251Y018615D01*
X015448Y018812D01*
X015763Y018812D01*
X015959Y018615D01*
X015959Y018300D01*
X015763Y018103D01*
X015448Y018103D01*
X015367Y018184D02*
X015843Y018184D01*
X015941Y018282D02*
X015269Y018282D01*
X015251Y018381D02*
X015959Y018381D01*
X015959Y018479D02*
X015251Y018479D01*
X015251Y018578D02*
X015959Y018578D01*
X015898Y018676D02*
X015312Y018676D01*
X015410Y018775D02*
X015800Y018775D01*
X014620Y017592D02*
X014228Y017592D01*
X014266Y017631D02*
X014070Y017434D01*
X014070Y017119D01*
X014266Y016922D01*
X014581Y016922D01*
X014778Y017119D01*
X014778Y017434D01*
X014581Y017631D01*
X014266Y017631D01*
X014129Y017494D02*
X014719Y017494D01*
X014778Y017395D02*
X014070Y017395D01*
X014070Y017297D02*
X014778Y017297D01*
X014778Y017198D02*
X014070Y017198D01*
X014089Y017100D02*
X014759Y017100D01*
X014660Y017001D02*
X014188Y017001D01*
X013007Y019678D02*
X012692Y019678D01*
X012495Y019875D01*
X012495Y020190D01*
X012692Y020387D01*
X013007Y020387D01*
X013203Y020190D01*
X013203Y019875D01*
X013007Y019678D01*
X013089Y019760D02*
X012610Y019760D01*
X012511Y019859D02*
X013187Y019859D01*
X013203Y019957D02*
X012495Y019957D01*
X012495Y020056D02*
X013203Y020056D01*
X013203Y020154D02*
X012495Y020154D01*
X012558Y020253D02*
X013140Y020253D01*
X013042Y020351D02*
X012656Y020351D01*
X012692Y020859D02*
X012495Y021056D01*
X012495Y021371D01*
X012692Y021568D01*
X013007Y021568D01*
X013203Y021371D01*
X013203Y021056D01*
X013007Y020859D01*
X012692Y020859D01*
X012608Y020943D02*
X013090Y020943D01*
X013189Y021041D02*
X012510Y021041D01*
X012495Y021140D02*
X013203Y021140D01*
X013203Y021238D02*
X012495Y021238D01*
X012495Y021337D02*
X013203Y021337D01*
X013139Y021435D02*
X012559Y021435D01*
X012658Y021534D02*
X013041Y021534D01*
X012022Y021371D02*
X012022Y021056D01*
X011826Y020859D01*
X011511Y020859D01*
X011314Y021056D01*
X011314Y021371D01*
X011511Y021568D01*
X011826Y021568D01*
X012022Y021371D01*
X012022Y021337D02*
X011314Y021337D01*
X011314Y021238D02*
X012022Y021238D01*
X012022Y021140D02*
X011314Y021140D01*
X011329Y021041D02*
X012008Y021041D01*
X011909Y020943D02*
X011427Y020943D01*
X011378Y021435D02*
X011958Y021435D01*
X011859Y021534D02*
X011477Y021534D01*
X011511Y020387D02*
X011314Y020190D01*
X011314Y019875D01*
X011511Y019678D01*
X011826Y019678D01*
X012022Y019875D01*
X012022Y020190D01*
X011826Y020387D01*
X011511Y020387D01*
X011475Y020351D02*
X011861Y020351D01*
X011959Y020253D02*
X011377Y020253D01*
X011314Y020154D02*
X012022Y020154D01*
X012022Y020056D02*
X011314Y020056D01*
X011314Y019957D02*
X012022Y019957D01*
X012006Y019859D02*
X011330Y019859D01*
X011428Y019760D02*
X011908Y019760D01*
X011668Y023379D02*
X009896Y023379D01*
X009896Y025151D01*
X011668Y025151D01*
X011668Y023379D01*
X011668Y023406D02*
X009896Y023406D01*
X009896Y023505D02*
X011668Y023505D01*
X011668Y023603D02*
X009896Y023603D01*
X009896Y023702D02*
X011668Y023702D01*
X011668Y023800D02*
X009896Y023800D01*
X009896Y023899D02*
X011668Y023899D01*
X011668Y023998D02*
X009896Y023998D01*
X009896Y024096D02*
X011668Y024096D01*
X011668Y024195D02*
X009896Y024195D01*
X009896Y024293D02*
X011668Y024293D01*
X011668Y024392D02*
X009896Y024392D01*
X009896Y024490D02*
X011668Y024490D01*
X011668Y024589D02*
X009896Y024589D01*
X009896Y024687D02*
X011668Y024687D01*
X011668Y024786D02*
X009896Y024786D01*
X009896Y024884D02*
X011668Y024884D01*
X011668Y024983D02*
X009896Y024983D01*
X009896Y025082D02*
X011668Y025082D01*
D12*
X005920Y024206D03*
X005920Y024009D03*
X005920Y023812D03*
X005920Y023615D03*
X004818Y023615D03*
X004818Y023812D03*
X004818Y024009D03*
X004818Y024206D03*
D13*
X008322Y024068D03*
X008322Y023694D03*
X008322Y023320D03*
D14*
X008381Y007237D03*
X009050Y007237D03*
X009050Y008025D03*
X008381Y008025D03*
X008381Y008812D03*
X009050Y008812D03*
X009680Y005840D03*
X010349Y005840D03*
X010349Y005091D03*
X009680Y005091D03*
X005172Y020249D03*
X005172Y020918D03*
X005034Y021607D03*
X005703Y021607D03*
X009975Y029343D03*
X009975Y030013D03*
X021963Y028792D03*
X022633Y028792D03*
X025113Y026135D03*
X025113Y025544D03*
X025782Y025544D03*
X025782Y026135D03*
X025585Y024245D03*
X024916Y024245D03*
X026629Y018576D03*
X027298Y018576D03*
D15*
X012770Y027729D03*
X011668Y027729D03*
X004463Y022926D03*
X003361Y022926D03*
D16*
X003338Y018993D02*
X003266Y018993D01*
X003266Y019419D01*
X003338Y019419D01*
X003338Y018993D01*
X003338Y019039D02*
X003266Y019039D01*
X003266Y019085D02*
X003338Y019085D01*
X003338Y019131D02*
X003266Y019131D01*
X003266Y019177D02*
X003338Y019177D01*
X003338Y019223D02*
X003266Y019223D01*
X003266Y019269D02*
X003338Y019269D01*
X003338Y019315D02*
X003266Y019315D01*
X003266Y019361D02*
X003338Y019361D01*
X003338Y019407D02*
X003266Y019407D01*
X003141Y018993D02*
X003069Y018993D01*
X003069Y019419D01*
X003141Y019419D01*
X003141Y018993D01*
X003141Y019039D02*
X003069Y019039D01*
X003069Y019085D02*
X003141Y019085D01*
X003141Y019131D02*
X003069Y019131D01*
X003069Y019177D02*
X003141Y019177D01*
X003141Y019223D02*
X003069Y019223D01*
X003069Y019269D02*
X003141Y019269D01*
X003141Y019315D02*
X003069Y019315D01*
X003069Y019361D02*
X003141Y019361D01*
X003141Y019407D02*
X003069Y019407D01*
X002944Y018993D02*
X002872Y018993D01*
X002872Y019419D01*
X002944Y019419D01*
X002944Y018993D01*
X002944Y019039D02*
X002872Y019039D01*
X002872Y019085D02*
X002944Y019085D01*
X002944Y019131D02*
X002872Y019131D01*
X002872Y019177D02*
X002944Y019177D01*
X002944Y019223D02*
X002872Y019223D01*
X002872Y019269D02*
X002944Y019269D01*
X002944Y019315D02*
X002872Y019315D01*
X002872Y019361D02*
X002944Y019361D01*
X002944Y019407D02*
X002872Y019407D01*
X002747Y018993D02*
X002675Y018993D01*
X002675Y019419D01*
X002747Y019419D01*
X002747Y018993D01*
X002747Y019039D02*
X002675Y019039D01*
X002675Y019085D02*
X002747Y019085D01*
X002747Y019131D02*
X002675Y019131D01*
X002675Y019177D02*
X002747Y019177D01*
X002747Y019223D02*
X002675Y019223D01*
X002675Y019269D02*
X002747Y019269D01*
X002747Y019315D02*
X002675Y019315D01*
X002675Y019361D02*
X002747Y019361D01*
X002747Y019407D02*
X002675Y019407D01*
X003463Y018993D02*
X003535Y018993D01*
X003463Y018993D02*
X003463Y019419D01*
X003535Y019419D01*
X003535Y018993D01*
X003535Y019039D02*
X003463Y019039D01*
X003463Y019085D02*
X003535Y019085D01*
X003535Y019131D02*
X003463Y019131D01*
X003463Y019177D02*
X003535Y019177D01*
X003535Y019223D02*
X003463Y019223D01*
X003463Y019269D02*
X003535Y019269D01*
X003535Y019315D02*
X003463Y019315D01*
X003463Y019361D02*
X003535Y019361D01*
X003535Y019407D02*
X003463Y019407D01*
X003660Y018993D02*
X003732Y018993D01*
X003660Y018993D02*
X003660Y019419D01*
X003732Y019419D01*
X003732Y018993D01*
X003732Y019039D02*
X003660Y019039D01*
X003660Y019085D02*
X003732Y019085D01*
X003732Y019131D02*
X003660Y019131D01*
X003660Y019177D02*
X003732Y019177D01*
X003732Y019223D02*
X003660Y019223D01*
X003660Y019269D02*
X003732Y019269D01*
X003732Y019315D02*
X003660Y019315D01*
X003660Y019361D02*
X003732Y019361D01*
X003732Y019407D02*
X003660Y019407D01*
X003856Y018993D02*
X003928Y018993D01*
X003856Y018993D02*
X003856Y019419D01*
X003928Y019419D01*
X003928Y018993D01*
X003928Y019039D02*
X003856Y019039D01*
X003856Y019085D02*
X003928Y019085D01*
X003928Y019131D02*
X003856Y019131D01*
X003856Y019177D02*
X003928Y019177D01*
X003928Y019223D02*
X003856Y019223D01*
X003856Y019269D02*
X003928Y019269D01*
X003928Y019315D02*
X003856Y019315D01*
X003856Y019361D02*
X003928Y019361D01*
X003928Y019407D02*
X003856Y019407D01*
X004053Y018993D02*
X004125Y018993D01*
X004053Y018993D02*
X004053Y019419D01*
X004125Y019419D01*
X004125Y018993D01*
X004125Y019039D02*
X004053Y019039D01*
X004053Y019085D02*
X004125Y019085D01*
X004125Y019131D02*
X004053Y019131D01*
X004053Y019177D02*
X004125Y019177D01*
X004125Y019223D02*
X004053Y019223D01*
X004053Y019269D02*
X004125Y019269D01*
X004125Y019315D02*
X004053Y019315D01*
X004053Y019361D02*
X004125Y019361D01*
X004125Y019407D02*
X004053Y019407D01*
X004250Y018993D02*
X004322Y018993D01*
X004250Y018993D02*
X004250Y019419D01*
X004322Y019419D01*
X004322Y018993D01*
X004322Y019039D02*
X004250Y019039D01*
X004250Y019085D02*
X004322Y019085D01*
X004322Y019131D02*
X004250Y019131D01*
X004250Y019177D02*
X004322Y019177D01*
X004322Y019223D02*
X004250Y019223D01*
X004250Y019269D02*
X004322Y019269D01*
X004322Y019315D02*
X004250Y019315D01*
X004250Y019361D02*
X004322Y019361D01*
X004322Y019407D02*
X004250Y019407D01*
X004447Y018993D02*
X004519Y018993D01*
X004447Y018993D02*
X004447Y019419D01*
X004519Y019419D01*
X004519Y018993D01*
X004519Y019039D02*
X004447Y019039D01*
X004447Y019085D02*
X004519Y019085D01*
X004519Y019131D02*
X004447Y019131D01*
X004447Y019177D02*
X004519Y019177D01*
X004519Y019223D02*
X004447Y019223D01*
X004447Y019269D02*
X004519Y019269D01*
X004519Y019315D02*
X004447Y019315D01*
X004447Y019361D02*
X004519Y019361D01*
X004519Y019407D02*
X004447Y019407D01*
X004644Y018993D02*
X004716Y018993D01*
X004644Y018993D02*
X004644Y019419D01*
X004716Y019419D01*
X004716Y018993D01*
X004716Y019039D02*
X004644Y019039D01*
X004644Y019085D02*
X004716Y019085D01*
X004716Y019131D02*
X004644Y019131D01*
X004644Y019177D02*
X004716Y019177D01*
X004716Y019223D02*
X004644Y019223D01*
X004644Y019269D02*
X004716Y019269D01*
X004716Y019315D02*
X004644Y019315D01*
X004644Y019361D02*
X004716Y019361D01*
X004716Y019407D02*
X004644Y019407D01*
X004841Y018993D02*
X004913Y018993D01*
X004841Y018993D02*
X004841Y019419D01*
X004913Y019419D01*
X004913Y018993D01*
X004913Y019039D02*
X004841Y019039D01*
X004841Y019085D02*
X004913Y019085D01*
X004913Y019131D02*
X004841Y019131D01*
X004841Y019177D02*
X004913Y019177D01*
X004913Y019223D02*
X004841Y019223D01*
X004841Y019269D02*
X004913Y019269D01*
X004913Y019315D02*
X004841Y019315D01*
X004841Y019361D02*
X004913Y019361D01*
X004913Y019407D02*
X004841Y019407D01*
X005038Y018993D02*
X005110Y018993D01*
X005038Y018993D02*
X005038Y019419D01*
X005110Y019419D01*
X005110Y018993D01*
X005110Y019039D02*
X005038Y019039D01*
X005038Y019085D02*
X005110Y019085D01*
X005110Y019131D02*
X005038Y019131D01*
X005038Y019177D02*
X005110Y019177D01*
X005110Y019223D02*
X005038Y019223D01*
X005038Y019269D02*
X005110Y019269D01*
X005110Y019315D02*
X005038Y019315D01*
X005038Y019361D02*
X005110Y019361D01*
X005110Y019407D02*
X005038Y019407D01*
X005234Y018993D02*
X005306Y018993D01*
X005234Y018993D02*
X005234Y019419D01*
X005306Y019419D01*
X005306Y018993D01*
X005306Y019039D02*
X005234Y019039D01*
X005234Y019085D02*
X005306Y019085D01*
X005306Y019131D02*
X005234Y019131D01*
X005234Y019177D02*
X005306Y019177D01*
X005306Y019223D02*
X005234Y019223D01*
X005234Y019269D02*
X005306Y019269D01*
X005306Y019315D02*
X005234Y019315D01*
X005234Y019361D02*
X005306Y019361D01*
X005306Y019407D02*
X005234Y019407D01*
X005431Y018993D02*
X005503Y018993D01*
X005431Y018993D02*
X005431Y019419D01*
X005503Y019419D01*
X005503Y018993D01*
X005503Y019039D02*
X005431Y019039D01*
X005431Y019085D02*
X005503Y019085D01*
X005503Y019131D02*
X005431Y019131D01*
X005431Y019177D02*
X005503Y019177D01*
X005503Y019223D02*
X005431Y019223D01*
X005431Y019269D02*
X005503Y019269D01*
X005503Y019315D02*
X005431Y019315D01*
X005431Y019361D02*
X005503Y019361D01*
X005503Y019407D02*
X005431Y019407D01*
X005628Y018993D02*
X005700Y018993D01*
X005628Y018993D02*
X005628Y019419D01*
X005700Y019419D01*
X005700Y018993D01*
X005700Y019039D02*
X005628Y019039D01*
X005628Y019085D02*
X005700Y019085D01*
X005700Y019131D02*
X005628Y019131D01*
X005628Y019177D02*
X005700Y019177D01*
X005700Y019223D02*
X005628Y019223D01*
X005628Y019269D02*
X005700Y019269D01*
X005700Y019315D02*
X005628Y019315D01*
X005628Y019361D02*
X005700Y019361D01*
X005700Y019407D02*
X005628Y019407D01*
X005825Y018993D02*
X005897Y018993D01*
X005825Y018993D02*
X005825Y019419D01*
X005897Y019419D01*
X005897Y018993D01*
X005897Y019039D02*
X005825Y019039D01*
X005825Y019085D02*
X005897Y019085D01*
X005897Y019131D02*
X005825Y019131D01*
X005825Y019177D02*
X005897Y019177D01*
X005897Y019223D02*
X005825Y019223D01*
X005825Y019269D02*
X005897Y019269D01*
X005897Y019315D02*
X005825Y019315D01*
X005825Y019361D02*
X005897Y019361D01*
X005897Y019407D02*
X005825Y019407D01*
X006022Y018993D02*
X006094Y018993D01*
X006022Y018993D02*
X006022Y019419D01*
X006094Y019419D01*
X006094Y018993D01*
X006094Y019039D02*
X006022Y019039D01*
X006022Y019085D02*
X006094Y019085D01*
X006094Y019131D02*
X006022Y019131D01*
X006022Y019177D02*
X006094Y019177D01*
X006094Y019223D02*
X006022Y019223D01*
X006022Y019269D02*
X006094Y019269D01*
X006094Y019315D02*
X006022Y019315D01*
X006022Y019361D02*
X006094Y019361D01*
X006094Y019407D02*
X006022Y019407D01*
X006219Y018993D02*
X006291Y018993D01*
X006219Y018993D02*
X006219Y019419D01*
X006291Y019419D01*
X006291Y018993D01*
X006291Y019039D02*
X006219Y019039D01*
X006219Y019085D02*
X006291Y019085D01*
X006291Y019131D02*
X006219Y019131D01*
X006219Y019177D02*
X006291Y019177D01*
X006291Y019223D02*
X006219Y019223D01*
X006219Y019269D02*
X006291Y019269D01*
X006291Y019315D02*
X006219Y019315D01*
X006219Y019361D02*
X006291Y019361D01*
X006291Y019407D02*
X006219Y019407D01*
X006415Y018993D02*
X006487Y018993D01*
X006415Y018993D02*
X006415Y019419D01*
X006487Y019419D01*
X006487Y018993D01*
X006487Y019039D02*
X006415Y019039D01*
X006415Y019085D02*
X006487Y019085D01*
X006487Y019131D02*
X006415Y019131D01*
X006415Y019177D02*
X006487Y019177D01*
X006487Y019223D02*
X006415Y019223D01*
X006415Y019269D02*
X006487Y019269D01*
X006487Y019315D02*
X006415Y019315D01*
X006415Y019361D02*
X006487Y019361D01*
X006487Y019407D02*
X006415Y019407D01*
X006612Y018993D02*
X006684Y018993D01*
X006612Y018993D02*
X006612Y019419D01*
X006684Y019419D01*
X006684Y018993D01*
X006684Y019039D02*
X006612Y019039D01*
X006612Y019085D02*
X006684Y019085D01*
X006684Y019131D02*
X006612Y019131D01*
X006612Y019177D02*
X006684Y019177D01*
X006684Y019223D02*
X006612Y019223D01*
X006612Y019269D02*
X006684Y019269D01*
X006684Y019315D02*
X006612Y019315D01*
X006612Y019361D02*
X006684Y019361D01*
X006684Y019407D02*
X006612Y019407D01*
X006809Y018993D02*
X006881Y018993D01*
X006809Y018993D02*
X006809Y019419D01*
X006881Y019419D01*
X006881Y018993D01*
X006881Y019039D02*
X006809Y019039D01*
X006809Y019085D02*
X006881Y019085D01*
X006881Y019131D02*
X006809Y019131D01*
X006809Y019177D02*
X006881Y019177D01*
X006881Y019223D02*
X006809Y019223D01*
X006809Y019269D02*
X006881Y019269D01*
X006881Y019315D02*
X006809Y019315D01*
X006809Y019361D02*
X006881Y019361D01*
X006881Y019407D02*
X006809Y019407D01*
X007006Y018993D02*
X007078Y018993D01*
X007006Y018993D02*
X007006Y019419D01*
X007078Y019419D01*
X007078Y018993D01*
X007078Y019039D02*
X007006Y019039D01*
X007006Y019085D02*
X007078Y019085D01*
X007078Y019131D02*
X007006Y019131D01*
X007006Y019177D02*
X007078Y019177D01*
X007078Y019223D02*
X007006Y019223D01*
X007006Y019269D02*
X007078Y019269D01*
X007078Y019315D02*
X007006Y019315D01*
X007006Y019361D02*
X007078Y019361D01*
X007078Y019407D02*
X007006Y019407D01*
X007203Y018993D02*
X007275Y018993D01*
X007203Y018993D02*
X007203Y019419D01*
X007275Y019419D01*
X007275Y018993D01*
X007275Y019039D02*
X007203Y019039D01*
X007203Y019085D02*
X007275Y019085D01*
X007275Y019131D02*
X007203Y019131D01*
X007203Y019177D02*
X007275Y019177D01*
X007275Y019223D02*
X007203Y019223D01*
X007203Y019269D02*
X007275Y019269D01*
X007275Y019315D02*
X007203Y019315D01*
X007203Y019361D02*
X007275Y019361D01*
X007275Y019407D02*
X007203Y019407D01*
X007400Y018993D02*
X007472Y018993D01*
X007400Y018993D02*
X007400Y019419D01*
X007472Y019419D01*
X007472Y018993D01*
X007472Y019039D02*
X007400Y019039D01*
X007400Y019085D02*
X007472Y019085D01*
X007472Y019131D02*
X007400Y019131D01*
X007400Y019177D02*
X007472Y019177D01*
X007472Y019223D02*
X007400Y019223D01*
X007400Y019269D02*
X007472Y019269D01*
X007472Y019315D02*
X007400Y019315D01*
X007400Y019361D02*
X007472Y019361D01*
X007472Y019407D02*
X007400Y019407D01*
X007597Y018993D02*
X007669Y018993D01*
X007597Y018993D02*
X007597Y019419D01*
X007669Y019419D01*
X007669Y018993D01*
X007669Y019039D02*
X007597Y019039D01*
X007597Y019085D02*
X007669Y019085D01*
X007669Y019131D02*
X007597Y019131D01*
X007597Y019177D02*
X007669Y019177D01*
X007669Y019223D02*
X007597Y019223D01*
X007597Y019269D02*
X007669Y019269D01*
X007669Y019315D02*
X007597Y019315D01*
X007597Y019361D02*
X007669Y019361D01*
X007669Y019407D02*
X007597Y019407D01*
X007793Y018993D02*
X007865Y018993D01*
X007793Y018993D02*
X007793Y019419D01*
X007865Y019419D01*
X007865Y018993D01*
X007865Y019039D02*
X007793Y019039D01*
X007793Y019085D02*
X007865Y019085D01*
X007865Y019131D02*
X007793Y019131D01*
X007793Y019177D02*
X007865Y019177D01*
X007865Y019223D02*
X007793Y019223D01*
X007793Y019269D02*
X007865Y019269D01*
X007865Y019315D02*
X007793Y019315D01*
X007793Y019361D02*
X007865Y019361D01*
X007865Y019407D02*
X007793Y019407D01*
X007990Y018993D02*
X008062Y018993D01*
X007990Y018993D02*
X007990Y019419D01*
X008062Y019419D01*
X008062Y018993D01*
X008062Y019039D02*
X007990Y019039D01*
X007990Y019085D02*
X008062Y019085D01*
X008062Y019131D02*
X007990Y019131D01*
X007990Y019177D02*
X008062Y019177D01*
X008062Y019223D02*
X007990Y019223D01*
X007990Y019269D02*
X008062Y019269D01*
X008062Y019315D02*
X007990Y019315D01*
X007990Y019361D02*
X008062Y019361D01*
X008062Y019407D02*
X007990Y019407D01*
X008187Y018993D02*
X008259Y018993D01*
X008187Y018993D02*
X008187Y019419D01*
X008259Y019419D01*
X008259Y018993D01*
X008259Y019039D02*
X008187Y019039D01*
X008187Y019085D02*
X008259Y019085D01*
X008259Y019131D02*
X008187Y019131D01*
X008187Y019177D02*
X008259Y019177D01*
X008259Y019223D02*
X008187Y019223D01*
X008187Y019269D02*
X008259Y019269D01*
X008259Y019315D02*
X008187Y019315D01*
X008187Y019361D02*
X008259Y019361D01*
X008259Y019407D02*
X008187Y019407D01*
X008384Y018993D02*
X008456Y018993D01*
X008384Y018993D02*
X008384Y019419D01*
X008456Y019419D01*
X008456Y018993D01*
X008456Y019039D02*
X008384Y019039D01*
X008384Y019085D02*
X008456Y019085D01*
X008456Y019131D02*
X008384Y019131D01*
X008384Y019177D02*
X008456Y019177D01*
X008456Y019223D02*
X008384Y019223D01*
X008384Y019269D02*
X008456Y019269D01*
X008456Y019315D02*
X008384Y019315D01*
X008384Y019361D02*
X008456Y019361D01*
X008456Y019407D02*
X008384Y019407D01*
X008581Y018993D02*
X008653Y018993D01*
X008581Y018993D02*
X008581Y019419D01*
X008653Y019419D01*
X008653Y018993D01*
X008653Y019039D02*
X008581Y019039D01*
X008581Y019085D02*
X008653Y019085D01*
X008653Y019131D02*
X008581Y019131D01*
X008581Y019177D02*
X008653Y019177D01*
X008653Y019223D02*
X008581Y019223D01*
X008581Y019269D02*
X008653Y019269D01*
X008653Y019315D02*
X008581Y019315D01*
X008581Y019361D02*
X008653Y019361D01*
X008653Y019407D02*
X008581Y019407D01*
X008778Y018993D02*
X008850Y018993D01*
X008778Y018993D02*
X008778Y019419D01*
X008850Y019419D01*
X008850Y018993D01*
X008850Y019039D02*
X008778Y019039D01*
X008778Y019085D02*
X008850Y019085D01*
X008850Y019131D02*
X008778Y019131D01*
X008778Y019177D02*
X008850Y019177D01*
X008850Y019223D02*
X008778Y019223D01*
X008778Y019269D02*
X008850Y019269D01*
X008850Y019315D02*
X008778Y019315D01*
X008778Y019361D02*
X008850Y019361D01*
X008850Y019407D02*
X008778Y019407D01*
X008975Y018993D02*
X009047Y018993D01*
X008975Y018993D02*
X008975Y019419D01*
X009047Y019419D01*
X009047Y018993D01*
X009047Y019039D02*
X008975Y019039D01*
X008975Y019085D02*
X009047Y019085D01*
X009047Y019131D02*
X008975Y019131D01*
X008975Y019177D02*
X009047Y019177D01*
X009047Y019223D02*
X008975Y019223D01*
X008975Y019269D02*
X009047Y019269D01*
X009047Y019315D02*
X008975Y019315D01*
X008975Y019361D02*
X009047Y019361D01*
X009047Y019407D02*
X008975Y019407D01*
X009171Y018993D02*
X009243Y018993D01*
X009171Y018993D02*
X009171Y019419D01*
X009243Y019419D01*
X009243Y018993D01*
X009243Y019039D02*
X009171Y019039D01*
X009171Y019085D02*
X009243Y019085D01*
X009243Y019131D02*
X009171Y019131D01*
X009171Y019177D02*
X009243Y019177D01*
X009243Y019223D02*
X009171Y019223D01*
X009171Y019269D02*
X009243Y019269D01*
X009243Y019315D02*
X009171Y019315D01*
X009171Y019361D02*
X009243Y019361D01*
X009243Y019407D02*
X009171Y019407D01*
X009368Y018993D02*
X009440Y018993D01*
X009368Y018993D02*
X009368Y019419D01*
X009440Y019419D01*
X009440Y018993D01*
X009440Y019039D02*
X009368Y019039D01*
X009368Y019085D02*
X009440Y019085D01*
X009440Y019131D02*
X009368Y019131D01*
X009368Y019177D02*
X009440Y019177D01*
X009440Y019223D02*
X009368Y019223D01*
X009368Y019269D02*
X009440Y019269D01*
X009440Y019315D02*
X009368Y019315D01*
X009368Y019361D02*
X009440Y019361D01*
X009440Y019407D02*
X009368Y019407D01*
X009565Y018993D02*
X009637Y018993D01*
X009565Y018993D02*
X009565Y019419D01*
X009637Y019419D01*
X009637Y018993D01*
X009637Y019039D02*
X009565Y019039D01*
X009565Y019085D02*
X009637Y019085D01*
X009637Y019131D02*
X009565Y019131D01*
X009565Y019177D02*
X009637Y019177D01*
X009637Y019223D02*
X009565Y019223D01*
X009565Y019269D02*
X009637Y019269D01*
X009637Y019315D02*
X009565Y019315D01*
X009565Y019361D02*
X009637Y019361D01*
X009637Y019407D02*
X009565Y019407D01*
X009762Y018993D02*
X009834Y018993D01*
X009762Y018993D02*
X009762Y019419D01*
X009834Y019419D01*
X009834Y018993D01*
X009834Y019039D02*
X009762Y019039D01*
X009762Y019085D02*
X009834Y019085D01*
X009834Y019131D02*
X009762Y019131D01*
X009762Y019177D02*
X009834Y019177D01*
X009834Y019223D02*
X009762Y019223D01*
X009762Y019269D02*
X009834Y019269D01*
X009834Y019315D02*
X009762Y019315D01*
X009762Y019361D02*
X009834Y019361D01*
X009834Y019407D02*
X009762Y019407D01*
X009959Y018993D02*
X010031Y018993D01*
X009959Y018993D02*
X009959Y019419D01*
X010031Y019419D01*
X010031Y018993D01*
X010031Y019039D02*
X009959Y019039D01*
X009959Y019085D02*
X010031Y019085D01*
X010031Y019131D02*
X009959Y019131D01*
X009959Y019177D02*
X010031Y019177D01*
X010031Y019223D02*
X009959Y019223D01*
X009959Y019269D02*
X010031Y019269D01*
X010031Y019315D02*
X009959Y019315D01*
X009959Y019361D02*
X010031Y019361D01*
X010031Y019407D02*
X009959Y019407D01*
X010156Y018993D02*
X010228Y018993D01*
X010156Y018993D02*
X010156Y019419D01*
X010228Y019419D01*
X010228Y018993D01*
X010228Y019039D02*
X010156Y019039D01*
X010156Y019085D02*
X010228Y019085D01*
X010228Y019131D02*
X010156Y019131D01*
X010156Y019177D02*
X010228Y019177D01*
X010228Y019223D02*
X010156Y019223D01*
X010156Y019269D02*
X010228Y019269D01*
X010228Y019315D02*
X010156Y019315D01*
X010156Y019361D02*
X010228Y019361D01*
X010228Y019407D02*
X010156Y019407D01*
X010353Y018993D02*
X010425Y018993D01*
X010353Y018993D02*
X010353Y019419D01*
X010425Y019419D01*
X010425Y018993D01*
X010425Y019039D02*
X010353Y019039D01*
X010353Y019085D02*
X010425Y019085D01*
X010425Y019131D02*
X010353Y019131D01*
X010353Y019177D02*
X010425Y019177D01*
X010425Y019223D02*
X010353Y019223D01*
X010353Y019269D02*
X010425Y019269D01*
X010425Y019315D02*
X010353Y019315D01*
X010353Y019361D02*
X010425Y019361D01*
X010425Y019407D02*
X010353Y019407D01*
X010549Y018993D02*
X010621Y018993D01*
X010549Y018993D02*
X010549Y019419D01*
X010621Y019419D01*
X010621Y018993D01*
X010621Y019039D02*
X010549Y019039D01*
X010549Y019085D02*
X010621Y019085D01*
X010621Y019131D02*
X010549Y019131D01*
X010549Y019177D02*
X010621Y019177D01*
X010621Y019223D02*
X010549Y019223D01*
X010549Y019269D02*
X010621Y019269D01*
X010621Y019315D02*
X010549Y019315D01*
X010549Y019361D02*
X010621Y019361D01*
X010621Y019407D02*
X010549Y019407D01*
X010746Y018993D02*
X010818Y018993D01*
X010746Y018993D02*
X010746Y019419D01*
X010818Y019419D01*
X010818Y018993D01*
X010818Y019039D02*
X010746Y019039D01*
X010746Y019085D02*
X010818Y019085D01*
X010818Y019131D02*
X010746Y019131D01*
X010746Y019177D02*
X010818Y019177D01*
X010818Y019223D02*
X010746Y019223D01*
X010746Y019269D02*
X010818Y019269D01*
X010818Y019315D02*
X010746Y019315D01*
X010746Y019361D02*
X010818Y019361D01*
X010818Y019407D02*
X010746Y019407D01*
X010943Y018993D02*
X011015Y018993D01*
X010943Y018993D02*
X010943Y019419D01*
X011015Y019419D01*
X011015Y018993D01*
X011015Y019039D02*
X010943Y019039D01*
X010943Y019085D02*
X011015Y019085D01*
X011015Y019131D02*
X010943Y019131D01*
X010943Y019177D02*
X011015Y019177D01*
X011015Y019223D02*
X010943Y019223D01*
X010943Y019269D02*
X011015Y019269D01*
X011015Y019315D02*
X010943Y019315D01*
X010943Y019361D02*
X011015Y019361D01*
X011015Y019407D02*
X010943Y019407D01*
X011140Y018993D02*
X011212Y018993D01*
X011140Y018993D02*
X011140Y019419D01*
X011212Y019419D01*
X011212Y018993D01*
X011212Y019039D02*
X011140Y019039D01*
X011140Y019085D02*
X011212Y019085D01*
X011212Y019131D02*
X011140Y019131D01*
X011140Y019177D02*
X011212Y019177D01*
X011212Y019223D02*
X011140Y019223D01*
X011140Y019269D02*
X011212Y019269D01*
X011212Y019315D02*
X011140Y019315D01*
X011140Y019361D02*
X011212Y019361D01*
X011212Y019407D02*
X011140Y019407D01*
X011337Y018993D02*
X011409Y018993D01*
X011337Y018993D02*
X011337Y019419D01*
X011409Y019419D01*
X011409Y018993D01*
X011409Y019039D02*
X011337Y019039D01*
X011337Y019085D02*
X011409Y019085D01*
X011409Y019131D02*
X011337Y019131D01*
X011337Y019177D02*
X011409Y019177D01*
X011409Y019223D02*
X011337Y019223D01*
X011337Y019269D02*
X011409Y019269D01*
X011409Y019315D02*
X011337Y019315D01*
X011337Y019361D02*
X011409Y019361D01*
X011409Y019407D02*
X011337Y019407D01*
X011534Y018993D02*
X011606Y018993D01*
X011534Y018993D02*
X011534Y019419D01*
X011606Y019419D01*
X011606Y018993D01*
X011606Y019039D02*
X011534Y019039D01*
X011534Y019085D02*
X011606Y019085D01*
X011606Y019131D02*
X011534Y019131D01*
X011534Y019177D02*
X011606Y019177D01*
X011606Y019223D02*
X011534Y019223D01*
X011534Y019269D02*
X011606Y019269D01*
X011606Y019315D02*
X011534Y019315D01*
X011534Y019361D02*
X011606Y019361D01*
X011606Y019407D02*
X011534Y019407D01*
X011730Y018993D02*
X011802Y018993D01*
X011730Y018993D02*
X011730Y019419D01*
X011802Y019419D01*
X011802Y018993D01*
X011802Y019039D02*
X011730Y019039D01*
X011730Y019085D02*
X011802Y019085D01*
X011802Y019131D02*
X011730Y019131D01*
X011730Y019177D02*
X011802Y019177D01*
X011802Y019223D02*
X011730Y019223D01*
X011730Y019269D02*
X011802Y019269D01*
X011802Y019315D02*
X011730Y019315D01*
X011730Y019361D02*
X011802Y019361D01*
X011802Y019407D02*
X011730Y019407D01*
X011927Y018993D02*
X011999Y018993D01*
X011927Y018993D02*
X011927Y019419D01*
X011999Y019419D01*
X011999Y018993D01*
X011999Y019039D02*
X011927Y019039D01*
X011927Y019085D02*
X011999Y019085D01*
X011999Y019131D02*
X011927Y019131D01*
X011927Y019177D02*
X011999Y019177D01*
X011999Y019223D02*
X011927Y019223D01*
X011927Y019269D02*
X011999Y019269D01*
X011999Y019315D02*
X011927Y019315D01*
X011927Y019361D02*
X011999Y019361D01*
X011999Y019407D02*
X011927Y019407D01*
X012124Y018993D02*
X012196Y018993D01*
X012124Y018993D02*
X012124Y019419D01*
X012196Y019419D01*
X012196Y018993D01*
X012196Y019039D02*
X012124Y019039D01*
X012124Y019085D02*
X012196Y019085D01*
X012196Y019131D02*
X012124Y019131D01*
X012124Y019177D02*
X012196Y019177D01*
X012196Y019223D02*
X012124Y019223D01*
X012124Y019269D02*
X012196Y019269D01*
X012196Y019315D02*
X012124Y019315D01*
X012124Y019361D02*
X012196Y019361D01*
X012196Y019407D02*
X012124Y019407D01*
X012321Y018993D02*
X012393Y018993D01*
X012321Y018993D02*
X012321Y019419D01*
X012393Y019419D01*
X012393Y018993D01*
X012393Y019039D02*
X012321Y019039D01*
X012321Y019085D02*
X012393Y019085D01*
X012393Y019131D02*
X012321Y019131D01*
X012321Y019177D02*
X012393Y019177D01*
X012393Y019223D02*
X012321Y019223D01*
X012321Y019269D02*
X012393Y019269D01*
X012393Y019315D02*
X012321Y019315D01*
X012321Y019361D02*
X012393Y019361D01*
X012393Y019407D02*
X012321Y019407D01*
X013463Y020489D02*
X013889Y020489D01*
X013463Y020489D02*
X013463Y020561D01*
X013889Y020561D01*
X013889Y020489D01*
X013889Y020535D02*
X013463Y020535D01*
X013463Y020685D02*
X013889Y020685D01*
X013463Y020685D02*
X013463Y020757D01*
X013889Y020757D01*
X013889Y020685D01*
X013889Y020731D02*
X013463Y020731D01*
X013463Y020882D02*
X013889Y020882D01*
X013463Y020882D02*
X013463Y020954D01*
X013889Y020954D01*
X013889Y020882D01*
X013889Y020928D02*
X013463Y020928D01*
X013463Y021079D02*
X013889Y021079D01*
X013463Y021079D02*
X013463Y021151D01*
X013889Y021151D01*
X013889Y021079D01*
X013889Y021125D02*
X013463Y021125D01*
X013463Y021276D02*
X013889Y021276D01*
X013463Y021276D02*
X013463Y021348D01*
X013889Y021348D01*
X013889Y021276D01*
X013889Y021322D02*
X013463Y021322D01*
X013463Y021473D02*
X013889Y021473D01*
X013463Y021473D02*
X013463Y021545D01*
X013889Y021545D01*
X013889Y021473D01*
X013889Y021519D02*
X013463Y021519D01*
X013463Y021670D02*
X013889Y021670D01*
X013463Y021670D02*
X013463Y021742D01*
X013889Y021742D01*
X013889Y021670D01*
X013889Y021716D02*
X013463Y021716D01*
X013463Y021867D02*
X013889Y021867D01*
X013463Y021867D02*
X013463Y021939D01*
X013889Y021939D01*
X013889Y021867D01*
X013889Y021913D02*
X013463Y021913D01*
X013463Y022063D02*
X013889Y022063D01*
X013463Y022063D02*
X013463Y022135D01*
X013889Y022135D01*
X013889Y022063D01*
X013889Y022109D02*
X013463Y022109D01*
X013463Y022260D02*
X013889Y022260D01*
X013463Y022260D02*
X013463Y022332D01*
X013889Y022332D01*
X013889Y022260D01*
X013889Y022306D02*
X013463Y022306D01*
X013463Y022457D02*
X013889Y022457D01*
X013463Y022457D02*
X013463Y022529D01*
X013889Y022529D01*
X013889Y022457D01*
X013889Y022503D02*
X013463Y022503D01*
X013463Y022654D02*
X013889Y022654D01*
X013463Y022654D02*
X013463Y022726D01*
X013889Y022726D01*
X013889Y022654D01*
X013889Y022700D02*
X013463Y022700D01*
X013463Y022851D02*
X013889Y022851D01*
X013463Y022851D02*
X013463Y022923D01*
X013889Y022923D01*
X013889Y022851D01*
X013889Y022897D02*
X013463Y022897D01*
X013463Y023048D02*
X013889Y023048D01*
X013463Y023048D02*
X013463Y023120D01*
X013889Y023120D01*
X013889Y023048D01*
X013889Y023094D02*
X013463Y023094D01*
X013463Y023244D02*
X013889Y023244D01*
X013463Y023244D02*
X013463Y023316D01*
X013889Y023316D01*
X013889Y023244D01*
X013889Y023290D02*
X013463Y023290D01*
X013463Y023441D02*
X013889Y023441D01*
X013463Y023441D02*
X013463Y023513D01*
X013889Y023513D01*
X013889Y023441D01*
X013889Y023487D02*
X013463Y023487D01*
X013463Y023638D02*
X013889Y023638D01*
X013463Y023638D02*
X013463Y023710D01*
X013889Y023710D01*
X013889Y023638D01*
X013889Y023684D02*
X013463Y023684D01*
X013463Y023835D02*
X013889Y023835D01*
X013463Y023835D02*
X013463Y023907D01*
X013889Y023907D01*
X013889Y023835D01*
X013889Y023881D02*
X013463Y023881D01*
X013463Y024032D02*
X013889Y024032D01*
X013463Y024032D02*
X013463Y024104D01*
X013889Y024104D01*
X013889Y024032D01*
X013889Y024078D02*
X013463Y024078D01*
X013463Y024229D02*
X013889Y024229D01*
X013463Y024229D02*
X013463Y024301D01*
X013889Y024301D01*
X013889Y024229D01*
X013889Y024275D02*
X013463Y024275D01*
X013463Y024426D02*
X013889Y024426D01*
X013463Y024426D02*
X013463Y024498D01*
X013889Y024498D01*
X013889Y024426D01*
X013889Y024472D02*
X013463Y024472D01*
X013463Y024622D02*
X013889Y024622D01*
X013463Y024622D02*
X013463Y024694D01*
X013889Y024694D01*
X013889Y024622D01*
X013889Y024668D02*
X013463Y024668D01*
X013463Y024819D02*
X013889Y024819D01*
X013463Y024819D02*
X013463Y024891D01*
X013889Y024891D01*
X013889Y024819D01*
X013889Y024865D02*
X013463Y024865D01*
X013463Y025016D02*
X013889Y025016D01*
X013463Y025016D02*
X013463Y025088D01*
X013889Y025088D01*
X013889Y025016D01*
X013889Y025062D02*
X013463Y025062D01*
X013463Y025213D02*
X013889Y025213D01*
X013463Y025213D02*
X013463Y025285D01*
X013889Y025285D01*
X013889Y025213D01*
X013889Y025259D02*
X013463Y025259D01*
X013463Y025410D02*
X013889Y025410D01*
X013463Y025410D02*
X013463Y025482D01*
X013889Y025482D01*
X013889Y025410D01*
X013889Y025456D02*
X013463Y025456D01*
X013463Y025607D02*
X013889Y025607D01*
X013463Y025607D02*
X013463Y025679D01*
X013889Y025679D01*
X013889Y025607D01*
X013889Y025653D02*
X013463Y025653D01*
X013463Y025804D02*
X013889Y025804D01*
X013463Y025804D02*
X013463Y025876D01*
X013889Y025876D01*
X013889Y025804D01*
X013889Y025850D02*
X013463Y025850D01*
X013463Y026000D02*
X013889Y026000D01*
X013463Y026000D02*
X013463Y026072D01*
X013889Y026072D01*
X013889Y026000D01*
X013889Y026046D02*
X013463Y026046D01*
X013463Y026197D02*
X013889Y026197D01*
X013463Y026197D02*
X013463Y026269D01*
X013889Y026269D01*
X013889Y026197D01*
X013889Y026243D02*
X013463Y026243D01*
X013463Y026394D02*
X013889Y026394D01*
X013463Y026394D02*
X013463Y026466D01*
X013889Y026466D01*
X013889Y026394D01*
X013889Y026440D02*
X013463Y026440D01*
X013463Y026591D02*
X013889Y026591D01*
X013463Y026591D02*
X013463Y026663D01*
X013889Y026663D01*
X013889Y026591D01*
X013889Y026637D02*
X013463Y026637D01*
X013463Y026788D02*
X013889Y026788D01*
X013463Y026788D02*
X013463Y026860D01*
X013889Y026860D01*
X013889Y026788D01*
X013889Y026834D02*
X013463Y026834D01*
X013463Y026985D02*
X013889Y026985D01*
X013463Y026985D02*
X013463Y027057D01*
X013889Y027057D01*
X013889Y026985D01*
X013889Y027031D02*
X013463Y027031D01*
X013463Y027181D02*
X013889Y027181D01*
X013463Y027181D02*
X013463Y027253D01*
X013889Y027253D01*
X013889Y027181D01*
X013889Y027227D02*
X013463Y027227D01*
X013463Y027378D02*
X013889Y027378D01*
X013463Y027378D02*
X013463Y027450D01*
X013889Y027450D01*
X013889Y027378D01*
X013889Y027424D02*
X013463Y027424D01*
X013463Y027575D02*
X013889Y027575D01*
X013463Y027575D02*
X013463Y027647D01*
X013889Y027647D01*
X013889Y027575D01*
X013889Y027621D02*
X013463Y027621D01*
X013463Y027772D02*
X013889Y027772D01*
X013463Y027772D02*
X013463Y027844D01*
X013889Y027844D01*
X013889Y027772D01*
X013889Y027818D02*
X013463Y027818D01*
X013463Y027969D02*
X013889Y027969D01*
X013463Y027969D02*
X013463Y028041D01*
X013889Y028041D01*
X013889Y027969D01*
X013889Y028015D02*
X013463Y028015D01*
X013463Y028166D02*
X013889Y028166D01*
X013463Y028166D02*
X013463Y028238D01*
X013889Y028238D01*
X013889Y028166D01*
X013889Y028212D02*
X013463Y028212D01*
X013463Y028363D02*
X013889Y028363D01*
X013463Y028363D02*
X013463Y028435D01*
X013889Y028435D01*
X013889Y028363D01*
X013889Y028409D02*
X013463Y028409D01*
X013463Y028559D02*
X013889Y028559D01*
X013463Y028559D02*
X013463Y028631D01*
X013889Y028631D01*
X013889Y028559D01*
X013889Y028605D02*
X013463Y028605D01*
X013463Y028756D02*
X013889Y028756D01*
X013463Y028756D02*
X013463Y028828D01*
X013889Y028828D01*
X013889Y028756D01*
X013889Y028802D02*
X013463Y028802D01*
X013463Y028953D02*
X013889Y028953D01*
X013463Y028953D02*
X013463Y029025D01*
X013889Y029025D01*
X013889Y028953D01*
X013889Y028999D02*
X013463Y028999D01*
X013463Y029150D02*
X013889Y029150D01*
X013463Y029150D02*
X013463Y029222D01*
X013889Y029222D01*
X013889Y029150D01*
X013889Y029196D02*
X013463Y029196D01*
X013463Y029347D02*
X013889Y029347D01*
X013463Y029347D02*
X013463Y029419D01*
X013889Y029419D01*
X013889Y029347D01*
X013889Y029393D02*
X013463Y029393D01*
X013463Y029544D02*
X013889Y029544D01*
X013463Y029544D02*
X013463Y029616D01*
X013889Y029616D01*
X013889Y029544D01*
X013889Y029590D02*
X013463Y029590D01*
X013463Y029741D02*
X013889Y029741D01*
X013463Y029741D02*
X013463Y029813D01*
X013889Y029813D01*
X013889Y029741D01*
X013889Y029787D02*
X013463Y029787D01*
X013463Y029937D02*
X013889Y029937D01*
X013463Y029937D02*
X013463Y030009D01*
X013889Y030009D01*
X013889Y029937D01*
X013889Y029983D02*
X013463Y029983D01*
X013463Y030134D02*
X013889Y030134D01*
X013463Y030134D02*
X013463Y030206D01*
X013889Y030206D01*
X013889Y030134D01*
X013889Y030180D02*
X013463Y030180D01*
X019683Y030134D02*
X020109Y030134D01*
X019683Y030134D02*
X019683Y030206D01*
X020109Y030206D01*
X020109Y030134D01*
X020109Y030180D02*
X019683Y030180D01*
X019683Y029937D02*
X020109Y029937D01*
X019683Y029937D02*
X019683Y030009D01*
X020109Y030009D01*
X020109Y029937D01*
X020109Y029983D02*
X019683Y029983D01*
X019683Y029741D02*
X020109Y029741D01*
X019683Y029741D02*
X019683Y029813D01*
X020109Y029813D01*
X020109Y029741D01*
X020109Y029787D02*
X019683Y029787D01*
X019683Y029544D02*
X020109Y029544D01*
X019683Y029544D02*
X019683Y029616D01*
X020109Y029616D01*
X020109Y029544D01*
X020109Y029590D02*
X019683Y029590D01*
X019683Y029347D02*
X020109Y029347D01*
X019683Y029347D02*
X019683Y029419D01*
X020109Y029419D01*
X020109Y029347D01*
X020109Y029393D02*
X019683Y029393D01*
X019683Y029150D02*
X020109Y029150D01*
X019683Y029150D02*
X019683Y029222D01*
X020109Y029222D01*
X020109Y029150D01*
X020109Y029196D02*
X019683Y029196D01*
X019683Y028953D02*
X020109Y028953D01*
X019683Y028953D02*
X019683Y029025D01*
X020109Y029025D01*
X020109Y028953D01*
X020109Y028999D02*
X019683Y028999D01*
X019683Y028756D02*
X020109Y028756D01*
X019683Y028756D02*
X019683Y028828D01*
X020109Y028828D01*
X020109Y028756D01*
X020109Y028802D02*
X019683Y028802D01*
X019683Y028559D02*
X020109Y028559D01*
X019683Y028559D02*
X019683Y028631D01*
X020109Y028631D01*
X020109Y028559D01*
X020109Y028605D02*
X019683Y028605D01*
X019683Y028363D02*
X020109Y028363D01*
X019683Y028363D02*
X019683Y028435D01*
X020109Y028435D01*
X020109Y028363D01*
X020109Y028409D02*
X019683Y028409D01*
X019683Y028166D02*
X020109Y028166D01*
X019683Y028166D02*
X019683Y028238D01*
X020109Y028238D01*
X020109Y028166D01*
X020109Y028212D02*
X019683Y028212D01*
X019683Y027969D02*
X020109Y027969D01*
X019683Y027969D02*
X019683Y028041D01*
X020109Y028041D01*
X020109Y027969D01*
X020109Y028015D02*
X019683Y028015D01*
X019683Y027772D02*
X020109Y027772D01*
X019683Y027772D02*
X019683Y027844D01*
X020109Y027844D01*
X020109Y027772D01*
X020109Y027818D02*
X019683Y027818D01*
X019683Y027575D02*
X020109Y027575D01*
X019683Y027575D02*
X019683Y027647D01*
X020109Y027647D01*
X020109Y027575D01*
X020109Y027621D02*
X019683Y027621D01*
X019683Y027378D02*
X020109Y027378D01*
X019683Y027378D02*
X019683Y027450D01*
X020109Y027450D01*
X020109Y027378D01*
X020109Y027424D02*
X019683Y027424D01*
X019683Y027181D02*
X020109Y027181D01*
X019683Y027181D02*
X019683Y027253D01*
X020109Y027253D01*
X020109Y027181D01*
X020109Y027227D02*
X019683Y027227D01*
X019683Y026985D02*
X020109Y026985D01*
X019683Y026985D02*
X019683Y027057D01*
X020109Y027057D01*
X020109Y026985D01*
X020109Y027031D02*
X019683Y027031D01*
X019683Y026788D02*
X020109Y026788D01*
X019683Y026788D02*
X019683Y026860D01*
X020109Y026860D01*
X020109Y026788D01*
X020109Y026834D02*
X019683Y026834D01*
X019683Y026591D02*
X020109Y026591D01*
X019683Y026591D02*
X019683Y026663D01*
X020109Y026663D01*
X020109Y026591D01*
X020109Y026637D02*
X019683Y026637D01*
X019683Y026394D02*
X020109Y026394D01*
X019683Y026394D02*
X019683Y026466D01*
X020109Y026466D01*
X020109Y026394D01*
X020109Y026440D02*
X019683Y026440D01*
X019683Y026197D02*
X020109Y026197D01*
X019683Y026197D02*
X019683Y026269D01*
X020109Y026269D01*
X020109Y026197D01*
X020109Y026243D02*
X019683Y026243D01*
X019683Y026000D02*
X020109Y026000D01*
X019683Y026000D02*
X019683Y026072D01*
X020109Y026072D01*
X020109Y026000D01*
X020109Y026046D02*
X019683Y026046D01*
X019683Y025804D02*
X020109Y025804D01*
X019683Y025804D02*
X019683Y025876D01*
X020109Y025876D01*
X020109Y025804D01*
X020109Y025850D02*
X019683Y025850D01*
X019683Y025607D02*
X020109Y025607D01*
X019683Y025607D02*
X019683Y025679D01*
X020109Y025679D01*
X020109Y025607D01*
X020109Y025653D02*
X019683Y025653D01*
X019683Y025410D02*
X020109Y025410D01*
X019683Y025410D02*
X019683Y025482D01*
X020109Y025482D01*
X020109Y025410D01*
X020109Y025456D02*
X019683Y025456D01*
X019683Y025213D02*
X020109Y025213D01*
X019683Y025213D02*
X019683Y025285D01*
X020109Y025285D01*
X020109Y025213D01*
X020109Y025259D02*
X019683Y025259D01*
X019683Y025016D02*
X020109Y025016D01*
X019683Y025016D02*
X019683Y025088D01*
X020109Y025088D01*
X020109Y025016D01*
X020109Y025062D02*
X019683Y025062D01*
X019683Y024819D02*
X020109Y024819D01*
X019683Y024819D02*
X019683Y024891D01*
X020109Y024891D01*
X020109Y024819D01*
X020109Y024865D02*
X019683Y024865D01*
X019683Y024622D02*
X020109Y024622D01*
X019683Y024622D02*
X019683Y024694D01*
X020109Y024694D01*
X020109Y024622D01*
X020109Y024668D02*
X019683Y024668D01*
X019683Y024426D02*
X020109Y024426D01*
X019683Y024426D02*
X019683Y024498D01*
X020109Y024498D01*
X020109Y024426D01*
X020109Y024472D02*
X019683Y024472D01*
X019683Y024229D02*
X020109Y024229D01*
X019683Y024229D02*
X019683Y024301D01*
X020109Y024301D01*
X020109Y024229D01*
X020109Y024275D02*
X019683Y024275D01*
X019683Y024032D02*
X020109Y024032D01*
X019683Y024032D02*
X019683Y024104D01*
X020109Y024104D01*
X020109Y024032D01*
X020109Y024078D02*
X019683Y024078D01*
X019683Y023835D02*
X020109Y023835D01*
X019683Y023835D02*
X019683Y023907D01*
X020109Y023907D01*
X020109Y023835D01*
X020109Y023881D02*
X019683Y023881D01*
X019683Y023638D02*
X020109Y023638D01*
X019683Y023638D02*
X019683Y023710D01*
X020109Y023710D01*
X020109Y023638D01*
X020109Y023684D02*
X019683Y023684D01*
X019683Y023441D02*
X020109Y023441D01*
X019683Y023441D02*
X019683Y023513D01*
X020109Y023513D01*
X020109Y023441D01*
X020109Y023487D02*
X019683Y023487D01*
X019683Y023244D02*
X020109Y023244D01*
X019683Y023244D02*
X019683Y023316D01*
X020109Y023316D01*
X020109Y023244D01*
X020109Y023290D02*
X019683Y023290D01*
X019683Y023048D02*
X020109Y023048D01*
X019683Y023048D02*
X019683Y023120D01*
X020109Y023120D01*
X020109Y023048D01*
X020109Y023094D02*
X019683Y023094D01*
X019683Y022851D02*
X020109Y022851D01*
X019683Y022851D02*
X019683Y022923D01*
X020109Y022923D01*
X020109Y022851D01*
X020109Y022897D02*
X019683Y022897D01*
X019683Y022654D02*
X020109Y022654D01*
X019683Y022654D02*
X019683Y022726D01*
X020109Y022726D01*
X020109Y022654D01*
X020109Y022700D02*
X019683Y022700D01*
X019683Y022457D02*
X020109Y022457D01*
X019683Y022457D02*
X019683Y022529D01*
X020109Y022529D01*
X020109Y022457D01*
X020109Y022503D02*
X019683Y022503D01*
X019683Y022260D02*
X020109Y022260D01*
X019683Y022260D02*
X019683Y022332D01*
X020109Y022332D01*
X020109Y022260D01*
X020109Y022306D02*
X019683Y022306D01*
X019683Y022063D02*
X020109Y022063D01*
X019683Y022063D02*
X019683Y022135D01*
X020109Y022135D01*
X020109Y022063D01*
X020109Y022109D02*
X019683Y022109D01*
X019683Y021867D02*
X020109Y021867D01*
X019683Y021867D02*
X019683Y021939D01*
X020109Y021939D01*
X020109Y021867D01*
X020109Y021913D02*
X019683Y021913D01*
X019683Y021670D02*
X020109Y021670D01*
X019683Y021670D02*
X019683Y021742D01*
X020109Y021742D01*
X020109Y021670D01*
X020109Y021716D02*
X019683Y021716D01*
X019683Y021473D02*
X020109Y021473D01*
X019683Y021473D02*
X019683Y021545D01*
X020109Y021545D01*
X020109Y021473D01*
X020109Y021519D02*
X019683Y021519D01*
X019683Y021276D02*
X020109Y021276D01*
X019683Y021276D02*
X019683Y021348D01*
X020109Y021348D01*
X020109Y021276D01*
X020109Y021322D02*
X019683Y021322D01*
X019683Y021079D02*
X020109Y021079D01*
X019683Y021079D02*
X019683Y021151D01*
X020109Y021151D01*
X020109Y021079D01*
X020109Y021125D02*
X019683Y021125D01*
X019683Y020882D02*
X020109Y020882D01*
X019683Y020882D02*
X019683Y020954D01*
X020109Y020954D01*
X020109Y020882D01*
X020109Y020928D02*
X019683Y020928D01*
X019683Y020685D02*
X020109Y020685D01*
X019683Y020685D02*
X019683Y020757D01*
X020109Y020757D01*
X020109Y020685D01*
X020109Y020731D02*
X019683Y020731D01*
X019683Y020489D02*
X020109Y020489D01*
X019683Y020489D02*
X019683Y020561D01*
X020109Y020561D01*
X020109Y020489D01*
X020109Y020535D02*
X019683Y020535D01*
X012393Y012772D02*
X012321Y012772D01*
X012321Y013198D01*
X012393Y013198D01*
X012393Y012772D01*
X012393Y012818D02*
X012321Y012818D01*
X012321Y012864D02*
X012393Y012864D01*
X012393Y012910D02*
X012321Y012910D01*
X012321Y012956D02*
X012393Y012956D01*
X012393Y013002D02*
X012321Y013002D01*
X012321Y013048D02*
X012393Y013048D01*
X012393Y013094D02*
X012321Y013094D01*
X012321Y013140D02*
X012393Y013140D01*
X012393Y013186D02*
X012321Y013186D01*
X012196Y012772D02*
X012124Y012772D01*
X012124Y013198D01*
X012196Y013198D01*
X012196Y012772D01*
X012196Y012818D02*
X012124Y012818D01*
X012124Y012864D02*
X012196Y012864D01*
X012196Y012910D02*
X012124Y012910D01*
X012124Y012956D02*
X012196Y012956D01*
X012196Y013002D02*
X012124Y013002D01*
X012124Y013048D02*
X012196Y013048D01*
X012196Y013094D02*
X012124Y013094D01*
X012124Y013140D02*
X012196Y013140D01*
X012196Y013186D02*
X012124Y013186D01*
X011999Y012772D02*
X011927Y012772D01*
X011927Y013198D01*
X011999Y013198D01*
X011999Y012772D01*
X011999Y012818D02*
X011927Y012818D01*
X011927Y012864D02*
X011999Y012864D01*
X011999Y012910D02*
X011927Y012910D01*
X011927Y012956D02*
X011999Y012956D01*
X011999Y013002D02*
X011927Y013002D01*
X011927Y013048D02*
X011999Y013048D01*
X011999Y013094D02*
X011927Y013094D01*
X011927Y013140D02*
X011999Y013140D01*
X011999Y013186D02*
X011927Y013186D01*
X011802Y012772D02*
X011730Y012772D01*
X011730Y013198D01*
X011802Y013198D01*
X011802Y012772D01*
X011802Y012818D02*
X011730Y012818D01*
X011730Y012864D02*
X011802Y012864D01*
X011802Y012910D02*
X011730Y012910D01*
X011730Y012956D02*
X011802Y012956D01*
X011802Y013002D02*
X011730Y013002D01*
X011730Y013048D02*
X011802Y013048D01*
X011802Y013094D02*
X011730Y013094D01*
X011730Y013140D02*
X011802Y013140D01*
X011802Y013186D02*
X011730Y013186D01*
X011606Y012772D02*
X011534Y012772D01*
X011534Y013198D01*
X011606Y013198D01*
X011606Y012772D01*
X011606Y012818D02*
X011534Y012818D01*
X011534Y012864D02*
X011606Y012864D01*
X011606Y012910D02*
X011534Y012910D01*
X011534Y012956D02*
X011606Y012956D01*
X011606Y013002D02*
X011534Y013002D01*
X011534Y013048D02*
X011606Y013048D01*
X011606Y013094D02*
X011534Y013094D01*
X011534Y013140D02*
X011606Y013140D01*
X011606Y013186D02*
X011534Y013186D01*
X011409Y012772D02*
X011337Y012772D01*
X011337Y013198D01*
X011409Y013198D01*
X011409Y012772D01*
X011409Y012818D02*
X011337Y012818D01*
X011337Y012864D02*
X011409Y012864D01*
X011409Y012910D02*
X011337Y012910D01*
X011337Y012956D02*
X011409Y012956D01*
X011409Y013002D02*
X011337Y013002D01*
X011337Y013048D02*
X011409Y013048D01*
X011409Y013094D02*
X011337Y013094D01*
X011337Y013140D02*
X011409Y013140D01*
X011409Y013186D02*
X011337Y013186D01*
X011212Y012772D02*
X011140Y012772D01*
X011140Y013198D01*
X011212Y013198D01*
X011212Y012772D01*
X011212Y012818D02*
X011140Y012818D01*
X011140Y012864D02*
X011212Y012864D01*
X011212Y012910D02*
X011140Y012910D01*
X011140Y012956D02*
X011212Y012956D01*
X011212Y013002D02*
X011140Y013002D01*
X011140Y013048D02*
X011212Y013048D01*
X011212Y013094D02*
X011140Y013094D01*
X011140Y013140D02*
X011212Y013140D01*
X011212Y013186D02*
X011140Y013186D01*
X011015Y012772D02*
X010943Y012772D01*
X010943Y013198D01*
X011015Y013198D01*
X011015Y012772D01*
X011015Y012818D02*
X010943Y012818D01*
X010943Y012864D02*
X011015Y012864D01*
X011015Y012910D02*
X010943Y012910D01*
X010943Y012956D02*
X011015Y012956D01*
X011015Y013002D02*
X010943Y013002D01*
X010943Y013048D02*
X011015Y013048D01*
X011015Y013094D02*
X010943Y013094D01*
X010943Y013140D02*
X011015Y013140D01*
X011015Y013186D02*
X010943Y013186D01*
X010818Y012772D02*
X010746Y012772D01*
X010746Y013198D01*
X010818Y013198D01*
X010818Y012772D01*
X010818Y012818D02*
X010746Y012818D01*
X010746Y012864D02*
X010818Y012864D01*
X010818Y012910D02*
X010746Y012910D01*
X010746Y012956D02*
X010818Y012956D01*
X010818Y013002D02*
X010746Y013002D01*
X010746Y013048D02*
X010818Y013048D01*
X010818Y013094D02*
X010746Y013094D01*
X010746Y013140D02*
X010818Y013140D01*
X010818Y013186D02*
X010746Y013186D01*
X010621Y012772D02*
X010549Y012772D01*
X010549Y013198D01*
X010621Y013198D01*
X010621Y012772D01*
X010621Y012818D02*
X010549Y012818D01*
X010549Y012864D02*
X010621Y012864D01*
X010621Y012910D02*
X010549Y012910D01*
X010549Y012956D02*
X010621Y012956D01*
X010621Y013002D02*
X010549Y013002D01*
X010549Y013048D02*
X010621Y013048D01*
X010621Y013094D02*
X010549Y013094D01*
X010549Y013140D02*
X010621Y013140D01*
X010621Y013186D02*
X010549Y013186D01*
X010425Y012772D02*
X010353Y012772D01*
X010353Y013198D01*
X010425Y013198D01*
X010425Y012772D01*
X010425Y012818D02*
X010353Y012818D01*
X010353Y012864D02*
X010425Y012864D01*
X010425Y012910D02*
X010353Y012910D01*
X010353Y012956D02*
X010425Y012956D01*
X010425Y013002D02*
X010353Y013002D01*
X010353Y013048D02*
X010425Y013048D01*
X010425Y013094D02*
X010353Y013094D01*
X010353Y013140D02*
X010425Y013140D01*
X010425Y013186D02*
X010353Y013186D01*
X010228Y012772D02*
X010156Y012772D01*
X010156Y013198D01*
X010228Y013198D01*
X010228Y012772D01*
X010228Y012818D02*
X010156Y012818D01*
X010156Y012864D02*
X010228Y012864D01*
X010228Y012910D02*
X010156Y012910D01*
X010156Y012956D02*
X010228Y012956D01*
X010228Y013002D02*
X010156Y013002D01*
X010156Y013048D02*
X010228Y013048D01*
X010228Y013094D02*
X010156Y013094D01*
X010156Y013140D02*
X010228Y013140D01*
X010228Y013186D02*
X010156Y013186D01*
X010031Y012772D02*
X009959Y012772D01*
X009959Y013198D01*
X010031Y013198D01*
X010031Y012772D01*
X010031Y012818D02*
X009959Y012818D01*
X009959Y012864D02*
X010031Y012864D01*
X010031Y012910D02*
X009959Y012910D01*
X009959Y012956D02*
X010031Y012956D01*
X010031Y013002D02*
X009959Y013002D01*
X009959Y013048D02*
X010031Y013048D01*
X010031Y013094D02*
X009959Y013094D01*
X009959Y013140D02*
X010031Y013140D01*
X010031Y013186D02*
X009959Y013186D01*
X009834Y012772D02*
X009762Y012772D01*
X009762Y013198D01*
X009834Y013198D01*
X009834Y012772D01*
X009834Y012818D02*
X009762Y012818D01*
X009762Y012864D02*
X009834Y012864D01*
X009834Y012910D02*
X009762Y012910D01*
X009762Y012956D02*
X009834Y012956D01*
X009834Y013002D02*
X009762Y013002D01*
X009762Y013048D02*
X009834Y013048D01*
X009834Y013094D02*
X009762Y013094D01*
X009762Y013140D02*
X009834Y013140D01*
X009834Y013186D02*
X009762Y013186D01*
X009637Y012772D02*
X009565Y012772D01*
X009565Y013198D01*
X009637Y013198D01*
X009637Y012772D01*
X009637Y012818D02*
X009565Y012818D01*
X009565Y012864D02*
X009637Y012864D01*
X009637Y012910D02*
X009565Y012910D01*
X009565Y012956D02*
X009637Y012956D01*
X009637Y013002D02*
X009565Y013002D01*
X009565Y013048D02*
X009637Y013048D01*
X009637Y013094D02*
X009565Y013094D01*
X009565Y013140D02*
X009637Y013140D01*
X009637Y013186D02*
X009565Y013186D01*
X009440Y012772D02*
X009368Y012772D01*
X009368Y013198D01*
X009440Y013198D01*
X009440Y012772D01*
X009440Y012818D02*
X009368Y012818D01*
X009368Y012864D02*
X009440Y012864D01*
X009440Y012910D02*
X009368Y012910D01*
X009368Y012956D02*
X009440Y012956D01*
X009440Y013002D02*
X009368Y013002D01*
X009368Y013048D02*
X009440Y013048D01*
X009440Y013094D02*
X009368Y013094D01*
X009368Y013140D02*
X009440Y013140D01*
X009440Y013186D02*
X009368Y013186D01*
X009243Y012772D02*
X009171Y012772D01*
X009171Y013198D01*
X009243Y013198D01*
X009243Y012772D01*
X009243Y012818D02*
X009171Y012818D01*
X009171Y012864D02*
X009243Y012864D01*
X009243Y012910D02*
X009171Y012910D01*
X009171Y012956D02*
X009243Y012956D01*
X009243Y013002D02*
X009171Y013002D01*
X009171Y013048D02*
X009243Y013048D01*
X009243Y013094D02*
X009171Y013094D01*
X009171Y013140D02*
X009243Y013140D01*
X009243Y013186D02*
X009171Y013186D01*
X009047Y012772D02*
X008975Y012772D01*
X008975Y013198D01*
X009047Y013198D01*
X009047Y012772D01*
X009047Y012818D02*
X008975Y012818D01*
X008975Y012864D02*
X009047Y012864D01*
X009047Y012910D02*
X008975Y012910D01*
X008975Y012956D02*
X009047Y012956D01*
X009047Y013002D02*
X008975Y013002D01*
X008975Y013048D02*
X009047Y013048D01*
X009047Y013094D02*
X008975Y013094D01*
X008975Y013140D02*
X009047Y013140D01*
X009047Y013186D02*
X008975Y013186D01*
X008850Y012772D02*
X008778Y012772D01*
X008778Y013198D01*
X008850Y013198D01*
X008850Y012772D01*
X008850Y012818D02*
X008778Y012818D01*
X008778Y012864D02*
X008850Y012864D01*
X008850Y012910D02*
X008778Y012910D01*
X008778Y012956D02*
X008850Y012956D01*
X008850Y013002D02*
X008778Y013002D01*
X008778Y013048D02*
X008850Y013048D01*
X008850Y013094D02*
X008778Y013094D01*
X008778Y013140D02*
X008850Y013140D01*
X008850Y013186D02*
X008778Y013186D01*
X008653Y012772D02*
X008581Y012772D01*
X008581Y013198D01*
X008653Y013198D01*
X008653Y012772D01*
X008653Y012818D02*
X008581Y012818D01*
X008581Y012864D02*
X008653Y012864D01*
X008653Y012910D02*
X008581Y012910D01*
X008581Y012956D02*
X008653Y012956D01*
X008653Y013002D02*
X008581Y013002D01*
X008581Y013048D02*
X008653Y013048D01*
X008653Y013094D02*
X008581Y013094D01*
X008581Y013140D02*
X008653Y013140D01*
X008653Y013186D02*
X008581Y013186D01*
X008456Y012772D02*
X008384Y012772D01*
X008384Y013198D01*
X008456Y013198D01*
X008456Y012772D01*
X008456Y012818D02*
X008384Y012818D01*
X008384Y012864D02*
X008456Y012864D01*
X008456Y012910D02*
X008384Y012910D01*
X008384Y012956D02*
X008456Y012956D01*
X008456Y013002D02*
X008384Y013002D01*
X008384Y013048D02*
X008456Y013048D01*
X008456Y013094D02*
X008384Y013094D01*
X008384Y013140D02*
X008456Y013140D01*
X008456Y013186D02*
X008384Y013186D01*
X008259Y012772D02*
X008187Y012772D01*
X008187Y013198D01*
X008259Y013198D01*
X008259Y012772D01*
X008259Y012818D02*
X008187Y012818D01*
X008187Y012864D02*
X008259Y012864D01*
X008259Y012910D02*
X008187Y012910D01*
X008187Y012956D02*
X008259Y012956D01*
X008259Y013002D02*
X008187Y013002D01*
X008187Y013048D02*
X008259Y013048D01*
X008259Y013094D02*
X008187Y013094D01*
X008187Y013140D02*
X008259Y013140D01*
X008259Y013186D02*
X008187Y013186D01*
X008062Y012772D02*
X007990Y012772D01*
X007990Y013198D01*
X008062Y013198D01*
X008062Y012772D01*
X008062Y012818D02*
X007990Y012818D01*
X007990Y012864D02*
X008062Y012864D01*
X008062Y012910D02*
X007990Y012910D01*
X007990Y012956D02*
X008062Y012956D01*
X008062Y013002D02*
X007990Y013002D01*
X007990Y013048D02*
X008062Y013048D01*
X008062Y013094D02*
X007990Y013094D01*
X007990Y013140D02*
X008062Y013140D01*
X008062Y013186D02*
X007990Y013186D01*
X007865Y012772D02*
X007793Y012772D01*
X007793Y013198D01*
X007865Y013198D01*
X007865Y012772D01*
X007865Y012818D02*
X007793Y012818D01*
X007793Y012864D02*
X007865Y012864D01*
X007865Y012910D02*
X007793Y012910D01*
X007793Y012956D02*
X007865Y012956D01*
X007865Y013002D02*
X007793Y013002D01*
X007793Y013048D02*
X007865Y013048D01*
X007865Y013094D02*
X007793Y013094D01*
X007793Y013140D02*
X007865Y013140D01*
X007865Y013186D02*
X007793Y013186D01*
X007669Y012772D02*
X007597Y012772D01*
X007597Y013198D01*
X007669Y013198D01*
X007669Y012772D01*
X007669Y012818D02*
X007597Y012818D01*
X007597Y012864D02*
X007669Y012864D01*
X007669Y012910D02*
X007597Y012910D01*
X007597Y012956D02*
X007669Y012956D01*
X007669Y013002D02*
X007597Y013002D01*
X007597Y013048D02*
X007669Y013048D01*
X007669Y013094D02*
X007597Y013094D01*
X007597Y013140D02*
X007669Y013140D01*
X007669Y013186D02*
X007597Y013186D01*
X007472Y012772D02*
X007400Y012772D01*
X007400Y013198D01*
X007472Y013198D01*
X007472Y012772D01*
X007472Y012818D02*
X007400Y012818D01*
X007400Y012864D02*
X007472Y012864D01*
X007472Y012910D02*
X007400Y012910D01*
X007400Y012956D02*
X007472Y012956D01*
X007472Y013002D02*
X007400Y013002D01*
X007400Y013048D02*
X007472Y013048D01*
X007472Y013094D02*
X007400Y013094D01*
X007400Y013140D02*
X007472Y013140D01*
X007472Y013186D02*
X007400Y013186D01*
X007275Y012772D02*
X007203Y012772D01*
X007203Y013198D01*
X007275Y013198D01*
X007275Y012772D01*
X007275Y012818D02*
X007203Y012818D01*
X007203Y012864D02*
X007275Y012864D01*
X007275Y012910D02*
X007203Y012910D01*
X007203Y012956D02*
X007275Y012956D01*
X007275Y013002D02*
X007203Y013002D01*
X007203Y013048D02*
X007275Y013048D01*
X007275Y013094D02*
X007203Y013094D01*
X007203Y013140D02*
X007275Y013140D01*
X007275Y013186D02*
X007203Y013186D01*
X007078Y012772D02*
X007006Y012772D01*
X007006Y013198D01*
X007078Y013198D01*
X007078Y012772D01*
X007078Y012818D02*
X007006Y012818D01*
X007006Y012864D02*
X007078Y012864D01*
X007078Y012910D02*
X007006Y012910D01*
X007006Y012956D02*
X007078Y012956D01*
X007078Y013002D02*
X007006Y013002D01*
X007006Y013048D02*
X007078Y013048D01*
X007078Y013094D02*
X007006Y013094D01*
X007006Y013140D02*
X007078Y013140D01*
X007078Y013186D02*
X007006Y013186D01*
X006881Y012772D02*
X006809Y012772D01*
X006809Y013198D01*
X006881Y013198D01*
X006881Y012772D01*
X006881Y012818D02*
X006809Y012818D01*
X006809Y012864D02*
X006881Y012864D01*
X006881Y012910D02*
X006809Y012910D01*
X006809Y012956D02*
X006881Y012956D01*
X006881Y013002D02*
X006809Y013002D01*
X006809Y013048D02*
X006881Y013048D01*
X006881Y013094D02*
X006809Y013094D01*
X006809Y013140D02*
X006881Y013140D01*
X006881Y013186D02*
X006809Y013186D01*
X006684Y012772D02*
X006612Y012772D01*
X006612Y013198D01*
X006684Y013198D01*
X006684Y012772D01*
X006684Y012818D02*
X006612Y012818D01*
X006612Y012864D02*
X006684Y012864D01*
X006684Y012910D02*
X006612Y012910D01*
X006612Y012956D02*
X006684Y012956D01*
X006684Y013002D02*
X006612Y013002D01*
X006612Y013048D02*
X006684Y013048D01*
X006684Y013094D02*
X006612Y013094D01*
X006612Y013140D02*
X006684Y013140D01*
X006684Y013186D02*
X006612Y013186D01*
X006487Y012772D02*
X006415Y012772D01*
X006415Y013198D01*
X006487Y013198D01*
X006487Y012772D01*
X006487Y012818D02*
X006415Y012818D01*
X006415Y012864D02*
X006487Y012864D01*
X006487Y012910D02*
X006415Y012910D01*
X006415Y012956D02*
X006487Y012956D01*
X006487Y013002D02*
X006415Y013002D01*
X006415Y013048D02*
X006487Y013048D01*
X006487Y013094D02*
X006415Y013094D01*
X006415Y013140D02*
X006487Y013140D01*
X006487Y013186D02*
X006415Y013186D01*
X006291Y012772D02*
X006219Y012772D01*
X006219Y013198D01*
X006291Y013198D01*
X006291Y012772D01*
X006291Y012818D02*
X006219Y012818D01*
X006219Y012864D02*
X006291Y012864D01*
X006291Y012910D02*
X006219Y012910D01*
X006219Y012956D02*
X006291Y012956D01*
X006291Y013002D02*
X006219Y013002D01*
X006219Y013048D02*
X006291Y013048D01*
X006291Y013094D02*
X006219Y013094D01*
X006219Y013140D02*
X006291Y013140D01*
X006291Y013186D02*
X006219Y013186D01*
X006094Y012772D02*
X006022Y012772D01*
X006022Y013198D01*
X006094Y013198D01*
X006094Y012772D01*
X006094Y012818D02*
X006022Y012818D01*
X006022Y012864D02*
X006094Y012864D01*
X006094Y012910D02*
X006022Y012910D01*
X006022Y012956D02*
X006094Y012956D01*
X006094Y013002D02*
X006022Y013002D01*
X006022Y013048D02*
X006094Y013048D01*
X006094Y013094D02*
X006022Y013094D01*
X006022Y013140D02*
X006094Y013140D01*
X006094Y013186D02*
X006022Y013186D01*
X005897Y012772D02*
X005825Y012772D01*
X005825Y013198D01*
X005897Y013198D01*
X005897Y012772D01*
X005897Y012818D02*
X005825Y012818D01*
X005825Y012864D02*
X005897Y012864D01*
X005897Y012910D02*
X005825Y012910D01*
X005825Y012956D02*
X005897Y012956D01*
X005897Y013002D02*
X005825Y013002D01*
X005825Y013048D02*
X005897Y013048D01*
X005897Y013094D02*
X005825Y013094D01*
X005825Y013140D02*
X005897Y013140D01*
X005897Y013186D02*
X005825Y013186D01*
X005700Y012772D02*
X005628Y012772D01*
X005628Y013198D01*
X005700Y013198D01*
X005700Y012772D01*
X005700Y012818D02*
X005628Y012818D01*
X005628Y012864D02*
X005700Y012864D01*
X005700Y012910D02*
X005628Y012910D01*
X005628Y012956D02*
X005700Y012956D01*
X005700Y013002D02*
X005628Y013002D01*
X005628Y013048D02*
X005700Y013048D01*
X005700Y013094D02*
X005628Y013094D01*
X005628Y013140D02*
X005700Y013140D01*
X005700Y013186D02*
X005628Y013186D01*
X005503Y012772D02*
X005431Y012772D01*
X005431Y013198D01*
X005503Y013198D01*
X005503Y012772D01*
X005503Y012818D02*
X005431Y012818D01*
X005431Y012864D02*
X005503Y012864D01*
X005503Y012910D02*
X005431Y012910D01*
X005431Y012956D02*
X005503Y012956D01*
X005503Y013002D02*
X005431Y013002D01*
X005431Y013048D02*
X005503Y013048D01*
X005503Y013094D02*
X005431Y013094D01*
X005431Y013140D02*
X005503Y013140D01*
X005503Y013186D02*
X005431Y013186D01*
X005306Y012772D02*
X005234Y012772D01*
X005234Y013198D01*
X005306Y013198D01*
X005306Y012772D01*
X005306Y012818D02*
X005234Y012818D01*
X005234Y012864D02*
X005306Y012864D01*
X005306Y012910D02*
X005234Y012910D01*
X005234Y012956D02*
X005306Y012956D01*
X005306Y013002D02*
X005234Y013002D01*
X005234Y013048D02*
X005306Y013048D01*
X005306Y013094D02*
X005234Y013094D01*
X005234Y013140D02*
X005306Y013140D01*
X005306Y013186D02*
X005234Y013186D01*
X005110Y012772D02*
X005038Y012772D01*
X005038Y013198D01*
X005110Y013198D01*
X005110Y012772D01*
X005110Y012818D02*
X005038Y012818D01*
X005038Y012864D02*
X005110Y012864D01*
X005110Y012910D02*
X005038Y012910D01*
X005038Y012956D02*
X005110Y012956D01*
X005110Y013002D02*
X005038Y013002D01*
X005038Y013048D02*
X005110Y013048D01*
X005110Y013094D02*
X005038Y013094D01*
X005038Y013140D02*
X005110Y013140D01*
X005110Y013186D02*
X005038Y013186D01*
X004913Y012772D02*
X004841Y012772D01*
X004841Y013198D01*
X004913Y013198D01*
X004913Y012772D01*
X004913Y012818D02*
X004841Y012818D01*
X004841Y012864D02*
X004913Y012864D01*
X004913Y012910D02*
X004841Y012910D01*
X004841Y012956D02*
X004913Y012956D01*
X004913Y013002D02*
X004841Y013002D01*
X004841Y013048D02*
X004913Y013048D01*
X004913Y013094D02*
X004841Y013094D01*
X004841Y013140D02*
X004913Y013140D01*
X004913Y013186D02*
X004841Y013186D01*
X004716Y012772D02*
X004644Y012772D01*
X004644Y013198D01*
X004716Y013198D01*
X004716Y012772D01*
X004716Y012818D02*
X004644Y012818D01*
X004644Y012864D02*
X004716Y012864D01*
X004716Y012910D02*
X004644Y012910D01*
X004644Y012956D02*
X004716Y012956D01*
X004716Y013002D02*
X004644Y013002D01*
X004644Y013048D02*
X004716Y013048D01*
X004716Y013094D02*
X004644Y013094D01*
X004644Y013140D02*
X004716Y013140D01*
X004716Y013186D02*
X004644Y013186D01*
X004519Y012772D02*
X004447Y012772D01*
X004447Y013198D01*
X004519Y013198D01*
X004519Y012772D01*
X004519Y012818D02*
X004447Y012818D01*
X004447Y012864D02*
X004519Y012864D01*
X004519Y012910D02*
X004447Y012910D01*
X004447Y012956D02*
X004519Y012956D01*
X004519Y013002D02*
X004447Y013002D01*
X004447Y013048D02*
X004519Y013048D01*
X004519Y013094D02*
X004447Y013094D01*
X004447Y013140D02*
X004519Y013140D01*
X004519Y013186D02*
X004447Y013186D01*
X004322Y012772D02*
X004250Y012772D01*
X004250Y013198D01*
X004322Y013198D01*
X004322Y012772D01*
X004322Y012818D02*
X004250Y012818D01*
X004250Y012864D02*
X004322Y012864D01*
X004322Y012910D02*
X004250Y012910D01*
X004250Y012956D02*
X004322Y012956D01*
X004322Y013002D02*
X004250Y013002D01*
X004250Y013048D02*
X004322Y013048D01*
X004322Y013094D02*
X004250Y013094D01*
X004250Y013140D02*
X004322Y013140D01*
X004322Y013186D02*
X004250Y013186D01*
X004125Y012772D02*
X004053Y012772D01*
X004053Y013198D01*
X004125Y013198D01*
X004125Y012772D01*
X004125Y012818D02*
X004053Y012818D01*
X004053Y012864D02*
X004125Y012864D01*
X004125Y012910D02*
X004053Y012910D01*
X004053Y012956D02*
X004125Y012956D01*
X004125Y013002D02*
X004053Y013002D01*
X004053Y013048D02*
X004125Y013048D01*
X004125Y013094D02*
X004053Y013094D01*
X004053Y013140D02*
X004125Y013140D01*
X004125Y013186D02*
X004053Y013186D01*
X003928Y012772D02*
X003856Y012772D01*
X003856Y013198D01*
X003928Y013198D01*
X003928Y012772D01*
X003928Y012818D02*
X003856Y012818D01*
X003856Y012864D02*
X003928Y012864D01*
X003928Y012910D02*
X003856Y012910D01*
X003856Y012956D02*
X003928Y012956D01*
X003928Y013002D02*
X003856Y013002D01*
X003856Y013048D02*
X003928Y013048D01*
X003928Y013094D02*
X003856Y013094D01*
X003856Y013140D02*
X003928Y013140D01*
X003928Y013186D02*
X003856Y013186D01*
X003732Y012772D02*
X003660Y012772D01*
X003660Y013198D01*
X003732Y013198D01*
X003732Y012772D01*
X003732Y012818D02*
X003660Y012818D01*
X003660Y012864D02*
X003732Y012864D01*
X003732Y012910D02*
X003660Y012910D01*
X003660Y012956D02*
X003732Y012956D01*
X003732Y013002D02*
X003660Y013002D01*
X003660Y013048D02*
X003732Y013048D01*
X003732Y013094D02*
X003660Y013094D01*
X003660Y013140D02*
X003732Y013140D01*
X003732Y013186D02*
X003660Y013186D01*
X003535Y012772D02*
X003463Y012772D01*
X003463Y013198D01*
X003535Y013198D01*
X003535Y012772D01*
X003535Y012818D02*
X003463Y012818D01*
X003463Y012864D02*
X003535Y012864D01*
X003535Y012910D02*
X003463Y012910D01*
X003463Y012956D02*
X003535Y012956D01*
X003535Y013002D02*
X003463Y013002D01*
X003463Y013048D02*
X003535Y013048D01*
X003535Y013094D02*
X003463Y013094D01*
X003463Y013140D02*
X003535Y013140D01*
X003535Y013186D02*
X003463Y013186D01*
X003338Y012772D02*
X003266Y012772D01*
X003266Y013198D01*
X003338Y013198D01*
X003338Y012772D01*
X003338Y012818D02*
X003266Y012818D01*
X003266Y012864D02*
X003338Y012864D01*
X003338Y012910D02*
X003266Y012910D01*
X003266Y012956D02*
X003338Y012956D01*
X003338Y013002D02*
X003266Y013002D01*
X003266Y013048D02*
X003338Y013048D01*
X003338Y013094D02*
X003266Y013094D01*
X003266Y013140D02*
X003338Y013140D01*
X003338Y013186D02*
X003266Y013186D01*
X003141Y012772D02*
X003069Y012772D01*
X003069Y013198D01*
X003141Y013198D01*
X003141Y012772D01*
X003141Y012818D02*
X003069Y012818D01*
X003069Y012864D02*
X003141Y012864D01*
X003141Y012910D02*
X003069Y012910D01*
X003069Y012956D02*
X003141Y012956D01*
X003141Y013002D02*
X003069Y013002D01*
X003069Y013048D02*
X003141Y013048D01*
X003141Y013094D02*
X003069Y013094D01*
X003069Y013140D02*
X003141Y013140D01*
X003141Y013186D02*
X003069Y013186D01*
X002944Y012772D02*
X002872Y012772D01*
X002872Y013198D01*
X002944Y013198D01*
X002944Y012772D01*
X002944Y012818D02*
X002872Y012818D01*
X002872Y012864D02*
X002944Y012864D01*
X002944Y012910D02*
X002872Y012910D01*
X002872Y012956D02*
X002944Y012956D01*
X002944Y013002D02*
X002872Y013002D01*
X002872Y013048D02*
X002944Y013048D01*
X002944Y013094D02*
X002872Y013094D01*
X002872Y013140D02*
X002944Y013140D01*
X002944Y013186D02*
X002872Y013186D01*
X002747Y012772D02*
X002675Y012772D01*
X002675Y013198D01*
X002747Y013198D01*
X002747Y012772D01*
X002747Y012818D02*
X002675Y012818D01*
X002675Y012864D02*
X002747Y012864D01*
X002747Y012910D02*
X002675Y012910D01*
X002675Y012956D02*
X002747Y012956D01*
X002747Y013002D02*
X002675Y013002D01*
X002675Y013048D02*
X002747Y013048D01*
X002747Y013094D02*
X002675Y013094D01*
X002675Y013140D02*
X002747Y013140D01*
X002747Y013186D02*
X002675Y013186D01*
D17*
X011668Y020032D03*
X012849Y020032D03*
X012849Y021214D03*
X011668Y021214D03*
X014424Y017277D03*
X015605Y017277D03*
X015605Y018458D03*
D18*
X007416Y022936D03*
X007416Y023428D03*
X007416Y023920D03*
X007416Y024412D03*
X007416Y024904D03*
X007416Y025397D03*
D19*
X009364Y025219D02*
X009582Y025219D01*
X009364Y025219D02*
X009364Y025279D01*
X009582Y025279D01*
X009582Y025219D01*
X009582Y025277D02*
X009364Y025277D01*
X009364Y025022D02*
X009582Y025022D01*
X009364Y025022D02*
X009364Y025082D01*
X009582Y025082D01*
X009582Y025022D01*
X009582Y025080D02*
X009364Y025080D01*
X009364Y024825D02*
X009582Y024825D01*
X009364Y024825D02*
X009364Y024885D01*
X009582Y024885D01*
X009582Y024825D01*
X009582Y024883D02*
X009364Y024883D01*
X009364Y024628D02*
X009582Y024628D01*
X009364Y024628D02*
X009364Y024688D01*
X009582Y024688D01*
X009582Y024628D01*
X009582Y024686D02*
X009364Y024686D01*
X009364Y024432D02*
X009582Y024432D01*
X009364Y024432D02*
X009364Y024492D01*
X009582Y024492D01*
X009582Y024432D01*
X009582Y024490D02*
X009364Y024490D01*
X009364Y024235D02*
X009582Y024235D01*
X009364Y024235D02*
X009364Y024295D01*
X009582Y024295D01*
X009582Y024235D01*
X009582Y024293D02*
X009364Y024293D01*
X009364Y024038D02*
X009582Y024038D01*
X009364Y024038D02*
X009364Y024098D01*
X009582Y024098D01*
X009582Y024038D01*
X009582Y024096D02*
X009364Y024096D01*
X009364Y023841D02*
X009582Y023841D01*
X009364Y023841D02*
X009364Y023901D01*
X009582Y023901D01*
X009582Y023841D01*
X009582Y023899D02*
X009364Y023899D01*
X009364Y023644D02*
X009582Y023644D01*
X009364Y023644D02*
X009364Y023704D01*
X009582Y023704D01*
X009582Y023644D01*
X009582Y023702D02*
X009364Y023702D01*
X009364Y023447D02*
X009582Y023447D01*
X009364Y023447D02*
X009364Y023507D01*
X009582Y023507D01*
X009582Y023447D01*
X009582Y023505D02*
X009364Y023505D01*
X009364Y023250D02*
X009582Y023250D01*
X009364Y023250D02*
X009364Y023310D01*
X009582Y023310D01*
X009582Y023250D01*
X009582Y023308D02*
X009364Y023308D01*
X009768Y022847D02*
X009828Y022847D01*
X009768Y022847D02*
X009768Y023065D01*
X009828Y023065D01*
X009828Y022847D01*
X009828Y022905D02*
X009768Y022905D01*
X009768Y022963D02*
X009828Y022963D01*
X009828Y023021D02*
X009768Y023021D01*
X009965Y022847D02*
X010025Y022847D01*
X009965Y022847D02*
X009965Y023065D01*
X010025Y023065D01*
X010025Y022847D01*
X010025Y022905D02*
X009965Y022905D01*
X009965Y022963D02*
X010025Y022963D01*
X010025Y023021D02*
X009965Y023021D01*
X010162Y022847D02*
X010222Y022847D01*
X010162Y022847D02*
X010162Y023065D01*
X010222Y023065D01*
X010222Y022847D01*
X010222Y022905D02*
X010162Y022905D01*
X010162Y022963D02*
X010222Y022963D01*
X010222Y023021D02*
X010162Y023021D01*
X010359Y022847D02*
X010419Y022847D01*
X010359Y022847D02*
X010359Y023065D01*
X010419Y023065D01*
X010419Y022847D01*
X010419Y022905D02*
X010359Y022905D01*
X010359Y022963D02*
X010419Y022963D01*
X010419Y023021D02*
X010359Y023021D01*
X010555Y022847D02*
X010615Y022847D01*
X010555Y022847D02*
X010555Y023065D01*
X010615Y023065D01*
X010615Y022847D01*
X010615Y022905D02*
X010555Y022905D01*
X010555Y022963D02*
X010615Y022963D01*
X010615Y023021D02*
X010555Y023021D01*
X010752Y022847D02*
X010812Y022847D01*
X010752Y022847D02*
X010752Y023065D01*
X010812Y023065D01*
X010812Y022847D01*
X010812Y022905D02*
X010752Y022905D01*
X010752Y022963D02*
X010812Y022963D01*
X010812Y023021D02*
X010752Y023021D01*
X010949Y022847D02*
X011009Y022847D01*
X010949Y022847D02*
X010949Y023065D01*
X011009Y023065D01*
X011009Y022847D01*
X011009Y022905D02*
X010949Y022905D01*
X010949Y022963D02*
X011009Y022963D01*
X011009Y023021D02*
X010949Y023021D01*
X011146Y022847D02*
X011206Y022847D01*
X011146Y022847D02*
X011146Y023065D01*
X011206Y023065D01*
X011206Y022847D01*
X011206Y022905D02*
X011146Y022905D01*
X011146Y022963D02*
X011206Y022963D01*
X011206Y023021D02*
X011146Y023021D01*
X011343Y022847D02*
X011403Y022847D01*
X011343Y022847D02*
X011343Y023065D01*
X011403Y023065D01*
X011403Y022847D01*
X011403Y022905D02*
X011343Y022905D01*
X011343Y022963D02*
X011403Y022963D01*
X011403Y023021D02*
X011343Y023021D01*
X011540Y022847D02*
X011600Y022847D01*
X011540Y022847D02*
X011540Y023065D01*
X011600Y023065D01*
X011600Y022847D01*
X011600Y022905D02*
X011540Y022905D01*
X011540Y022963D02*
X011600Y022963D01*
X011600Y023021D02*
X011540Y023021D01*
X011736Y022847D02*
X011796Y022847D01*
X011736Y022847D02*
X011736Y023065D01*
X011796Y023065D01*
X011796Y022847D01*
X011796Y022905D02*
X011736Y022905D01*
X011736Y022963D02*
X011796Y022963D01*
X011796Y023021D02*
X011736Y023021D01*
X011982Y023250D02*
X012200Y023250D01*
X011982Y023250D02*
X011982Y023310D01*
X012200Y023310D01*
X012200Y023250D01*
X012200Y023308D02*
X011982Y023308D01*
X011982Y023447D02*
X012200Y023447D01*
X011982Y023447D02*
X011982Y023507D01*
X012200Y023507D01*
X012200Y023447D01*
X012200Y023505D02*
X011982Y023505D01*
X011982Y023644D02*
X012200Y023644D01*
X011982Y023644D02*
X011982Y023704D01*
X012200Y023704D01*
X012200Y023644D01*
X012200Y023702D02*
X011982Y023702D01*
X011982Y023841D02*
X012200Y023841D01*
X011982Y023841D02*
X011982Y023901D01*
X012200Y023901D01*
X012200Y023841D01*
X012200Y023899D02*
X011982Y023899D01*
X011982Y024038D02*
X012200Y024038D01*
X011982Y024038D02*
X011982Y024098D01*
X012200Y024098D01*
X012200Y024038D01*
X012200Y024096D02*
X011982Y024096D01*
X011982Y024235D02*
X012200Y024235D01*
X011982Y024235D02*
X011982Y024295D01*
X012200Y024295D01*
X012200Y024235D01*
X012200Y024293D02*
X011982Y024293D01*
X011982Y024432D02*
X012200Y024432D01*
X011982Y024432D02*
X011982Y024492D01*
X012200Y024492D01*
X012200Y024432D01*
X012200Y024490D02*
X011982Y024490D01*
X011982Y024628D02*
X012200Y024628D01*
X011982Y024628D02*
X011982Y024688D01*
X012200Y024688D01*
X012200Y024628D01*
X012200Y024686D02*
X011982Y024686D01*
X011982Y024825D02*
X012200Y024825D01*
X011982Y024825D02*
X011982Y024885D01*
X012200Y024885D01*
X012200Y024825D01*
X012200Y024883D02*
X011982Y024883D01*
X011982Y025022D02*
X012200Y025022D01*
X011982Y025022D02*
X011982Y025082D01*
X012200Y025082D01*
X012200Y025022D01*
X012200Y025080D02*
X011982Y025080D01*
X011982Y025219D02*
X012200Y025219D01*
X011982Y025219D02*
X011982Y025279D01*
X012200Y025279D01*
X012200Y025219D01*
X012200Y025277D02*
X011982Y025277D01*
X011796Y025465D02*
X011736Y025465D01*
X011736Y025683D01*
X011796Y025683D01*
X011796Y025465D01*
X011796Y025523D02*
X011736Y025523D01*
X011736Y025581D02*
X011796Y025581D01*
X011796Y025639D02*
X011736Y025639D01*
X011600Y025465D02*
X011540Y025465D01*
X011540Y025683D01*
X011600Y025683D01*
X011600Y025465D01*
X011600Y025523D02*
X011540Y025523D01*
X011540Y025581D02*
X011600Y025581D01*
X011600Y025639D02*
X011540Y025639D01*
X011403Y025465D02*
X011343Y025465D01*
X011343Y025683D01*
X011403Y025683D01*
X011403Y025465D01*
X011403Y025523D02*
X011343Y025523D01*
X011343Y025581D02*
X011403Y025581D01*
X011403Y025639D02*
X011343Y025639D01*
X011206Y025465D02*
X011146Y025465D01*
X011146Y025683D01*
X011206Y025683D01*
X011206Y025465D01*
X011206Y025523D02*
X011146Y025523D01*
X011146Y025581D02*
X011206Y025581D01*
X011206Y025639D02*
X011146Y025639D01*
X011009Y025465D02*
X010949Y025465D01*
X010949Y025683D01*
X011009Y025683D01*
X011009Y025465D01*
X011009Y025523D02*
X010949Y025523D01*
X010949Y025581D02*
X011009Y025581D01*
X011009Y025639D02*
X010949Y025639D01*
X010812Y025465D02*
X010752Y025465D01*
X010752Y025683D01*
X010812Y025683D01*
X010812Y025465D01*
X010812Y025523D02*
X010752Y025523D01*
X010752Y025581D02*
X010812Y025581D01*
X010812Y025639D02*
X010752Y025639D01*
X010615Y025465D02*
X010555Y025465D01*
X010555Y025683D01*
X010615Y025683D01*
X010615Y025465D01*
X010615Y025523D02*
X010555Y025523D01*
X010555Y025581D02*
X010615Y025581D01*
X010615Y025639D02*
X010555Y025639D01*
X010419Y025465D02*
X010359Y025465D01*
X010359Y025683D01*
X010419Y025683D01*
X010419Y025465D01*
X010419Y025523D02*
X010359Y025523D01*
X010359Y025581D02*
X010419Y025581D01*
X010419Y025639D02*
X010359Y025639D01*
X010222Y025465D02*
X010162Y025465D01*
X010162Y025683D01*
X010222Y025683D01*
X010222Y025465D01*
X010222Y025523D02*
X010162Y025523D01*
X010162Y025581D02*
X010222Y025581D01*
X010222Y025639D02*
X010162Y025639D01*
X010025Y025465D02*
X009965Y025465D01*
X009965Y025683D01*
X010025Y025683D01*
X010025Y025465D01*
X010025Y025523D02*
X009965Y025523D01*
X009965Y025581D02*
X010025Y025581D01*
X010025Y025639D02*
X009965Y025639D01*
X009828Y025465D02*
X009768Y025465D01*
X009768Y025683D01*
X009828Y025683D01*
X009828Y025465D01*
X009828Y025523D02*
X009768Y025523D01*
X009768Y025581D02*
X009828Y025581D01*
X009828Y025639D02*
X009768Y025639D01*
D20*
X009542Y022690D03*
X009345Y022690D03*
X009148Y022690D03*
X008951Y022690D03*
X008951Y021588D03*
X009148Y021588D03*
X009345Y021588D03*
X009542Y021588D03*
D21*
X012849Y026223D03*
X012849Y026912D03*
X008995Y028247D03*
X008995Y028936D03*
D22*
X012121Y026981D03*
X012121Y026194D03*
D23*
X008798Y026780D03*
X008424Y027647D03*
X008050Y026780D03*
D24*
X009656Y028501D03*
X009851Y028501D03*
X009855Y028855D03*
X009656Y028855D03*
D25*
X009418Y028855D03*
X009422Y028501D03*
X010090Y028501D03*
X010088Y028855D03*
X023538Y027235D03*
X023892Y027239D03*
X023892Y026569D03*
X023538Y026567D03*
X003109Y010885D03*
X002755Y010881D03*
X002755Y010213D03*
X003109Y010215D03*
D26*
X003109Y010448D03*
X003109Y010647D03*
X002755Y010647D03*
X002755Y010452D03*
X023538Y026806D03*
X023538Y027001D03*
X023892Y027001D03*
X023892Y026802D03*
D27*
X024326Y025544D03*
X024326Y025347D03*
X024326Y025151D03*
X024326Y024954D03*
X024326Y024757D03*
X022357Y024757D03*
X022357Y024954D03*
X022357Y025151D03*
X022357Y025347D03*
X022357Y025544D03*
X005585Y011942D03*
X005585Y011745D03*
X005585Y011548D03*
X005585Y011351D03*
X005585Y011154D03*
X003617Y011154D03*
X003617Y011351D03*
X003617Y011548D03*
X003617Y011745D03*
X003617Y011942D03*
X010093Y007631D03*
X010093Y007434D03*
X010093Y007237D03*
X010093Y007040D03*
X010093Y006843D03*
X012062Y006843D03*
X012062Y007040D03*
X012062Y007237D03*
X012062Y007434D03*
X012062Y007631D03*
D28*
X011979Y005859D03*
X011310Y005859D03*
X008125Y010840D03*
X008125Y011509D03*
X007337Y011509D03*
X007337Y010840D03*
X006550Y010840D03*
X006550Y011509D03*
X020546Y028792D03*
X021215Y028792D03*
X025664Y018576D03*
X025664Y017906D03*
D29*
X020089Y017414D03*
X019089Y017414D03*
X018089Y017414D03*
X014227Y013560D03*
X014227Y012560D03*
X014227Y011560D03*
X014227Y010560D03*
X014152Y002513D03*
X013152Y002513D03*
X012152Y002513D03*
X011152Y002513D03*
X020637Y029674D03*
X021637Y029674D03*
X022637Y029674D03*
D30*
X011660Y004828D03*
X011660Y003725D03*
D31*
X012960Y003788D03*
X012960Y004698D03*
X012960Y005608D03*
X004254Y020107D03*
X004254Y021017D03*
X004254Y021927D03*
D32*
X001814Y021017D03*
X015400Y004698D03*
D33*
X012775Y028667D03*
X011865Y028667D03*
X010955Y028667D03*
D34*
X011865Y031107D03*
D35*
X025131Y021529D03*
X025631Y021529D03*
X026131Y021529D03*
X026631Y021529D03*
X026631Y019481D03*
X026131Y019481D03*
X025631Y019481D03*
X025131Y019481D03*
D36*
X022318Y017946D03*
X022318Y021450D03*
D37*
X024900Y022836D03*
X026554Y022836D03*
D38*
X028491Y022042D03*
X028558Y020129D03*
X028558Y017629D03*
X028491Y024542D03*
D39*
X024316Y022001D03*
X023627Y022001D03*
M02*
