G75*
G70*
%OFA0B0*%
%FSLAX24Y24*%
%IPPOS*%
%LPD*%
%AMOC8*
5,1,8,0,0,1.08239X$1,22.5*
%
%ADD10C,0.0000*%
%ADD11R,0.0630X0.1535*%
%ADD12OC8,0.1260*%
%ADD13R,0.2224X0.0866*%
%ADD14C,0.0860*%
%ADD15C,0.0120*%
%ADD16C,0.0525*%
%ADD17C,0.0100*%
%ADD18C,0.0080*%
%ADD19C,0.0360*%
%ADD20C,0.0160*%
D10*
X003003Y002450D02*
X003003Y005005D01*
X000433Y005005D01*
X000433Y016816D01*
X001615Y016817D01*
X001614Y019572D01*
X003977Y019572D01*
X003977Y020753D01*
X018150Y020753D01*
X018150Y008864D01*
X018150Y006974D01*
X016772Y006974D01*
X016772Y002429D01*
X016771Y002429D01*
X015410Y001068D01*
X004384Y001068D01*
X003003Y002450D01*
D11*
X005602Y001885D03*
X005602Y005232D03*
X009922Y005222D03*
X009922Y001876D03*
X014234Y001878D03*
X014234Y005225D03*
D12*
X014607Y019572D03*
X016772Y019572D03*
D13*
X003524Y018490D03*
X003524Y017505D03*
X003524Y007860D03*
X003524Y006875D03*
D14*
X004477Y010722D03*
X004477Y012572D03*
X004477Y014423D03*
D15*
X003141Y015171D02*
X011519Y015171D01*
X011520Y015169D01*
X013223Y015369D01*
X013226Y015369D01*
X013223Y015369D02*
X013223Y015760D01*
X013217Y015755D01*
X013223Y015369D02*
X013223Y015083D01*
X013229Y015077D01*
X013836Y015077D01*
X013842Y015071D01*
X013842Y015766D01*
X013836Y015772D01*
X015985Y015768D02*
X017690Y015768D01*
X017690Y015886D02*
X015985Y015886D01*
X015985Y016005D02*
X017690Y016005D01*
X017690Y016123D02*
X015985Y016123D01*
X015985Y016242D02*
X017690Y016242D01*
X017690Y016360D02*
X015985Y016360D01*
X015985Y016479D02*
X017690Y016479D01*
X017690Y016598D02*
X004843Y016598D01*
X004843Y016501D02*
X004843Y020293D01*
X015512Y020293D01*
X015512Y018627D01*
X017690Y018627D01*
X017690Y009054D01*
X017690Y007434D01*
X016581Y007434D01*
X016312Y007164D01*
X016312Y006783D01*
X016312Y005950D01*
X014528Y005950D01*
X014528Y003766D01*
X005197Y003766D01*
X005197Y005911D01*
X008032Y008746D01*
X008032Y011974D01*
X015985Y011974D01*
X015985Y016501D01*
X004843Y016501D01*
X004843Y016716D02*
X017690Y016716D01*
X017690Y016835D02*
X004843Y016835D01*
X004843Y016953D02*
X017690Y016953D01*
X017690Y017072D02*
X004843Y017072D01*
X004843Y017190D02*
X017690Y017190D01*
X017690Y017309D02*
X004843Y017309D01*
X004843Y017427D02*
X017690Y017427D01*
X017690Y017546D02*
X004843Y017546D01*
X004843Y017664D02*
X017690Y017664D01*
X017690Y017783D02*
X004843Y017783D01*
X004843Y017901D02*
X017690Y017901D01*
X017690Y018020D02*
X004843Y018020D01*
X004843Y018139D02*
X017690Y018139D01*
X017690Y018257D02*
X004843Y018257D01*
X004843Y018376D02*
X017690Y018376D01*
X017690Y018494D02*
X004843Y018494D01*
X004843Y018613D02*
X017690Y018613D01*
X015512Y018731D02*
X004843Y018731D01*
X004843Y018850D02*
X015512Y018850D01*
X015512Y018968D02*
X004843Y018968D01*
X004843Y019087D02*
X015512Y019087D01*
X015512Y019205D02*
X004843Y019205D01*
X004843Y019324D02*
X015512Y019324D01*
X015512Y019443D02*
X004843Y019443D01*
X004843Y019561D02*
X015512Y019561D01*
X015512Y019680D02*
X004843Y019680D01*
X004843Y019798D02*
X015512Y019798D01*
X015512Y019917D02*
X004843Y019917D01*
X004843Y020035D02*
X015512Y020035D01*
X015512Y020154D02*
X004843Y020154D01*
X004843Y020272D02*
X015512Y020272D01*
X015985Y015649D02*
X017690Y015649D01*
X017690Y015531D02*
X015985Y015531D01*
X015985Y015412D02*
X017690Y015412D01*
X017690Y015294D02*
X015985Y015294D01*
X015985Y015175D02*
X017690Y015175D01*
X017690Y015056D02*
X015985Y015056D01*
X015985Y014938D02*
X017690Y014938D01*
X017690Y014819D02*
X015985Y014819D01*
X015985Y014701D02*
X017690Y014701D01*
X017690Y014582D02*
X015985Y014582D01*
X015985Y014464D02*
X017690Y014464D01*
X017690Y014345D02*
X015985Y014345D01*
X015985Y014227D02*
X017690Y014227D01*
X017690Y014108D02*
X015985Y014108D01*
X015985Y013990D02*
X017690Y013990D01*
X017690Y013871D02*
X015985Y013871D01*
X015985Y013752D02*
X017690Y013752D01*
X017690Y013634D02*
X015985Y013634D01*
X015985Y013515D02*
X017690Y013515D01*
X017690Y013397D02*
X015985Y013397D01*
X015985Y013278D02*
X017690Y013278D01*
X017690Y013160D02*
X015985Y013160D01*
X015985Y013041D02*
X017690Y013041D01*
X017690Y012923D02*
X015985Y012923D01*
X015985Y012804D02*
X017690Y012804D01*
X017690Y012686D02*
X015985Y012686D01*
X015985Y012567D02*
X017690Y012567D01*
X017690Y012449D02*
X015985Y012449D01*
X015985Y012330D02*
X017690Y012330D01*
X017690Y012211D02*
X015985Y012211D01*
X015985Y012093D02*
X017690Y012093D01*
X017690Y011974D02*
X015985Y011974D01*
X017690Y011856D02*
X008032Y011856D01*
X008032Y011737D02*
X017690Y011737D01*
X017690Y011619D02*
X008032Y011619D01*
X008032Y011500D02*
X017690Y011500D01*
X017690Y011382D02*
X008032Y011382D01*
X008032Y011263D02*
X017690Y011263D01*
X017690Y011145D02*
X008032Y011145D01*
X008032Y011026D02*
X017690Y011026D01*
X017690Y010907D02*
X008032Y010907D01*
X008032Y010789D02*
X017690Y010789D01*
X017690Y010670D02*
X008032Y010670D01*
X008032Y010552D02*
X017690Y010552D01*
X017690Y010433D02*
X008032Y010433D01*
X008032Y010315D02*
X017690Y010315D01*
X017690Y010196D02*
X008032Y010196D01*
X008032Y010078D02*
X017690Y010078D01*
X017690Y009959D02*
X008032Y009959D01*
X008032Y009841D02*
X017690Y009841D01*
X017690Y009722D02*
X008032Y009722D01*
X008032Y009603D02*
X017690Y009603D01*
X017690Y009485D02*
X008032Y009485D01*
X008032Y009366D02*
X017690Y009366D01*
X017690Y009248D02*
X008032Y009248D01*
X008032Y009129D02*
X017690Y009129D01*
X017690Y009054D02*
X017690Y009054D01*
X017690Y009011D02*
X008032Y009011D01*
X008032Y008892D02*
X017690Y008892D01*
X017690Y008774D02*
X008032Y008774D01*
X007941Y008655D02*
X017690Y008655D01*
X017690Y008537D02*
X007823Y008537D01*
X007704Y008418D02*
X017690Y008418D01*
X017690Y008299D02*
X007586Y008299D01*
X007467Y008181D02*
X017690Y008181D01*
X017690Y008062D02*
X007349Y008062D01*
X007230Y007944D02*
X017690Y007944D01*
X017690Y007825D02*
X007112Y007825D01*
X006993Y007707D02*
X017690Y007707D01*
X017690Y007588D02*
X006875Y007588D01*
X006756Y007470D02*
X017690Y007470D01*
X016499Y007351D02*
X006637Y007351D01*
X006519Y007233D02*
X016380Y007233D01*
X016312Y007114D02*
X006400Y007114D01*
X006282Y006996D02*
X016312Y006996D01*
X016312Y006877D02*
X006163Y006877D01*
X006045Y006758D02*
X016312Y006758D01*
X016312Y006640D02*
X005926Y006640D01*
X005808Y006521D02*
X016312Y006521D01*
X016312Y006403D02*
X005689Y006403D01*
X005571Y006284D02*
X016312Y006284D01*
X016312Y006166D02*
X005452Y006166D01*
X005333Y006047D02*
X016312Y006047D01*
X014528Y005929D02*
X005215Y005929D01*
X005197Y005810D02*
X014528Y005810D01*
X014528Y005692D02*
X005197Y005692D01*
X005197Y005573D02*
X014528Y005573D01*
X014528Y005454D02*
X005197Y005454D01*
X005197Y005336D02*
X014528Y005336D01*
X014528Y005217D02*
X005197Y005217D01*
X005197Y005099D02*
X014528Y005099D01*
X014528Y004980D02*
X005197Y004980D01*
X005197Y004862D02*
X014528Y004862D01*
X014528Y004743D02*
X005197Y004743D01*
X005197Y004625D02*
X014528Y004625D01*
X014528Y004506D02*
X005197Y004506D01*
X005197Y004388D02*
X014528Y004388D01*
X014528Y004269D02*
X005197Y004269D01*
X005197Y004150D02*
X014528Y004150D01*
X014528Y004032D02*
X005197Y004032D01*
X005197Y003913D02*
X014528Y003913D01*
X014528Y003795D02*
X005197Y003795D01*
X004872Y002627D02*
X004872Y006117D01*
X005742Y006987D01*
X005744Y008967D01*
X007397Y009391D02*
X007397Y011221D01*
X007531Y011355D01*
X003524Y010116D02*
X002282Y011358D01*
X002282Y014312D01*
X003141Y015171D01*
X004392Y016659D02*
X003524Y017528D01*
X003524Y017505D02*
X003524Y018490D01*
X004392Y016659D02*
X004605Y016659D01*
X003524Y007860D02*
X003524Y006880D01*
X003519Y006875D01*
X003524Y006875D01*
X003519Y006875D02*
X003475Y006831D01*
D16*
X006841Y005763D03*
X007479Y005752D03*
X007479Y005089D03*
X006806Y005085D03*
X008115Y005085D03*
X008122Y005757D03*
X008774Y005739D03*
X008773Y005084D03*
X015197Y005087D03*
X015197Y004466D03*
X015195Y003809D03*
X015195Y003173D03*
X015866Y003196D03*
X015867Y003819D03*
X015869Y004465D03*
X015860Y005089D03*
X013963Y015089D03*
X013361Y015089D03*
X012779Y015071D03*
X012166Y015077D03*
X012160Y015760D03*
X012773Y015772D03*
X013361Y015778D03*
X013952Y015784D03*
X004625Y016013D03*
X004009Y016003D03*
X003362Y016003D03*
X003342Y016649D03*
X002696Y016649D03*
X002686Y016003D03*
X003968Y016659D03*
X004605Y016659D03*
D17*
X005151Y016638D02*
X002091Y016638D01*
X002091Y016540D02*
X005151Y016540D01*
X005151Y016441D02*
X002091Y016441D01*
X002091Y016343D02*
X005151Y016343D01*
X005151Y016244D02*
X002091Y016244D01*
X002091Y016145D02*
X005151Y016145D01*
X005151Y016047D02*
X002091Y016047D01*
X002091Y015948D02*
X005151Y015948D01*
X005151Y015850D02*
X002091Y015850D01*
X002091Y015751D02*
X005151Y015751D01*
X005151Y015653D02*
X002091Y015653D01*
X002091Y015554D02*
X005151Y015554D01*
X005151Y015531D02*
X002091Y015531D01*
X002091Y019083D01*
X005151Y019077D01*
X005151Y015531D01*
X005419Y015554D02*
X015671Y015554D01*
X015671Y015456D02*
X005419Y015456D01*
X005419Y015357D02*
X015671Y015357D01*
X015671Y015259D02*
X005419Y015259D01*
X005419Y015254D02*
X000883Y015254D01*
X000883Y005503D01*
X003645Y005503D01*
X003622Y005517D01*
X003780Y005517D01*
X003780Y006272D01*
X002341Y006272D01*
X002242Y006372D01*
X002242Y007379D01*
X002242Y008363D01*
X002341Y008463D01*
X003780Y008463D01*
X003780Y013824D01*
X003792Y013824D01*
X005749Y013824D01*
X005741Y012297D01*
X015671Y012297D01*
X015671Y016210D01*
X005419Y016210D01*
X005419Y015254D01*
X005419Y015653D02*
X015671Y015653D01*
X015671Y015751D02*
X005419Y015751D01*
X005419Y015850D02*
X015671Y015850D01*
X015671Y015948D02*
X005419Y015948D01*
X005419Y016047D02*
X015671Y016047D01*
X015671Y016145D02*
X005419Y016145D01*
X005151Y016737D02*
X002091Y016737D01*
X002091Y016835D02*
X005151Y016835D01*
X005151Y016934D02*
X002091Y016934D01*
X002091Y017032D02*
X005151Y017032D01*
X005151Y017131D02*
X002091Y017131D01*
X002091Y017229D02*
X005151Y017229D01*
X005151Y017328D02*
X002091Y017328D01*
X002091Y017427D02*
X005151Y017427D01*
X005151Y017525D02*
X002091Y017525D01*
X002091Y017624D02*
X005151Y017624D01*
X005151Y017722D02*
X002091Y017722D01*
X002091Y017821D02*
X005151Y017821D01*
X005151Y017919D02*
X002091Y017919D01*
X002091Y018018D02*
X005151Y018018D01*
X005151Y018116D02*
X002091Y018116D01*
X002091Y018215D02*
X005151Y018215D01*
X005151Y018313D02*
X002091Y018313D01*
X002091Y018412D02*
X005151Y018412D01*
X005151Y018511D02*
X002091Y018511D01*
X002091Y018609D02*
X005151Y018609D01*
X005151Y018708D02*
X002091Y018708D01*
X002091Y018806D02*
X005151Y018806D01*
X005151Y018905D02*
X002091Y018905D01*
X002091Y019003D02*
X005151Y019003D01*
X000883Y015160D02*
X015671Y015160D01*
X015671Y015061D02*
X000883Y015061D01*
X000883Y014963D02*
X015671Y014963D01*
X015671Y014864D02*
X000883Y014864D01*
X000883Y014766D02*
X015671Y014766D01*
X015671Y014667D02*
X000883Y014667D01*
X000883Y014569D02*
X015671Y014569D01*
X015671Y014470D02*
X000883Y014470D01*
X000883Y014372D02*
X015671Y014372D01*
X015671Y014273D02*
X000883Y014273D01*
X000883Y014175D02*
X015671Y014175D01*
X015671Y014076D02*
X000883Y014076D01*
X000883Y013978D02*
X015671Y013978D01*
X015671Y013879D02*
X000883Y013879D01*
X000883Y013780D02*
X003780Y013780D01*
X003780Y013682D02*
X000883Y013682D01*
X000883Y013583D02*
X003780Y013583D01*
X003780Y013485D02*
X000883Y013485D01*
X000883Y013386D02*
X003780Y013386D01*
X003780Y013288D02*
X000883Y013288D01*
X000883Y013189D02*
X003780Y013189D01*
X003780Y013091D02*
X000883Y013091D01*
X000883Y012992D02*
X003780Y012992D01*
X003780Y012894D02*
X000883Y012894D01*
X000883Y012795D02*
X003780Y012795D01*
X003780Y012696D02*
X000883Y012696D01*
X000883Y012598D02*
X003780Y012598D01*
X003780Y012499D02*
X000883Y012499D01*
X000883Y012401D02*
X003780Y012401D01*
X003780Y012302D02*
X000883Y012302D01*
X000883Y012204D02*
X003780Y012204D01*
X003780Y012105D02*
X000883Y012105D01*
X000883Y012007D02*
X003780Y012007D01*
X003780Y011908D02*
X000883Y011908D01*
X000883Y011810D02*
X003780Y011810D01*
X003780Y011711D02*
X000883Y011711D01*
X000883Y011612D02*
X003780Y011612D01*
X003780Y011514D02*
X000883Y011514D01*
X000883Y011415D02*
X003780Y011415D01*
X003780Y011317D02*
X000883Y011317D01*
X000883Y011218D02*
X003780Y011218D01*
X003780Y011120D02*
X000883Y011120D01*
X000883Y011021D02*
X003780Y011021D01*
X003780Y010923D02*
X000883Y010923D01*
X000883Y010824D02*
X003780Y010824D01*
X003780Y010726D02*
X000883Y010726D01*
X000883Y010627D02*
X003780Y010627D01*
X003780Y010529D02*
X000883Y010529D01*
X000883Y010430D02*
X003780Y010430D01*
X003780Y010331D02*
X000883Y010331D01*
X000883Y010233D02*
X003780Y010233D01*
X003780Y010134D02*
X000883Y010134D01*
X000883Y010036D02*
X003780Y010036D01*
X003780Y009937D02*
X000883Y009937D01*
X000883Y009839D02*
X003780Y009839D01*
X003780Y009740D02*
X000883Y009740D01*
X000883Y009642D02*
X003780Y009642D01*
X003780Y009543D02*
X000883Y009543D01*
X000883Y009445D02*
X003780Y009445D01*
X003780Y009346D02*
X000883Y009346D01*
X000883Y009247D02*
X003780Y009247D01*
X003780Y009149D02*
X000883Y009149D01*
X000883Y009050D02*
X003780Y009050D01*
X003780Y008952D02*
X000883Y008952D01*
X000883Y008853D02*
X003780Y008853D01*
X003780Y008755D02*
X000883Y008755D01*
X000883Y008656D02*
X003780Y008656D01*
X003780Y008558D02*
X000883Y008558D01*
X000883Y008459D02*
X002338Y008459D01*
X002242Y008361D02*
X000883Y008361D01*
X000883Y008262D02*
X002242Y008262D01*
X002242Y008163D02*
X000883Y008163D01*
X000883Y008065D02*
X002242Y008065D01*
X002242Y007966D02*
X000883Y007966D01*
X000883Y007868D02*
X002242Y007868D01*
X002242Y007769D02*
X000883Y007769D01*
X000883Y007671D02*
X002242Y007671D01*
X002242Y007572D02*
X000883Y007572D01*
X000883Y007474D02*
X002242Y007474D01*
X002242Y007375D02*
X000883Y007375D01*
X000883Y007277D02*
X002242Y007277D01*
X002242Y007178D02*
X000883Y007178D01*
X000883Y007079D02*
X002242Y007079D01*
X002242Y006981D02*
X000883Y006981D01*
X000883Y006882D02*
X002242Y006882D01*
X002242Y006784D02*
X000883Y006784D01*
X000883Y006685D02*
X002242Y006685D01*
X002242Y006587D02*
X000883Y006587D01*
X000883Y006488D02*
X002242Y006488D01*
X002242Y006390D02*
X000883Y006390D01*
X000883Y006291D02*
X002322Y006291D01*
X000883Y006193D02*
X003780Y006193D01*
X003780Y006094D02*
X000883Y006094D01*
X000883Y005996D02*
X003780Y005996D01*
X003780Y005897D02*
X000883Y005897D01*
X000883Y005798D02*
X003780Y005798D01*
X003780Y005700D02*
X000883Y005700D01*
X000883Y005601D02*
X003780Y005601D01*
X003713Y003473D02*
X014795Y003473D01*
X014795Y005701D01*
X016322Y005701D01*
X016322Y002616D01*
X016321Y002616D01*
X016321Y002616D01*
X015224Y001518D01*
X004571Y001518D01*
X003573Y002517D01*
X003573Y003472D01*
X003701Y003472D01*
X003713Y003473D01*
X003573Y003433D02*
X016322Y003433D01*
X016322Y003335D02*
X003573Y003335D01*
X003573Y003236D02*
X016322Y003236D01*
X016322Y003138D02*
X003573Y003138D01*
X003573Y003039D02*
X016322Y003039D01*
X016322Y002941D02*
X003573Y002941D01*
X003573Y002842D02*
X016322Y002842D01*
X016322Y002744D02*
X003573Y002744D01*
X003573Y002645D02*
X016322Y002645D01*
X016252Y002546D02*
X003573Y002546D01*
X003641Y002448D02*
X016154Y002448D01*
X016055Y002349D02*
X003740Y002349D01*
X003838Y002251D02*
X015956Y002251D01*
X015858Y002152D02*
X003937Y002152D01*
X004035Y002054D02*
X015759Y002054D01*
X015661Y001955D02*
X004134Y001955D01*
X004232Y001857D02*
X015562Y001857D01*
X015464Y001758D02*
X004331Y001758D01*
X004429Y001660D02*
X015365Y001660D01*
X015267Y001561D02*
X004528Y001561D01*
X005602Y001856D02*
X005602Y001885D01*
X005613Y001885D02*
X005642Y001856D01*
X009922Y001856D02*
X009926Y001856D01*
X014795Y003532D02*
X016322Y003532D01*
X016322Y003630D02*
X014795Y003630D01*
X014795Y003729D02*
X016322Y003729D01*
X016322Y003828D02*
X014795Y003828D01*
X014795Y003926D02*
X016322Y003926D01*
X016322Y004025D02*
X014795Y004025D01*
X014795Y004123D02*
X016322Y004123D01*
X016322Y004222D02*
X014795Y004222D01*
X014795Y004320D02*
X016322Y004320D01*
X016322Y004419D02*
X014795Y004419D01*
X014795Y004517D02*
X016322Y004517D01*
X016322Y004616D02*
X014795Y004616D01*
X014795Y004714D02*
X016322Y004714D01*
X016322Y004813D02*
X014795Y004813D01*
X014795Y004912D02*
X016322Y004912D01*
X016322Y005010D02*
X014795Y005010D01*
X014795Y005109D02*
X016322Y005109D01*
X016322Y005207D02*
X014795Y005207D01*
X014795Y005306D02*
X016322Y005306D01*
X016322Y005404D02*
X014795Y005404D01*
X014795Y005503D02*
X016322Y005503D01*
X016322Y005601D02*
X014795Y005601D01*
X014795Y005700D02*
X016322Y005700D01*
X015671Y012302D02*
X005741Y012302D01*
X005742Y012401D02*
X015671Y012401D01*
X015671Y012499D02*
X005742Y012499D01*
X005743Y012598D02*
X015671Y012598D01*
X015671Y012696D02*
X005743Y012696D01*
X005744Y012795D02*
X015671Y012795D01*
X015671Y012894D02*
X005745Y012894D01*
X005745Y012992D02*
X015671Y012992D01*
X015671Y013091D02*
X005746Y013091D01*
X005746Y013189D02*
X015671Y013189D01*
X015671Y013288D02*
X005747Y013288D01*
X005747Y013386D02*
X015671Y013386D01*
X015671Y013485D02*
X005748Y013485D01*
X005748Y013583D02*
X015671Y013583D01*
X015671Y013682D02*
X005749Y013682D01*
X005749Y013780D02*
X015671Y013780D01*
X007550Y011355D02*
X007531Y011355D01*
X005753Y008986D02*
X005748Y008982D01*
X005744Y008967D01*
D18*
X009922Y001876D02*
X009922Y001856D01*
D19*
X005753Y008986D03*
X007397Y009391D03*
X007550Y011355D03*
D20*
X005276Y011374D02*
X004055Y011374D01*
X004055Y011532D02*
X005276Y011532D01*
X005276Y011691D02*
X004055Y011691D01*
X004055Y011849D02*
X005276Y011849D01*
X005276Y012008D02*
X004055Y012008D01*
X004055Y012166D02*
X005276Y012166D01*
X005276Y012325D02*
X004055Y012325D01*
X004055Y012483D02*
X005276Y012483D01*
X005276Y012642D02*
X004055Y012642D01*
X004055Y012801D02*
X005276Y012801D01*
X005276Y012959D02*
X004055Y012959D01*
X004055Y013118D02*
X005276Y013118D01*
X005276Y013276D02*
X004055Y013276D01*
X004055Y013431D02*
X004055Y008076D01*
X004016Y008037D01*
X002520Y008037D01*
X002520Y006580D01*
X004646Y006580D01*
X005276Y007210D01*
X005276Y013470D01*
X004055Y013470D01*
X004134Y013431D01*
X004055Y013431D01*
X004126Y013435D02*
X005276Y013435D01*
X005276Y011215D02*
X004055Y011215D01*
X004055Y011057D02*
X005276Y011057D01*
X005276Y010898D02*
X004055Y010898D01*
X004055Y010739D02*
X005276Y010739D01*
X005276Y010581D02*
X004055Y010581D01*
X004055Y010422D02*
X005276Y010422D01*
X005276Y010264D02*
X004055Y010264D01*
X004055Y010105D02*
X005276Y010105D01*
X005276Y009947D02*
X004055Y009947D01*
X004055Y009788D02*
X005276Y009788D01*
X005276Y009630D02*
X004055Y009630D01*
X004055Y009471D02*
X005276Y009471D01*
X005276Y009313D02*
X004055Y009313D01*
X004055Y009154D02*
X005276Y009154D01*
X005276Y008996D02*
X004055Y008996D01*
X004055Y008837D02*
X005276Y008837D01*
X005276Y008678D02*
X004055Y008678D01*
X004055Y008520D02*
X005276Y008520D01*
X005276Y008361D02*
X004055Y008361D01*
X004055Y008203D02*
X005276Y008203D01*
X005276Y008044D02*
X004023Y008044D01*
X005000Y006934D02*
X002520Y006934D01*
X002520Y006776D02*
X004842Y006776D01*
X004683Y006617D02*
X002520Y006617D01*
X002520Y007093D02*
X005159Y007093D01*
X005276Y007252D02*
X002520Y007252D01*
X002520Y007410D02*
X005276Y007410D01*
X005276Y007569D02*
X002520Y007569D01*
X002520Y007727D02*
X005276Y007727D01*
X005276Y007886D02*
X002520Y007886D01*
X005602Y005248D02*
X005602Y005232D01*
X005602Y005248D02*
X005616Y005263D01*
X005657Y005222D01*
M02*
