G75*
G70*
%OFA0B0*%
%FSLAX24Y24*%
%IPPOS*%
%LPD*%
%AMOC8*
5,1,8,0,0,1.08239X$1,22.5*
%
%ADD10C,0.0000*%
%ADD11C,0.0060*%
%ADD12R,0.0591X0.0512*%
%ADD13R,0.1181X0.0551*%
%ADD14R,0.0512X0.0591*%
%ADD15R,0.2441X0.2126*%
%ADD16R,0.0630X0.0394*%
%ADD17R,0.0472X0.0118*%
%ADD18R,0.2000X0.1000*%
%ADD19R,0.0354X0.0276*%
%ADD20R,0.0276X0.0354*%
%ADD21R,0.0630X0.1063*%
%ADD22R,0.0701X0.0283*%
%ADD23OC8,0.1260*%
%ADD24C,0.0860*%
%ADD25C,0.0080*%
%ADD26C,0.0100*%
%ADD27C,0.0120*%
%ADD28C,0.0525*%
%ADD29C,0.0360*%
%ADD30C,0.0160*%
D10*
X003003Y002450D02*
X003003Y005005D01*
X000433Y005005D01*
X000433Y016816D01*
X001615Y016817D01*
X001614Y019572D01*
X003977Y019572D01*
X003977Y020753D01*
X018150Y020753D01*
X018150Y008864D01*
X018150Y006974D01*
X016772Y006974D01*
X016772Y002429D01*
X016771Y002429D01*
X015410Y001068D01*
X004384Y001068D01*
X003003Y002450D01*
D11*
X007552Y021817D02*
X007552Y022458D01*
X007872Y022458D01*
X007979Y022351D01*
X007979Y022137D01*
X007872Y022031D01*
X007552Y022031D01*
X007334Y022137D02*
X007334Y022351D01*
X007228Y022458D01*
X007014Y022458D01*
X006907Y022351D01*
X006907Y022137D01*
X007014Y022031D01*
X007228Y022031D01*
X007334Y022137D01*
X006690Y022671D02*
X006263Y022671D01*
X006476Y022671D02*
X006476Y022031D01*
X008841Y022137D02*
X008948Y022031D01*
X009161Y022031D01*
X009268Y022137D01*
X009268Y022565D02*
X009161Y022671D01*
X008948Y022671D01*
X008841Y022565D01*
X008841Y022137D01*
X009486Y022137D02*
X009592Y022031D01*
X009806Y022031D01*
X009913Y022137D01*
X009913Y022351D01*
X009806Y022458D01*
X009592Y022458D01*
X009486Y022351D01*
X009486Y022137D01*
X010130Y022031D02*
X010450Y022031D01*
X010557Y022137D01*
X010557Y022351D01*
X010450Y022458D01*
X010130Y022458D01*
X010130Y021817D01*
X010775Y021817D02*
X010775Y022458D01*
X011095Y022458D01*
X011202Y022351D01*
X011202Y022137D01*
X011095Y022031D01*
X010775Y022031D01*
X011419Y022137D02*
X011419Y022351D01*
X011526Y022458D01*
X011739Y022458D01*
X011846Y022351D01*
X011846Y022244D01*
X011419Y022244D01*
X011419Y022137D02*
X011526Y022031D01*
X011739Y022031D01*
X012064Y022031D02*
X012064Y022458D01*
X012277Y022458D02*
X012064Y022244D01*
X012277Y022458D02*
X012384Y022458D01*
X013245Y022671D02*
X013245Y022031D01*
X013672Y022031D01*
X013890Y022137D02*
X013997Y022244D01*
X014317Y022244D01*
X014317Y022351D02*
X014210Y022458D01*
X013997Y022458D01*
X013890Y022137D02*
X013997Y022031D01*
X014317Y022031D01*
X014317Y022351D01*
X014534Y022458D02*
X014534Y022137D01*
X014641Y022031D01*
X014961Y022031D01*
X014961Y021924D02*
X014855Y021817D01*
X014748Y021817D01*
X014961Y021924D02*
X014961Y022458D01*
X015179Y022351D02*
X015179Y022137D01*
X015286Y022031D01*
X015499Y022031D01*
X015606Y022244D02*
X015179Y022244D01*
X015179Y022351D02*
X015286Y022458D01*
X015499Y022458D01*
X015606Y022351D01*
X015606Y022244D01*
X015823Y022244D02*
X016037Y022458D01*
X016144Y022458D01*
X015823Y022458D02*
X015823Y022031D01*
D12*
X009638Y012632D03*
X009638Y011963D03*
X008730Y011963D03*
X008730Y012632D03*
X010473Y010572D03*
X010473Y009902D03*
X005924Y012271D03*
X005924Y012940D03*
X005744Y010464D03*
X005744Y009795D03*
D13*
X008457Y014578D03*
X010346Y014578D03*
D14*
X006634Y011363D03*
X005964Y011363D03*
X008058Y006573D03*
X008727Y006573D03*
D15*
X014888Y007849D03*
D16*
X012014Y008746D03*
X012014Y006951D03*
D17*
X009290Y010229D03*
X009290Y010485D03*
X009290Y010741D03*
X009290Y010997D03*
X007626Y010997D03*
X007626Y010741D03*
X007626Y010485D03*
X007626Y010229D03*
D18*
X013504Y010090D03*
X013504Y014094D03*
D19*
X006611Y010486D03*
X006611Y009974D03*
D20*
X007395Y008919D03*
X007906Y008919D03*
D21*
X007900Y007919D03*
X006797Y007919D03*
D22*
X008794Y007976D03*
X008794Y007476D03*
X008794Y008476D03*
X008794Y008976D03*
X010644Y008976D03*
X010644Y008476D03*
X010644Y007976D03*
X010644Y007476D03*
D23*
X014607Y019572D03*
X016772Y019572D03*
D24*
X004477Y014423D03*
X004477Y012572D03*
X004477Y010722D03*
D25*
X005744Y009021D02*
X005753Y008986D01*
X006611Y010486D02*
X006612Y010486D01*
X006673Y011359D02*
X006634Y011363D01*
X005924Y012267D02*
X005924Y012271D01*
X005925Y012268D02*
X005927Y012269D01*
X005925Y012268D02*
X005924Y012267D01*
X007625Y010486D02*
X007626Y010485D01*
X007626Y010229D02*
X007603Y010229D01*
X007397Y008923D02*
X007395Y008920D01*
X007395Y008919D01*
X009128Y007503D02*
X009128Y007496D01*
X009290Y010485D02*
X009292Y010487D01*
X010350Y010487D02*
X010473Y010572D01*
X009639Y011924D02*
X009638Y011963D01*
X009639Y011925D02*
X009639Y011924D01*
X008736Y011929D02*
X008731Y011923D01*
D26*
X008659Y011462D02*
X008659Y010829D01*
X008659Y010655D01*
X008662Y010652D01*
X008662Y010557D01*
X008898Y010320D01*
X008947Y010320D01*
X008991Y010276D01*
X009489Y010276D01*
X009489Y009494D01*
X007711Y009494D01*
X007677Y009578D01*
X007584Y009670D01*
X007463Y009721D01*
X007331Y009721D01*
X007210Y009670D01*
X007117Y009578D01*
X007067Y009456D01*
X007067Y009325D01*
X007117Y009204D01*
X007135Y009186D01*
X007107Y009158D01*
X007107Y008680D01*
X007195Y008592D01*
X007205Y008592D01*
X007205Y006068D01*
X008544Y006068D01*
X008544Y006659D01*
X011339Y006659D01*
X011339Y001541D01*
X011082Y001539D01*
X004550Y001539D01*
X003453Y002636D01*
X003453Y005192D01*
X003347Y005298D01*
X003347Y005398D01*
X003246Y005398D01*
X003189Y005455D01*
X002816Y005455D01*
X000906Y005455D01*
X000906Y016366D01*
X001531Y016367D01*
X001801Y016367D01*
X001818Y016383D01*
X002126Y016383D01*
X002126Y019100D01*
X009292Y019100D01*
X009292Y013588D01*
X009882Y012997D01*
X009882Y012446D01*
X008268Y012446D01*
X008268Y011462D01*
X008659Y011462D01*
X008659Y011415D02*
X007880Y011415D01*
X007880Y011420D02*
X007829Y011541D01*
X007736Y011634D01*
X007615Y011685D01*
X007484Y011685D01*
X007363Y011634D01*
X007270Y011541D01*
X007220Y011420D01*
X007220Y011289D01*
X007270Y011168D01*
X007280Y011158D01*
X007240Y011118D01*
X007240Y011035D01*
X007039Y011236D01*
X007039Y011720D01*
X006952Y011808D01*
X006316Y011808D01*
X006299Y011792D01*
X006282Y011808D01*
X006155Y011808D01*
X006153Y011865D01*
X006282Y011865D01*
X006369Y011953D01*
X006369Y012589D01*
X006282Y012677D01*
X005567Y012677D01*
X005479Y012589D01*
X005479Y011953D01*
X005567Y011865D01*
X005732Y011865D01*
X005735Y011808D01*
X005646Y011808D01*
X005558Y011720D01*
X005558Y011005D01*
X005646Y010918D01*
X006282Y010918D01*
X006299Y010934D01*
X006316Y010918D01*
X006764Y010918D01*
X006996Y010686D01*
X006938Y010686D01*
X006851Y010773D01*
X006372Y010773D01*
X006306Y010708D01*
X006190Y010708D01*
X006190Y010782D01*
X006102Y010870D01*
X005387Y010870D01*
X005299Y010782D01*
X005299Y010146D01*
X005316Y010130D01*
X005299Y010113D01*
X005299Y009477D01*
X005387Y009389D01*
X005534Y009389D01*
X005534Y009234D01*
X005473Y009173D01*
X005423Y009052D01*
X005423Y008921D01*
X005473Y008799D01*
X005566Y008706D01*
X005687Y008656D01*
X000906Y008656D01*
X000906Y008558D02*
X007205Y008558D01*
X007205Y008459D02*
X000906Y008459D01*
X000906Y008361D02*
X007205Y008361D01*
X007205Y008262D02*
X000906Y008262D01*
X000906Y008163D02*
X007205Y008163D01*
X007205Y008065D02*
X000906Y008065D01*
X000906Y007966D02*
X007205Y007966D01*
X007205Y007868D02*
X000906Y007868D01*
X000906Y007769D02*
X007205Y007769D01*
X007205Y007671D02*
X000906Y007671D01*
X000906Y007572D02*
X007205Y007572D01*
X007205Y007474D02*
X000906Y007474D01*
X000906Y007375D02*
X007205Y007375D01*
X007205Y007277D02*
X000906Y007277D01*
X000906Y007178D02*
X007205Y007178D01*
X007205Y007079D02*
X000906Y007079D01*
X000906Y006981D02*
X007205Y006981D01*
X007205Y006882D02*
X000906Y006882D01*
X000906Y006784D02*
X007205Y006784D01*
X007205Y006685D02*
X000906Y006685D01*
X000906Y006587D02*
X007205Y006587D01*
X007205Y006488D02*
X000906Y006488D01*
X000906Y006390D02*
X007205Y006390D01*
X007205Y006291D02*
X000906Y006291D01*
X000906Y006193D02*
X007205Y006193D01*
X007205Y006094D02*
X000906Y006094D01*
X000906Y005996D02*
X011339Y005996D01*
X011339Y006094D02*
X008544Y006094D01*
X008544Y006193D02*
X011339Y006193D01*
X011339Y006291D02*
X008544Y006291D01*
X008544Y006390D02*
X011339Y006390D01*
X011339Y006488D02*
X008544Y006488D01*
X008544Y006587D02*
X011339Y006587D01*
X011654Y006226D02*
X012599Y006226D01*
X013113Y006228D01*
X013111Y009021D01*
X015788Y009021D01*
X015788Y020303D01*
X017700Y020303D01*
X017700Y009050D01*
X017700Y009050D01*
X017700Y007424D01*
X016586Y007424D01*
X016322Y007160D01*
X016322Y006787D01*
X016322Y002616D01*
X016321Y002616D01*
X016321Y002616D01*
X015234Y001528D01*
X014771Y001528D01*
X011656Y001528D01*
X011656Y004893D01*
X011654Y006226D01*
X011654Y006193D02*
X016322Y006193D01*
X016322Y006291D02*
X013113Y006291D01*
X013113Y006390D02*
X016322Y006390D01*
X016322Y006488D02*
X013113Y006488D01*
X013113Y006587D02*
X016322Y006587D01*
X016322Y006685D02*
X013113Y006685D01*
X013113Y006784D02*
X016322Y006784D01*
X016322Y006882D02*
X013112Y006882D01*
X013112Y006981D02*
X016322Y006981D01*
X016322Y007079D02*
X013112Y007079D01*
X013112Y007178D02*
X016340Y007178D01*
X016438Y007277D02*
X013112Y007277D01*
X013112Y007375D02*
X016537Y007375D01*
X017700Y007474D02*
X013112Y007474D01*
X013112Y007572D02*
X017700Y007572D01*
X017700Y007671D02*
X013112Y007671D01*
X013112Y007769D02*
X017700Y007769D01*
X017700Y007868D02*
X013112Y007868D01*
X013111Y007966D02*
X017700Y007966D01*
X017700Y008065D02*
X013111Y008065D01*
X013111Y008163D02*
X017700Y008163D01*
X017700Y008262D02*
X013111Y008262D01*
X013111Y008361D02*
X017700Y008361D01*
X017700Y008459D02*
X013111Y008459D01*
X013111Y008558D02*
X017700Y008558D01*
X017700Y008656D02*
X013111Y008656D01*
X013111Y008755D02*
X017700Y008755D01*
X017700Y008853D02*
X013111Y008853D01*
X013111Y008952D02*
X017700Y008952D01*
X017700Y009050D02*
X015788Y009050D01*
X015788Y009149D02*
X017700Y009149D01*
X017700Y009247D02*
X015788Y009247D01*
X015788Y009346D02*
X017700Y009346D01*
X017700Y009445D02*
X015788Y009445D01*
X015788Y009543D02*
X017700Y009543D01*
X017700Y009642D02*
X015788Y009642D01*
X015788Y009740D02*
X017700Y009740D01*
X017700Y009839D02*
X015788Y009839D01*
X015788Y009937D02*
X017700Y009937D01*
X017700Y010036D02*
X015788Y010036D01*
X015788Y010134D02*
X017700Y010134D01*
X017700Y010233D02*
X015788Y010233D01*
X015788Y010331D02*
X017700Y010331D01*
X017700Y010430D02*
X015788Y010430D01*
X015788Y010529D02*
X017700Y010529D01*
X017700Y010627D02*
X015788Y010627D01*
X015788Y010726D02*
X017700Y010726D01*
X017700Y010824D02*
X015788Y010824D01*
X015788Y010923D02*
X017700Y010923D01*
X017700Y011021D02*
X015788Y011021D01*
X015788Y011120D02*
X017700Y011120D01*
X017700Y011218D02*
X015788Y011218D01*
X015788Y011317D02*
X017700Y011317D01*
X017700Y011415D02*
X015788Y011415D01*
X015788Y011514D02*
X017700Y011514D01*
X017700Y011612D02*
X015788Y011612D01*
X015788Y011711D02*
X017700Y011711D01*
X017700Y011810D02*
X015788Y011810D01*
X015788Y011908D02*
X017700Y011908D01*
X017700Y012007D02*
X015788Y012007D01*
X015788Y012105D02*
X017700Y012105D01*
X017700Y012204D02*
X015788Y012204D01*
X015788Y012302D02*
X017700Y012302D01*
X017700Y012401D02*
X015788Y012401D01*
X015788Y012499D02*
X017700Y012499D01*
X017700Y012598D02*
X015788Y012598D01*
X015788Y012696D02*
X017700Y012696D01*
X017700Y012795D02*
X015788Y012795D01*
X015788Y012894D02*
X017700Y012894D01*
X017700Y012992D02*
X015788Y012992D01*
X015788Y013091D02*
X017700Y013091D01*
X017700Y013189D02*
X015788Y013189D01*
X015788Y013288D02*
X017700Y013288D01*
X017700Y013386D02*
X015788Y013386D01*
X015788Y013485D02*
X017700Y013485D01*
X017700Y013583D02*
X015788Y013583D01*
X015788Y013682D02*
X017700Y013682D01*
X017700Y013780D02*
X015788Y013780D01*
X015788Y013879D02*
X017700Y013879D01*
X017700Y013978D02*
X015788Y013978D01*
X015788Y014076D02*
X017700Y014076D01*
X017700Y014175D02*
X015788Y014175D01*
X015788Y014273D02*
X017700Y014273D01*
X017700Y014372D02*
X015788Y014372D01*
X015788Y014470D02*
X017700Y014470D01*
X017700Y014569D02*
X015788Y014569D01*
X015788Y014667D02*
X017700Y014667D01*
X017700Y014766D02*
X015788Y014766D01*
X015788Y014864D02*
X017700Y014864D01*
X017700Y014963D02*
X015788Y014963D01*
X015788Y015061D02*
X017700Y015061D01*
X017700Y015160D02*
X015788Y015160D01*
X015788Y015259D02*
X017700Y015259D01*
X017700Y015357D02*
X015788Y015357D01*
X015788Y015456D02*
X017700Y015456D01*
X017700Y015554D02*
X015788Y015554D01*
X015788Y015653D02*
X017700Y015653D01*
X017700Y015751D02*
X015788Y015751D01*
X015788Y015850D02*
X017700Y015850D01*
X017700Y015948D02*
X015788Y015948D01*
X015788Y016047D02*
X017700Y016047D01*
X017700Y016145D02*
X015788Y016145D01*
X015788Y016244D02*
X017700Y016244D01*
X017700Y016343D02*
X015788Y016343D01*
X015788Y016441D02*
X017700Y016441D01*
X017700Y016540D02*
X015788Y016540D01*
X015788Y016638D02*
X017700Y016638D01*
X017700Y016737D02*
X015788Y016737D01*
X015788Y016835D02*
X017700Y016835D01*
X017700Y016934D02*
X015788Y016934D01*
X015788Y017032D02*
X017700Y017032D01*
X017700Y017131D02*
X015788Y017131D01*
X015788Y017229D02*
X017700Y017229D01*
X017700Y017328D02*
X015788Y017328D01*
X015788Y017427D02*
X017700Y017427D01*
X017700Y017525D02*
X015788Y017525D01*
X015788Y017624D02*
X017700Y017624D01*
X017700Y017722D02*
X015788Y017722D01*
X015788Y017821D02*
X017700Y017821D01*
X017700Y017919D02*
X015788Y017919D01*
X015788Y018018D02*
X017700Y018018D01*
X017700Y018116D02*
X015788Y018116D01*
X015788Y018215D02*
X017700Y018215D01*
X017700Y018313D02*
X015788Y018313D01*
X015788Y018412D02*
X017700Y018412D01*
X017700Y018511D02*
X015788Y018511D01*
X015788Y018609D02*
X017700Y018609D01*
X017700Y018708D02*
X015788Y018708D01*
X015788Y018806D02*
X017700Y018806D01*
X017700Y018905D02*
X015788Y018905D01*
X015788Y019003D02*
X017700Y019003D01*
X017700Y019102D02*
X015788Y019102D01*
X015788Y019200D02*
X017700Y019200D01*
X017700Y019299D02*
X015788Y019299D01*
X015788Y019397D02*
X017700Y019397D01*
X017700Y019496D02*
X015788Y019496D01*
X015788Y019594D02*
X017700Y019594D01*
X017700Y019693D02*
X015788Y019693D01*
X015788Y019792D02*
X017700Y019792D01*
X017700Y019890D02*
X015788Y019890D01*
X015788Y019989D02*
X017700Y019989D01*
X017700Y020087D02*
X015788Y020087D01*
X015788Y020186D02*
X017700Y020186D01*
X017700Y020284D02*
X015788Y020284D01*
X015483Y018595D02*
X014457Y018597D01*
X009607Y018588D01*
X009607Y013746D01*
X010181Y013172D01*
X010181Y012222D01*
X009351Y012222D01*
X009351Y011530D01*
X009091Y011530D01*
X009091Y011035D01*
X009174Y010952D01*
X009377Y010952D01*
X009378Y010950D01*
X009588Y010950D01*
X009591Y010947D01*
X009709Y010947D01*
X009709Y011114D01*
X010900Y011114D01*
X011142Y011108D01*
X011142Y012368D01*
X015473Y012368D01*
X015483Y018595D01*
X015483Y018511D02*
X009607Y018511D01*
X009607Y018412D02*
X015483Y018412D01*
X015482Y018313D02*
X009607Y018313D01*
X009607Y018215D02*
X015482Y018215D01*
X015482Y018116D02*
X009607Y018116D01*
X009607Y018018D02*
X015482Y018018D01*
X015482Y017919D02*
X009607Y017919D01*
X009607Y017821D02*
X015482Y017821D01*
X015481Y017722D02*
X009607Y017722D01*
X009607Y017624D02*
X015481Y017624D01*
X015481Y017525D02*
X009607Y017525D01*
X009607Y017427D02*
X015481Y017427D01*
X015481Y017328D02*
X009607Y017328D01*
X009607Y017229D02*
X015481Y017229D01*
X015480Y017131D02*
X009607Y017131D01*
X009607Y017032D02*
X015480Y017032D01*
X015480Y016934D02*
X009607Y016934D01*
X009607Y016835D02*
X015480Y016835D01*
X015480Y016737D02*
X009607Y016737D01*
X009607Y016638D02*
X015480Y016638D01*
X015480Y016540D02*
X009607Y016540D01*
X009607Y016441D02*
X015479Y016441D01*
X015479Y016343D02*
X009607Y016343D01*
X009607Y016244D02*
X015479Y016244D01*
X015479Y016145D02*
X009607Y016145D01*
X009607Y016047D02*
X015479Y016047D01*
X015479Y015948D02*
X009607Y015948D01*
X009607Y015850D02*
X015478Y015850D01*
X015478Y015751D02*
X009607Y015751D01*
X009607Y015653D02*
X015478Y015653D01*
X015478Y015554D02*
X009607Y015554D01*
X009607Y015456D02*
X015478Y015456D01*
X015478Y015357D02*
X009607Y015357D01*
X009607Y015259D02*
X015477Y015259D01*
X015477Y015160D02*
X009607Y015160D01*
X009607Y015061D02*
X015477Y015061D01*
X015477Y014963D02*
X009607Y014963D01*
X009607Y014864D02*
X015477Y014864D01*
X015477Y014766D02*
X009607Y014766D01*
X009607Y014667D02*
X015476Y014667D01*
X015476Y014569D02*
X009607Y014569D01*
X009607Y014470D02*
X015476Y014470D01*
X015476Y014372D02*
X009607Y014372D01*
X009607Y014273D02*
X015476Y014273D01*
X015476Y014175D02*
X009607Y014175D01*
X009607Y014076D02*
X015476Y014076D01*
X015475Y013978D02*
X009607Y013978D01*
X009607Y013879D02*
X015475Y013879D01*
X015475Y013780D02*
X009607Y013780D01*
X009670Y013682D02*
X015475Y013682D01*
X015475Y013583D02*
X009769Y013583D01*
X009867Y013485D02*
X015475Y013485D01*
X015474Y013386D02*
X009966Y013386D01*
X010064Y013288D02*
X015474Y013288D01*
X015474Y013189D02*
X010163Y013189D01*
X010181Y013091D02*
X015474Y013091D01*
X015474Y012992D02*
X010181Y012992D01*
X010181Y012894D02*
X015474Y012894D01*
X015473Y012795D02*
X010181Y012795D01*
X010181Y012696D02*
X015473Y012696D01*
X015473Y012598D02*
X010181Y012598D01*
X010181Y012499D02*
X015473Y012499D01*
X015473Y012401D02*
X010181Y012401D01*
X010181Y012302D02*
X011142Y012302D01*
X011142Y012204D02*
X009351Y012204D01*
X009351Y012105D02*
X011142Y012105D01*
X011142Y012007D02*
X009351Y012007D01*
X009351Y011908D02*
X011142Y011908D01*
X011142Y011810D02*
X009351Y011810D01*
X009351Y011711D02*
X011142Y011711D01*
X011142Y011612D02*
X009351Y011612D01*
X009091Y011514D02*
X011142Y011514D01*
X011142Y011415D02*
X009091Y011415D01*
X009091Y011317D02*
X011142Y011317D01*
X011142Y011218D02*
X009091Y011218D01*
X009091Y011120D02*
X011142Y011120D01*
X009882Y012499D02*
X006369Y012499D01*
X006369Y012401D02*
X008268Y012401D01*
X008268Y012302D02*
X006369Y012302D01*
X006369Y012204D02*
X008268Y012204D01*
X008268Y012105D02*
X006369Y012105D01*
X006369Y012007D02*
X008268Y012007D01*
X008268Y011908D02*
X006325Y011908D01*
X006155Y011810D02*
X008268Y011810D01*
X008268Y011711D02*
X007039Y011711D01*
X007039Y011612D02*
X007341Y011612D01*
X007258Y011514D02*
X007039Y011514D01*
X007039Y011415D02*
X007220Y011415D01*
X007220Y011317D02*
X007039Y011317D01*
X007057Y011218D02*
X007249Y011218D01*
X007242Y011120D02*
X007156Y011120D01*
X006857Y010824D02*
X006148Y010824D01*
X006190Y010726D02*
X006324Y010726D01*
X006311Y010923D02*
X006287Y010923D01*
X006612Y010486D02*
X007625Y010486D01*
X007328Y010276D02*
X007925Y010276D01*
X008012Y010364D01*
X008012Y010606D01*
X008006Y010613D01*
X008012Y010620D01*
X008012Y010862D01*
X008006Y010869D01*
X008012Y010876D01*
X008012Y011118D01*
X007925Y011206D01*
X007845Y011206D01*
X007880Y011289D01*
X007880Y011420D01*
X007841Y011514D02*
X008268Y011514D01*
X008268Y011612D02*
X007758Y011612D01*
X007880Y011317D02*
X008659Y011317D01*
X008659Y011218D02*
X007850Y011218D01*
X008011Y011120D02*
X008659Y011120D01*
X008659Y011021D02*
X008012Y011021D01*
X008012Y010923D02*
X008659Y010923D01*
X008659Y010824D02*
X008012Y010824D01*
X008012Y010726D02*
X008659Y010726D01*
X008662Y010627D02*
X008012Y010627D01*
X008012Y010529D02*
X008690Y010529D01*
X008788Y010430D02*
X008012Y010430D01*
X007980Y010331D02*
X008887Y010331D01*
X009489Y010233D02*
X006886Y010233D01*
X006851Y010198D02*
X006939Y010286D01*
X007318Y010286D01*
X007328Y010276D01*
X006939Y010286D02*
X006939Y010286D01*
X006851Y010198D02*
X006372Y010198D01*
X006322Y010248D01*
X006190Y010248D01*
X006190Y010146D01*
X006173Y010130D01*
X006190Y010113D01*
X006190Y009477D01*
X006102Y009389D01*
X005954Y009389D01*
X005954Y009251D01*
X006033Y009173D01*
X006083Y009052D01*
X006083Y008921D01*
X006033Y008799D01*
X005940Y008706D01*
X005819Y008656D01*
X007130Y008656D01*
X007107Y008755D02*
X005988Y008755D01*
X006055Y008853D02*
X007107Y008853D01*
X007107Y008952D02*
X006083Y008952D01*
X006083Y009050D02*
X007107Y009050D01*
X007107Y009149D02*
X006043Y009149D01*
X005958Y009247D02*
X007099Y009247D01*
X007067Y009346D02*
X005954Y009346D01*
X006157Y009445D02*
X007067Y009445D01*
X007103Y009543D02*
X006190Y009543D01*
X006190Y009642D02*
X007181Y009642D01*
X007397Y009391D02*
X007397Y008923D01*
X007691Y009543D02*
X009489Y009543D01*
X009489Y009642D02*
X007613Y009642D01*
X006956Y010726D02*
X006899Y010726D01*
X006337Y010233D02*
X006190Y010233D01*
X006178Y010134D02*
X009489Y010134D01*
X009489Y010036D02*
X006190Y010036D01*
X006190Y009937D02*
X009489Y009937D01*
X009489Y009839D02*
X006190Y009839D01*
X006190Y009740D02*
X009489Y009740D01*
X009290Y010997D02*
X009639Y011347D01*
X009639Y011924D01*
X009882Y012598D02*
X006360Y012598D01*
X005735Y011810D02*
X000906Y011810D01*
X000906Y011908D02*
X005524Y011908D01*
X005479Y012007D02*
X000906Y012007D01*
X000906Y012105D02*
X005479Y012105D01*
X005479Y012204D02*
X000906Y012204D01*
X000906Y012302D02*
X005479Y012302D01*
X005479Y012401D02*
X000906Y012401D01*
X000906Y012499D02*
X005479Y012499D01*
X005488Y012598D02*
X000906Y012598D01*
X000906Y012696D02*
X009882Y012696D01*
X009882Y012795D02*
X000906Y012795D01*
X000906Y012894D02*
X009882Y012894D01*
X009882Y012992D02*
X000906Y012992D01*
X000906Y013091D02*
X009789Y013091D01*
X009691Y013189D02*
X000906Y013189D01*
X000906Y013288D02*
X009592Y013288D01*
X009493Y013386D02*
X000906Y013386D01*
X000906Y013485D02*
X009395Y013485D01*
X009296Y013583D02*
X000906Y013583D01*
X000906Y013682D02*
X009292Y013682D01*
X009292Y013780D02*
X000906Y013780D01*
X000906Y013879D02*
X004274Y013879D01*
X004361Y013843D02*
X004148Y013931D01*
X003985Y014094D01*
X003897Y014307D01*
X003897Y014538D01*
X003985Y014751D01*
X004148Y014914D01*
X004361Y015003D01*
X004592Y015003D01*
X004805Y014914D01*
X004968Y014751D01*
X005057Y014538D01*
X005057Y014307D01*
X004968Y014094D01*
X004805Y013931D01*
X004592Y013843D01*
X004361Y013843D01*
X004680Y013879D02*
X009292Y013879D01*
X009292Y013978D02*
X004852Y013978D01*
X004950Y014076D02*
X009292Y014076D01*
X009292Y014175D02*
X005002Y014175D01*
X005042Y014273D02*
X009292Y014273D01*
X009292Y014372D02*
X005057Y014372D01*
X005057Y014470D02*
X009292Y014470D01*
X009292Y014569D02*
X005044Y014569D01*
X005003Y014667D02*
X009292Y014667D01*
X009292Y014766D02*
X004954Y014766D01*
X004855Y014864D02*
X009292Y014864D01*
X009292Y014963D02*
X004688Y014963D01*
X004266Y014963D02*
X000906Y014963D01*
X000906Y015061D02*
X009292Y015061D01*
X009292Y015160D02*
X000906Y015160D01*
X000906Y015259D02*
X009292Y015259D01*
X009292Y015357D02*
X000906Y015357D01*
X000906Y015456D02*
X009292Y015456D01*
X009292Y015554D02*
X000906Y015554D01*
X000906Y015653D02*
X009292Y015653D01*
X009292Y015751D02*
X000906Y015751D01*
X000906Y015850D02*
X009292Y015850D01*
X009292Y015948D02*
X000906Y015948D01*
X000906Y016047D02*
X009292Y016047D01*
X009292Y016145D02*
X000906Y016145D01*
X000906Y016244D02*
X009292Y016244D01*
X009292Y016343D02*
X000906Y016343D01*
X001801Y016367D02*
X001801Y016367D01*
X002126Y016441D02*
X009292Y016441D01*
X009292Y016540D02*
X002126Y016540D01*
X002126Y016638D02*
X009292Y016638D01*
X009292Y016737D02*
X002126Y016737D01*
X002126Y016835D02*
X009292Y016835D01*
X009292Y016934D02*
X002126Y016934D01*
X002126Y017032D02*
X009292Y017032D01*
X009292Y017131D02*
X002126Y017131D01*
X002126Y017229D02*
X009292Y017229D01*
X009292Y017328D02*
X002126Y017328D01*
X002126Y017427D02*
X009292Y017427D01*
X009292Y017525D02*
X002126Y017525D01*
X002126Y017624D02*
X009292Y017624D01*
X009292Y017722D02*
X002126Y017722D01*
X002126Y017821D02*
X009292Y017821D01*
X009292Y017919D02*
X002126Y017919D01*
X002126Y018018D02*
X009292Y018018D01*
X009292Y018116D02*
X002126Y018116D01*
X002126Y018215D02*
X009292Y018215D01*
X009292Y018313D02*
X002126Y018313D01*
X002126Y018412D02*
X009292Y018412D01*
X009292Y018511D02*
X002126Y018511D01*
X002126Y018609D02*
X009292Y018609D01*
X009292Y018708D02*
X002126Y018708D01*
X002126Y018806D02*
X009292Y018806D01*
X009292Y018905D02*
X002126Y018905D01*
X002126Y019003D02*
X009292Y019003D01*
X004098Y014864D02*
X000906Y014864D01*
X000906Y014766D02*
X004000Y014766D01*
X003950Y014667D02*
X000906Y014667D01*
X000906Y014569D02*
X003909Y014569D01*
X003897Y014470D02*
X000906Y014470D01*
X000906Y014372D02*
X003897Y014372D01*
X003911Y014273D02*
X000906Y014273D01*
X000906Y014175D02*
X003952Y014175D01*
X004003Y014076D02*
X000906Y014076D01*
X000906Y013978D02*
X004102Y013978D01*
X005558Y011711D02*
X000906Y011711D01*
X000906Y011612D02*
X005558Y011612D01*
X005558Y011514D02*
X000906Y011514D01*
X000906Y011415D02*
X005558Y011415D01*
X005558Y011317D02*
X000906Y011317D01*
X000906Y011218D02*
X005558Y011218D01*
X005558Y011120D02*
X000906Y011120D01*
X000906Y011021D02*
X005558Y011021D01*
X005641Y010923D02*
X000906Y010923D01*
X000906Y010824D02*
X005341Y010824D01*
X005299Y010726D02*
X000906Y010726D01*
X000906Y010627D02*
X005299Y010627D01*
X005299Y010529D02*
X000906Y010529D01*
X000906Y010430D02*
X005299Y010430D01*
X005299Y010331D02*
X000906Y010331D01*
X000906Y010233D02*
X005299Y010233D01*
X005311Y010134D02*
X000906Y010134D01*
X000906Y010036D02*
X005299Y010036D01*
X005299Y009937D02*
X000906Y009937D01*
X000906Y009839D02*
X005299Y009839D01*
X005299Y009740D02*
X000906Y009740D01*
X000906Y009642D02*
X005299Y009642D01*
X005299Y009543D02*
X000906Y009543D01*
X000906Y009445D02*
X005332Y009445D01*
X005534Y009346D02*
X000906Y009346D01*
X000906Y009247D02*
X005534Y009247D01*
X005463Y009149D02*
X000906Y009149D01*
X000906Y009050D02*
X005423Y009050D01*
X005423Y008952D02*
X000906Y008952D01*
X000906Y008853D02*
X005451Y008853D01*
X005518Y008755D02*
X000906Y008755D01*
X000906Y005897D02*
X011339Y005897D01*
X011339Y005798D02*
X000906Y005798D01*
X000906Y005700D02*
X011339Y005700D01*
X011339Y005601D02*
X000906Y005601D01*
X000906Y005503D02*
X011339Y005503D01*
X011339Y005404D02*
X003240Y005404D01*
X003347Y005306D02*
X011339Y005306D01*
X011339Y005207D02*
X003437Y005207D01*
X003453Y005109D02*
X011339Y005109D01*
X011339Y005010D02*
X003453Y005010D01*
X003453Y004912D02*
X011339Y004912D01*
X011339Y004813D02*
X003453Y004813D01*
X003453Y004714D02*
X011339Y004714D01*
X011339Y004616D02*
X003453Y004616D01*
X003453Y004517D02*
X011339Y004517D01*
X011339Y004419D02*
X003453Y004419D01*
X003453Y004320D02*
X011339Y004320D01*
X011339Y004222D02*
X003453Y004222D01*
X003453Y004123D02*
X011339Y004123D01*
X011339Y004025D02*
X003453Y004025D01*
X003453Y003926D02*
X011339Y003926D01*
X011339Y003828D02*
X003453Y003828D01*
X003453Y003729D02*
X011339Y003729D01*
X011339Y003630D02*
X003453Y003630D01*
X003453Y003532D02*
X011339Y003532D01*
X011339Y003433D02*
X003453Y003433D01*
X003453Y003335D02*
X011339Y003335D01*
X011339Y003236D02*
X003453Y003236D01*
X003453Y003138D02*
X011339Y003138D01*
X011339Y003039D02*
X003453Y003039D01*
X003453Y002941D02*
X011339Y002941D01*
X011339Y002842D02*
X003453Y002842D01*
X003453Y002744D02*
X011339Y002744D01*
X011339Y002645D02*
X003453Y002645D01*
X003543Y002546D02*
X011339Y002546D01*
X011339Y002448D02*
X003641Y002448D01*
X003740Y002349D02*
X011339Y002349D01*
X011339Y002251D02*
X003838Y002251D01*
X003937Y002152D02*
X011339Y002152D01*
X011339Y002054D02*
X004035Y002054D01*
X004134Y001955D02*
X011339Y001955D01*
X011339Y001857D02*
X004232Y001857D01*
X004331Y001758D02*
X011339Y001758D01*
X011339Y001660D02*
X004429Y001660D01*
X004528Y001561D02*
X011339Y001561D01*
X011656Y001561D02*
X015267Y001561D01*
X015365Y001660D02*
X011656Y001660D01*
X011656Y001758D02*
X015464Y001758D01*
X015562Y001857D02*
X011656Y001857D01*
X011656Y001955D02*
X015661Y001955D01*
X015759Y002054D02*
X011656Y002054D01*
X011656Y002152D02*
X015858Y002152D01*
X015956Y002251D02*
X011656Y002251D01*
X011656Y002349D02*
X016055Y002349D01*
X016154Y002448D02*
X011656Y002448D01*
X011656Y002546D02*
X016252Y002546D01*
X016322Y002645D02*
X011656Y002645D01*
X011656Y002744D02*
X016322Y002744D01*
X016322Y002842D02*
X011656Y002842D01*
X011656Y002941D02*
X016322Y002941D01*
X016322Y003039D02*
X011656Y003039D01*
X011656Y003138D02*
X016322Y003138D01*
X016322Y003236D02*
X011656Y003236D01*
X011656Y003335D02*
X016322Y003335D01*
X016322Y003433D02*
X011656Y003433D01*
X011656Y003532D02*
X016322Y003532D01*
X016322Y003630D02*
X011656Y003630D01*
X011656Y003729D02*
X016322Y003729D01*
X016322Y003828D02*
X011656Y003828D01*
X011656Y003926D02*
X016322Y003926D01*
X016322Y004025D02*
X011656Y004025D01*
X011656Y004123D02*
X016322Y004123D01*
X016322Y004222D02*
X011656Y004222D01*
X011656Y004320D02*
X016322Y004320D01*
X016322Y004419D02*
X011656Y004419D01*
X011656Y004517D02*
X016322Y004517D01*
X016322Y004616D02*
X011656Y004616D01*
X011656Y004714D02*
X016322Y004714D01*
X016322Y004813D02*
X011656Y004813D01*
X011656Y004912D02*
X016322Y004912D01*
X016322Y005010D02*
X011656Y005010D01*
X011656Y005109D02*
X016322Y005109D01*
X016322Y005207D02*
X011656Y005207D01*
X011656Y005306D02*
X016322Y005306D01*
X016322Y005404D02*
X011655Y005404D01*
X011655Y005503D02*
X016322Y005503D01*
X016322Y005601D02*
X011655Y005601D01*
X011655Y005700D02*
X016322Y005700D01*
X016322Y005798D02*
X011655Y005798D01*
X011654Y005897D02*
X016322Y005897D01*
X016322Y005996D02*
X011654Y005996D01*
X011654Y006094D02*
X016322Y006094D01*
X009709Y011021D02*
X009105Y011021D01*
X007550Y011355D02*
X007547Y011347D01*
X005819Y008656D02*
X005687Y008656D01*
D27*
X005744Y009021D02*
X005744Y009795D01*
X006611Y009974D02*
X007347Y009974D01*
X007603Y010229D01*
X007612Y010229D02*
X007612Y010229D01*
X009290Y010229D01*
X009292Y010487D02*
X010350Y010487D01*
X010473Y009902D02*
X010071Y009461D01*
X010071Y007871D01*
X009704Y007503D01*
X009128Y007503D01*
X009128Y007496D02*
X008794Y007476D01*
X009210Y007778D02*
X008377Y007778D01*
X008351Y007752D01*
X008254Y007752D01*
X008254Y006290D01*
X008245Y006286D01*
X007456Y006286D01*
X007456Y008578D01*
X007734Y008578D01*
X007734Y009241D01*
X009658Y009241D01*
X009658Y007768D01*
X009642Y007752D01*
X009236Y007752D01*
X009210Y007778D01*
X009658Y007825D02*
X007456Y007825D01*
X007456Y007707D02*
X008254Y007707D01*
X008254Y007588D02*
X007456Y007588D01*
X007456Y007470D02*
X008254Y007470D01*
X008254Y007351D02*
X007456Y007351D01*
X007456Y007233D02*
X008254Y007233D01*
X008254Y007114D02*
X007456Y007114D01*
X007456Y006996D02*
X008254Y006996D01*
X008254Y006877D02*
X007456Y006877D01*
X007456Y006758D02*
X008254Y006758D01*
X008254Y006640D02*
X007456Y006640D01*
X007456Y006521D02*
X008254Y006521D01*
X008254Y006403D02*
X007456Y006403D01*
X006811Y006383D02*
X005788Y006383D01*
X006841Y005763D01*
X006811Y005084D01*
X006806Y005085D01*
X007479Y005089D01*
X008111Y005084D01*
X008773Y005084D01*
X008115Y005085D02*
X008111Y005084D01*
X007481Y005753D02*
X007479Y005752D01*
X007481Y005753D02*
X006841Y005763D01*
X006811Y006383D02*
X006837Y006708D01*
X006837Y007945D01*
X006811Y007919D01*
X006797Y007919D01*
X007456Y007944D02*
X009658Y007944D01*
X009658Y008062D02*
X007456Y008062D01*
X007456Y008181D02*
X009658Y008181D01*
X009658Y008299D02*
X007456Y008299D01*
X007456Y008418D02*
X009658Y008418D01*
X009658Y008537D02*
X007456Y008537D01*
X007734Y008655D02*
X009658Y008655D01*
X009658Y008774D02*
X007734Y008774D01*
X007734Y008892D02*
X009658Y008892D01*
X009658Y009011D02*
X007734Y009011D01*
X007734Y009129D02*
X009658Y009129D01*
X010291Y009129D02*
X012756Y009129D01*
X012756Y009011D02*
X010291Y009011D01*
X010291Y008892D02*
X012756Y008892D01*
X012756Y008774D02*
X010291Y008774D01*
X010291Y008655D02*
X012756Y008655D01*
X012756Y008537D02*
X010291Y008537D01*
X010291Y008418D02*
X012756Y008418D01*
X012756Y008299D02*
X010291Y008299D01*
X010291Y008181D02*
X012756Y008181D01*
X012756Y008062D02*
X010291Y008062D01*
X010291Y007962D02*
X010291Y009376D01*
X010327Y009415D01*
X011418Y009415D01*
X011418Y011828D01*
X015473Y011828D01*
X015473Y009257D01*
X012756Y009257D01*
X012756Y006541D01*
X011614Y006541D01*
X011614Y006895D01*
X009961Y006895D01*
X009961Y007449D01*
X010291Y007779D01*
X010291Y007962D01*
X010291Y007944D02*
X012756Y007944D01*
X012756Y007825D02*
X010291Y007825D01*
X010219Y007707D02*
X012756Y007707D01*
X012756Y007588D02*
X010100Y007588D01*
X009982Y007470D02*
X012756Y007470D01*
X012756Y007351D02*
X009961Y007351D01*
X009961Y007233D02*
X012756Y007233D01*
X012756Y007114D02*
X009961Y007114D01*
X009961Y006996D02*
X012756Y006996D01*
X012756Y006877D02*
X011614Y006877D01*
X011614Y006758D02*
X012756Y006758D01*
X012756Y006640D02*
X011614Y006640D01*
X011743Y008466D02*
X010969Y008466D01*
X011743Y008466D02*
X011985Y008708D01*
X011986Y008707D01*
X012014Y008746D01*
X012014Y009074D01*
X013118Y010179D01*
X013504Y010090D01*
X012756Y009248D02*
X010291Y009248D01*
X010291Y009366D02*
X015473Y009366D01*
X015473Y009485D02*
X011418Y009485D01*
X011418Y009603D02*
X015473Y009603D01*
X015473Y009722D02*
X011418Y009722D01*
X011418Y009841D02*
X015473Y009841D01*
X015473Y009959D02*
X011418Y009959D01*
X011418Y010078D02*
X015473Y010078D01*
X015473Y010196D02*
X011418Y010196D01*
X011418Y010315D02*
X015473Y010315D01*
X015473Y010433D02*
X011418Y010433D01*
X011418Y010552D02*
X015473Y010552D01*
X015473Y010670D02*
X011418Y010670D01*
X011418Y010789D02*
X015473Y010789D01*
X015473Y010907D02*
X011418Y010907D01*
X011418Y011026D02*
X015473Y011026D01*
X015473Y011145D02*
X011418Y011145D01*
X011418Y011263D02*
X015473Y011263D01*
X015473Y011382D02*
X011418Y011382D01*
X011418Y011500D02*
X015473Y011500D01*
X015473Y011619D02*
X011418Y011619D01*
X011418Y011737D02*
X015473Y011737D01*
X013504Y014094D02*
X013095Y013744D01*
X013057Y013782D01*
X012763Y013782D01*
X012773Y015772D01*
X012779Y015778D01*
X013361Y015778D01*
X013361Y015089D01*
X013963Y015089D01*
X013952Y015100D01*
X013952Y015784D01*
X012763Y013782D02*
X011673Y013782D01*
X010875Y014579D01*
X010874Y014578D01*
X010346Y014578D01*
X008968Y013840D02*
X009642Y013166D01*
X009642Y012641D01*
X009638Y012644D01*
X009638Y012632D01*
X008730Y012632D02*
X008730Y012671D01*
X008715Y012686D01*
X008730Y012671D02*
X008731Y012670D01*
X008730Y011963D02*
X008731Y011923D01*
X008736Y011929D02*
X008869Y011796D01*
X008869Y010742D01*
X009290Y010742D01*
X009290Y010741D01*
X009055Y010741D01*
X007626Y010741D02*
X007237Y010741D01*
X006796Y011183D01*
X006796Y011236D01*
X006673Y011359D01*
X005964Y011363D02*
X005925Y012268D01*
X007547Y011347D02*
X007559Y010990D01*
X007559Y010997D01*
X007626Y010997D01*
X007626Y010229D02*
X007612Y010229D01*
X008968Y013840D02*
X008457Y014578D01*
X008968Y014590D01*
X008949Y014609D01*
X004625Y016013D02*
X004019Y016013D01*
X004009Y016003D01*
X003362Y016003D01*
X002686Y016003D01*
X002686Y016639D01*
X002696Y016649D01*
X003342Y016649D01*
X003958Y016649D01*
X003968Y016659D01*
X004605Y016659D01*
D28*
X004605Y016659D03*
X003968Y016659D03*
X004009Y016003D03*
X004625Y016013D03*
X003362Y016003D03*
X003342Y016649D03*
X002696Y016649D03*
X002686Y016003D03*
X006841Y005763D03*
X007479Y005752D03*
X007479Y005089D03*
X006806Y005085D03*
X008115Y005085D03*
X008122Y005757D03*
X008774Y005739D03*
X008773Y005084D03*
X015197Y005087D03*
X015197Y004466D03*
X015195Y003809D03*
X015195Y003173D03*
X015866Y003196D03*
X015867Y003819D03*
X015869Y004465D03*
X015860Y005089D03*
X013963Y015089D03*
X013361Y015089D03*
X012779Y015071D03*
X012166Y015077D03*
X012160Y015760D03*
X012773Y015772D03*
X013361Y015778D03*
X013952Y015784D03*
D29*
X007550Y011355D03*
X007397Y009391D03*
X005753Y008986D03*
D30*
X005744Y010464D02*
X005770Y010478D01*
X006604Y010478D01*
X006611Y010486D01*
X007938Y008951D02*
X009086Y008951D01*
X009086Y008954D01*
X008794Y008976D01*
X009102Y008970D01*
X009102Y008474D01*
X009106Y008474D01*
X008794Y008476D01*
X009096Y008464D01*
X009096Y007964D01*
X008794Y007976D01*
X009096Y007964D02*
X009096Y007960D01*
X008019Y007786D02*
X008058Y006573D01*
X008727Y006573D02*
X008767Y006546D01*
X008777Y006536D01*
X008801Y006560D01*
X009480Y006560D01*
X010644Y007476D02*
X010968Y007485D01*
X010987Y007485D01*
X010987Y007948D01*
X010644Y007976D01*
X010969Y007966D01*
X010969Y008466D01*
X010644Y008476D01*
X010960Y008475D01*
X010960Y008975D01*
X010644Y008976D01*
X010960Y008475D02*
X010960Y008474D01*
X010969Y007966D02*
X010969Y007943D01*
X008019Y007786D02*
X007900Y007905D01*
X007900Y007919D01*
X007920Y007939D01*
X007920Y008906D01*
X007906Y008919D01*
X007938Y008951D01*
X008730Y012632D02*
X008738Y012640D01*
X008744Y012649D01*
X008746Y012660D01*
X008745Y012671D01*
X008740Y012682D01*
X008740Y012683D01*
X009627Y012683D01*
X009627Y012682D02*
X009636Y012675D01*
X009642Y012665D01*
X009644Y012654D01*
X009643Y012643D01*
X009638Y012633D01*
X014888Y008530D02*
X014888Y007849D01*
M02*
