0
SECTION
2
HEADER
999
*** POWERPCB  HEADER ***
9
$EXTMIN
10
40
20
-9.8437532808
9
$EXTMAX
10
742.7272703412
20
1109.4965091864
9
$FILLMODE
70
0
9
$GRIDMODE
70
1
9
$GRIDUNIT
10
1000
20
1000
9
$INSBASE
10
-21720
20
-18710
9
$LIMCHECK
70
0
9
$PLINEWID
40
10
9
$SNAPMODE
70
1
9
$SNAPUNIT
10
10
20
10
9
$TEXTSIZE
40
100
9
$TEXTSTYLE
7
W10
9
$USERI1
70
100
9
$USERI2
70
0
9
$USERI5
70
150
9
$VIEWCTR
10
393.7134908136
20
95.4449081365
0
ENDSEC
0
SECTION
2
TABLES
999
*** POWERPCB  LAYER ***
0
TABLE
2
LAYER
70
21
0
LAYER
2
DBLAYERS
70
1
62
-254
6
CONTINUOUS
0
LAYER
2
PART_ATTR
70
1
62
-254
6
CONTINUOUS
0
LAYER
2
TEXT_01
70
0
62
1
6
CONTINUOUS
0
LAYER
2
LABEL_INFO
70
1
62
-254
6
CONTINUOUS
0
LAYER
2
LABEL_ATTRIBUTE
70
1
62
-254
6
CONTINUOUS
0
LAYER
2
PART_TYPE_01
70
1
62
-250
6
CONTINUOUS
0
LAYER
2
PART_NAME_TOP
70
1
62
-250
6
CONTINUOUS
0
LAYER
2
PART_INFO
70
1
62
-254
6
CONTINUOUS
0
LAYER
2
PART_PTS
70
1
62
-254
6
CONTINUOUS
0
LAYER
2
SYM_NAME
70
1
62
-254
6
CONTINUOUS
0
LAYER
2
SYM_PART_TYPE_01
70
1
62
-254
6
CONTINUOUS
0
LAYER
2
SYM_PART_NAME_01
70
1
62
-254
6
CONTINUOUS
0
LAYER
2
PKG_INFO
70
1
62
-254
6
CONTINUOUS
0
LAYER
2
PART_TOP_2DLINE_00
70
0
62
254
6
CONTINUOUS
0
LAYER
2
DRIL_PLTE_THRU_01
70
0
62
16
6
CONTINUOUS
0
LAYER
2
DRIL_PLTE_THRU_02
70
0
62
176
6
CONTINUOUS
0
LAYER
2
PADS_INNER
70
0
62
1
6
CONTINUOUS
0
LAYER
2
PADS_BOT
70
0
62
5
6
CONTINUOUS
0
LAYER
2
PADS_TOP
70
0
62
1
6
CONTINUOUS
0
LAYER
2
PCB_PARAMS
70
1
62
-254
6
CONTINUOUS
0
LAYER
2
DRIL_SYMBOL
70
0
62
254
6
CONTINUOUS
0
ENDTAB
999
*** POWERPCB  TEXT STYLE ***
0
TABLE
2
STYLE
70
3
0
STYLE
2
W5
70
64
40
0
41
0.75
42
0
50
0
71
0
3
simplex
0
STYLE
2
W10
70
64
40
0
41
0.75
42
0
50
0
71
0
3
simplex
0
STYLE
2
W10R0
70
64
40
0
41
0.75
42
0
50
0
71
0
3
simplex
0
ENDTAB
0
ENDSEC
0
SECTION
2
BLOCKS
999
*** POWERPCB  DBLAYER ***
0
BLOCK
2
DBLAYERS
8
0
10
0
20
0
3
DBLAYERS
70
64
0
TEXT
8
DBLAYERS
10
0
20
-120
40
70
1
__It__Is__Job__Name__:=rn41-GND.pcb
999
 *  1.Number             2.Type                  3.RouteColor
999
 *  4.ViaColor           5.PadColor              6.CopperColor
999
 *  7.2DLineColor        8.TextColor             9.ErrorColor
999
 * 10.TopComponentColor 11.BottomComponentColor 12.RoutingDirection
999
 * 13.LayerThickness    14.CopperThickness      15.Dielectric
999
 * 16.IsRouteable       17.IsVisible            18.IsSelectable
999
 * 19.IsPrepreg         20.AssSilkScreen        21.AssPasteMask
999
 * 22.AssSolderMask     23.AssAssembly
0
TEXT
8
DBLAYERS
10
0
20
-240
40
70
1
<All Layers>:=0 0 8 12 12 12 12 12 14 8 7 2 0 0 3.2999999523 0 1 1 0 -1 -1 -1 -1 0 0 0 8 0 0 0 
0
TEXT
8
DBLAYERS
10
0
20
-360
40
70
1
Top:=1 1 12 12 12 12 12 12 14 8 0 0 381000 51435 4.3000001907 1 1 1 0 26 23 21 27 0 0 1 8 0 0 0 
0
TEXT
8
DBLAYERS
10
0
20
-480
40
70
1
Bottom:=2 1 9 9 9 9 9 9 13 0 7 1 0 51435 3.2999999523 1 1 1 0 29 22 28 30 0 0 1 7 0 0 0 
0
TEXT
8
DBLAYERS
10
0
20
-600
40
70
1
Layer_3:=3 0 0 0 0 0 0 0 0 0 0 2 0 0 0 0 1 1 0 -1 -1 -1 -1 0 0 0 0 0 0 0 
0
TEXT
8
DBLAYERS
10
0
20
-720
40
70
1
Layer_4:=4 0 0 0 0 0 0 0 0 0 0 2 0 0 0 0 1 1 0 -1 -1 -1 -1 0 0 0 0 0 0 0 
0
TEXT
8
DBLAYERS
10
0
20
-840
40
70
1
Layer_5:=5 0 0 0 0 0 0 0 0 0 0 2 0 0 0 0 1 1 0 -1 -1 -1 -1 0 0 0 0 0 0 0 
0
TEXT
8
DBLAYERS
10
0
20
-960
40
70
1
Layer_6:=6 0 0 0 0 0 0 0 0 0 0 2 0 0 0 0 1 1 0 -1 -1 -1 -1 0 0 0 0 0 0 0 
0
TEXT
8
DBLAYERS
10
0
20
-1080
40
70
1
Layer_7:=7 0 0 0 0 0 0 0 0 0 0 2 0 0 0 0 1 1 0 -1 -1 -1 -1 0 0 0 0 0 0 0 
0
TEXT
8
DBLAYERS
10
0
20
-1200
40
70
1
Layer_8:=8 0 0 0 0 0 0 0 0 0 0 2 0 0 0 0 1 1 0 -1 -1 -1 -1 0 0 0 0 0 0 0 
0
TEXT
8
DBLAYERS
10
0
20
-1320
40
70
1
Layer_9:=9 0 0 0 0 0 0 0 0 0 0 2 0 0 0 0 1 1 0 -1 -1 -1 -1 0 0 0 0 0 0 0 
0
TEXT
8
DBLAYERS
10
0
20
-1440
40
70
1
Layer_10:=10 0 0 0 0 0 0 0 0 0 0 2 0 0 0 0 1 1 0 -1 -1 -1 -1 0 0 0 0 0 0 0 
0
TEXT
8
DBLAYERS
10
0
20
-1560
40
70
1
Layer_11:=11 0 0 0 0 0 0 0 0 0 0 2 0 0 0 0 1 1 0 -1 -1 -1 -1 0 0 0 0 0 0 0 
0
TEXT
8
DBLAYERS
10
0
20
-1680
40
70
1
Layer_12:=12 0 0 0 0 0 0 0 0 0 0 2 0 0 0 0 1 1 0 -1 -1 -1 -1 0 0 0 0 0 0 0 
0
TEXT
8
DBLAYERS
10
0
20
-1800
40
70
1
Layer_13:=13 0 0 0 0 0 0 0 0 0 0 2 0 0 0 0 1 1 0 -1 -1 -1 -1 0 0 0 0 0 0 0 
0
TEXT
8
DBLAYERS
10
0
20
-1920
40
70
1
Layer_14:=14 0 0 0 0 0 0 0 0 0 0 2 0 0 0 0 1 1 0 -1 -1 -1 -1 0 0 0 0 0 0 0 
0
TEXT
8
DBLAYERS
10
0
20
-2040
40
70
1
Layer_15:=15 0 0 0 0 0 0 0 0 0 0 2 0 0 0 0 1 1 0 -1 -1 -1 -1 0 0 0 0 0 0 0 
0
TEXT
8
DBLAYERS
10
0
20
-2160
40
70
1
Layer_16:=16 0 0 0 0 0 0 0 0 0 0 2 0 0 0 0 1 1 0 -1 -1 -1 -1 0 0 0 0 0 0 0 
0
TEXT
8
DBLAYERS
10
0
20
-2280
40
70
1
Layer_17:=17 0 0 0 0 0 0 0 0 0 0 2 0 0 0 0 1 1 0 -1 -1 -1 -1 0 0 0 0 0 0 0 
0
TEXT
8
DBLAYERS
10
0
20
-2400
40
70
1
Layer_18:=18 0 0 0 0 0 0 0 0 0 0 2 0 0 0 0 1 1 0 -1 -1 -1 -1 0 0 0 0 0 0 0 
0
TEXT
8
DBLAYERS
10
0
20
-2520
40
70
1
Layer_19:=19 0 0 0 0 0 0 0 0 0 0 2 0 0 0 0 1 1 0 -1 -1 -1 -1 0 0 0 0 0 0 0 
0
TEXT
8
DBLAYERS
10
0
20
-2640
40
70
1
Layer_20:=20 0 0 0 0 0 0 0 0 0 0 2 0 0 0 0 1 1 0 -1 -1 -1 -1 0 0 0 0 0 0 0 
0
TEXT
8
DBLAYERS
10
0
20
-2760
40
70
1
Solder Mask Top:=21 5 0 0 0 0 0 0 0 0 0 2 0 0 0 0 1 1 0 -1 -1 -1 -1 0 0 0 0 0 0 0 
0
TEXT
8
DBLAYERS
10
0
20
-2880
40
70
1
Paste Mask Bottom:=22 4 0 0 0 0 0 0 0 0 0 2 0 0 0 0 1 1 0 -1 -1 -1 -1 0 0 0 0 0 0 0 
0
TEXT
8
DBLAYERS
10
0
20
-3000
40
70
1
Paste Mask Top:=23 4 0 0 0 0 0 0 0 0 0 2 0 0 0 0 1 1 0 -1 -1 -1 -1 0 0 0 0 0 0 0 
0
TEXT
8
DBLAYERS
10
0
20
-3120
40
70
1
Drill Drawing:=24 2 0 0 0 0 14 14 0 0 0 2 0 0 0 0 1 1 0 -1 -1 -1 -1 0 0 0 0 0 0 0 
0
TEXT
8
DBLAYERS
10
0
20
-3240
40
70
1
Layer_25:=25 0 0 0 0 0 0 0 0 0 0 2 0 0 0 0 1 1 0 -1 -1 -1 -1 0 0 0 0 0 0 0 
0
TEXT
8
DBLAYERS
10
0
20
-3360
40
70
1
Silkscreen Top:=26 3 0 0 0 0 0 0 0 0 0 2 0 0 0 0 1 1 0 -1 -1 -1 -1 0 0 0 0 0 0 0 
0
TEXT
8
DBLAYERS
10
0
20
-3480
40
70
1
Assembly Drawing Top:=27 6 0 0 0 0 0 0 0 0 0 2 0 0 0 0 1 1 0 -1 -1 -1 -1 0 0 0 0 0 0 0 
0
TEXT
8
DBLAYERS
10
0
20
-3600
40
70
1
Solder Mask Bottom:=28 5 0 0 0 0 0 0 0 0 0 2 0 0 0 0 1 1 0 -1 -1 -1 -1 0 0 0 0 0 0 0 
0
TEXT
8
DBLAYERS
10
0
20
-3720
40
70
1
Silkscreen Bottom:=29 3 0 0 0 0 0 0 0 0 0 2 0 0 0 0 1 1 0 -1 -1 -1 -1 0 0 0 0 0 0 0 
0
TEXT
8
DBLAYERS
10
0
20
-3840
40
70
1
Assembly Drawing Bottom:=30 6 0 0 0 0 0 0 0 0 0 2 0 0 0 0 1 1 0 -1 -1 -1 -1 0 0 0 0 0 0 0 
0
ENDBLK
999
*** POWERPCB  BOARD ***
0
BLOCK
2
ATTRIBUTES
8
0
10
0
20
0
3
ATTRIBUTES
70
64
0
TEXT
8
PART_ATTR
10
0
20
-120
40
70
1
ATTRIBUTES DICTIONARY
0
TEXT
8
PART_ATTR
10
0
20
-240
40
70
1
ATTRIBUTE Value
0
TEXT
8
PART_ATTR
10
0
20
-360
40
70
1
TYPE FREETEXT
0
TEXT
8
PART_ATTR
10
0
20
-480
40
70
1
INHERITANCE  PART PARTTYPE
0
TEXT
8
PART_ATTR
10
0
20
-600
40
70
1
ECO_REGISTRATION Y
0
TEXT
8
PART_ATTR
10
0
20
-720
40
70
1
READONLY N
0
TEXT
8
PART_ATTR
10
0
20
-840
40
70
1
SYSTEM Y
0
TEXT
8
PART_ATTR
10
0
20
-960
40
70
1
HIDDEN N
0
TEXT
8
PART_ATTR
10
0
20
-1080
40
70
1
ATTRIBUTE Tolerance
0
TEXT
8
PART_ATTR
10
0
20
-1200
40
70
1
TYPE FREETEXT
0
TEXT
8
PART_ATTR
10
0
20
-1320
40
70
1
INHERITANCE  PART PARTTYPE
0
TEXT
8
PART_ATTR
10
0
20
-1440
40
70
1
ECO_REGISTRATION Y
0
TEXT
8
PART_ATTR
10
0
20
-1560
40
70
1
READONLY N
0
TEXT
8
PART_ATTR
10
0
20
-1680
40
70
1
SYSTEM Y
0
TEXT
8
PART_ATTR
10
0
20
-1800
40
70
1
HIDDEN N
0
TEXT
8
PART_ATTR
10
0
20
-1920
40
70
1
ATTRIBUTE Part Number
0
TEXT
8
PART_ATTR
10
0
20
-2040
40
70
1
TYPE FREETEXT
0
TEXT
8
PART_ATTR
10
0
20
-2160
40
70
1
INHERITANCE  PART PARTTYPE
0
TEXT
8
PART_ATTR
10
0
20
-2280
40
70
1
ECO_REGISTRATION Y
0
TEXT
8
PART_ATTR
10
0
20
-2400
40
70
1
READONLY N
0
TEXT
8
PART_ATTR
10
0
20
-2520
40
70
1
SYSTEM N
0
TEXT
8
PART_ATTR
10
0
20
-2640
40
70
1
HIDDEN N
0
TEXT
8
PART_ATTR
10
0
20
-2760
40
70
1
ATTRIBUTE Description
0
TEXT
8
PART_ATTR
10
0
20
-2880
40
70
1
TYPE FREETEXT
0
TEXT
8
PART_ATTR
10
0
20
-3000
40
70
1
INHERITANCE  PART PARTTYPE
0
TEXT
8
PART_ATTR
10
0
20
-3120
40
70
1
ECO_REGISTRATION Y
0
TEXT
8
PART_ATTR
10
0
20
-3240
40
70
1
READONLY N
0
TEXT
8
PART_ATTR
10
0
20
-3360
40
70
1
SYSTEM N
0
TEXT
8
PART_ATTR
10
0
20
-3480
40
70
1
HIDDEN N
0
TEXT
8
PART_ATTR
10
0
20
-3600
40
70
1
ATTRIBUTE Cost
0
TEXT
8
PART_ATTR
10
0
20
-3720
40
70
1
TYPE FREETEXT
0
TEXT
8
PART_ATTR
10
0
20
-3840
40
70
1
INHERITANCE  PART PARTTYPE
0
TEXT
8
PART_ATTR
10
0
20
-3960
40
70
1
ECO_REGISTRATION Y
0
TEXT
8
PART_ATTR
10
0
20
-4080
40
70
1
READONLY N
0
TEXT
8
PART_ATTR
10
0
20
-4200
40
70
1
SYSTEM N
0
TEXT
8
PART_ATTR
10
0
20
-4320
40
70
1
HIDDEN N
0
TEXT
8
PART_ATTR
10
0
20
-4440
40
70
1
ATTRIBUTE Manufacturer #1
0
TEXT
8
PART_ATTR
10
0
20
-4560
40
70
1
TYPE FREETEXT
0
TEXT
8
PART_ATTR
10
0
20
-4680
40
70
1
INHERITANCE  PART PARTTYPE
0
TEXT
8
PART_ATTR
10
0
20
-4800
40
70
1
ECO_REGISTRATION Y
0
TEXT
8
PART_ATTR
10
0
20
-4920
40
70
1
READONLY N
0
TEXT
8
PART_ATTR
10
0
20
-5040
40
70
1
SYSTEM N
0
TEXT
8
PART_ATTR
10
0
20
-5160
40
70
1
HIDDEN N
0
TEXT
8
PART_ATTR
10
0
20
-5280
40
70
1
ATTRIBUTE Manufacturer #2
0
TEXT
8
PART_ATTR
10
0
20
-5400
40
70
1
TYPE FREETEXT
0
TEXT
8
PART_ATTR
10
0
20
-5520
40
70
1
INHERITANCE  PART PARTTYPE
0
TEXT
8
PART_ATTR
10
0
20
-5640
40
70
1
ECO_REGISTRATION Y
0
TEXT
8
PART_ATTR
10
0
20
-5760
40
70
1
READONLY N
0
TEXT
8
PART_ATTR
10
0
20
-5880
40
70
1
SYSTEM N
0
TEXT
8
PART_ATTR
10
0
20
-6000
40
70
1
HIDDEN N
0
TEXT
8
PART_ATTR
10
0
20
-6120
40
70
1
ATTRIBUTE ASSEMBLY_OPTIONS
0
TEXT
8
PART_ATTR
10
0
20
-6240
40
70
1
TYPE FREETEXT
0
TEXT
8
PART_ATTR
10
0
20
-6360
40
70
1
INHERITANCE  PCB
0
TEXT
8
PART_ATTR
10
0
20
-6480
40
70
1
INHERITANCE  PART
0
TEXT
8
PART_ATTR
10
0
20
-6600
40
70
1
INHERITANCE  JUMPER
0
TEXT
8
PART_ATTR
10
0
20
-6720
40
70
1
ECO_REGISTRATION Y
0
TEXT
8
PART_ATTR
10
0
20
-6840
40
70
1
READONLY Y
0
TEXT
8
PART_ATTR
10
0
20
-6960
40
70
1
SYSTEM Y
0
TEXT
8
PART_ATTR
10
0
20
-7080
40
70
1
HIDDEN Y
0
TEXT
8
PART_ATTR
10
0
20
-7200
40
70
1
ATTRIBUTE PowerGround
0
TEXT
8
PART_ATTR
10
0
20
-7320
40
70
1
TYPE BOOLEAN
0
TEXT
8
PART_ATTR
10
0
20
-7440
40
70
1
INHERITANCE  NET NETCLASS PCB
0
TEXT
8
PART_ATTR
10
0
20
-7560
40
70
1
ECO_REGISTRATION Y
0
TEXT
8
PART_ATTR
10
0
20
-7680
40
70
1
READONLY N
0
TEXT
8
PART_ATTR
10
0
20
-7800
40
70
1
SYSTEM Y
0
TEXT
8
PART_ATTR
10
0
20
-7920
40
70
1
HIDDEN N
0
TEXT
8
PART_ATTR
10
0
20
-8040
40
70
1
ATTRIBUTE Voltage
0
TEXT
8
PART_ATTR
10
0
20
-8160
40
70
1
TYPE QUANTITY
0
TEXT
8
PART_ATTR
10
0
20
-8280
40
70
1
QUANTITY Voltage
0
TEXT
8
PART_ATTR
10
0
20
-8400
40
70
1
ABBR V
0
TEXT
8
PART_ATTR
10
0
20
-8520
40
70
1
UNIT Volt
0
TEXT
8
PART_ATTR
10
0
20
-8640
40
70
1
MIN 
0
TEXT
8
PART_ATTR
10
0
20
-8760
40
70
1
MAX 100kV
0
TEXT
8
PART_ATTR
10
0
20
-8880
40
70
1
INHERITANCE  NET NETCLASS
0
TEXT
8
PART_ATTR
10
0
20
-9000
40
70
1
ECO_REGISTRATION Y
0
TEXT
8
PART_ATTR
10
0
20
-9120
40
70
1
READONLY N
0
TEXT
8
PART_ATTR
10
0
20
-9240
40
70
1
SYSTEM Y
0
TEXT
8
PART_ATTR
10
0
20
-9360
40
70
1
HIDDEN N
0
TEXT
8
PART_ATTR
10
0
20
-9480
40
70
1
ATTRIBUTE Geometry.Height
0
TEXT
8
PART_ATTR
10
0
20
-9600
40
70
1
TYPE QUANTITY
0
TEXT
8
PART_ATTR
10
0
20
-9720
40
70
1
QUANTITY Size/Dimension
0
TEXT
8
PART_ATTR
10
0
20
-9840
40
70
1
ABBR 
0
TEXT
8
PART_ATTR
10
0
20
-9960
40
70
1
UNIT 
0
TEXT
8
PART_ATTR
10
0
20
-10080
40
70
1
MIN 
0
TEXT
8
PART_ATTR
10
0
20
-10200
40
70
1
MAX 25000.00mil
0
TEXT
8
PART_ATTR
10
0
20
-10320
40
70
1
INHERITANCE  PCB
0
TEXT
8
PART_ATTR
10
0
20
-10440
40
70
1
INHERITANCE  PART PARTTYPE DECAL
0
TEXT
8
PART_ATTR
10
0
20
-10560
40
70
1
ECO_REGISTRATION N
0
TEXT
8
PART_ATTR
10
0
20
-10680
40
70
1
READONLY N
0
TEXT
8
PART_ATTR
10
0
20
-10800
40
70
1
SYSTEM Y
0
TEXT
8
PART_ATTR
10
0
20
-10920
40
70
1
HIDDEN N
0
TEXT
8
PART_ATTR
10
0
20
-11040
40
70
1
ATTRIBUTE DFT.Nail Count Per Net
0
TEXT
8
PART_ATTR
10
0
20
-11160
40
70
1
TYPE INTEGER
0
TEXT
8
PART_ATTR
10
0
20
-11280
40
70
1
MIN 0
0
TEXT
8
PART_ATTR
10
0
20
-11400
40
70
1
MAX 1000
0
TEXT
8
PART_ATTR
10
0
20
-11520
40
70
1
INHERITANCE  NET NETCLASS PCB
0
TEXT
8
PART_ATTR
10
0
20
-11640
40
70
1
ECO_REGISTRATION Y
0
TEXT
8
PART_ATTR
10
0
20
-11760
40
70
1
READONLY N
0
TEXT
8
PART_ATTR
10
0
20
-11880
40
70
1
SYSTEM Y
0
TEXT
8
PART_ATTR
10
0
20
-12000
40
70
1
HIDDEN N
0
TEXT
8
PART_ATTR
10
0
20
-12120
40
70
1
ATTRIBUTE DFT.Nail Diameter
0
TEXT
8
PART_ATTR
10
0
20
-12240
40
70
1
TYPE FREETEXT
0
TEXT
8
PART_ATTR
10
0
20
-12360
40
70
1
INHERITANCE  PIN
0
TEXT
8
PART_ATTR
10
0
20
-12480
40
70
1
INHERITANCE  VIA
0
TEXT
8
PART_ATTR
10
0
20
-12600
40
70
1
ECO_REGISTRATION N
0
TEXT
8
PART_ATTR
10
0
20
-12720
40
70
1
READONLY N
0
TEXT
8
PART_ATTR
10
0
20
-12840
40
70
1
SYSTEM Y
0
TEXT
8
PART_ATTR
10
0
20
-12960
40
70
1
HIDDEN N
0
TEXT
8
PART_ATTR
10
0
20
-13080
40
70
1
ATTRIBUTE DFT.Nail Number
0
TEXT
8
PART_ATTR
10
0
20
-13200
40
70
1
TYPE FREETEXT
0
TEXT
8
PART_ATTR
10
0
20
-13320
40
70
1
INHERITANCE  PIN
0
TEXT
8
PART_ATTR
10
0
20
-13440
40
70
1
INHERITANCE  VIA
0
TEXT
8
PART_ATTR
10
0
20
-13560
40
70
1
ECO_REGISTRATION N
0
TEXT
8
PART_ATTR
10
0
20
-13680
40
70
1
READONLY N
0
TEXT
8
PART_ATTR
10
0
20
-13800
40
70
1
SYSTEM Y
0
TEXT
8
PART_ATTR
10
0
20
-13920
40
70
1
HIDDEN N
0
TEXT
8
PART_ATTR
10
0
20
-14040
40
70
1
ATTRIBUTE DFT.Probe to Trace Clearance
0
TEXT
8
PART_ATTR
10
0
20
-14160
40
70
1
TYPE QUANTITY
0
TEXT
8
PART_ATTR
10
0
20
-14280
40
70
1
QUANTITY Size/Dimension
0
TEXT
8
PART_ATTR
10
0
20
-14400
40
70
1
ABBR 
0
TEXT
8
PART_ATTR
10
0
20
-14520
40
70
1
UNIT 
0
TEXT
8
PART_ATTR
10
0
20
-14640
40
70
1
MIN 
0
TEXT
8
PART_ATTR
10
0
20
-14760
40
70
1
MAX 1000.00mil
0
TEXT
8
PART_ATTR
10
0
20
-14880
40
70
1
INHERITANCE  PCB
0
TEXT
8
PART_ATTR
10
0
20
-15000
40
70
1
ECO_REGISTRATION N
0
TEXT
8
PART_ATTR
10
0
20
-15120
40
70
1
READONLY Y
0
TEXT
8
PART_ATTR
10
0
20
-15240
40
70
1
SYSTEM Y
0
TEXT
8
PART_ATTR
10
0
20
-15360
40
70
1
HIDDEN Y
0
TEXT
8
PART_ATTR
10
0
20
-15480
40
70
1
ATTRIBUTE DFT.Probe to Pad Clearance
0
TEXT
8
PART_ATTR
10
0
20
-15600
40
70
1
TYPE QUANTITY
0
TEXT
8
PART_ATTR
10
0
20
-15720
40
70
1
QUANTITY Size/Dimension
0
TEXT
8
PART_ATTR
10
0
20
-15840
40
70
1
ABBR 
0
TEXT
8
PART_ATTR
10
0
20
-15960
40
70
1
UNIT 
0
TEXT
8
PART_ATTR
10
0
20
-16080
40
70
1
MIN 
0
TEXT
8
PART_ATTR
10
0
20
-16200
40
70
1
MAX 1000.00mil
0
TEXT
8
PART_ATTR
10
0
20
-16320
40
70
1
INHERITANCE  PCB
0
TEXT
8
PART_ATTR
10
0
20
-16440
40
70
1
ECO_REGISTRATION N
0
TEXT
8
PART_ATTR
10
0
20
-16560
40
70
1
READONLY Y
0
TEXT
8
PART_ATTR
10
0
20
-16680
40
70
1
SYSTEM Y
0
TEXT
8
PART_ATTR
10
0
20
-16800
40
70
1
HIDDEN Y
0
TEXT
8
PART_ATTR
10
0
20
-16920
40
70
1
ATTRIBUTE DFT.Generate Test Points
0
TEXT
8
PART_ATTR
10
0
20
-17040
40
70
1
TYPE BOOLEAN
0
TEXT
8
PART_ATTR
10
0
20
-17160
40
70
1
INHERITANCE  PCB
0
TEXT
8
PART_ATTR
10
0
20
-17280
40
70
1
ECO_REGISTRATION N
0
TEXT
8
PART_ATTR
10
0
20
-17400
40
70
1
READONLY Y
0
TEXT
8
PART_ATTR
10
0
20
-17520
40
70
1
SYSTEM Y
0
TEXT
8
PART_ATTR
10
0
20
-17640
40
70
1
HIDDEN Y
0
TEXT
8
PART_ATTR
10
0
20
-17760
40
70
1
ATTRIBUTE DFT.Allow Stubs
0
TEXT
8
PART_ATTR
10
0
20
-17880
40
70
1
TYPE BOOLEAN
0
TEXT
8
PART_ATTR
10
0
20
-18000
40
70
1
INHERITANCE  PCB
0
TEXT
8
PART_ATTR
10
0
20
-18120
40
70
1
ECO_REGISTRATION N
0
TEXT
8
PART_ATTR
10
0
20
-18240
40
70
1
READONLY Y
0
TEXT
8
PART_ATTR
10
0
20
-18360
40
70
1
SYSTEM Y
0
TEXT
8
PART_ATTR
10
0
20
-18480
40
70
1
HIDDEN Y
0
TEXT
8
PART_ATTR
10
0
20
-18600
40
70
1
ATTRIBUTE DFT.Stub Length
0
TEXT
8
PART_ATTR
10
0
20
-18720
40
70
1
TYPE QUANTITY
0
TEXT
8
PART_ATTR
10
0
20
-18840
40
70
1
QUANTITY Size/Dimension
0
TEXT
8
PART_ATTR
10
0
20
-18960
40
70
1
ABBR 
0
TEXT
8
PART_ATTR
10
0
20
-19080
40
70
1
UNIT 
0
TEXT
8
PART_ATTR
10
0
20
-19200
40
70
1
MIN 
0
TEXT
8
PART_ATTR
10
0
20
-19320
40
70
1
MAX 2000.00mil
0
TEXT
8
PART_ATTR
10
0
20
-19440
40
70
1
INHERITANCE  PCB
0
TEXT
8
PART_ATTR
10
0
20
-19560
40
70
1
ECO_REGISTRATION N
0
TEXT
8
PART_ATTR
10
0
20
-19680
40
70
1
READONLY Y
0
TEXT
8
PART_ATTR
10
0
20
-19800
40
70
1
SYSTEM Y
0
TEXT
8
PART_ATTR
10
0
20
-19920
40
70
1
HIDDEN Y
0
TEXT
8
PART_ATTR
10
0
20
-20040
40
70
1
ATTRIBUTE DFT.Use Via Grid
0
TEXT
8
PART_ATTR
10
0
20
-20160
40
70
1
TYPE BOOLEAN
0
TEXT
8
PART_ATTR
10
0
20
-20280
40
70
1
INHERITANCE  PCB
0
TEXT
8
PART_ATTR
10
0
20
-20400
40
70
1
ECO_REGISTRATION N
0
TEXT
8
PART_ATTR
10
0
20
-20520
40
70
1
READONLY Y
0
TEXT
8
PART_ATTR
10
0
20
-20640
40
70
1
SYSTEM Y
0
TEXT
8
PART_ATTR
10
0
20
-20760
40
70
1
HIDDEN Y
0
TEXT
8
PART_ATTR
10
0
20
-20880
40
70
1
ATTRIBUTE DFT.Grid X-Coordinate
0
TEXT
8
PART_ATTR
10
0
20
-21000
40
70
1
TYPE QUANTITY
0
TEXT
8
PART_ATTR
10
0
20
-21120
40
70
1
QUANTITY Size/Dimension
0
TEXT
8
PART_ATTR
10
0
20
-21240
40
70
1
ABBR 
0
TEXT
8
PART_ATTR
10
0
20
-21360
40
70
1
UNIT 
0
TEXT
8
PART_ATTR
10
0
20
-21480
40
70
1
MIN 
0
TEXT
8
PART_ATTR
10
0
20
-21600
40
70
1
MAX 2000.00mil
0
TEXT
8
PART_ATTR
10
0
20
-21720
40
70
1
INHERITANCE  PCB
0
TEXT
8
PART_ATTR
10
0
20
-21840
40
70
1
ECO_REGISTRATION N
0
TEXT
8
PART_ATTR
10
0
20
-21960
40
70
1
READONLY Y
0
TEXT
8
PART_ATTR
10
0
20
-22080
40
70
1
SYSTEM Y
0
TEXT
8
PART_ATTR
10
0
20
-22200
40
70
1
HIDDEN Y
0
TEXT
8
PART_ATTR
10
0
20
-22320
40
70
1
ATTRIBUTE DFT.Grid Y-Coordinate
0
TEXT
8
PART_ATTR
10
0
20
-22440
40
70
1
TYPE QUANTITY
0
TEXT
8
PART_ATTR
10
0
20
-22560
40
70
1
QUANTITY Size/Dimension
0
TEXT
8
PART_ATTR
10
0
20
-22680
40
70
1
ABBR 
0
TEXT
8
PART_ATTR
10
0
20
-22800
40
70
1
UNIT 
0
TEXT
8
PART_ATTR
10
0
20
-22920
40
70
1
MIN 
0
TEXT
8
PART_ATTR
10
0
20
-23040
40
70
1
MAX 2000.00mil
0
TEXT
8
PART_ATTR
10
0
20
-23160
40
70
1
INHERITANCE  PCB
0
TEXT
8
PART_ATTR
10
0
20
-23280
40
70
1
ECO_REGISTRATION N
0
TEXT
8
PART_ATTR
10
0
20
-23400
40
70
1
READONLY Y
0
TEXT
8
PART_ATTR
10
0
20
-23520
40
70
1
SYSTEM Y
0
TEXT
8
PART_ATTR
10
0
20
-23640
40
70
1
HIDDEN Y
0
TEXT
8
PART_ATTR
10
0
20
-23760
40
70
1
ATTRIBUTE DFT.Preserve Test Points
0
TEXT
8
PART_ATTR
10
0
20
-23880
40
70
1
TYPE BOOLEAN
0
TEXT
8
PART_ATTR
10
0
20
-24000
40
70
1
INHERITANCE  PCB
0
TEXT
8
PART_ATTR
10
0
20
-24120
40
70
1
ECO_REGISTRATION N
0
TEXT
8
PART_ATTR
10
0
20
-24240
40
70
1
READONLY Y
0
TEXT
8
PART_ATTR
10
0
20
-24360
40
70
1
SYSTEM Y
0
TEXT
8
PART_ATTR
10
0
20
-24480
40
70
1
HIDDEN Y
0
TEXT
8
PART_ATTR
10
0
20
-24600
40
70
1
ATTRIBUTE DFT.Insert Test Point Vias
0
TEXT
8
PART_ATTR
10
0
20
-24720
40
70
1
TYPE BOOLEAN
0
TEXT
8
PART_ATTR
10
0
20
-24840
40
70
1
INHERITANCE  PCB
0
TEXT
8
PART_ATTR
10
0
20
-24960
40
70
1
ECO_REGISTRATION N
0
TEXT
8
PART_ATTR
10
0
20
-25080
40
70
1
READONLY Y
0
TEXT
8
PART_ATTR
10
0
20
-25200
40
70
1
SYSTEM Y
0
TEXT
8
PART_ATTR
10
0
20
-25320
40
70
1
HIDDEN Y
0
TEXT
8
PART_ATTR
10
0
20
-25440
40
70
1
ATTRIBUTE DFT.Probe Pins
0
TEXT
8
PART_ATTR
10
0
20
-25560
40
70
1
TYPE BOOLEAN
0
TEXT
8
PART_ATTR
10
0
20
-25680
40
70
1
INHERITANCE  PCB
0
TEXT
8
PART_ATTR
10
0
20
-25800
40
70
1
ECO_REGISTRATION N
0
TEXT
8
PART_ATTR
10
0
20
-25920
40
70
1
READONLY Y
0
TEXT
8
PART_ATTR
10
0
20
-26040
40
70
1
SYSTEM Y
0
TEXT
8
PART_ATTR
10
0
20
-26160
40
70
1
HIDDEN Y
0
TEXT
8
PART_ATTR
10
0
20
-26280
40
70
1
ATTRIBUTE HyperLynx.Model
0
TEXT
8
PART_ATTR
10
0
20
-26400
40
70
1
TYPE FREETEXT
0
TEXT
8
PART_ATTR
10
0
20
-26520
40
70
1
INHERITANCE  PART PARTTYPE
0
TEXT
8
PART_ATTR
10
0
20
-26640
40
70
1
ECO_REGISTRATION Y
0
TEXT
8
PART_ATTR
10
0
20
-26760
40
70
1
READONLY N
0
TEXT
8
PART_ATTR
10
0
20
-26880
40
70
1
SYSTEM Y
0
TEXT
8
PART_ATTR
10
0
20
-27000
40
70
1
HIDDEN N
0
TEXT
8
PART_ATTR
10
0
20
-27120
40
70
1
ATTRIBUTE HyperLynx.Model File
0
TEXT
8
PART_ATTR
10
0
20
-27240
40
70
1
TYPE FREETEXT
0
TEXT
8
PART_ATTR
10
0
20
-27360
40
70
1
INHERITANCE  PART PARTTYPE
0
TEXT
8
PART_ATTR
10
0
20
-27480
40
70
1
ECO_REGISTRATION Y
0
TEXT
8
PART_ATTR
10
0
20
-27600
40
70
1
READONLY N
0
TEXT
8
PART_ATTR
10
0
20
-27720
40
70
1
SYSTEM Y
0
TEXT
8
PART_ATTR
10
0
20
-27840
40
70
1
HIDDEN N
0
TEXT
8
PART_ATTR
10
0
20
-27960
40
70
1
ATTRIBUTE HyperLynx.Sim Direction
0
TEXT
8
PART_ATTR
10
0
20
-28080
40
70
1
TYPE LIST N
0
TEXT
8
PART_ATTR
10
0
20
-28200
40
70
1
LIST SIM_BOTH
0
TEXT
8
PART_ATTR
10
0
20
-28320
40
70
1
LIST SIM_IN
0
TEXT
8
PART_ATTR
10
0
20
-28440
40
70
1
LIST SIM_OUT
0
TEXT
8
PART_ATTR
10
0
20
-28560
40
70
1
INHERITANCE  PIN
0
TEXT
8
PART_ATTR
10
0
20
-28680
40
70
1
ECO_REGISTRATION Y
0
TEXT
8
PART_ATTR
10
0
20
-28800
40
70
1
READONLY N
0
TEXT
8
PART_ATTR
10
0
20
-28920
40
70
1
SYSTEM Y
0
TEXT
8
PART_ATTR
10
0
20
-29040
40
70
1
HIDDEN N
0
TEXT
8
PART_ATTR
10
0
20
-29160
40
70
1
ATTRIBUTE HyperLynx.Frequency
0
TEXT
8
PART_ATTR
10
0
20
-29280
40
70
1
TYPE QUANTITY
0
TEXT
8
PART_ATTR
10
0
20
-29400
40
70
1
QUANTITY Frequency
0
TEXT
8
PART_ATTR
10
0
20
-29520
40
70
1
ABBR Hz
0
TEXT
8
PART_ATTR
10
0
20
-29640
40
70
1
UNIT Hertz
0
TEXT
8
PART_ATTR
10
0
20
-29760
40
70
1
MIN 
0
TEXT
8
PART_ATTR
10
0
20
-29880
40
70
1
MAX 1000GHz
0
TEXT
8
PART_ATTR
10
0
20
-30000
40
70
1
INHERITANCE  NET NETCLASS
0
TEXT
8
PART_ATTR
10
0
20
-30120
40
70
1
ECO_REGISTRATION Y
0
TEXT
8
PART_ATTR
10
0
20
-30240
40
70
1
READONLY N
0
TEXT
8
PART_ATTR
10
0
20
-30360
40
70
1
SYSTEM Y
0
TEXT
8
PART_ATTR
10
0
20
-30480
40
70
1
HIDDEN N
0
TEXT
8
PART_ATTR
10
0
20
-30600
40
70
1
ATTRIBUTE HyperLynx.Duty Cycle
0
TEXT
8
PART_ATTR
10
0
20
-30720
40
70
1
TYPE QUANTITY
0
TEXT
8
PART_ATTR
10
0
20
-30840
40
70
1
QUANTITY 
0
TEXT
8
PART_ATTR
10
0
20
-30960
40
70
1
ABBR %
0
TEXT
8
PART_ATTR
10
0
20
-31080
40
70
1
UNIT percent
0
TEXT
8
PART_ATTR
10
0
20
-31200
40
70
1
MIN 
0
TEXT
8
PART_ATTR
10
0
20
-31320
40
70
1
MAX 100%
0
TEXT
8
PART_ATTR
10
0
20
-31440
40
70
1
INHERITANCE  NET NETCLASS
0
TEXT
8
PART_ATTR
10
0
20
-31560
40
70
1
ECO_REGISTRATION Y
0
TEXT
8
PART_ATTR
10
0
20
-31680
40
70
1
READONLY N
0
TEXT
8
PART_ATTR
10
0
20
-31800
40
70
1
SYSTEM Y
0
TEXT
8
PART_ATTR
10
0
20
-31920
40
70
1
HIDDEN N
0
TEXT
8
PART_ATTR
10
0
20
-32040
40
70
1
ATTRIBUTE HyperLynx.Signal Type
0
TEXT
8
PART_ATTR
10
0
20
-32160
40
70
1
TYPE LIST N
0
TEXT
8
PART_ATTR
10
0
20
-32280
40
70
1
LIST Address
0
TEXT
8
PART_ATTR
10
0
20
-32400
40
70
1
LIST Analog High Speed
0
TEXT
8
PART_ATTR
10
0
20
-32520
40
70
1
LIST Analog Low Speed
0
TEXT
8
PART_ATTR
10
0
20
-32640
40
70
1
LIST Clock
0
TEXT
8
PART_ATTR
10
0
20
-32760
40
70
1
LIST Data
0
TEXT
8
PART_ATTR
10
0
20
-32880
40
70
1
LIST Do Not Analyze
0
TEXT
8
PART_ATTR
10
0
20
-33000
40
70
1
LIST Power Supply
0
TEXT
8
PART_ATTR
10
0
20
-33120
40
70
1
LIST Strobe
0
TEXT
8
PART_ATTR
10
0
20
-33240
40
70
1
INHERITANCE  NET NETCLASS
0
TEXT
8
PART_ATTR
10
0
20
-33360
40
70
1
ECO_REGISTRATION Y
0
TEXT
8
PART_ATTR
10
0
20
-33480
40
70
1
READONLY N
0
TEXT
8
PART_ATTR
10
0
20
-33600
40
70
1
SYSTEM Y
0
TEXT
8
PART_ATTR
10
0
20
-33720
40
70
1
HIDDEN N
0
TEXT
8
PART_ATTR
10
0
20
-33840
40
70
1
ATTRIBUTE HyperLynx.Default IC.Model
0
TEXT
8
PART_ATTR
10
0
20
-33960
40
70
1
TYPE FREETEXT
0
TEXT
8
PART_ATTR
10
0
20
-34080
40
70
1
INHERITANCE  NET NETCLASS
0
TEXT
8
PART_ATTR
10
0
20
-34200
40
70
1
ECO_REGISTRATION Y
0
TEXT
8
PART_ATTR
10
0
20
-34320
40
70
1
READONLY N
0
TEXT
8
PART_ATTR
10
0
20
-34440
40
70
1
SYSTEM Y
0
TEXT
8
PART_ATTR
10
0
20
-34560
40
70
1
HIDDEN N
0
TEXT
8
PART_ATTR
10
0
20
-34680
40
70
1
ATTRIBUTE HyperLynx.Default IC.Model File
0
TEXT
8
PART_ATTR
10
0
20
-34800
40
70
1
TYPE FREETEXT
0
TEXT
8
PART_ATTR
10
0
20
-34920
40
70
1
INHERITANCE  NET NETCLASS
0
TEXT
8
PART_ATTR
10
0
20
-35040
40
70
1
ECO_REGISTRATION Y
0
TEXT
8
PART_ATTR
10
0
20
-35160
40
70
1
READONLY N
0
TEXT
8
PART_ATTR
10
0
20
-35280
40
70
1
SYSTEM Y
0
TEXT
8
PART_ATTR
10
0
20
-35400
40
70
1
HIDDEN N
0
TEXT
8
PART_ATTR
10
0
20
-35520
40
70
1
ATTRIBUTE HyperLynx.Default IC.Model Pin
0
TEXT
8
PART_ATTR
10
0
20
-35640
40
70
1
TYPE FREETEXT
0
TEXT
8
PART_ATTR
10
0
20
-35760
40
70
1
INHERITANCE  NET NETCLASS
0
TEXT
8
PART_ATTR
10
0
20
-35880
40
70
1
ECO_REGISTRATION Y
0
TEXT
8
PART_ATTR
10
0
20
-36000
40
70
1
READONLY N
0
TEXT
8
PART_ATTR
10
0
20
-36120
40
70
1
SYSTEM Y
0
TEXT
8
PART_ATTR
10
0
20
-36240
40
70
1
HIDDEN N
0
TEXT
8
PART_ATTR
10
0
20
-36360
40
70
1
ATTRIBUTE Strategy.Fanout.Pass
0
TEXT
8
PART_ATTR
10
0
20
-36480
40
70
1
TYPE LIST N
0
TEXT
8
PART_ATTR
10
0
20
-36600
40
70
1
LIST No
0
TEXT
8
PART_ATTR
10
0
20
-36720
40
70
1
LIST Yes
0
TEXT
8
PART_ATTR
10
0
20
-36840
40
70
1
LIST Done
0
TEXT
8
PART_ATTR
10
0
20
-36960
40
70
1
INHERITANCE  PCB
0
TEXT
8
PART_ATTR
10
0
20
-37080
40
70
1
ECO_REGISTRATION N
0
TEXT
8
PART_ATTR
10
0
20
-37200
40
70
1
READONLY Y
0
TEXT
8
PART_ATTR
10
0
20
-37320
40
70
1
SYSTEM Y
0
TEXT
8
PART_ATTR
10
0
20
-37440
40
70
1
HIDDEN Y
0
TEXT
8
PART_ATTR
10
0
20
-37560
40
70
1
ATTRIBUTE Strategy.Fanout.Protect
0
TEXT
8
PART_ATTR
10
0
20
-37680
40
70
1
TYPE BOOLEAN
0
TEXT
8
PART_ATTR
10
0
20
-37800
40
70
1
INHERITANCE  PCB
0
TEXT
8
PART_ATTR
10
0
20
-37920
40
70
1
ECO_REGISTRATION N
0
TEXT
8
PART_ATTR
10
0
20
-38040
40
70
1
READONLY Y
0
TEXT
8
PART_ATTR
10
0
20
-38160
40
70
1
SYSTEM Y
0
TEXT
8
PART_ATTR
10
0
20
-38280
40
70
1
HIDDEN Y
0
TEXT
8
PART_ATTR
10
0
20
-38400
40
70
1
ATTRIBUTE Strategy.Fanout.Pause
0
TEXT
8
PART_ATTR
10
0
20
-38520
40
70
1
TYPE BOOLEAN
0
TEXT
8
PART_ATTR
10
0
20
-38640
40
70
1
INHERITANCE  PCB
0
TEXT
8
PART_ATTR
10
0
20
-38760
40
70
1
ECO_REGISTRATION N
0
TEXT
8
PART_ATTR
10
0
20
-38880
40
70
1
READONLY Y
0
TEXT
8
PART_ATTR
10
0
20
-39000
40
70
1
SYSTEM Y
0
TEXT
8
PART_ATTR
10
0
20
-39120
40
70
1
HIDDEN Y
0
TEXT
8
PART_ATTR
10
0
20
-39240
40
70
1
ATTRIBUTE Strategy.Fanout.Intensity
0
TEXT
8
PART_ATTR
10
0
20
-39360
40
70
1
TYPE LIST N
0
TEXT
8
PART_ATTR
10
0
20
-39480
40
70
1
LIST Low
0
TEXT
8
PART_ATTR
10
0
20
-39600
40
70
1
LIST Medium
0
TEXT
8
PART_ATTR
10
0
20
-39720
40
70
1
LIST High
0
TEXT
8
PART_ATTR
10
0
20
-39840
40
70
1
INHERITANCE  PCB
0
TEXT
8
PART_ATTR
10
0
20
-39960
40
70
1
ECO_REGISTRATION N
0
TEXT
8
PART_ATTR
10
0
20
-40080
40
70
1
READONLY Y
0
TEXT
8
PART_ATTR
10
0
20
-40200
40
70
1
SYSTEM Y
0
TEXT
8
PART_ATTR
10
0
20
-40320
40
70
1
HIDDEN Y
0
TEXT
8
PART_ATTR
10
0
20
-40440
40
70
1
ATTRIBUTE Strategy.Fanout.Priority
0
TEXT
8
PART_ATTR
10
0
20
-40560
40
70
1
TYPE INTEGER
0
TEXT
8
PART_ATTR
10
0
20
-40680
40
70
1
MIN 0
0
TEXT
8
PART_ATTR
10
0
20
-40800
40
70
1
MAX 2147483647
0
TEXT
8
PART_ATTR
10
0
20
-40920
40
70
1
INHERITANCE  NET NETCLASS PCB
0
TEXT
8
PART_ATTR
10
0
20
-41040
40
70
1
INHERITANCE  PART
0
TEXT
8
PART_ATTR
10
0
20
-41160
40
70
1
INHERITANCE  PINPAIR
0
TEXT
8
PART_ATTR
10
0
20
-41280
40
70
1
ECO_REGISTRATION N
0
TEXT
8
PART_ATTR
10
0
20
-41400
40
70
1
READONLY Y
0
TEXT
8
PART_ATTR
10
0
20
-41520
40
70
1
SYSTEM Y
0
TEXT
8
PART_ATTR
10
0
20
-41640
40
70
1
HIDDEN Y
0
TEXT
8
PART_ATTR
10
0
20
-41760
40
70
1
ATTRIBUTE Strategy.Fanout.PlanePriority
0
TEXT
8
PART_ATTR
10
0
20
-41880
40
70
1
TYPE INTEGER
0
TEXT
8
PART_ATTR
10
0
20
-42000
40
70
1
MIN 0
0
TEXT
8
PART_ATTR
10
0
20
-42120
40
70
1
MAX 2147483647
0
TEXT
8
PART_ATTR
10
0
20
-42240
40
70
1
INHERITANCE  PCB
0
TEXT
8
PART_ATTR
10
0
20
-42360
40
70
1
ECO_REGISTRATION N
0
TEXT
8
PART_ATTR
10
0
20
-42480
40
70
1
READONLY Y
0
TEXT
8
PART_ATTR
10
0
20
-42600
40
70
1
SYSTEM Y
0
TEXT
8
PART_ATTR
10
0
20
-42720
40
70
1
HIDDEN Y
0
TEXT
8
PART_ATTR
10
0
20
-42840
40
70
1
ATTRIBUTE Strategy.Fanout.DiffPairPriority
0
TEXT
8
PART_ATTR
10
0
20
-42960
40
70
1
TYPE INTEGER
0
TEXT
8
PART_ATTR
10
0
20
-43080
40
70
1
MIN 0
0
TEXT
8
PART_ATTR
10
0
20
-43200
40
70
1
MAX 2147483647
0
TEXT
8
PART_ATTR
10
0
20
-43320
40
70
1
INHERITANCE  NET
0
TEXT
8
PART_ATTR
10
0
20
-43440
40
70
1
INHERITANCE  PINPAIR
0
TEXT
8
PART_ATTR
10
0
20
-43560
40
70
1
ECO_REGISTRATION N
0
TEXT
8
PART_ATTR
10
0
20
-43680
40
70
1
READONLY Y
0
TEXT
8
PART_ATTR
10
0
20
-43800
40
70
1
SYSTEM Y
0
TEXT
8
PART_ATTR
10
0
20
-43920
40
70
1
HIDDEN Y
0
TEXT
8
PART_ATTR
10
0
20
-44040
40
70
1
ATTRIBUTE Strategy.Fanout.MLGPriority
0
TEXT
8
PART_ATTR
10
0
20
-44160
40
70
1
TYPE INTEGER
0
TEXT
8
PART_ATTR
10
0
20
-44280
40
70
1
MIN 0
0
TEXT
8
PART_ATTR
10
0
20
-44400
40
70
1
MAX 2147483647
0
TEXT
8
PART_ATTR
10
0
20
-44520
40
70
1
INHERITANCE  NET NETCLASS PCB
0
TEXT
8
PART_ATTR
10
0
20
-44640
40
70
1
INHERITANCE  PINPAIR GROUP
0
TEXT
8
PART_ATTR
10
0
20
-44760
40
70
1
ECO_REGISTRATION N
0
TEXT
8
PART_ATTR
10
0
20
-44880
40
70
1
READONLY Y
0
TEXT
8
PART_ATTR
10
0
20
-45000
40
70
1
SYSTEM Y
0
TEXT
8
PART_ATTR
10
0
20
-45120
40
70
1
HIDDEN Y
0
TEXT
8
PART_ATTR
10
0
20
-45240
40
70
1
ATTRIBUTE Strategy.Patterns.Pass
0
TEXT
8
PART_ATTR
10
0
20
-45360
40
70
1
TYPE LIST N
0
TEXT
8
PART_ATTR
10
0
20
-45480
40
70
1
LIST No
0
TEXT
8
PART_ATTR
10
0
20
-45600
40
70
1
LIST Yes
0
TEXT
8
PART_ATTR
10
0
20
-45720
40
70
1
LIST Done
0
TEXT
8
PART_ATTR
10
0
20
-45840
40
70
1
INHERITANCE  PCB
0
TEXT
8
PART_ATTR
10
0
20
-45960
40
70
1
ECO_REGISTRATION N
0
TEXT
8
PART_ATTR
10
0
20
-46080
40
70
1
READONLY Y
0
TEXT
8
PART_ATTR
10
0
20
-46200
40
70
1
SYSTEM Y
0
TEXT
8
PART_ATTR
10
0
20
-46320
40
70
1
HIDDEN Y
0
TEXT
8
PART_ATTR
10
0
20
-46440
40
70
1
ATTRIBUTE Strategy.Patterns.Protect
0
TEXT
8
PART_ATTR
10
0
20
-46560
40
70
1
TYPE BOOLEAN
0
TEXT
8
PART_ATTR
10
0
20
-46680
40
70
1
INHERITANCE  PCB
0
TEXT
8
PART_ATTR
10
0
20
-46800
40
70
1
ECO_REGISTRATION N
0
TEXT
8
PART_ATTR
10
0
20
-46920
40
70
1
READONLY Y
0
TEXT
8
PART_ATTR
10
0
20
-47040
40
70
1
SYSTEM Y
0
TEXT
8
PART_ATTR
10
0
20
-47160
40
70
1
HIDDEN Y
0
TEXT
8
PART_ATTR
10
0
20
-47280
40
70
1
ATTRIBUTE Strategy.Patterns.Pause
0
TEXT
8
PART_ATTR
10
0
20
-47400
40
70
1
TYPE BOOLEAN
0
TEXT
8
PART_ATTR
10
0
20
-47520
40
70
1
INHERITANCE  PCB
0
TEXT
8
PART_ATTR
10
0
20
-47640
40
70
1
ECO_REGISTRATION N
0
TEXT
8
PART_ATTR
10
0
20
-47760
40
70
1
READONLY Y
0
TEXT
8
PART_ATTR
10
0
20
-47880
40
70
1
SYSTEM Y
0
TEXT
8
PART_ATTR
10
0
20
-48000
40
70
1
HIDDEN Y
0
TEXT
8
PART_ATTR
10
0
20
-48120
40
70
1
ATTRIBUTE Strategy.Patterns.Intensity
0
TEXT
8
PART_ATTR
10
0
20
-48240
40
70
1
TYPE LIST N
0
TEXT
8
PART_ATTR
10
0
20
-48360
40
70
1
LIST Low
0
TEXT
8
PART_ATTR
10
0
20
-48480
40
70
1
LIST Medium
0
TEXT
8
PART_ATTR
10
0
20
-48600
40
70
1
LIST High
0
TEXT
8
PART_ATTR
10
0
20
-48720
40
70
1
INHERITANCE  PCB
0
TEXT
8
PART_ATTR
10
0
20
-48840
40
70
1
ECO_REGISTRATION N
0
TEXT
8
PART_ATTR
10
0
20
-48960
40
70
1
READONLY Y
0
TEXT
8
PART_ATTR
10
0
20
-49080
40
70
1
SYSTEM Y
0
TEXT
8
PART_ATTR
10
0
20
-49200
40
70
1
HIDDEN Y
0
TEXT
8
PART_ATTR
10
0
20
-49320
40
70
1
ATTRIBUTE Strategy.Patterns.Priority
0
TEXT
8
PART_ATTR
10
0
20
-49440
40
70
1
TYPE INTEGER
0
TEXT
8
PART_ATTR
10
0
20
-49560
40
70
1
MIN 0
0
TEXT
8
PART_ATTR
10
0
20
-49680
40
70
1
MAX 2147483647
0
TEXT
8
PART_ATTR
10
0
20
-49800
40
70
1
INHERITANCE  NET NETCLASS PCB
0
TEXT
8
PART_ATTR
10
0
20
-49920
40
70
1
INHERITANCE  PART
0
TEXT
8
PART_ATTR
10
0
20
-50040
40
70
1
INHERITANCE  PINPAIR
0
TEXT
8
PART_ATTR
10
0
20
-50160
40
70
1
ECO_REGISTRATION N
0
TEXT
8
PART_ATTR
10
0
20
-50280
40
70
1
READONLY Y
0
TEXT
8
PART_ATTR
10
0
20
-50400
40
70
1
SYSTEM Y
0
TEXT
8
PART_ATTR
10
0
20
-50520
40
70
1
HIDDEN Y
0
TEXT
8
PART_ATTR
10
0
20
-50640
40
70
1
ATTRIBUTE Strategy.Patterns.PlanePriority
0
TEXT
8
PART_ATTR
10
0
20
-50760
40
70
1
TYPE INTEGER
0
TEXT
8
PART_ATTR
10
0
20
-50880
40
70
1
MIN 0
0
TEXT
8
PART_ATTR
10
0
20
-51000
40
70
1
MAX 2147483647
0
TEXT
8
PART_ATTR
10
0
20
-51120
40
70
1
INHERITANCE  PCB
0
TEXT
8
PART_ATTR
10
0
20
-51240
40
70
1
ECO_REGISTRATION N
0
TEXT
8
PART_ATTR
10
0
20
-51360
40
70
1
READONLY Y
0
TEXT
8
PART_ATTR
10
0
20
-51480
40
70
1
SYSTEM Y
0
TEXT
8
PART_ATTR
10
0
20
-51600
40
70
1
HIDDEN Y
0
TEXT
8
PART_ATTR
10
0
20
-51720
40
70
1
ATTRIBUTE Strategy.Patterns.DiffPairPriority
0
TEXT
8
PART_ATTR
10
0
20
-51840
40
70
1
TYPE INTEGER
0
TEXT
8
PART_ATTR
10
0
20
-51960
40
70
1
MIN 0
0
TEXT
8
PART_ATTR
10
0
20
-52080
40
70
1
MAX 2147483647
0
TEXT
8
PART_ATTR
10
0
20
-52200
40
70
1
INHERITANCE  NET
0
TEXT
8
PART_ATTR
10
0
20
-52320
40
70
1
INHERITANCE  PINPAIR
0
TEXT
8
PART_ATTR
10
0
20
-52440
40
70
1
ECO_REGISTRATION N
0
TEXT
8
PART_ATTR
10
0
20
-52560
40
70
1
READONLY Y
0
TEXT
8
PART_ATTR
10
0
20
-52680
40
70
1
SYSTEM Y
0
TEXT
8
PART_ATTR
10
0
20
-52800
40
70
1
HIDDEN Y
0
TEXT
8
PART_ATTR
10
0
20
-52920
40
70
1
ATTRIBUTE Strategy.Patterns.MLGPriority
0
TEXT
8
PART_ATTR
10
0
20
-53040
40
70
1
TYPE INTEGER
0
TEXT
8
PART_ATTR
10
0
20
-53160
40
70
1
MIN 0
0
TEXT
8
PART_ATTR
10
0
20
-53280
40
70
1
MAX 2147483647
0
TEXT
8
PART_ATTR
10
0
20
-53400
40
70
1
INHERITANCE  NET NETCLASS PCB
0
TEXT
8
PART_ATTR
10
0
20
-53520
40
70
1
INHERITANCE  PINPAIR GROUP
0
TEXT
8
PART_ATTR
10
0
20
-53640
40
70
1
ECO_REGISTRATION N
0
TEXT
8
PART_ATTR
10
0
20
-53760
40
70
1
READONLY Y
0
TEXT
8
PART_ATTR
10
0
20
-53880
40
70
1
SYSTEM Y
0
TEXT
8
PART_ATTR
10
0
20
-54000
40
70
1
HIDDEN Y
0
TEXT
8
PART_ATTR
10
0
20
-54120
40
70
1
ATTRIBUTE Strategy.Route.Pass
0
TEXT
8
PART_ATTR
10
0
20
-54240
40
70
1
TYPE LIST N
0
TEXT
8
PART_ATTR
10
0
20
-54360
40
70
1
LIST No
0
TEXT
8
PART_ATTR
10
0
20
-54480
40
70
1
LIST Yes
0
TEXT
8
PART_ATTR
10
0
20
-54600
40
70
1
LIST Done
0
TEXT
8
PART_ATTR
10
0
20
-54720
40
70
1
INHERITANCE  PCB
0
TEXT
8
PART_ATTR
10
0
20
-54840
40
70
1
ECO_REGISTRATION N
0
TEXT
8
PART_ATTR
10
0
20
-54960
40
70
1
READONLY Y
0
TEXT
8
PART_ATTR
10
0
20
-55080
40
70
1
SYSTEM Y
0
TEXT
8
PART_ATTR
10
0
20
-55200
40
70
1
HIDDEN Y
0
TEXT
8
PART_ATTR
10
0
20
-55320
40
70
1
ATTRIBUTE Strategy.Route.Protect
0
TEXT
8
PART_ATTR
10
0
20
-55440
40
70
1
TYPE BOOLEAN
0
TEXT
8
PART_ATTR
10
0
20
-55560
40
70
1
INHERITANCE  PCB
0
TEXT
8
PART_ATTR
10
0
20
-55680
40
70
1
ECO_REGISTRATION N
0
TEXT
8
PART_ATTR
10
0
20
-55800
40
70
1
READONLY Y
0
TEXT
8
PART_ATTR
10
0
20
-55920
40
70
1
SYSTEM Y
0
TEXT
8
PART_ATTR
10
0
20
-56040
40
70
1
HIDDEN Y
0
TEXT
8
PART_ATTR
10
0
20
-56160
40
70
1
ATTRIBUTE Strategy.Route.Pause
0
TEXT
8
PART_ATTR
10
0
20
-56280
40
70
1
TYPE BOOLEAN
0
TEXT
8
PART_ATTR
10
0
20
56328.8004199475
40
70
1
INHERITANCE  PCB
0
TEXT
8
PART_ATTR
10
0
20
56208.8004199475
40
70
1
ECO_REGISTRATION N
0
TEXT
8
PART_ATTR
10
0
20
56088.8004199475
40
70
1
READONLY Y
0
TEXT
8
PART_ATTR
10
0
20
55968.8004199475
40
70
1
SYSTEM Y
0
TEXT
8
PART_ATTR
10
0
20
55848.8004199475
40
70
1
HIDDEN Y
0
TEXT
8
PART_ATTR
10
0
20
55728.8004199475
40
70
1
ATTRIBUTE Strategy.Route.Intensity
0
TEXT
8
PART_ATTR
10
0
20
55608.8004199475
40
70
1
TYPE LIST N
0
TEXT
8
PART_ATTR
10
0
20
55488.8004199475
40
70
1
LIST Low
0
TEXT
8
PART_ATTR
10
0
20
55368.8004199475
40
70
1
LIST Medium
0
TEXT
8
PART_ATTR
10
0
20
55248.8004199475
40
70
1
LIST High
0
TEXT
8
PART_ATTR
10
0
20
55128.8004199475
40
70
1
INHERITANCE  PCB
0
TEXT
8
PART_ATTR
10
0
20
55008.8004199475
40
70
1
ECO_REGISTRATION N
0
TEXT
8
PART_ATTR
10
0
20
54888.8004199475
40
70
1
READONLY Y
0
TEXT
8
PART_ATTR
10
0
20
54768.8004199475
40
70
1
SYSTEM Y
0
TEXT
8
PART_ATTR
10
0
20
54648.8004199475
40
70
1
HIDDEN Y
0
TEXT
8
PART_ATTR
10
0
20
54528.8004199475
40
70
1
ATTRIBUTE Strategy.Route.Priority
0
TEXT
8
PART_ATTR
10
0
20
54408.8004199475
40
70
1
TYPE INTEGER
0
TEXT
8
PART_ATTR
10
0
20
54288.8004199475
40
70
1
MIN 0
0
TEXT
8
PART_ATTR
10
0
20
54168.8004199475
40
70
1
MAX 2147483647
0
TEXT
8
PART_ATTR
10
0
20
54048.8004199475
40
70
1
INHERITANCE  NET NETCLASS PCB
0
TEXT
8
PART_ATTR
10
0
20
53928.8004199475
40
70
1
INHERITANCE  PART
0
TEXT
8
PART_ATTR
10
0
20
53808.8004199475
40
70
1
INHERITANCE  PINPAIR
0
TEXT
8
PART_ATTR
10
0
20
53688.8004199475
40
70
1
ECO_REGISTRATION N
0
TEXT
8
PART_ATTR
10
0
20
53568.8004199475
40
70
1
READONLY Y
0
TEXT
8
PART_ATTR
10
0
20
53448.8004199475
40
70
1
SYSTEM Y
0
TEXT
8
PART_ATTR
10
0
20
53328.8004199475
40
70
1
HIDDEN Y
0
TEXT
8
PART_ATTR
10
0
20
53208.8004199475
40
70
1
ATTRIBUTE Strategy.Route.PlanePriority
0
TEXT
8
PART_ATTR
10
0
20
53088.8004199475
40
70
1
TYPE INTEGER
0
TEXT
8
PART_ATTR
10
0
20
52968.8004199475
40
70
1
MIN 0
0
TEXT
8
PART_ATTR
10
0
20
52848.8004199475
40
70
1
MAX 2147483647
0
TEXT
8
PART_ATTR
10
0
20
52728.8004199475
40
70
1
INHERITANCE  PCB
0
TEXT
8
PART_ATTR
10
0
20
52608.8004199475
40
70
1
ECO_REGISTRATION N
0
TEXT
8
PART_ATTR
10
0
20
52488.8004199475
40
70
1
READONLY Y
0
TEXT
8
PART_ATTR
10
0
20
52368.8004199475
40
70
1
SYSTEM Y
0
TEXT
8
PART_ATTR
10
0
20
52248.8004199475
40
70
1
HIDDEN Y
0
TEXT
8
PART_ATTR
10
0
20
52128.8004199475
40
70
1
ATTRIBUTE Strategy.Route.DiffPairPriority
0
TEXT
8
PART_ATTR
10
0
20
52008.8004199475
40
70
1
TYPE INTEGER
0
TEXT
8
PART_ATTR
10
0
20
51888.8004199475
40
70
1
MIN 0
0
TEXT
8
PART_ATTR
10
0
20
51768.8004199475
40
70
1
MAX 2147483647
0
TEXT
8
PART_ATTR
10
0
20
51648.8004199475
40
70
1
INHERITANCE  NET
0
TEXT
8
PART_ATTR
10
0
20
51528.8004199475
40
70
1
INHERITANCE  PINPAIR
0
TEXT
8
PART_ATTR
10
0
20
51408.8004199475
40
70
1
ECO_REGISTRATION N
0
TEXT
8
PART_ATTR
10
0
20
51288.8004199475
40
70
1
READONLY Y
0
TEXT
8
PART_ATTR
10
0
20
51168.8004199475
40
70
1
SYSTEM Y
0
TEXT
8
PART_ATTR
10
0
20
51048.8004199475
40
70
1
HIDDEN Y
0
TEXT
8
PART_ATTR
10
0
20
50928.8004199475
40
70
1
ATTRIBUTE Strategy.Route.MLGPriority
0
TEXT
8
PART_ATTR
10
0
20
50808.8004199475
40
70
1
TYPE INTEGER
0
TEXT
8
PART_ATTR
10
0
20
50688.8004199475
40
70
1
MIN 0
0
TEXT
8
PART_ATTR
10
0
20
50568.8004199475
40
70
1
MAX 2147483647
0
TEXT
8
PART_ATTR
10
0
20
50448.8004199475
40
70
1
INHERITANCE  NET NETCLASS PCB
0
TEXT
8
PART_ATTR
10
0
20
50328.8004199475
40
70
1
INHERITANCE  PINPAIR GROUP
0
TEXT
8
PART_ATTR
10
0
20
50208.8004199475
40
70
1
ECO_REGISTRATION N
0
TEXT
8
PART_ATTR
10
0
20
50088.8004199475
40
70
1
READONLY Y
0
TEXT
8
PART_ATTR
10
0
20
49968.8004199475
40
70
1
SYSTEM Y
0
TEXT
8
PART_ATTR
10
0
20
49848.8004199475
40
70
1
HIDDEN Y
0
TEXT
8
PART_ATTR
10
0
20
49728.8004199475
40
70
1
ATTRIBUTE Strategy.Optimize.Pass
0
TEXT
8
PART_ATTR
10
0
20
49608.8004199475
40
70
1
TYPE LIST N
0
TEXT
8
PART_ATTR
10
0
20
49488.8004199475
40
70
1
LIST No
0
TEXT
8
PART_ATTR
10
0
20
49368.8004199475
40
70
1
LIST Yes
0
TEXT
8
PART_ATTR
10
0
20
49248.8004199475
40
70
1
LIST Done
0
TEXT
8
PART_ATTR
10
0
20
49128.8004199475
40
70
1
INHERITANCE  PCB
0
TEXT
8
PART_ATTR
10
0
20
49008.8004199475
40
70
1
ECO_REGISTRATION N
0
TEXT
8
PART_ATTR
10
0
20
48888.8004199475
40
70
1
READONLY Y
0
TEXT
8
PART_ATTR
10
0
20
48768.8004199475
40
70
1
SYSTEM Y
0
TEXT
8
PART_ATTR
10
0
20
48648.8004199475
40
70
1
HIDDEN Y
0
TEXT
8
PART_ATTR
10
0
20
48528.8004199475
40
70
1
ATTRIBUTE Strategy.Optimize.Protect
0
TEXT
8
PART_ATTR
10
0
20
48408.8004199475
40
70
1
TYPE BOOLEAN
0
TEXT
8
PART_ATTR
10
0
20
48288.8004199475
40
70
1
INHERITANCE  PCB
0
TEXT
8
PART_ATTR
10
0
20
48168.8004199475
40
70
1
ECO_REGISTRATION N
0
TEXT
8
PART_ATTR
10
0
20
48048.8004199475
40
70
1
READONLY Y
0
TEXT
8
PART_ATTR
10
0
20
47928.8004199475
40
70
1
SYSTEM Y
0
TEXT
8
PART_ATTR
10
0
20
47808.8004199475
40
70
1
HIDDEN Y
0
TEXT
8
PART_ATTR
10
0
20
47688.8004199475
40
70
1
ATTRIBUTE Strategy.Optimize.Pause
0
TEXT
8
PART_ATTR
10
0
20
47568.8004199475
40
70
1
TYPE BOOLEAN
0
TEXT
8
PART_ATTR
10
0
20
47448.8004199475
40
70
1
INHERITANCE  PCB
0
TEXT
8
PART_ATTR
10
0
20
47328.8004199475
40
70
1
ECO_REGISTRATION N
0
TEXT
8
PART_ATTR
10
0
20
47208.8004199475
40
70
1
READONLY Y
0
TEXT
8
PART_ATTR
10
0
20
47088.8004199475
40
70
1
SYSTEM Y
0
TEXT
8
PART_ATTR
10
0
20
46968.8004199475
40
70
1
HIDDEN Y
0
TEXT
8
PART_ATTR
10
0
20
46848.8004199475
40
70
1
ATTRIBUTE Strategy.Optimize.Intensity
0
TEXT
8
PART_ATTR
10
0
20
46728.8004199475
40
70
1
TYPE LIST N
0
TEXT
8
PART_ATTR
10
0
20
46608.8004199475
40
70
1
LIST Low
0
TEXT
8
PART_ATTR
10
0
20
46488.8004199475
40
70
1
LIST Medium
0
TEXT
8
PART_ATTR
10
0
20
46368.8004199475
40
70
1
LIST High
0
TEXT
8
PART_ATTR
10
0
20
46248.8004199475
40
70
1
INHERITANCE  PCB
0
TEXT
8
PART_ATTR
10
0
20
46128.8004199475
40
70
1
ECO_REGISTRATION N
0
TEXT
8
PART_ATTR
10
0
20
46008.8004199475
40
70
1
READONLY Y
0
TEXT
8
PART_ATTR
10
0
20
45888.8004199475
40
70
1
SYSTEM Y
0
TEXT
8
PART_ATTR
10
0
20
45768.8004199475
40
70
1
HIDDEN Y
0
TEXT
8
PART_ATTR
10
0
20
45648.8004199475
40
70
1
ATTRIBUTE Strategy.Optimize.Priority
0
TEXT
8
PART_ATTR
10
0
20
45528.8004199475
40
70
1
TYPE INTEGER
0
TEXT
8
PART_ATTR
10
0
20
45408.8004199475
40
70
1
MIN 0
0
TEXT
8
PART_ATTR
10
0
20
45288.8004199475
40
70
1
MAX 2147483647
0
TEXT
8
PART_ATTR
10
0
20
45168.8004199475
40
70
1
INHERITANCE  NET NETCLASS PCB
0
TEXT
8
PART_ATTR
10
0
20
45048.8004199475
40
70
1
INHERITANCE  PART
0
TEXT
8
PART_ATTR
10
0
20
44928.8004199475
40
70
1
INHERITANCE  PINPAIR
0
TEXT
8
PART_ATTR
10
0
20
44808.8004199475
40
70
1
ECO_REGISTRATION N
0
TEXT
8
PART_ATTR
10
0
20
44688.8004199475
40
70
1
READONLY Y
0
TEXT
8
PART_ATTR
10
0
20
44568.8004199475
40
70
1
SYSTEM Y
0
TEXT
8
PART_ATTR
10
0
20
44448.8004199475
40
70
1
HIDDEN Y
0
TEXT
8
PART_ATTR
10
0
20
44328.8004199475
40
70
1
ATTRIBUTE Strategy.Optimize.PlanePriority
0
TEXT
8
PART_ATTR
10
0
20
44208.8004199475
40
70
1
TYPE INTEGER
0
TEXT
8
PART_ATTR
10
0
20
44088.8004199475
40
70
1
MIN 0
0
TEXT
8
PART_ATTR
10
0
20
43968.8004199475
40
70
1
MAX 2147483647
0
TEXT
8
PART_ATTR
10
0
20
43848.8004199475
40
70
1
INHERITANCE  PCB
0
TEXT
8
PART_ATTR
10
0
20
43728.8004199475
40
70
1
ECO_REGISTRATION N
0
TEXT
8
PART_ATTR
10
0
20
43608.8004199475
40
70
1
READONLY Y
0
TEXT
8
PART_ATTR
10
0
20
43488.8004199475
40
70
1
SYSTEM Y
0
TEXT
8
PART_ATTR
10
0
20
43368.8004199475
40
70
1
HIDDEN Y
0
TEXT
8
PART_ATTR
10
0
20
43248.8004199475
40
70
1
ATTRIBUTE Strategy.Optimize.DiffPairPriority
0
TEXT
8
PART_ATTR
10
0
20
43128.8004199475
40
70
1
TYPE INTEGER
0
TEXT
8
PART_ATTR
10
0
20
43008.8004199475
40
70
1
MIN 0
0
TEXT
8
PART_ATTR
10
0
20
42888.8004199475
40
70
1
MAX 2147483647
0
TEXT
8
PART_ATTR
10
0
20
42768.8004199475
40
70
1
INHERITANCE  NET
0
TEXT
8
PART_ATTR
10
0
20
42648.8004199475
40
70
1
INHERITANCE  PINPAIR
0
TEXT
8
PART_ATTR
10
0
20
42528.8004199475
40
70
1
ECO_REGISTRATION N
0
TEXT
8
PART_ATTR
10
0
20
42408.8004199475
40
70
1
READONLY Y
0
TEXT
8
PART_ATTR
10
0
20
42288.8004199475
40
70
1
SYSTEM Y
0
TEXT
8
PART_ATTR
10
0
20
42168.8004199475
40
70
1
HIDDEN Y
0
TEXT
8
PART_ATTR
10
0
20
42048.8004199475
40
70
1
ATTRIBUTE Strategy.Optimize.MLGPriority
0
TEXT
8
PART_ATTR
10
0
20
41928.8004199475
40
70
1
TYPE INTEGER
0
TEXT
8
PART_ATTR
10
0
20
41808.8004199475
40
70
1
MIN 0
0
TEXT
8
PART_ATTR
10
0
20
41688.8004199475
40
70
1
MAX 2147483647
0
TEXT
8
PART_ATTR
10
0
20
41568.8004199475
40
70
1
INHERITANCE  NET NETCLASS PCB
0
TEXT
8
PART_ATTR
10
0
20
41448.8004199475
40
70
1
INHERITANCE  PINPAIR GROUP
0
TEXT
8
PART_ATTR
10
0
20
41328.8004199475
40
70
1
ECO_REGISTRATION N
0
TEXT
8
PART_ATTR
10
0
20
41208.8004199475
40
70
1
READONLY Y
0
TEXT
8
PART_ATTR
10
0
20
41088.8004199475
40
70
1
SYSTEM Y
0
TEXT
8
PART_ATTR
10
0
20
40968.8004199475
40
70
1
HIDDEN Y
0
TEXT
8
PART_ATTR
10
0
20
40848.8004199475
40
70
1
ATTRIBUTE Strategy.Miters.Pass
0
TEXT
8
PART_ATTR
10
0
20
40728.8004199475
40
70
1
TYPE LIST N
0
TEXT
8
PART_ATTR
10
0
20
40608.8004199475
40
70
1
LIST No
0
TEXT
8
PART_ATTR
10
0
20
40488.8004199475
40
70
1
LIST Yes
0
TEXT
8
PART_ATTR
10
0
20
40368.8004199475
40
70
1
LIST Done
0
TEXT
8
PART_ATTR
10
0
20
40248.8004199475
40
70
1
INHERITANCE  PCB
0
TEXT
8
PART_ATTR
10
0
20
40128.8004199475
40
70
1
ECO_REGISTRATION N
0
TEXT
8
PART_ATTR
10
0
20
40008.8004199475
40
70
1
READONLY Y
0
TEXT
8
PART_ATTR
10
0
20
39888.8004199475
40
70
1
SYSTEM Y
0
TEXT
8
PART_ATTR
10
0
20
39768.8004199475
40
70
1
HIDDEN Y
0
TEXT
8
PART_ATTR
10
0
20
39648.8004199475
40
70
1
ATTRIBUTE Strategy.Miters.Protect
0
TEXT
8
PART_ATTR
10
0
20
39528.8004199475
40
70
1
TYPE BOOLEAN
0
TEXT
8
PART_ATTR
10
0
20
39408.8004199475
40
70
1
INHERITANCE  PCB
0
TEXT
8
PART_ATTR
10
0
20
39288.8004199475
40
70
1
ECO_REGISTRATION N
0
TEXT
8
PART_ATTR
10
0
20
39168.8004199475
40
70
1
READONLY Y
0
TEXT
8
PART_ATTR
10
0
20
39048.8004199475
40
70
1
SYSTEM Y
0
TEXT
8
PART_ATTR
10
0
20
38928.8004199475
40
70
1
HIDDEN Y
0
TEXT
8
PART_ATTR
10
0
20
38808.8004199475
40
70
1
ATTRIBUTE Strategy.Miters.Pause
0
TEXT
8
PART_ATTR
10
0
20
38688.8004199475
40
70
1
TYPE BOOLEAN
0
TEXT
8
PART_ATTR
10
0
20
38568.8004199475
40
70
1
INHERITANCE  PCB
0
TEXT
8
PART_ATTR
10
0
20
38448.8004199475
40
70
1
ECO_REGISTRATION N
0
TEXT
8
PART_ATTR
10
0
20
38328.8004199475
40
70
1
READONLY Y
0
TEXT
8
PART_ATTR
10
0
20
38208.8004199475
40
70
1
SYSTEM Y
0
TEXT
8
PART_ATTR
10
0
20
38088.8004199475
40
70
1
HIDDEN Y
0
TEXT
8
PART_ATTR
10
0
20
37968.8004199475
40
70
1
ATTRIBUTE Strategy.Miters.Intensity
0
TEXT
8
PART_ATTR
10
0
20
37848.8004199475
40
70
1
TYPE LIST N
0
TEXT
8
PART_ATTR
10
0
20
37728.8004199475
40
70
1
LIST Low
0
TEXT
8
PART_ATTR
10
0
20
37608.8004199475
40
70
1
LIST Medium
0
TEXT
8
PART_ATTR
10
0
20
37488.8004199475
40
70
1
LIST High
0
TEXT
8
PART_ATTR
10
0
20
37368.8004199475
40
70
1
INHERITANCE  PCB
0
TEXT
8
PART_ATTR
10
0
20
37248.8004199475
40
70
1
ECO_REGISTRATION N
0
TEXT
8
PART_ATTR
10
0
20
37128.8004199475
40
70
1
READONLY Y
0
TEXT
8
PART_ATTR
10
0
20
37008.8004199475
40
70
1
SYSTEM Y
0
TEXT
8
PART_ATTR
10
0
20
36888.8004199475
40
70
1
HIDDEN Y
0
TEXT
8
PART_ATTR
10
0
20
36768.8004199475
40
70
1
ATTRIBUTE Strategy.Miters.Priority
0
TEXT
8
PART_ATTR
10
0
20
36648.8004199475
40
70
1
TYPE INTEGER
0
TEXT
8
PART_ATTR
10
0
20
36528.8004199475
40
70
1
MIN 0
0
TEXT
8
PART_ATTR
10
0
20
36408.8004199475
40
70
1
MAX 2147483647
0
TEXT
8
PART_ATTR
10
0
20
36288.8004199475
40
70
1
INHERITANCE  NET NETCLASS PCB
0
TEXT
8
PART_ATTR
10
0
20
36168.8004199475
40
70
1
INHERITANCE  PART
0
TEXT
8
PART_ATTR
10
0
20
36048.8004199475
40
70
1
INHERITANCE  PINPAIR
0
TEXT
8
PART_ATTR
10
0
20
35928.8004199475
40
70
1
ECO_REGISTRATION N
0
TEXT
8
PART_ATTR
10
0
20
35808.8004199475
40
70
1
READONLY Y
0
TEXT
8
PART_ATTR
10
0
20
35688.8004199475
40
70
1
SYSTEM Y
0
TEXT
8
PART_ATTR
10
0
20
35568.8004199475
40
70
1
HIDDEN Y
0
TEXT
8
PART_ATTR
10
0
20
35448.8004199475
40
70
1
ATTRIBUTE Strategy.Miters.PlanePriority
0
TEXT
8
PART_ATTR
10
0
20
35328.8004199475
40
70
1
TYPE INTEGER
0
TEXT
8
PART_ATTR
10
0
20
35208.8004199475
40
70
1
MIN 0
0
TEXT
8
PART_ATTR
10
0
20
35088.8004199475
40
70
1
MAX 2147483647
0
TEXT
8
PART_ATTR
10
0
20
34968.8004199475
40
70
1
INHERITANCE  PCB
0
TEXT
8
PART_ATTR
10
0
20
34848.8004199475
40
70
1
ECO_REGISTRATION N
0
TEXT
8
PART_ATTR
10
0
20
34728.8004199475
40
70
1
READONLY Y
0
TEXT
8
PART_ATTR
10
0
20
34608.8004199475
40
70
1
SYSTEM Y
0
TEXT
8
PART_ATTR
10
0
20
34488.8004199475
40
70
1
HIDDEN Y
0
TEXT
8
PART_ATTR
10
0
20
34368.8004199475
40
70
1
ATTRIBUTE Strategy.Miters.DiffPairPriority
0
TEXT
8
PART_ATTR
10
0
20
34248.8004199475
40
70
1
TYPE INTEGER
0
TEXT
8
PART_ATTR
10
0
20
34128.8004199475
40
70
1
MIN 0
0
TEXT
8
PART_ATTR
10
0
20
34008.8004199475
40
70
1
MAX 2147483647
0
TEXT
8
PART_ATTR
10
0
20
33888.8004199475
40
70
1
INHERITANCE  NET
0
TEXT
8
PART_ATTR
10
0
20
33768.8004199475
40
70
1
INHERITANCE  PINPAIR
0
TEXT
8
PART_ATTR
10
0
20
33648.8004199475
40
70
1
ECO_REGISTRATION N
0
TEXT
8
PART_ATTR
10
0
20
33528.8004199475
40
70
1
READONLY Y
0
TEXT
8
PART_ATTR
10
0
20
33408.8004199475
40
70
1
SYSTEM Y
0
TEXT
8
PART_ATTR
10
0
20
33288.8004199475
40
70
1
HIDDEN Y
0
TEXT
8
PART_ATTR
10
0
20
33168.8004199475
40
70
1
ATTRIBUTE Strategy.Miters.MLGPriority
0
TEXT
8
PART_ATTR
10
0
20
33048.8004199475
40
70
1
TYPE INTEGER
0
TEXT
8
PART_ATTR
10
0
20
32928.8004199475
40
70
1
MIN 0
0
TEXT
8
PART_ATTR
10
0
20
32808.8004199475
40
70
1
MAX 2147483647
0
TEXT
8
PART_ATTR
10
0
20
32688.8004199475
40
70
1
INHERITANCE  NET NETCLASS PCB
0
TEXT
8
PART_ATTR
10
0
20
32568.8004199475
40
70
1
INHERITANCE  PINPAIR GROUP
0
TEXT
8
PART_ATTR
10
0
20
32448.8004199475
40
70
1
ECO_REGISTRATION N
0
TEXT
8
PART_ATTR
10
0
20
32328.8004199475
40
70
1
READONLY Y
0
TEXT
8
PART_ATTR
10
0
20
32208.8004199475
40
70
1
SYSTEM Y
0
TEXT
8
PART_ATTR
10
0
20
32088.8004199475
40
70
1
HIDDEN Y
0
TEXT
8
PART_ATTR
10
0
20
31968.8004199475
40
70
1
ATTRIBUTE Strategy.TestPoint.Pass
0
TEXT
8
PART_ATTR
10
0
20
31848.8004199475
40
70
1
TYPE LIST N
0
TEXT
8
PART_ATTR
10
0
20
31728.8004199475
40
70
1
LIST No
0
TEXT
8
PART_ATTR
10
0
20
31608.8004199475
40
70
1
LIST Yes
0
TEXT
8
PART_ATTR
10
0
20
31488.8004199475
40
70
1
LIST Done
0
TEXT
8
PART_ATTR
10
0
20
31368.8004199475
40
70
1
INHERITANCE  PCB
0
TEXT
8
PART_ATTR
10
0
20
31248.8004199475
40
70
1
ECO_REGISTRATION N
0
TEXT
8
PART_ATTR
10
0
20
31128.8004199475
40
70
1
READONLY Y
0
TEXT
8
PART_ATTR
10
0
20
31008.8004199475
40
70
1
SYSTEM Y
0
TEXT
8
PART_ATTR
10
0
20
30888.8004199475
40
70
1
HIDDEN Y
0
TEXT
8
PART_ATTR
10
0
20
30768.8004199475
40
70
1
ATTRIBUTE Strategy.TestPoint.Protect
0
TEXT
8
PART_ATTR
10
0
20
30648.8004199475
40
70
1
TYPE BOOLEAN
0
TEXT
8
PART_ATTR
10
0
20
30528.8004199475
40
70
1
INHERITANCE  PCB
0
TEXT
8
PART_ATTR
10
0
20
30408.8004199475
40
70
1
ECO_REGISTRATION N
0
TEXT
8
PART_ATTR
10
0
20
30288.8004199475
40
70
1
READONLY Y
0
TEXT
8
PART_ATTR
10
0
20
30168.8004199475
40
70
1
SYSTEM Y
0
TEXT
8
PART_ATTR
10
0
20
30048.8004199475
40
70
1
HIDDEN Y
0
TEXT
8
PART_ATTR
10
0
20
29928.8004199475
40
70
1
ATTRIBUTE Strategy.TestPoint.Pause
0
TEXT
8
PART_ATTR
10
0
20
29808.8004199475
40
70
1
TYPE BOOLEAN
0
TEXT
8
PART_ATTR
10
0
20
29688.8004199475
40
70
1
INHERITANCE  PCB
0
TEXT
8
PART_ATTR
10
0
20
29568.8004199475
40
70
1
ECO_REGISTRATION N
0
TEXT
8
PART_ATTR
10
0
20
29448.8004199475
40
70
1
READONLY Y
0
TEXT
8
PART_ATTR
10
0
20
29328.8004199475
40
70
1
SYSTEM Y
0
TEXT
8
PART_ATTR
10
0
20
29208.8004199475
40
70
1
HIDDEN Y
0
TEXT
8
PART_ATTR
10
0
20
29088.8004199475
40
70
1
ATTRIBUTE Strategy.TestPoint.Intensity
0
TEXT
8
PART_ATTR
10
0
20
28968.8004199475
40
70
1
TYPE LIST N
0
TEXT
8
PART_ATTR
10
0
20
28848.8004199475
40
70
1
LIST Low
0
TEXT
8
PART_ATTR
10
0
20
28728.8004199475
40
70
1
LIST Medium
0
TEXT
8
PART_ATTR
10
0
20
28608.8004199475
40
70
1
LIST High
0
TEXT
8
PART_ATTR
10
0
20
28488.8004199475
40
70
1
INHERITANCE  PCB
0
TEXT
8
PART_ATTR
10
0
20
28368.8004199475
40
70
1
ECO_REGISTRATION N
0
TEXT
8
PART_ATTR
10
0
20
28248.8004199475
40
70
1
READONLY Y
0
TEXT
8
PART_ATTR
10
0
20
28128.8004199475
40
70
1
SYSTEM Y
0
TEXT
8
PART_ATTR
10
0
20
28008.8004199475
40
70
1
HIDDEN Y
0
TEXT
8
PART_ATTR
10
0
20
27888.8004199475
40
70
1
ATTRIBUTE Strategy.TestPoint.Priority
0
TEXT
8
PART_ATTR
10
0
20
27768.8004199475
40
70
1
TYPE INTEGER
0
TEXT
8
PART_ATTR
10
0
20
27648.8004199475
40
70
1
MIN 0
0
TEXT
8
PART_ATTR
10
0
20
27528.8004199475
40
70
1
MAX 2147483647
0
TEXT
8
PART_ATTR
10
0
20
27408.8004199475
40
70
1
INHERITANCE  NET NETCLASS PCB
0
TEXT
8
PART_ATTR
10
0
20
27288.8004199475
40
70
1
INHERITANCE  PART
0
TEXT
8
PART_ATTR
10
0
20
27168.8004199475
40
70
1
INHERITANCE  PINPAIR
0
TEXT
8
PART_ATTR
10
0
20
27048.8004199475
40
70
1
ECO_REGISTRATION N
0
TEXT
8
PART_ATTR
10
0
20
26928.8004199475
40
70
1
READONLY Y
0
TEXT
8
PART_ATTR
10
0
20
26808.8004199475
40
70
1
SYSTEM Y
0
TEXT
8
PART_ATTR
10
0
20
26688.8004199475
40
70
1
HIDDEN Y
0
TEXT
8
PART_ATTR
10
0
20
26568.8004199475
40
70
1
ATTRIBUTE Strategy.TestPoint.PlanePriority
0
TEXT
8
PART_ATTR
10
0
20
26448.8004199475
40
70
1
TYPE INTEGER
0
TEXT
8
PART_ATTR
10
0
20
26328.8004199475
40
70
1
MIN 0
0
TEXT
8
PART_ATTR
10
0
20
26208.8004199475
40
70
1
MAX 2147483647
0
TEXT
8
PART_ATTR
10
0
20
26088.8004199475
40
70
1
INHERITANCE  PCB
0
TEXT
8
PART_ATTR
10
0
20
25968.8004199475
40
70
1
ECO_REGISTRATION N
0
TEXT
8
PART_ATTR
10
0
20
25848.8004199475
40
70
1
READONLY Y
0
TEXT
8
PART_ATTR
10
0
20
25728.8004199475
40
70
1
SYSTEM Y
0
TEXT
8
PART_ATTR
10
0
20
25608.8004199475
40
70
1
HIDDEN Y
0
TEXT
8
PART_ATTR
10
0
20
25488.8004199475
40
70
1
ATTRIBUTE Strategy.TestPoint.DiffPairPriority
0
TEXT
8
PART_ATTR
10
0
20
25368.8004199475
40
70
1
TYPE INTEGER
0
TEXT
8
PART_ATTR
10
0
20
25248.8004199475
40
70
1
MIN 0
0
TEXT
8
PART_ATTR
10
0
20
25128.8004199475
40
70
1
MAX 2147483647
0
TEXT
8
PART_ATTR
10
0
20
25008.8004199475
40
70
1
INHERITANCE  NET
0
TEXT
8
PART_ATTR
10
0
20
24888.8004199475
40
70
1
INHERITANCE  PINPAIR
0
TEXT
8
PART_ATTR
10
0
20
24768.8004199475
40
70
1
ECO_REGISTRATION N
0
TEXT
8
PART_ATTR
10
0
20
24648.8004199475
40
70
1
READONLY Y
0
TEXT
8
PART_ATTR
10
0
20
24528.8004199475
40
70
1
SYSTEM Y
0
TEXT
8
PART_ATTR
10
0
20
24408.8004199475
40
70
1
HIDDEN Y
0
TEXT
8
PART_ATTR
10
0
20
24288.8004199475
40
70
1
ATTRIBUTE Strategy.TestPoint.MLGPriority
0
TEXT
8
PART_ATTR
10
0
20
24168.8004199475
40
70
1
TYPE INTEGER
0
TEXT
8
PART_ATTR
10
0
20
24048.8004199475
40
70
1
MIN 0
0
TEXT
8
PART_ATTR
10
0
20
23928.8004199475
40
70
1
MAX 2147483647
0
TEXT
8
PART_ATTR
10
0
20
23808.8004199475
40
70
1
INHERITANCE  NET NETCLASS PCB
0
TEXT
8
PART_ATTR
10
0
20
23688.8004199475
40
70
1
INHERITANCE  PINPAIR GROUP
0
TEXT
8
PART_ATTR
10
0
20
23568.8004199475
40
70
1
ECO_REGISTRATION N
0
TEXT
8
PART_ATTR
10
0
20
23448.8004199475
40
70
1
READONLY Y
0
TEXT
8
PART_ATTR
10
0
20
23328.8004199475
40
70
1
SYSTEM Y
0
TEXT
8
PART_ATTR
10
0
20
23208.8004199475
40
70
1
HIDDEN Y
0
TEXT
8
PART_ATTR
10
0
20
23088.8004199475
40
70
1
ATTRIBUTE Strategy.Center.Pass
0
TEXT
8
PART_ATTR
10
0
20
22968.8004199475
40
70
1
TYPE LIST N
0
TEXT
8
PART_ATTR
10
0
20
22848.8004199475
40
70
1
LIST No
0
TEXT
8
PART_ATTR
10
0
20
22728.8004199475
40
70
1
LIST Yes
0
TEXT
8
PART_ATTR
10
0
20
22608.8004199475
40
70
1
LIST Done
0
TEXT
8
PART_ATTR
10
0
20
22488.8004199475
40
70
1
INHERITANCE  PCB
0
TEXT
8
PART_ATTR
10
0
20
22368.8004199475
40
70
1
ECO_REGISTRATION N
0
TEXT
8
PART_ATTR
10
0
20
22248.8004199475
40
70
1
READONLY Y
0
TEXT
8
PART_ATTR
10
0
20
22128.8004199475
40
70
1
SYSTEM Y
0
TEXT
8
PART_ATTR
10
0
20
22008.8004199475
40
70
1
HIDDEN Y
0
TEXT
8
PART_ATTR
10
0
20
21888.8004199475
40
70
1
ATTRIBUTE Strategy.Center.Protect
0
TEXT
8
PART_ATTR
10
0
20
21768.8004199475
40
70
1
TYPE BOOLEAN
0
TEXT
8
PART_ATTR
10
0
20
21648.8004199475
40
70
1
INHERITANCE  PCB
0
TEXT
8
PART_ATTR
10
0
20
21528.8004199475
40
70
1
ECO_REGISTRATION N
0
TEXT
8
PART_ATTR
10
0
20
21408.8004199475
40
70
1
READONLY Y
0
TEXT
8
PART_ATTR
10
0
20
21288.8004199475
40
70
1
SYSTEM Y
0
TEXT
8
PART_ATTR
10
0
20
21168.8004199475
40
70
1
HIDDEN Y
0
TEXT
8
PART_ATTR
10
0
20
21048.8004199475
40
70
1
ATTRIBUTE Strategy.Center.Pause
0
TEXT
8
PART_ATTR
10
0
20
20928.8004199475
40
70
1
TYPE BOOLEAN
0
TEXT
8
PART_ATTR
10
0
20
20808.8004199475
40
70
1
INHERITANCE  PCB
0
TEXT
8
PART_ATTR
10
0
20
20688.8004199475
40
70
1
ECO_REGISTRATION N
0
TEXT
8
PART_ATTR
10
0
20
20568.8004199475
40
70
1
READONLY Y
0
TEXT
8
PART_ATTR
10
0
20
20448.8004199475
40
70
1
SYSTEM Y
0
TEXT
8
PART_ATTR
10
0
20
20328.8004199475
40
70
1
HIDDEN Y
0
TEXT
8
PART_ATTR
10
0
20
20208.8004199475
40
70
1
ATTRIBUTE Strategy.Center.Intensity
0
TEXT
8
PART_ATTR
10
0
20
20088.8004199475
40
70
1
TYPE LIST N
0
TEXT
8
PART_ATTR
10
0
20
19968.8004199475
40
70
1
LIST Low
0
TEXT
8
PART_ATTR
10
0
20
19848.8004199475
40
70
1
LIST Medium
0
TEXT
8
PART_ATTR
10
0
20
19728.8004199475
40
70
1
LIST High
0
TEXT
8
PART_ATTR
10
0
20
19608.8004199475
40
70
1
INHERITANCE  PCB
0
TEXT
8
PART_ATTR
10
0
20
19488.8004199475
40
70
1
ECO_REGISTRATION N
0
TEXT
8
PART_ATTR
10
0
20
19368.8004199475
40
70
1
READONLY Y
0
TEXT
8
PART_ATTR
10
0
20
19248.8004199475
40
70
1
SYSTEM Y
0
TEXT
8
PART_ATTR
10
0
20
19128.8004199475
40
70
1
HIDDEN Y
0
TEXT
8
PART_ATTR
10
0
20
19008.8004199475
40
70
1
ATTRIBUTE Strategy.Center.PlanePriority
0
TEXT
8
PART_ATTR
10
0
20
18888.8004199475
40
70
1
TYPE INTEGER
0
TEXT
8
PART_ATTR
10
0
20
18768.8004199475
40
70
1
MIN 0
0
TEXT
8
PART_ATTR
10
0
20
18648.8004199475
40
70
1
MAX 2147483647
0
TEXT
8
PART_ATTR
10
0
20
18528.8004199475
40
70
1
INHERITANCE  PCB
0
TEXT
8
PART_ATTR
10
0
20
18408.8004199475
40
70
1
ECO_REGISTRATION N
0
TEXT
8
PART_ATTR
10
0
20
18288.8004199475
40
70
1
READONLY Y
0
TEXT
8
PART_ATTR
10
0
20
18168.8004199475
40
70
1
SYSTEM Y
0
TEXT
8
PART_ATTR
10
0
20
18048.8004199475
40
70
1
HIDDEN Y
0
TEXT
8
PART_ATTR
10
0
20
17928.8004199475
40
70
1
ATTRIBUTE Strategy.Center.Priority
0
TEXT
8
PART_ATTR
10
0
20
17808.8004199475
40
70
1
TYPE INTEGER
0
TEXT
8
PART_ATTR
10
0
20
17688.8004199475
40
70
1
MIN 0
0
TEXT
8
PART_ATTR
10
0
20
17568.8004199475
40
70
1
MAX 2147483647
0
TEXT
8
PART_ATTR
10
0
20
17448.8004199475
40
70
1
INHERITANCE  NET NETCLASS PCB
0
TEXT
8
PART_ATTR
10
0
20
17328.8004199475
40
70
1
INHERITANCE  PART
0
TEXT
8
PART_ATTR
10
0
20
17208.8004199475
40
70
1
INHERITANCE  PINPAIR
0
TEXT
8
PART_ATTR
10
0
20
17088.8004199475
40
70
1
ECO_REGISTRATION N
0
TEXT
8
PART_ATTR
10
0
20
16968.8004199475
40
70
1
READONLY Y
0
TEXT
8
PART_ATTR
10
0
20
16848.8004199475
40
70
1
SYSTEM Y
0
TEXT
8
PART_ATTR
10
0
20
16728.8004199475
40
70
1
HIDDEN Y
0
TEXT
8
PART_ATTR
10
0
20
16608.8004199475
40
70
1
ATTRIBUTE Strategy.Center.DiffPairPriority
0
TEXT
8
PART_ATTR
10
0
20
16488.8004199475
40
70
1
TYPE INTEGER
0
TEXT
8
PART_ATTR
10
0
20
16368.8004199475
40
70
1
MIN 0
0
TEXT
8
PART_ATTR
10
0
20
16248.8004199475
40
70
1
MAX 2147483647
0
TEXT
8
PART_ATTR
10
0
20
16128.8004199475
40
70
1
INHERITANCE  NET
0
TEXT
8
PART_ATTR
10
0
20
16008.8004199475
40
70
1
INHERITANCE  PINPAIR
0
TEXT
8
PART_ATTR
10
0
20
15888.8004199475
40
70
1
ECO_REGISTRATION N
0
TEXT
8
PART_ATTR
10
0
20
15768.8004199475
40
70
1
READONLY Y
0
TEXT
8
PART_ATTR
10
0
20
15648.8004199475
40
70
1
SYSTEM Y
0
TEXT
8
PART_ATTR
10
0
20
15528.8004199475
40
70
1
HIDDEN Y
0
TEXT
8
PART_ATTR
10
0
20
15408.8004199475
40
70
1
ATTRIBUTE Strategy.Center.MLGPriority
0
TEXT
8
PART_ATTR
10
0
20
15288.8004199475
40
70
1
TYPE INTEGER
0
TEXT
8
PART_ATTR
10
0
20
15168.8004199475
40
70
1
MIN 0
0
TEXT
8
PART_ATTR
10
0
20
15048.8004199475
40
70
1
MAX 2147483647
0
TEXT
8
PART_ATTR
10
0
20
14928.8004199475
40
70
1
INHERITANCE  NET NETCLASS PCB
0
TEXT
8
PART_ATTR
10
0
20
14808.8004199475
40
70
1
INHERITANCE  PINPAIR GROUP
0
TEXT
8
PART_ATTR
10
0
20
14688.8004199475
40
70
1
ECO_REGISTRATION N
0
TEXT
8
PART_ATTR
10
0
20
14568.8004199475
40
70
1
READONLY Y
0
TEXT
8
PART_ATTR
10
0
20
14448.8004199475
40
70
1
SYSTEM Y
0
TEXT
8
PART_ATTR
10
0
20
14328.8004199475
40
70
1
HIDDEN Y
0
TEXT
8
PART_ATTR
10
0
20
14208.8004199475
40
70
1
ATTRIBUTE Strategy.Tune.Pass
0
TEXT
8
PART_ATTR
10
0
20
14088.8004199475
40
70
1
TYPE LIST N
0
TEXT
8
PART_ATTR
10
0
20
13968.8004199475
40
70
1
LIST No
0
TEXT
8
PART_ATTR
10
0
20
13848.8004199475
40
70
1
LIST Yes
0
TEXT
8
PART_ATTR
10
0
20
13728.8004199475
40
70
1
LIST Done
0
TEXT
8
PART_ATTR
10
0
20
13608.8004199475
40
70
1
INHERITANCE  PCB
0
TEXT
8
PART_ATTR
10
0
20
13488.8004199475
40
70
1
ECO_REGISTRATION N
0
TEXT
8
PART_ATTR
10
0
20
13368.8004199475
40
70
1
READONLY Y
0
TEXT
8
PART_ATTR
10
0
20
13248.8004199475
40
70
1
SYSTEM Y
0
TEXT
8
PART_ATTR
10
0
20
13128.8004199475
40
70
1
HIDDEN Y
0
TEXT
8
PART_ATTR
10
0
20
13008.8004199475
40
70
1
ATTRIBUTE Strategy.Tune.Protect
0
TEXT
8
PART_ATTR
10
0
20
12888.8004199475
40
70
1
TYPE BOOLEAN
0
TEXT
8
PART_ATTR
10
0
20
12768.8004199475
40
70
1
INHERITANCE  PCB
0
TEXT
8
PART_ATTR
10
0
20
12648.8004199475
40
70
1
ECO_REGISTRATION N
0
TEXT
8
PART_ATTR
10
0
20
12528.8004199475
40
70
1
READONLY Y
0
TEXT
8
PART_ATTR
10
0
20
12408.8004199475
40
70
1
SYSTEM Y
0
TEXT
8
PART_ATTR
10
0
20
12288.8004199475
40
70
1
HIDDEN Y
0
TEXT
8
PART_ATTR
10
0
20
12168.8004199475
40
70
1
ATTRIBUTE Strategy.Tune.Pause
0
TEXT
8
PART_ATTR
10
0
20
12048.8004199475
40
70
1
TYPE BOOLEAN
0
TEXT
8
PART_ATTR
10
0
20
11928.8004199475
40
70
1
INHERITANCE  PCB
0
TEXT
8
PART_ATTR
10
0
20
11808.8004199475
40
70
1
ECO_REGISTRATION N
0
TEXT
8
PART_ATTR
10
0
20
11688.8004199475
40
70
1
READONLY Y
0
TEXT
8
PART_ATTR
10
0
20
11568.8004199475
40
70
1
SYSTEM Y
0
TEXT
8
PART_ATTR
10
0
20
11448.8004199475
40
70
1
HIDDEN Y
0
TEXT
8
PART_ATTR
10
0
20
11328.8004199475
40
70
1
ATTRIBUTE Strategy.Tune.Intensity
0
TEXT
8
PART_ATTR
10
0
20
11208.8004199475
40
70
1
TYPE LIST N
0
TEXT
8
PART_ATTR
10
0
20
11088.8004199475
40
70
1
LIST Low
0
TEXT
8
PART_ATTR
10
0
20
10968.8004199475
40
70
1
LIST Medium
0
TEXT
8
PART_ATTR
10
0
20
10848.8004199475
40
70
1
LIST High
0
TEXT
8
PART_ATTR
10
0
20
10728.8004199475
40
70
1
INHERITANCE  PCB
0
TEXT
8
PART_ATTR
10
0
20
10608.8004199475
40
70
1
ECO_REGISTRATION N
0
TEXT
8
PART_ATTR
10
0
20
10488.8004199475
40
70
1
READONLY Y
0
TEXT
8
PART_ATTR
10
0
20
10368.8004199475
40
70
1
SYSTEM Y
0
TEXT
8
PART_ATTR
10
0
20
10248.8004199475
40
70
1
HIDDEN Y
0
TEXT
8
PART_ATTR
10
0
20
10128.8004199475
40
70
1
ATTRIBUTE Strategy.Tune.PlanePriority
0
TEXT
8
PART_ATTR
10
0
20
10008.8004199475
40
70
1
TYPE INTEGER
0
TEXT
8
PART_ATTR
10
0
20
9888.8004199475
40
70
1
MIN 0
0
TEXT
8
PART_ATTR
10
0
20
9768.8004199475
40
70
1
MAX 2147483647
0
TEXT
8
PART_ATTR
10
0
20
9648.8004199475
40
70
1
INHERITANCE  PCB
0
TEXT
8
PART_ATTR
10
0
20
9528.8004199475
40
70
1
ECO_REGISTRATION N
0
TEXT
8
PART_ATTR
10
0
20
9408.8004199475
40
70
1
READONLY Y
0
TEXT
8
PART_ATTR
10
0
20
9288.8004199475
40
70
1
SYSTEM Y
0
TEXT
8
PART_ATTR
10
0
20
9168.8004199475
40
70
1
HIDDEN Y
0
TEXT
8
PART_ATTR
10
0
20
9048.8004199475
40
70
1
ATTRIBUTE Strategy.Tune.Priority
0
TEXT
8
PART_ATTR
10
0
20
8928.8004199475
40
70
1
TYPE INTEGER
0
TEXT
8
PART_ATTR
10
0
20
8808.8004199475
40
70
1
MIN 0
0
TEXT
8
PART_ATTR
10
0
20
8688.8004199475
40
70
1
MAX 2147483647
0
TEXT
8
PART_ATTR
10
0
20
8568.8004199475
40
70
1
INHERITANCE  NET NETCLASS PCB
0
TEXT
8
PART_ATTR
10
0
20
8448.8004199475
40
70
1
INHERITANCE  PART
0
TEXT
8
PART_ATTR
10
0
20
8328.8004199475
40
70
1
INHERITANCE  PINPAIR
0
TEXT
8
PART_ATTR
10
0
20
8208.8004199475
40
70
1
ECO_REGISTRATION N
0
TEXT
8
PART_ATTR
10
0
20
8088.8004199475
40
70
1
READONLY Y
0
TEXT
8
PART_ATTR
10
0
20
7968.8004199475
40
70
1
SYSTEM Y
0
TEXT
8
PART_ATTR
10
0
20
7848.8004199475
40
70
1
HIDDEN Y
0
TEXT
8
PART_ATTR
10
0
20
7728.8004199475
40
70
1
ATTRIBUTE Strategy.Tune.DiffPairPriority
0
TEXT
8
PART_ATTR
10
0
20
7608.8004199475
40
70
1
TYPE INTEGER
0
TEXT
8
PART_ATTR
10
0
20
7488.8004199475
40
70
1
MIN 0
0
TEXT
8
PART_ATTR
10
0
20
7368.8004199475
40
70
1
MAX 2147483647
0
TEXT
8
PART_ATTR
10
0
20
7248.8004199475
40
70
1
INHERITANCE  NET
0
TEXT
8
PART_ATTR
10
0
20
7128.8004199475
40
70
1
INHERITANCE  PINPAIR
0
TEXT
8
PART_ATTR
10
0
20
7008.8004199475
40
70
1
ECO_REGISTRATION N
0
TEXT
8
PART_ATTR
10
0
20
6888.8004199475
40
70
1
READONLY Y
0
TEXT
8
PART_ATTR
10
0
20
6768.8004199475
40
70
1
SYSTEM Y
0
TEXT
8
PART_ATTR
10
0
20
6648.8004199475
40
70
1
HIDDEN Y
0
TEXT
8
PART_ATTR
10
0
20
6528.8004199475
40
70
1
ATTRIBUTE Strategy.Tune.MLGPriority
0
TEXT
8
PART_ATTR
10
0
20
6408.8004199475
40
70
1
TYPE INTEGER
0
TEXT
8
PART_ATTR
10
0
20
6288.8004199475
40
70
1
MIN 0
0
TEXT
8
PART_ATTR
10
0
20
6168.8004199475
40
70
1
MAX 2147483647
0
TEXT
8
PART_ATTR
10
0
20
6048.8004199475
40
70
1
INHERITANCE  NET NETCLASS PCB
0
TEXT
8
PART_ATTR
10
0
20
5928.8004199475
40
70
1
INHERITANCE  PINPAIR GROUP
0
TEXT
8
PART_ATTR
10
0
20
5808.8004199475
40
70
1
ECO_REGISTRATION N
0
TEXT
8
PART_ATTR
10
0
20
5688.8004199475
40
70
1
READONLY Y
0
TEXT
8
PART_ATTR
10
0
20
5568.8004199475
40
70
1
SYSTEM Y
0
TEXT
8
PART_ATTR
10
0
20
5448.8004199475
40
70
1
HIDDEN Y
0
TEXT
8
PART_ATTR
10
0
20
5328.8004199475
40
70
1
ATTRIBUTE DIE.FormatId
0
TEXT
8
PART_ATTR
10
0
20
5208.8004199475
40
70
1
TYPE FREETEXT
0
TEXT
8
PART_ATTR
10
0
20
5088.8004199475
40
70
1
INHERITANCE  DECAL
0
TEXT
8
PART_ATTR
10
0
20
4968.8004199475
40
70
1
ECO_REGISTRATION N
0
TEXT
8
PART_ATTR
10
0
20
4848.8004199475
40
70
1
READONLY Y
0
TEXT
8
PART_ATTR
10
0
20
4728.8004199475
40
70
1
SYSTEM Y
0
TEXT
8
PART_ATTR
10
0
20
4608.8004199475
40
70
1
HIDDEN Y
0
TEXT
8
PART_ATTR
10
0
20
4488.8004199475
40
70
1
ATTRIBUTE DIE.ChipLength
0
TEXT
8
PART_ATTR
10
0
20
4368.8004199475
40
70
1
TYPE FREETEXT
0
TEXT
8
PART_ATTR
10
0
20
4248.8004199475
40
70
1
INHERITANCE  DECAL
0
TEXT
8
PART_ATTR
10
0
20
4128.8004199475
40
70
1
ECO_REGISTRATION N
0
TEXT
8
PART_ATTR
10
0
20
4008.8004199475
40
70
1
READONLY Y
0
TEXT
8
PART_ATTR
10
0
20
3888.8004199475
40
70
1
SYSTEM Y
0
TEXT
8
PART_ATTR
10
0
20
3768.8004199475
40
70
1
HIDDEN Y
0
TEXT
8
PART_ATTR
10
0
20
3648.8004199475
40
70
1
ATTRIBUTE DIE.ChipWidth
0
TEXT
8
PART_ATTR
10
0
20
3528.8004199475
40
70
1
TYPE FREETEXT
0
TEXT
8
PART_ATTR
10
0
20
3408.8004199475
40
70
1
INHERITANCE  DECAL
0
TEXT
8
PART_ATTR
10
0
20
3288.8004199475
40
70
1
ECO_REGISTRATION N
0
TEXT
8
PART_ATTR
10
0
20
3168.8004199475
40
70
1
READONLY Y
0
TEXT
8
PART_ATTR
10
0
20
3048.8004199475
40
70
1
SYSTEM Y
0
TEXT
8
PART_ATTR
10
0
20
2928.8004199475
40
70
1
HIDDEN Y
0
TEXT
8
PART_ATTR
10
0
20
2808.8004199475
40
70
1
ATTRIBUTE DIE.ChipHeight
0
TEXT
8
PART_ATTR
10
0
20
2688.8004199475
40
70
1
TYPE FREETEXT
0
TEXT
8
PART_ATTR
10
0
20
2568.8004199475
40
70
1
INHERITANCE  DECAL
0
TEXT
8
PART_ATTR
10
0
20
2448.8004199475
40
70
1
ECO_REGISTRATION N
0
TEXT
8
PART_ATTR
10
0
20
2328.8004199475
40
70
1
READONLY Y
0
TEXT
8
PART_ATTR
10
0
20
2208.8004199475
40
70
1
SYSTEM Y
0
TEXT
8
PART_ATTR
10
0
20
2088.8004199475
40
70
1
HIDDEN Y
0
TEXT
8
PART_ATTR
10
0
20
1968.8004199475
40
70
1
ATTRIBUTE DIE.WBRules.MinLength
0
TEXT
8
PART_ATTR
10
0
20
1848.8004199475
40
70
1
TYPE FREETEXT
0
TEXT
8
PART_ATTR
10
0
20
1728.8004199475
40
70
1
INHERITANCE  DECAL
0
TEXT
8
PART_ATTR
10
0
20
1608.8004199475
40
70
1
ECO_REGISTRATION N
0
TEXT
8
PART_ATTR
10
0
20
1488.8004199475
40
70
1
READONLY Y
0
TEXT
8
PART_ATTR
10
0
20
1368.8004199475
40
70
1
SYSTEM Y
0
TEXT
8
PART_ATTR
10
0
20
1248.8004199475
40
70
1
HIDDEN Y
0
TEXT
8
PART_ATTR
10
0
20
1128.8004199475
40
70
1
ATTRIBUTE DIE.WBRules.MaxLength
0
TEXT
8
PART_ATTR
10
0
20
1008.8004199475
40
70
1
TYPE FREETEXT
0
TEXT
8
PART_ATTR
10
0
20
888.8004199475
40
70
1
INHERITANCE  DECAL
0
TEXT
8
PART_ATTR
10
0
20
768.8004199475
40
70
1
ECO_REGISTRATION N
0
TEXT
8
PART_ATTR
10
0
20
648.8004199475
40
70
1
READONLY Y
0
TEXT
8
PART_ATTR
10
0
20
528.8004199475
40
70
1
SYSTEM Y
0
TEXT
8
PART_ATTR
10
0
20
408.8004199475
40
70
1
HIDDEN Y
0
TEXT
8
PART_ATTR
10
0
20
288.8004199475
40
70
1
ATTRIBUTE DIE.WBRules.WToWDistance
0
TEXT
8
PART_ATTR
10
0
20
168.8004199475
40
70
1
TYPE FREETEXT
0
TEXT
8
PART_ATTR
10
0
20
48.8004199475
40
70
1
INHERITANCE  DECAL
0
TEXT
8
PART_ATTR
10
0
20
-71.1995800525
40
70
1
ECO_REGISTRATION N
0
TEXT
8
PART_ATTR
10
0
20
-191.1995800525
40
70
1
READONLY Y
0
TEXT
8
PART_ATTR
10
0
20
-311.1995800525
40
70
1
SYSTEM Y
0
TEXT
8
PART_ATTR
10
0
20
-431.1995800525
40
70
1
HIDDEN Y
0
TEXT
8
PART_ATTR
10
0
20
-551.1995800525
40
70
1
ATTRIBUTE DIE.WBRules.WBtoPad
0
TEXT
8
PART_ATTR
10
0
20
-671.1995800525
40
70
1
TYPE FREETEXT
0
TEXT
8
PART_ATTR
10
0
20
-791.1995800525
40
70
1
INHERITANCE  DECAL
0
TEXT
8
PART_ATTR
10
0
20
-911.1995800525
40
70
1
ECO_REGISTRATION N
0
TEXT
8
PART_ATTR
10
0
20
-1031.1995800525
40
70
1
READONLY Y
0
TEXT
8
PART_ATTR
10
0
20
-1151.1995800525
40
70
1
SYSTEM Y
0
TEXT
8
PART_ATTR
10
0
20
-1271.1995800525
40
70
1
HIDDEN Y
0
TEXT
8
PART_ATTR
10
0
20
-1391.1995800525
40
70
1
ATTRIBUTE DIE.WBRules.MaxAngle
0
TEXT
8
PART_ATTR
10
0
20
-1511.1995800525
40
70
1
TYPE FREETEXT
0
TEXT
8
PART_ATTR
10
0
20
-1631.1995800525
40
70
1
INHERITANCE  DECAL
0
TEXT
8
PART_ATTR
10
0
20
-1751.1995800525
40
70
1
ECO_REGISTRATION N
0
TEXT
8
PART_ATTR
10
0
20
-1871.1995800525
40
70
1
READONLY Y
0
TEXT
8
PART_ATTR
10
0
20
-1991.1995800525
40
70
1
SYSTEM Y
0
TEXT
8
PART_ATTR
10
0
20
-2111.1995800525
40
70
1
HIDDEN Y
0
TEXT
8
PART_ATTR
10
0
20
-2231.1995800525
40
70
1
ATTRIBUTE DIE.SBPCount
0
TEXT
8
PART_ATTR
10
0
20
-2351.1995800525
40
70
1
TYPE FREETEXT
0
TEXT
8
PART_ATTR
10
0
20
-2471.1995800525
40
70
1
INHERITANCE  DECAL
0
TEXT
8
PART_ATTR
10
0
20
-2591.1995800525
40
70
1
ECO_REGISTRATION N
0
TEXT
8
PART_ATTR
10
0
20
-2711.1995800525
40
70
1
READONLY Y
0
TEXT
8
PART_ATTR
10
0
20
-2831.1995800525
40
70
1
SYSTEM Y
0
TEXT
8
PART_ATTR
10
0
20
-2951.1995800525
40
70
1
HIDDEN Y
0
TEXT
8
PART_ATTR
10
0
20
-3071.1995800525
40
70
1
ATTRIBUTE DIE.SBP1
0
TEXT
8
PART_ATTR
10
0
20
-3191.1995800525
40
70
1
TYPE FREETEXT
0
TEXT
8
PART_ATTR
10
0
20
-3311.1995800525
40
70
1
INHERITANCE  DECAL
0
TEXT
8
PART_ATTR
10
0
20
-3431.1995800525
40
70
1
ECO_REGISTRATION N
0
TEXT
8
PART_ATTR
10
0
20
-3551.1995800525
40
70
1
READONLY Y
0
TEXT
8
PART_ATTR
10
0
20
-3671.1995800525
40
70
1
SYSTEM Y
0
TEXT
8
PART_ATTR
10
0
20
-3791.1995800525
40
70
1
HIDDEN Y
0
TEXT
8
PART_ATTR
10
0
20
-3911.1995800525
40
70
1
ATTRIBUTE DIE.CBPCount
0
TEXT
8
PART_ATTR
10
0
20
-4031.1995800525
40
70
1
TYPE FREETEXT
0
TEXT
8
PART_ATTR
10
0
20
-4151.1995800525
40
70
1
INHERITANCE  DECAL
0
TEXT
8
PART_ATTR
10
0
20
-4271.1995800525
40
70
1
ECO_REGISTRATION N
0
TEXT
8
PART_ATTR
10
0
20
-4391.1995800525
40
70
1
READONLY Y
0
TEXT
8
PART_ATTR
10
0
20
-4511.1995800525
40
70
1
SYSTEM Y
0
TEXT
8
PART_ATTR
10
0
20
-4631.1995800525
40
70
1
HIDDEN Y
0
TEXT
8
PART_ATTR
10
0
20
-4751.1995800525
40
70
1
ATTRIBUTE DIE.CBP1
0
TEXT
8
PART_ATTR
10
0
20
-4871.1995800525
40
70
1
TYPE FREETEXT
0
TEXT
8
PART_ATTR
10
0
20
-4991.1995800525
40
70
1
INHERITANCE  DECAL
0
TEXT
8
PART_ATTR
10
0
20
-5111.1995800525
40
70
1
ECO_REGISTRATION N
0
TEXT
8
PART_ATTR
10
0
20
-5231.1995800525
40
70
1
READONLY Y
0
TEXT
8
PART_ATTR
10
0
20
-5351.1995800525
40
70
1
SYSTEM Y
0
TEXT
8
PART_ATTR
10
0
20
-5471.1995800525
40
70
1
HIDDEN Y
0
TEXT
8
PART_ATTR
10
0
20
-5591.1995800525
40
70
1
ATTRIBUTE DIE.WBCount
0
TEXT
8
PART_ATTR
10
0
20
-5711.1995800525
40
70
1
TYPE FREETEXT
0
TEXT
8
PART_ATTR
10
0
20
-5831.1995800525
40
70
1
INHERITANCE  DECAL
0
TEXT
8
PART_ATTR
10
0
20
-5951.1995800525
40
70
1
ECO_REGISTRATION N
0
TEXT
8
PART_ATTR
10
0
20
-6071.1995800525
40
70
1
READONLY Y
0
TEXT
8
PART_ATTR
10
0
20
-6191.1995800525
40
70
1
SYSTEM Y
0
TEXT
8
PART_ATTR
10
0
20
-6311.1995800525
40
70
1
HIDDEN Y
0
TEXT
8
PART_ATTR
10
0
20
-6431.1995800525
40
70
1
ATTRIBUTE DIE.WB1
0
TEXT
8
PART_ATTR
10
0
20
-6551.1995800525
40
70
1
TYPE FREETEXT
0
TEXT
8
PART_ATTR
10
0
20
-6671.1995800525
40
70
1
INHERITANCE  DECAL
0
TEXT
8
PART_ATTR
10
0
20
-6791.1995800525
40
70
1
ECO_REGISTRATION N
0
TEXT
8
PART_ATTR
10
0
20
-6911.1995800525
40
70
1
READONLY Y
0
TEXT
8
PART_ATTR
10
0
20
-7031.1995800525
40
70
1
SYSTEM Y
0
TEXT
8
PART_ATTR
10
0
20
-7151.1995800525
40
70
1
HIDDEN Y
0
TEXT
8
PART_ATTR
10
0
20
-7271.1995800525
40
70
1
ATTRIBUTE DIE.SBPGuideCount
0
TEXT
8
PART_ATTR
10
0
20
-7391.1995800525
40
70
1
TYPE FREETEXT
0
TEXT
8
PART_ATTR
10
0
20
-7511.1995800525
40
70
1
INHERITANCE  DECAL
0
TEXT
8
PART_ATTR
10
0
20
-7631.1995800525
40
70
1
ECO_REGISTRATION N
0
TEXT
8
PART_ATTR
10
0
20
-7751.1995800525
40
70
1
READONLY Y
0
TEXT
8
PART_ATTR
10
0
20
-7871.1995800525
40
70
1
SYSTEM Y
0
TEXT
8
PART_ATTR
10
0
20
-7991.1995800525
40
70
1
HIDDEN Y
0
TEXT
8
PART_ATTR
10
0
20
-8111.1995800525
40
70
1
ATTRIBUTE DIE.SBPGuide1
0
TEXT
8
PART_ATTR
10
0
20
-8231.1995800525
40
70
1
TYPE FREETEXT
0
TEXT
8
PART_ATTR
10
0
20
-8351.1995800525
40
70
1
INHERITANCE  DECAL
0
TEXT
8
PART_ATTR
10
0
20
-8471.1995800525
40
70
1
ECO_REGISTRATION N
0
TEXT
8
PART_ATTR
10
0
20
-8591.1995800525
40
70
1
READONLY Y
0
TEXT
8
PART_ATTR
10
0
20
-8711.1995800525
40
70
1
SYSTEM Y
0
TEXT
8
PART_ATTR
10
0
20
-8831.1995800525
40
70
1
HIDDEN Y
0
TEXT
8
PART_ATTR
10
0
20
-8951.1995800525
40
70
1
ATTRIBUTE DIE.CBPAssignment1
0
TEXT
8
PART_ATTR
10
0
20
-9071.1995800525
40
70
1
TYPE FREETEXT
0
TEXT
8
PART_ATTR
10
0
20
-9191.1995800525
40
70
1
INHERITANCE  DECAL
0
TEXT
8
PART_ATTR
10
0
20
-9311.1995800525
40
70
1
ECO_REGISTRATION N
0
TEXT
8
PART_ATTR
10
0
20
-9431.1995800525
40
70
1
READONLY Y
0
TEXT
8
PART_ATTR
10
0
20
-9551.1995800525
40
70
1
SYSTEM Y
0
TEXT
8
PART_ATTR
10
0
20
-9671.1995800525
40
70
1
HIDDEN Y
0
TEXT
8
PART_ATTR
10
0
20
-9791.1995800525
40
70
1
ATTRIBUTE AutoDimensioning.Marker_Shape
0
TEXT
8
PART_ATTR
10
0
20
-9911.1995800525
40
70
1
TYPE FREETEXT
0
TEXT
8
PART_ATTR
10
0
20
-10031.1995800525
40
70
1
INHERITANCE  PCB
0
TEXT
8
PART_ATTR
10
0
20
-10151.1995800525
40
70
1
ECO_REGISTRATION N
0
TEXT
8
PART_ATTR
10
0
20
-10271.1995800525
40
70
1
READONLY Y
0
TEXT
8
PART_ATTR
10
0
20
-10391.1995800525
40
70
1
SYSTEM Y
0
TEXT
8
PART_ATTR
10
0
20
-10511.1995800525
40
70
1
HIDDEN Y
0
TEXT
8
PART_ATTR
10
0
20
-10631.1995800525
40
70
1
ATTRIBUTE AutoDimensioning.Text_NumberPrecision
0
TEXT
8
PART_ATTR
10
0
20
-10751.1995800525
40
70
1
TYPE FREETEXT
0
TEXT
8
PART_ATTR
10
0
20
-10871.1995800525
40
70
1
INHERITANCE  PCB
0
TEXT
8
PART_ATTR
10
0
20
-10991.1995800525
40
70
1
ECO_REGISTRATION N
0
TEXT
8
PART_ATTR
10
0
20
-11111.1995800525
40
70
1
READONLY Y
0
TEXT
8
PART_ATTR
10
0
20
-11231.1995800525
40
70
1
SYSTEM Y
0
TEXT
8
PART_ATTR
10
0
20
-11351.1995800525
40
70
1
HIDDEN Y
0
TEXT
8
PART_ATTR
10
0
20
-11471.1995800525
40
70
1
ATTRIBUTE AutoDimensioning.Text_AngularPrecision
0
TEXT
8
PART_ATTR
10
0
20
-11591.1995800525
40
70
1
TYPE FREETEXT
0
TEXT
8
PART_ATTR
10
0
20
-11711.1995800525
40
70
1
INHERITANCE  PCB
0
TEXT
8
PART_ATTR
10
0
20
-11831.1995800525
40
70
1
ECO_REGISTRATION N
0
TEXT
8
PART_ATTR
10
0
20
-11951.1995800525
40
70
1
READONLY Y
0
TEXT
8
PART_ATTR
10
0
20
-12071.1995800525
40
70
1
SYSTEM Y
0
TEXT
8
PART_ATTR
10
0
20
-12191.1995800525
40
70
1
HIDDEN Y
0
TEXT
8
PART_ATTR
10
0
20
-12311.1995800525
40
70
1
ATTRIBUTE AutoDimensioning.Text_Suffix
0
TEXT
8
PART_ATTR
10
0
20
-12431.1995800525
40
70
1
TYPE FREETEXT
0
TEXT
8
PART_ATTR
10
0
20
-12551.1995800525
40
70
1
INHERITANCE  PCB
0
TEXT
8
PART_ATTR
10
0
20
-12671.1995800525
40
70
1
ECO_REGISTRATION N
0
TEXT
8
PART_ATTR
10
0
20
-12791.1995800525
40
70
1
READONLY Y
0
TEXT
8
PART_ATTR
10
0
20
-12911.1995800525
40
70
1
SYSTEM Y
0
TEXT
8
PART_ATTR
10
0
20
-13031.1995800525
40
70
1
HIDDEN Y
0
TEXT
8
PART_ATTR
10
0
20
-13151.1995800525
40
70
1
ATTRIBUTE AutoDimensioning.Text_Layer
0
TEXT
8
PART_ATTR
10
0
20
-13271.1995800525
40
70
1
TYPE INTEGER
0
TEXT
8
PART_ATTR
10
0
20
-13391.1995800525
40
70
1
MIN 0
0
TEXT
8
PART_ATTR
10
0
20
-13511.1995800525
40
70
1
MAX 250
0
TEXT
8
PART_ATTR
10
0
20
-13631.1995800525
40
70
1
INHERITANCE  PCB
0
TEXT
8
PART_ATTR
10
0
20
-13751.1995800525
40
70
1
ECO_REGISTRATION N
0
TEXT
8
PART_ATTR
10
0
20
-13871.1995800525
40
70
1
READONLY Y
0
TEXT
8
PART_ATTR
10
0
20
-13991.1995800525
40
70
1
SYSTEM Y
0
TEXT
8
PART_ATTR
10
0
20
-14111.1995800525
40
70
1
HIDDEN Y
0
TEXT
8
PART_ATTR
10
0
20
-14231.1995800525
40
70
1
ATTRIBUTE AutoDimensioning.Line_Layer
0
TEXT
8
PART_ATTR
10
0
20
-14351.1995800525
40
70
1
TYPE INTEGER
0
TEXT
8
PART_ATTR
10
0
20
-14471.1995800525
40
70
1
MIN 0
0
TEXT
8
PART_ATTR
10
0
20
-14591.1995800525
40
70
1
MAX 250
0
TEXT
8
PART_ATTR
10
0
20
-14711.1995800525
40
70
1
INHERITANCE  PCB
0
TEXT
8
PART_ATTR
10
0
20
-14831.1995800525
40
70
1
ECO_REGISTRATION N
0
TEXT
8
PART_ATTR
10
0
20
-14951.1995800525
40
70
1
READONLY Y
0
TEXT
8
PART_ATTR
10
0
20
-15071.1995800525
40
70
1
SYSTEM Y
0
TEXT
8
PART_ATTR
10
0
20
-15191.1995800525
40
70
1
HIDDEN Y
0
TEXT
8
PART_ATTR
10
0
20
-15311.1995800525
40
70
1
ATTRIBUTE AutoDimensioning.Preview_Type
0
TEXT
8
PART_ATTR
10
0
20
-15431.1995800525
40
70
1
TYPE INTEGER
0
TEXT
8
PART_ATTR
10
0
20
-15551.1995800525
40
70
1
MIN 1
0
TEXT
8
PART_ATTR
10
0
20
-15671.1995800525
40
70
1
MAX 5
0
TEXT
8
PART_ATTR
10
0
20
-15791.1995800525
40
70
1
INHERITANCE  PCB
0
TEXT
8
PART_ATTR
10
0
20
-15911.1995800525
40
70
1
ECO_REGISTRATION N
0
TEXT
8
PART_ATTR
10
0
20
-16031.1995800525
40
70
1
READONLY Y
0
TEXT
8
PART_ATTR
10
0
20
-16151.1995800525
40
70
1
SYSTEM Y
0
TEXT
8
PART_ATTR
10
0
20
-16271.1995800525
40
70
1
HIDDEN Y
0
TEXT
8
PART_ATTR
10
0
20
-16391.1995800525
40
70
1
ATTRIBUTE Rules.PadEntry.Side
0
TEXT
8
PART_ATTR
10
0
20
-16511.1995800525
40
70
1
TYPE BOOLEAN
0
TEXT
8
PART_ATTR
10
0
20
-16631.1995800525
40
70
1
INHERITANCE  PCB
0
TEXT
8
PART_ATTR
10
0
20
-16751.1995800525
40
70
1
INHERITANCE  PART DECAL
0
TEXT
8
PART_ATTR
10
0
20
-16871.1995800525
40
70
1
ECO_REGISTRATION N
0
TEXT
8
PART_ATTR
10
0
20
-16991.1995800525
40
70
1
READONLY Y
0
TEXT
8
PART_ATTR
10
0
20
-17111.1995800525
40
70
1
SYSTEM Y
0
TEXT
8
PART_ATTR
10
0
20
-17231.1995800525
40
70
1
HIDDEN Y
0
TEXT
8
PART_ATTR
10
0
20
-17351.1995800525
40
70
1
ATTRIBUTE Rules.PadEntry.Corner
0
TEXT
8
PART_ATTR
10
0
20
-17471.1995800525
40
70
1
TYPE BOOLEAN
0
TEXT
8
PART_ATTR
10
0
20
-17591.1995800525
40
70
1
INHERITANCE  PCB
0
TEXT
8
PART_ATTR
10
0
20
-17711.1995800525
40
70
1
INHERITANCE  PART DECAL
0
TEXT
8
PART_ATTR
10
0
20
-17831.1995800525
40
70
1
ECO_REGISTRATION N
0
TEXT
8
PART_ATTR
10
0
20
-17951.1995800525
40
70
1
READONLY Y
0
TEXT
8
PART_ATTR
10
0
20
-18071.1995800525
40
70
1
SYSTEM Y
0
TEXT
8
PART_ATTR
10
0
20
-18191.1995800525
40
70
1
HIDDEN Y
0
TEXT
8
PART_ATTR
10
0
20
-18311.1995800525
40
70
1
ATTRIBUTE Rules.PadEntry.AnyAngle
0
TEXT
8
PART_ATTR
10
0
20
-18431.1995800525
40
70
1
TYPE BOOLEAN
0
TEXT
8
PART_ATTR
10
0
20
-18551.1995800525
40
70
1
INHERITANCE  PCB
0
TEXT
8
PART_ATTR
10
0
20
-18671.1995800525
40
70
1
INHERITANCE  PART DECAL
0
TEXT
8
PART_ATTR
10
0
20
-18791.1995800525
40
70
1
ECO_REGISTRATION N
0
TEXT
8
PART_ATTR
10
0
20
-18911.1995800525
40
70
1
READONLY Y
0
TEXT
8
PART_ATTR
10
0
20
-19031.1995800525
40
70
1
SYSTEM Y
0
TEXT
8
PART_ATTR
10
0
20
-19151.1995800525
40
70
1
HIDDEN Y
0
TEXT
8
PART_ATTR
10
0
20
-19271.1995800525
40
70
1
ATTRIBUTE Rules.PadEntry.Soft
0
TEXT
8
PART_ATTR
10
0
20
-19391.1995800525
40
70
1
TYPE BOOLEAN
0
TEXT
8
PART_ATTR
10
0
20
-19511.1995800525
40
70
1
INHERITANCE  PCB
0
TEXT
8
PART_ATTR
10
0
20
-19631.1995800525
40
70
1
INHERITANCE  PART DECAL
0
TEXT
8
PART_ATTR
10
0
20
-19751.1995800525
40
70
1
ECO_REGISTRATION N
0
TEXT
8
PART_ATTR
10
0
20
-19871.1995800525
40
70
1
READONLY Y
0
TEXT
8
PART_ATTR
10
0
20
-19991.1995800525
40
70
1
SYSTEM Y
0
TEXT
8
PART_ATTR
10
0
20
-20111.1995800525
40
70
1
HIDDEN Y
0
TEXT
8
PART_ATTR
10
0
20
-20231.1995800525
40
70
1
ATTRIBUTE Rules.ViaAtSMD
0
TEXT
8
PART_ATTR
10
0
20
-20351.1995800525
40
70
1
TYPE BOOLEAN
0
TEXT
8
PART_ATTR
10
0
20
-20471.1995800525
40
70
1
INHERITANCE  PCB
0
TEXT
8
PART_ATTR
10
0
20
-20591.1995800525
40
70
1
INHERITANCE  PART DECAL
0
TEXT
8
PART_ATTR
10
0
20
-20711.1995800525
40
70
1
ECO_REGISTRATION N
0
TEXT
8
PART_ATTR
10
0
20
-20831.1995800525
40
70
1
READONLY Y
0
TEXT
8
PART_ATTR
10
0
20
-20951.1995800525
40
70
1
SYSTEM Y
0
TEXT
8
PART_ATTR
10
0
20
-21071.1995800525
40
70
1
HIDDEN Y
0
TEXT
8
PART_ATTR
10
0
20
-21191.1995800525
40
70
1
ATTRIBUTE Rules.ViaAtSMD.FitInside
0
TEXT
8
PART_ATTR
10
0
20
-21311.1995800525
40
70
1
TYPE BOOLEAN
0
TEXT
8
PART_ATTR
10
0
20
-21431.1995800525
40
70
1
INHERITANCE  PCB
0
TEXT
8
PART_ATTR
10
0
20
-21551.1995800525
40
70
1
INHERITANCE  PART DECAL
0
TEXT
8
PART_ATTR
10
0
20
-21671.1995800525
40
70
1
ECO_REGISTRATION N
0
TEXT
8
PART_ATTR
10
0
20
-21791.1995800525
40
70
1
READONLY Y
0
TEXT
8
PART_ATTR
10
0
20
-21911.1995800525
40
70
1
SYSTEM Y
0
TEXT
8
PART_ATTR
10
0
20
-22031.1995800525
40
70
1
HIDDEN Y
0
TEXT
8
PART_ATTR
10
0
20
-22151.1995800525
40
70
1
ATTRIBUTE Rules.ViaAtSMD.Center
0
TEXT
8
PART_ATTR
10
0
20
-22271.1995800525
40
70
1
TYPE BOOLEAN
0
TEXT
8
PART_ATTR
10
0
20
-22391.1995800525
40
70
1
INHERITANCE  PCB
0
TEXT
8
PART_ATTR
10
0
20
-22511.1995800525
40
70
1
INHERITANCE  PART DECAL
0
TEXT
8
PART_ATTR
10
0
20
-22631.1995800525
40
70
1
ECO_REGISTRATION N
0
TEXT
8
PART_ATTR
10
0
20
-22751.1995800525
40
70
1
READONLY Y
0
TEXT
8
PART_ATTR
10
0
20
-22871.1995800525
40
70
1
SYSTEM Y
0
TEXT
8
PART_ATTR
10
0
20
-22991.1995800525
40
70
1
HIDDEN Y
0
TEXT
8
PART_ATTR
10
0
20
-23111.1995800525
40
70
1
ATTRIBUTE Rules.ViaAtSMD.Ends
0
TEXT
8
PART_ATTR
10
0
20
-23231.1995800525
40
70
1
TYPE BOOLEAN
0
TEXT
8
PART_ATTR
10
0
20
-23351.1995800525
40
70
1
INHERITANCE  PCB
0
TEXT
8
PART_ATTR
10
0
20
-23471.1995800525
40
70
1
INHERITANCE  PART DECAL
0
TEXT
8
PART_ATTR
10
0
20
-23591.1995800525
40
70
1
ECO_REGISTRATION N
0
TEXT
8
PART_ATTR
10
0
20
-23711.1995800525
40
70
1
READONLY Y
0
TEXT
8
PART_ATTR
10
0
20
-23831.1995800525
40
70
1
SYSTEM Y
0
TEXT
8
PART_ATTR
10
0
20
-23951.1995800525
40
70
1
HIDDEN Y
0
TEXT
8
PART_ATTR
10
0
20
-24071.1995800525
40
70
1
ATTRIBUTE Rules.Fanout.Alignment
0
TEXT
8
PART_ATTR
10
0
20
-24191.1995800525
40
70
1
TYPE LIST N
0
TEXT
8
PART_ATTR
10
0
20
-24311.1995800525
40
70
1
LIST Aligned
0
TEXT
8
PART_ATTR
10
0
20
-24431.1995800525
40
70
1
LIST Alternate
0
TEXT
8
PART_ATTR
10
0
20
-24551.1995800525
40
70
1
INHERITANCE  PCB
0
TEXT
8
PART_ATTR
10
0
20
-24671.1995800525
40
70
1
INHERITANCE  PART DECAL
0
TEXT
8
PART_ATTR
10
0
20
-24791.1995800525
40
70
1
ECO_REGISTRATION N
0
TEXT
8
PART_ATTR
10
0
20
-24911.1995800525
40
70
1
READONLY Y
0
TEXT
8
PART_ATTR
10
0
20
-25031.1995800525
40
70
1
SYSTEM Y
0
TEXT
8
PART_ATTR
10
0
20
-25151.1995800525
40
70
1
HIDDEN Y
0
TEXT
8
PART_ATTR
10
0
20
-25271.1995800525
40
70
1
ATTRIBUTE Rules.Fanout.Alignment.Multi-Row
0
TEXT
8
PART_ATTR
10
0
20
-25391.1995800525
40
70
1
TYPE BOOLEAN
0
TEXT
8
PART_ATTR
10
0
20
-25511.1995800525
40
70
1
INHERITANCE  PCB
0
TEXT
8
PART_ATTR
10
0
20
-25631.1995800525
40
70
1
INHERITANCE  PART DECAL
0
TEXT
8
PART_ATTR
10
0
20
-25751.1995800525
40
70
1
ECO_REGISTRATION N
0
TEXT
8
PART_ATTR
10
0
20
-25871.1995800525
40
70
1
READONLY Y
0
TEXT
8
PART_ATTR
10
0
20
-25991.1995800525
40
70
1
SYSTEM Y
0
TEXT
8
PART_ATTR
10
0
20
-26111.1995800525
40
70
1
HIDDEN Y
0
TEXT
8
PART_ATTR
10
0
20
-26231.1995800525
40
70
1
ATTRIBUTE Rules.Fanout.Direction
0
TEXT
8
PART_ATTR
10
0
20
-26351.1995800525
40
70
1
TYPE LIST N
0
TEXT
8
PART_ATTR
10
0
20
-26471.1995800525
40
70
1
LIST Inside
0
TEXT
8
PART_ATTR
10
0
20
-26591.1995800525
40
70
1
LIST Outside
0
TEXT
8
PART_ATTR
10
0
20
-26711.1995800525
40
70
1
LIST Both Sides
0
TEXT
8
PART_ATTR
10
0
20
-26831.1995800525
40
70
1
INHERITANCE  PCB
0
TEXT
8
PART_ATTR
10
0
20
-26951.1995800525
40
70
1
INHERITANCE  PART DECAL
0
TEXT
8
PART_ATTR
10
0
20
-27071.1995800525
40
70
1
ECO_REGISTRATION N
0
TEXT
8
PART_ATTR
10
0
20
-27191.1995800525
40
70
1
READONLY Y
0
TEXT
8
PART_ATTR
10
0
20
-27311.1995800525
40
70
1
SYSTEM Y
0
TEXT
8
PART_ATTR
10
0
20
-27431.1995800525
40
70
1
HIDDEN Y
0
TEXT
8
PART_ATTR
10
0
20
-27551.1995800525
40
70
1
ATTRIBUTE Rules.Fanout.ViaSpacing
0
TEXT
8
PART_ATTR
10
0
20
-27671.1995800525
40
70
1
TYPE LIST N
0
TEXT
8
PART_ATTR
10
0
20
-27791.1995800525
40
70
1
LIST Use Grid
0
TEXT
8
PART_ATTR
10
0
20
-27911.1995800525
40
70
1
LIST 1 Trace
0
TEXT
8
PART_ATTR
10
0
20
-28031.1995800525
40
70
1
LIST 2 Trace
0
TEXT
8
PART_ATTR
10
0
20
-28151.1995800525
40
70
1
INHERITANCE  PCB
0
TEXT
8
PART_ATTR
10
0
20
-28271.1995800525
40
70
1
INHERITANCE  PART DECAL
0
TEXT
8
PART_ATTR
10
0
20
-28391.1995800525
40
70
1
ECO_REGISTRATION N
0
TEXT
8
PART_ATTR
10
0
20
-28511.1995800525
40
70
1
READONLY Y
0
TEXT
8
PART_ATTR
10
0
20
-28631.1995800525
40
70
1
SYSTEM Y
0
TEXT
8
PART_ATTR
10
0
20
-28751.1995800525
40
70
1
HIDDEN Y
0
TEXT
8
PART_ATTR
10
0
20
-28871.1995800525
40
70
1
ATTRIBUTE Rules.Fanout.Sharing.Pin
0
TEXT
8
PART_ATTR
10
0
20
-28991.1995800525
40
70
1
TYPE BOOLEAN
0
TEXT
8
PART_ATTR
10
0
20
-29111.1995800525
40
70
1
INHERITANCE  PCB
0
TEXT
8
PART_ATTR
10
0
20
-29231.1995800525
40
70
1
INHERITANCE  PART DECAL
0
TEXT
8
PART_ATTR
10
0
20
-29351.1995800525
40
70
1
ECO_REGISTRATION N
0
TEXT
8
PART_ATTR
10
0
20
-29471.1995800525
40
70
1
READONLY Y
0
TEXT
8
PART_ATTR
10
0
20
-29591.1995800525
40
70
1
SYSTEM Y
0
TEXT
8
PART_ATTR
10
0
20
-29711.1995800525
40
70
1
HIDDEN Y
0
TEXT
8
PART_ATTR
10
0
20
-29831.1995800525
40
70
1
ATTRIBUTE Rules.Fanout.Sharing.SMD
0
TEXT
8
PART_ATTR
10
0
20
-29951.1995800525
40
70
1
TYPE BOOLEAN
0
TEXT
8
PART_ATTR
10
0
20
-30071.1995800525
40
70
1
INHERITANCE  PCB
0
TEXT
8
PART_ATTR
10
0
20
-30191.1995800525
40
70
1
INHERITANCE  PART DECAL
0
TEXT
8
PART_ATTR
10
0
20
-30311.1995800525
40
70
1
ECO_REGISTRATION N
0
TEXT
8
PART_ATTR
10
0
20
-30431.1995800525
40
70
1
READONLY Y
0
TEXT
8
PART_ATTR
10
0
20
-30551.1995800525
40
70
1
SYSTEM Y
0
TEXT
8
PART_ATTR
10
0
20
-30671.1995800525
40
70
1
HIDDEN Y
0
TEXT
8
PART_ATTR
10
0
20
-30791.1995800525
40
70
1
ATTRIBUTE Rules.Fanout.Sharing.Via
0
TEXT
8
PART_ATTR
10
0
20
-30911.1995800525
40
70
1
TYPE BOOLEAN
0
TEXT
8
PART_ATTR
10
0
20
-31031.1995800525
40
70
1
INHERITANCE  PCB
0
TEXT
8
PART_ATTR
10
0
20
-31151.1995800525
40
70
1
INHERITANCE  PART DECAL
0
TEXT
8
PART_ATTR
10
0
20
-31271.1995800525
40
70
1
ECO_REGISTRATION N
0
TEXT
8
PART_ATTR
10
0
20
-31391.1995800525
40
70
1
READONLY Y
0
TEXT
8
PART_ATTR
10
0
20
-31511.1995800525
40
70
1
SYSTEM Y
0
TEXT
8
PART_ATTR
10
0
20
-31631.1995800525
40
70
1
HIDDEN Y
0
TEXT
8
PART_ATTR
10
0
20
-31751.1995800525
40
70
1
ATTRIBUTE Rules.Fanout.Sharing.Trace
0
TEXT
8
PART_ATTR
10
0
20
-31871.1995800525
40
70
1
TYPE BOOLEAN
0
TEXT
8
PART_ATTR
10
0
20
-31991.1995800525
40
70
1
INHERITANCE  PCB
0
TEXT
8
PART_ATTR
10
0
20
-32111.1995800525
40
70
1
INHERITANCE  PART DECAL
0
TEXT
8
PART_ATTR
10
0
20
-32231.1995800525
40
70
1
ECO_REGISTRATION N
0
TEXT
8
PART_ATTR
10
0
20
-32351.1995800525
40
70
1
READONLY Y
0
TEXT
8
PART_ATTR
10
0
20
-32471.1995800525
40
70
1
SYSTEM Y
0
TEXT
8
PART_ATTR
10
0
20
-32591.1995800525
40
70
1
HIDDEN Y
0
TEXT
8
PART_ATTR
10
0
20
-32711.1995800525
40
70
1
ATTRIBUTE Rules.Fanout.Nets.Plane
0
TEXT
8
PART_ATTR
10
0
20
-32831.1995800525
40
70
1
TYPE BOOLEAN
0
TEXT
8
PART_ATTR
10
0
20
-32951.1995800525
40
70
1
INHERITANCE  PCB
0
TEXT
8
PART_ATTR
10
0
20
-33071.1995800525
40
70
1
INHERITANCE  PART DECAL
0
TEXT
8
PART_ATTR
10
0
20
-33191.1995800525
40
70
1
ECO_REGISTRATION N
0
TEXT
8
PART_ATTR
10
0
20
-33311.1995800525
40
70
1
READONLY Y
0
TEXT
8
PART_ATTR
10
0
20
-33431.1995800525
40
70
1
SYSTEM Y
0
TEXT
8
PART_ATTR
10
0
20
-33551.1995800525
40
70
1
HIDDEN Y
0
TEXT
8
PART_ATTR
10
0
20
-33671.1995800525
40
70
1
ATTRIBUTE Rules.Fanout.Nets.Signal
0
TEXT
8
PART_ATTR
10
0
20
-33791.1995800525
40
70
1
TYPE BOOLEAN
0
TEXT
8
PART_ATTR
10
0
20
-33911.1995800525
40
70
1
INHERITANCE  PCB
0
TEXT
8
PART_ATTR
10
0
20
-34031.1995800525
40
70
1
INHERITANCE  PART DECAL
0
TEXT
8
PART_ATTR
10
0
20
-34151.1995800525
40
70
1
ECO_REGISTRATION N
0
TEXT
8
PART_ATTR
10
0
20
-34271.1995800525
40
70
1
READONLY Y
0
TEXT
8
PART_ATTR
10
0
20
-34391.1995800525
40
70
1
SYSTEM Y
0
TEXT
8
PART_ATTR
10
0
20
-34511.1995800525
40
70
1
HIDDEN Y
0
TEXT
8
PART_ATTR
10
0
20
-34631.1995800525
40
70
1
ATTRIBUTE Rules.Fanout.Nets.UnusedPins
0
TEXT
8
PART_ATTR
10
0
20
-34751.1995800525
40
70
1
TYPE BOOLEAN
0
TEXT
8
PART_ATTR
10
0
20
-34871.1995800525
40
70
1
INHERITANCE  PCB
0
TEXT
8
PART_ATTR
10
0
20
-34991.1995800525
40
70
1
INHERITANCE  PART DECAL
0
TEXT
8
PART_ATTR
10
0
20
-35111.1995800525
40
70
1
ECO_REGISTRATION N
0
TEXT
8
PART_ATTR
10
0
20
-35231.1995800525
40
70
1
READONLY Y
0
TEXT
8
PART_ATTR
10
0
20
-35351.1995800525
40
70
1
SYSTEM Y
0
TEXT
8
PART_ATTR
10
0
20
-35471.1995800525
40
70
1
HIDDEN Y
0
TEXT
8
PART_ATTR
10
0
20
-35591.1995800525
40
70
1
ATTRIBUTE Rules.Fanout.Length.Unlimited
0
TEXT
8
PART_ATTR
10
0
20
-35711.1995800525
40
70
1
TYPE BOOLEAN
0
TEXT
8
PART_ATTR
10
0
20
-35831.1995800525
40
70
1
INHERITANCE  PCB
0
TEXT
8
PART_ATTR
10
0
20
-35951.1995800525
40
70
1
INHERITANCE  PART DECAL
0
TEXT
8
PART_ATTR
10
0
20
-36071.1995800525
40
70
1
ECO_REGISTRATION N
0
TEXT
8
PART_ATTR
10
0
20
-36191.1995800525
40
70
1
READONLY Y
0
TEXT
8
PART_ATTR
10
0
20
-36311.1995800525
40
70
1
SYSTEM Y
0
TEXT
8
PART_ATTR
10
0
20
-36431.1995800525
40
70
1
HIDDEN Y
0
TEXT
8
PART_ATTR
10
0
20
-36551.1995800525
40
70
1
ATTRIBUTE Rules.Fanout.Length.Maximum
0
TEXT
8
PART_ATTR
10
0
20
-36671.1995800525
40
70
1
TYPE QUANTITY
0
TEXT
8
PART_ATTR
10
0
20
-36791.1995800525
40
70
1
QUANTITY Size/Dimension
0
TEXT
8
PART_ATTR
10
0
20
-36911.1995800525
40
70
1
ABBR 
0
TEXT
8
PART_ATTR
10
0
20
-37031.1995800525
40
70
1
UNIT 
0
TEXT
8
PART_ATTR
10
0
20
-37151.1995800525
40
70
1
MIN 
0
TEXT
8
PART_ATTR
10
0
20
-37271.1995800525
40
70
1
MAX 2000.00mil
0
TEXT
8
PART_ATTR
10
0
20
-37391.1995800525
40
70
1
INHERITANCE  PCB
0
TEXT
8
PART_ATTR
10
0
20
-37511.1995800525
40
70
1
INHERITANCE  PART DECAL
0
TEXT
8
PART_ATTR
10
0
20
-37631.1995800525
40
70
1
ECO_REGISTRATION N
0
TEXT
8
PART_ATTR
10
0
20
-37751.1995800525
40
70
1
READONLY Y
0
TEXT
8
PART_ATTR
10
0
20
-37871.1995800525
40
70
1
SYSTEM Y
0
TEXT
8
PART_ATTR
10
0
20
-37991.1995800525
40
70
1
HIDDEN Y
0
TEXT
8
PART_ATTR
10
0
20
-38111.1995800525
40
70
1
ATTRIBUTE Rules.Fanout.AlignmentBGA
0
TEXT
8
PART_ATTR
10
0
20
-38231.1995800525
40
70
1
TYPE LIST N
0
TEXT
8
PART_ATTR
10
0
20
-38351.1995800525
40
70
1
LIST Quadrant
0
TEXT
8
PART_ATTR
10
0
20
-38471.1995800525
40
70
1
LIST Diagonal
0
TEXT
8
PART_ATTR
10
0
20
-38591.1995800525
40
70
1
LIST X-pattern
0
TEXT
8
PART_ATTR
10
0
20
-38711.1995800525
40
70
1
INHERITANCE  PCB
0
TEXT
8
PART_ATTR
10
0
20
-38831.1995800525
40
70
1
INHERITANCE  PART DECAL
0
TEXT
8
PART_ATTR
10
0
20
-38951.1995800525
40
70
1
ECO_REGISTRATION N
0
TEXT
8
PART_ATTR
10
0
20
-39071.1995800525
40
70
1
READONLY Y
0
TEXT
8
PART_ATTR
10
0
20
-39191.1995800525
40
70
1
SYSTEM Y
0
TEXT
8
PART_ATTR
10
0
20
-39311.1995800525
40
70
1
HIDDEN Y
0
TEXT
8
PART_ATTR
10
0
20
-39431.1995800525
40
70
1
ATTRIBUTE Rules.Fanout.DirectionBGA
0
TEXT
8
PART_ATTR
10
0
20
-39551.1995800525
40
70
1
TYPE LIST N
0
TEXT
8
PART_ATTR
10
0
20
-39671.1995800525
40
70
1
LIST 45
0
TEXT
8
PART_ATTR
10
0
20
-39791.1995800525
40
70
1
LIST 135
0
TEXT
8
PART_ATTR
10
0
20
-39911.1995800525
40
70
1
LIST 225
0
TEXT
8
PART_ATTR
10
0
20
-40031.1995800525
40
70
1
LIST 315
0
TEXT
8
PART_ATTR
10
0
20
-40151.1995800525
40
70
1
LIST Clockwise
0
TEXT
8
PART_ATTR
10
0
20
-40271.1995800525
40
70
1
LIST Counterclockwise
0
TEXT
8
PART_ATTR
10
0
20
-40391.1995800525
40
70
1
INHERITANCE  PCB
0
TEXT
8
PART_ATTR
10
0
20
-40511.1995800525
40
70
1
INHERITANCE  PART DECAL
0
TEXT
8
PART_ATTR
10
0
20
-40631.1995800525
40
70
1
ECO_REGISTRATION N
0
TEXT
8
PART_ATTR
10
0
20
-40751.1995800525
40
70
1
READONLY Y
0
TEXT
8
PART_ATTR
10
0
20
-40871.1995800525
40
70
1
SYSTEM Y
0
TEXT
8
PART_ATTR
10
0
20
-40991.1995800525
40
70
1
HIDDEN Y
0
TEXT
8
PART_ATTR
10
0
20
-41111.1995800525
40
70
1
ATTRIBUTE Rules.Fanout.DirectionBGAstaggered
0
TEXT
8
PART_ATTR
10
0
20
-41231.1995800525
40
70
1
TYPE LIST N
0
TEXT
8
PART_ATTR
10
0
20
-41351.1995800525
40
70
1
LIST Horizontal
0
TEXT
8
PART_ATTR
10
0
20
-41471.1995800525
40
70
1
LIST Vertical
0
TEXT
8
PART_ATTR
10
0
20
-41591.1995800525
40
70
1
INHERITANCE  PCB
0
TEXT
8
PART_ATTR
10
0
20
-41711.1995800525
40
70
1
INHERITANCE  PART DECAL
0
TEXT
8
PART_ATTR
10
0
20
-41831.1995800525
40
70
1
ECO_REGISTRATION N
0
TEXT
8
PART_ATTR
10
0
20
-41951.1995800525
40
70
1
READONLY Y
0
TEXT
8
PART_ATTR
10
0
20
-42071.1995800525
40
70
1
SYSTEM Y
0
TEXT
8
PART_ATTR
10
0
20
-42191.1995800525
40
70
1
HIDDEN Y
0
TEXT
8
PART_ATTR
10
0
20
-42311.1995800525
40
70
1
ATTRIBUTE Rules.Clearance.Trace.Trace
0
TEXT
8
PART_ATTR
10
0
20
-42431.1995800525
40
70
1
TYPE QUANTITY
0
TEXT
8
PART_ATTR
10
0
20
-42551.1995800525
40
70
1
QUANTITY Size/Dimension
0
TEXT
8
PART_ATTR
10
0
20
-42671.1995800525
40
70
1
ABBR 
0
TEXT
8
PART_ATTR
10
0
20
-42791.1995800525
40
70
1
UNIT 
0
TEXT
8
PART_ATTR
10
0
20
-42911.1995800525
40
70
1
MIN 
0
TEXT
8
PART_ATTR
10
0
20
-43031.1995800525
40
70
1
MAX 1000.00mil
0
TEXT
8
PART_ATTR
10
0
20
-43151.1995800525
40
70
1
INHERITANCE  PCB
0
TEXT
8
PART_ATTR
10
0
20
-43271.1995800525
40
70
1
INHERITANCE  PART DECAL
0
TEXT
8
PART_ATTR
10
0
20
-43391.1995800525
40
70
1
ECO_REGISTRATION N
0
TEXT
8
PART_ATTR
10
0
20
-43511.1995800525
40
70
1
READONLY Y
0
TEXT
8
PART_ATTR
10
0
20
-43631.1995800525
40
70
1
SYSTEM Y
0
TEXT
8
PART_ATTR
10
0
20
-43751.1995800525
40
70
1
HIDDEN Y
0
TEXT
8
PART_ATTR
10
0
20
-43871.1995800525
40
70
1
ATTRIBUTE Rules.Clearance.Via.Trace
0
TEXT
8
PART_ATTR
10
0
20
-43991.1995800525
40
70
1
TYPE QUANTITY
0
TEXT
8
PART_ATTR
10
0
20
-44111.1995800525
40
70
1
QUANTITY Size/Dimension
0
TEXT
8
PART_ATTR
10
0
20
-44231.1995800525
40
70
1
ABBR 
0
TEXT
8
PART_ATTR
10
0
20
-44351.1995800525
40
70
1
UNIT 
0
TEXT
8
PART_ATTR
10
0
20
-44471.1995800525
40
70
1
MIN 
0
TEXT
8
PART_ATTR
10
0
20
-44591.1995800525
40
70
1
MAX 1000.00mil
0
TEXT
8
PART_ATTR
10
0
20
-44711.1995800525
40
70
1
INHERITANCE  PCB
0
TEXT
8
PART_ATTR
10
0
20
-44831.1995800525
40
70
1
INHERITANCE  PART DECAL
0
TEXT
8
PART_ATTR
10
0
20
-44951.1995800525
40
70
1
ECO_REGISTRATION N
0
TEXT
8
PART_ATTR
10
0
20
-45071.1995800525
40
70
1
READONLY Y
0
TEXT
8
PART_ATTR
10
0
20
-45191.1995800525
40
70
1
SYSTEM Y
0
TEXT
8
PART_ATTR
10
0
20
-45311.1995800525
40
70
1
HIDDEN Y
0
TEXT
8
PART_ATTR
10
0
20
-45431.1995800525
40
70
1
ATTRIBUTE Rules.Clearance.Via.Via
0
TEXT
8
PART_ATTR
10
0
20
-45551.1995800525
40
70
1
TYPE QUANTITY
0
TEXT
8
PART_ATTR
10
0
20
-45671.1995800525
40
70
1
QUANTITY Size/Dimension
0
TEXT
8
PART_ATTR
10
0
20
-45791.1995800525
40
70
1
ABBR 
0
TEXT
8
PART_ATTR
10
0
20
-45911.1995800525
40
70
1
UNIT 
0
TEXT
8
PART_ATTR
10
0
20
-46031.1995800525
40
70
1
MIN 
0
TEXT
8
PART_ATTR
10
0
20
-46151.1995800525
40
70
1
MAX 1000.00mil
0
TEXT
8
PART_ATTR
10
0
20
-46271.1995800525
40
70
1
INHERITANCE  PCB
0
TEXT
8
PART_ATTR
10
0
20
-46391.1995800525
40
70
1
INHERITANCE  PART DECAL
0
TEXT
8
PART_ATTR
10
0
20
-46511.1995800525
40
70
1
ECO_REGISTRATION N
0
TEXT
8
PART_ATTR
10
0
20
-46631.1995800525
40
70
1
READONLY Y
0
TEXT
8
PART_ATTR
10
0
20
-46751.1995800525
40
70
1
SYSTEM Y
0
TEXT
8
PART_ATTR
10
0
20
-46871.1995800525
40
70
1
HIDDEN Y
0
TEXT
8
PART_ATTR
10
0
20
-46991.1995800525
40
70
1
ATTRIBUTE Rules.Clearance.Pad.Trace
0
TEXT
8
PART_ATTR
10
0
20
-47111.1995800525
40
70
1
TYPE QUANTITY
0
TEXT
8
PART_ATTR
10
0
20
-47231.1995800525
40
70
1
QUANTITY Size/Dimension
0
TEXT
8
PART_ATTR
10
0
20
-47351.1995800525
40
70
1
ABBR 
0
TEXT
8
PART_ATTR
10
0
20
-47471.1995800525
40
70
1
UNIT 
0
TEXT
8
PART_ATTR
10
0
20
-47591.1995800525
40
70
1
MIN 
0
TEXT
8
PART_ATTR
10
0
20
-47711.1995800525
40
70
1
MAX 1000.00mil
0
TEXT
8
PART_ATTR
10
0
20
-47831.1995800525
40
70
1
INHERITANCE  PCB
0
TEXT
8
PART_ATTR
10
0
20
-47951.1995800525
40
70
1
INHERITANCE  PART DECAL
0
TEXT
8
PART_ATTR
10
0
20
-48071.1995800525
40
70
1
ECO_REGISTRATION N
0
TEXT
8
PART_ATTR
10
0
20
-48191.1995800525
40
70
1
READONLY Y
0
TEXT
8
PART_ATTR
10
0
20
-48311.1995800525
40
70
1
SYSTEM Y
0
TEXT
8
PART_ATTR
10
0
20
-48431.1995800525
40
70
1
HIDDEN Y
0
TEXT
8
PART_ATTR
10
0
20
-48551.1995800525
40
70
1
ATTRIBUTE Rules.Clearance.Pad.Via
0
TEXT
8
PART_ATTR
10
0
20
-48671.1995800525
40
70
1
TYPE QUANTITY
0
TEXT
8
PART_ATTR
10
0
20
-48791.1995800525
40
70
1
QUANTITY Size/Dimension
0
TEXT
8
PART_ATTR
10
0
20
-48911.1995800525
40
70
1
ABBR 
0
TEXT
8
PART_ATTR
10
0
20
-49031.1995800525
40
70
1
UNIT 
0
TEXT
8
PART_ATTR
10
0
20
-49151.1995800525
40
70
1
MIN 
0
TEXT
8
PART_ATTR
10
0
20
-49271.1995800525
40
70
1
MAX 1000.00mil
0
TEXT
8
PART_ATTR
10
0
20
-49391.1995800525
40
70
1
INHERITANCE  PCB
0
TEXT
8
PART_ATTR
10
0
20
-49511.1995800525
40
70
1
INHERITANCE  PART DECAL
0
TEXT
8
PART_ATTR
10
0
20
-49631.1995800525
40
70
1
ECO_REGISTRATION N
0
TEXT
8
PART_ATTR
10
0
20
-49751.1995800525
40
70
1
READONLY Y
0
TEXT
8
PART_ATTR
10
0
20
-49871.1995800525
40
70
1
SYSTEM Y
0
TEXT
8
PART_ATTR
10
0
20
-49991.1995800525
40
70
1
HIDDEN Y
0
TEXT
8
PART_ATTR
10
0
20
-50111.1995800525
40
70
1
ATTRIBUTE Rules.Clearance.Pad.Pad
0
TEXT
8
PART_ATTR
10
0
20
-50231.1995800525
40
70
1
TYPE QUANTITY
0
TEXT
8
PART_ATTR
10
0
20
-50351.1995800525
40
70
1
QUANTITY Size/Dimension
0
TEXT
8
PART_ATTR
10
0
20
-50471.1995800525
40
70
1
ABBR 
0
TEXT
8
PART_ATTR
10
0
20
-50591.1995800525
40
70
1
UNIT 
0
TEXT
8
PART_ATTR
10
0
20
-50711.1995800525
40
70
1
MIN 
0
TEXT
8
PART_ATTR
10
0
20
-50831.1995800525
40
70
1
MAX 1000.00mil
0
TEXT
8
PART_ATTR
10
0
20
-50951.1995800525
40
70
1
INHERITANCE  PCB
0
TEXT
8
PART_ATTR
10
0
20
-51071.1995800525
40
70
1
INHERITANCE  PART DECAL
0
TEXT
8
PART_ATTR
10
0
20
-51191.1995800525
40
70
1
ECO_REGISTRATION N
0
TEXT
8
PART_ATTR
10
0
20
-51311.1995800525
40
70
1
READONLY Y
0
TEXT
8
PART_ATTR
10
0
20
-51431.1995800525
40
70
1
SYSTEM Y
0
TEXT
8
PART_ATTR
10
0
20
-51551.1995800525
40
70
1
HIDDEN Y
0
TEXT
8
PART_ATTR
10
0
20
-51671.1995800525
40
70
1
ATTRIBUTE Rules.Clearance.SMD.Trace
0
TEXT
8
PART_ATTR
10
0
20
-51791.1995800525
40
70
1
TYPE QUANTITY
0
TEXT
8
PART_ATTR
10
0
20
-51911.1995800525
40
70
1
QUANTITY Size/Dimension
0
TEXT
8
PART_ATTR
10
0
20
-52031.1995800525
40
70
1
ABBR 
0
TEXT
8
PART_ATTR
10
0
20
-52151.1995800525
40
70
1
UNIT 
0
TEXT
8
PART_ATTR
10
0
20
-52271.1995800525
40
70
1
MIN 
0
TEXT
8
PART_ATTR
10
0
20
-52391.1995800525
40
70
1
MAX 1000.00mil
0
TEXT
8
PART_ATTR
10
0
20
-52511.1995800525
40
70
1
INHERITANCE  PCB
0
TEXT
8
PART_ATTR
10
0
20
-52631.1995800525
40
70
1
INHERITANCE  PART DECAL
0
TEXT
8
PART_ATTR
10
0
20
-52751.1995800525
40
70
1
ECO_REGISTRATION N
0
TEXT
8
PART_ATTR
10
0
20
-52871.1995800525
40
70
1
READONLY Y
0
TEXT
8
PART_ATTR
10
0
20
-52991.1995800525
40
70
1
SYSTEM Y
0
TEXT
8
PART_ATTR
10
0
20
-53111.1995800525
40
70
1
HIDDEN Y
0
TEXT
8
PART_ATTR
10
0
20
-53231.1995800525
40
70
1
ATTRIBUTE Rules.Clearance.SMD.Via
0
TEXT
8
PART_ATTR
10
0
20
-53351.1995800525
40
70
1
TYPE QUANTITY
0
TEXT
8
PART_ATTR
10
0
20
-53471.1995800525
40
70
1
QUANTITY Size/Dimension
0
TEXT
8
PART_ATTR
10
0
20
-53591.1995800525
40
70
1
ABBR 
0
TEXT
8
PART_ATTR
10
0
20
-53711.1995800525
40
70
1
UNIT 
0
TEXT
8
PART_ATTR
10
0
20
-53831.1995800525
40
70
1
MIN 
0
TEXT
8
PART_ATTR
10
0
20
-53951.1995800525
40
70
1
MAX 1000.00mil
0
TEXT
8
PART_ATTR
10
0
20
-54071.1995800525
40
70
1
INHERITANCE  PCB
0
TEXT
8
PART_ATTR
10
0
20
-54191.1995800525
40
70
1
INHERITANCE  PART DECAL
0
TEXT
8
PART_ATTR
10
0
20
-54311.1995800525
40
70
1
ECO_REGISTRATION N
0
TEXT
8
PART_ATTR
10
0
20
-54431.1995800525
40
70
1
READONLY Y
0
TEXT
8
PART_ATTR
10
0
20
-54551.1995800525
40
70
1
SYSTEM Y
0
TEXT
8
PART_ATTR
10
0
20
-54671.1995800525
40
70
1
HIDDEN Y
0
TEXT
8
PART_ATTR
10
0
20
-54791.1995800525
40
70
1
ATTRIBUTE Rules.Clearance.SMD.Pad
0
TEXT
8
PART_ATTR
10
0
20
-54911.1995800525
40
70
1
TYPE QUANTITY
0
TEXT
8
PART_ATTR
10
0
20
-55031.1995800525
40
70
1
QUANTITY Size/Dimension
0
TEXT
8
PART_ATTR
10
0
20
-55151.1995800525
40
70
1
ABBR 
0
TEXT
8
PART_ATTR
10
0
20
-55271.1995800525
40
70
1
UNIT 
0
TEXT
8
PART_ATTR
10
0
20
-55391.1995800525
40
70
1
MIN 
0
TEXT
8
PART_ATTR
10
0
20
-55511.1995800525
40
70
1
MAX 1000.00mil
0
TEXT
8
PART_ATTR
10
0
20
-55631.1995800525
40
70
1
INHERITANCE  PCB
0
TEXT
8
PART_ATTR
10
0
20
-55751.1995800525
40
70
1
INHERITANCE  PART DECAL
0
TEXT
8
PART_ATTR
10
0
20
-55871.1995800525
40
70
1
ECO_REGISTRATION N
0
TEXT
8
PART_ATTR
10
0
20
-55991.1995800525
40
70
1
READONLY Y
0
TEXT
8
PART_ATTR
10
0
20
-56111.1995800525
40
70
1
SYSTEM Y
0
TEXT
8
PART_ATTR
10
0
20
-56231.1995800525
40
70
1
HIDDEN Y
0
TEXT
8
PART_ATTR
10
0
20
-56351.1995800525
40
70
1
ATTRIBUTE Rules.Clearance.SMD.SMD
0
TEXT
8
PART_ATTR
10
0
20
56257.600839895
40
70
1
TYPE QUANTITY
0
TEXT
8
PART_ATTR
10
0
20
56137.600839895
40
70
1
QUANTITY Size/Dimension
0
TEXT
8
PART_ATTR
10
0
20
56017.600839895
40
70
1
ABBR 
0
TEXT
8
PART_ATTR
10
0
20
55897.600839895
40
70
1
UNIT 
0
TEXT
8
PART_ATTR
10
0
20
55777.600839895
40
70
1
MIN 
0
TEXT
8
PART_ATTR
10
0
20
55657.600839895
40
70
1
MAX 1000.00mil
0
TEXT
8
PART_ATTR
10
0
20
55537.600839895
40
70
1
INHERITANCE  PCB
0
TEXT
8
PART_ATTR
10
0
20
55417.600839895
40
70
1
INHERITANCE  PART DECAL
0
TEXT
8
PART_ATTR
10
0
20
55297.600839895
40
70
1
ECO_REGISTRATION N
0
TEXT
8
PART_ATTR
10
0
20
55177.600839895
40
70
1
READONLY Y
0
TEXT
8
PART_ATTR
10
0
20
55057.600839895
40
70
1
SYSTEM Y
0
TEXT
8
PART_ATTR
10
0
20
54937.600839895
40
70
1
HIDDEN Y
0
TEXT
8
PART_ATTR
10
0
20
54817.600839895
40
70
1
ATTRIBUTE Rules.Clearance.Copper.Trace
0
TEXT
8
PART_ATTR
10
0
20
54697.600839895
40
70
1
TYPE QUANTITY
0
TEXT
8
PART_ATTR
10
0
20
54577.600839895
40
70
1
QUANTITY Size/Dimension
0
TEXT
8
PART_ATTR
10
0
20
54457.600839895
40
70
1
ABBR 
0
TEXT
8
PART_ATTR
10
0
20
54337.600839895
40
70
1
UNIT 
0
TEXT
8
PART_ATTR
10
0
20
54217.600839895
40
70
1
MIN 
0
TEXT
8
PART_ATTR
10
0
20
54097.600839895
40
70
1
MAX 1000.00mil
0
TEXT
8
PART_ATTR
10
0
20
53977.600839895
40
70
1
INHERITANCE  PCB
0
TEXT
8
PART_ATTR
10
0
20
53857.600839895
40
70
1
INHERITANCE  PART DECAL
0
TEXT
8
PART_ATTR
10
0
20
53737.600839895
40
70
1
ECO_REGISTRATION N
0
TEXT
8
PART_ATTR
10
0
20
53617.600839895
40
70
1
READONLY Y
0
TEXT
8
PART_ATTR
10
0
20
53497.600839895
40
70
1
SYSTEM Y
0
TEXT
8
PART_ATTR
10
0
20
53377.600839895
40
70
1
HIDDEN Y
0
TEXT
8
PART_ATTR
10
0
20
53257.600839895
40
70
1
ATTRIBUTE Rules.Clearance.Copper.Via
0
TEXT
8
PART_ATTR
10
0
20
53137.600839895
40
70
1
TYPE QUANTITY
0
TEXT
8
PART_ATTR
10
0
20
53017.600839895
40
70
1
QUANTITY Size/Dimension
0
TEXT
8
PART_ATTR
10
0
20
52897.600839895
40
70
1
ABBR 
0
TEXT
8
PART_ATTR
10
0
20
52777.600839895
40
70
1
UNIT 
0
TEXT
8
PART_ATTR
10
0
20
52657.600839895
40
70
1
MIN 
0
TEXT
8
PART_ATTR
10
0
20
52537.600839895
40
70
1
MAX 1000.00mil
0
TEXT
8
PART_ATTR
10
0
20
52417.600839895
40
70
1
INHERITANCE  PCB
0
TEXT
8
PART_ATTR
10
0
20
52297.600839895
40
70
1
INHERITANCE  PART DECAL
0
TEXT
8
PART_ATTR
10
0
20
52177.600839895
40
70
1
ECO_REGISTRATION N
0
TEXT
8
PART_ATTR
10
0
20
52057.600839895
40
70
1
READONLY Y
0
TEXT
8
PART_ATTR
10
0
20
51937.600839895
40
70
1
SYSTEM Y
0
TEXT
8
PART_ATTR
10
0
20
51817.600839895
40
70
1
HIDDEN Y
0
TEXT
8
PART_ATTR
10
0
20
51697.600839895
40
70
1
ATTRIBUTE Rules.Clearance.Copper.Pad
0
TEXT
8
PART_ATTR
10
0
20
51577.600839895
40
70
1
TYPE QUANTITY
0
TEXT
8
PART_ATTR
10
0
20
51457.600839895
40
70
1
QUANTITY Size/Dimension
0
TEXT
8
PART_ATTR
10
0
20
51337.600839895
40
70
1
ABBR 
0
TEXT
8
PART_ATTR
10
0
20
51217.600839895
40
70
1
UNIT 
0
TEXT
8
PART_ATTR
10
0
20
51097.600839895
40
70
1
MIN 
0
TEXT
8
PART_ATTR
10
0
20
50977.600839895
40
70
1
MAX 1000.00mil
0
TEXT
8
PART_ATTR
10
0
20
50857.600839895
40
70
1
INHERITANCE  PCB
0
TEXT
8
PART_ATTR
10
0
20
50737.600839895
40
70
1
INHERITANCE  PART DECAL
0
TEXT
8
PART_ATTR
10
0
20
50617.600839895
40
70
1
ECO_REGISTRATION N
0
TEXT
8
PART_ATTR
10
0
20
50497.600839895
40
70
1
READONLY Y
0
TEXT
8
PART_ATTR
10
0
20
50377.600839895
40
70
1
SYSTEM Y
0
TEXT
8
PART_ATTR
10
0
20
50257.600839895
40
70
1
HIDDEN Y
0
TEXT
8
PART_ATTR
10
0
20
50137.600839895
40
70
1
ATTRIBUTE Rules.Clearance.Copper.SMD
0
TEXT
8
PART_ATTR
10
0
20
50017.600839895
40
70
1
TYPE QUANTITY
0
TEXT
8
PART_ATTR
10
0
20
49897.600839895
40
70
1
QUANTITY Size/Dimension
0
TEXT
8
PART_ATTR
10
0
20
49777.600839895
40
70
1
ABBR 
0
TEXT
8
PART_ATTR
10
0
20
49657.600839895
40
70
1
UNIT 
0
TEXT
8
PART_ATTR
10
0
20
49537.600839895
40
70
1
MIN 
0
TEXT
8
PART_ATTR
10
0
20
49417.600839895
40
70
1
MAX 1000.00mil
0
TEXT
8
PART_ATTR
10
0
20
49297.600839895
40
70
1
INHERITANCE  PCB
0
TEXT
8
PART_ATTR
10
0
20
49177.600839895
40
70
1
INHERITANCE  PART DECAL
0
TEXT
8
PART_ATTR
10
0
20
49057.600839895
40
70
1
ECO_REGISTRATION N
0
TEXT
8
PART_ATTR
10
0
20
48937.600839895
40
70
1
READONLY Y
0
TEXT
8
PART_ATTR
10
0
20
48817.600839895
40
70
1
SYSTEM Y
0
TEXT
8
PART_ATTR
10
0
20
48697.600839895
40
70
1
HIDDEN Y
0
TEXT
8
PART_ATTR
10
0
20
48577.600839895
40
70
1
ATTRIBUTE Rules.Clearance.Text.Trace
0
TEXT
8
PART_ATTR
10
0
20
48457.600839895
40
70
1
TYPE QUANTITY
0
TEXT
8
PART_ATTR
10
0
20
48337.600839895
40
70
1
QUANTITY Size/Dimension
0
TEXT
8
PART_ATTR
10
0
20
48217.600839895
40
70
1
ABBR 
0
TEXT
8
PART_ATTR
10
0
20
48097.600839895
40
70
1
UNIT 
0
TEXT
8
PART_ATTR
10
0
20
47977.600839895
40
70
1
MIN 
0
TEXT
8
PART_ATTR
10
0
20
47857.600839895
40
70
1
MAX 1000.00mil
0
TEXT
8
PART_ATTR
10
0
20
47737.600839895
40
70
1
INHERITANCE  PCB
0
TEXT
8
PART_ATTR
10
0
20
47617.600839895
40
70
1
INHERITANCE  PART DECAL
0
TEXT
8
PART_ATTR
10
0
20
47497.600839895
40
70
1
ECO_REGISTRATION N
0
TEXT
8
PART_ATTR
10
0
20
47377.600839895
40
70
1
READONLY Y
0
TEXT
8
PART_ATTR
10
0
20
47257.600839895
40
70
1
SYSTEM Y
0
TEXT
8
PART_ATTR
10
0
20
47137.600839895
40
70
1
HIDDEN Y
0
TEXT
8
PART_ATTR
10
0
20
47017.600839895
40
70
1
ATTRIBUTE Rules.Clearance.Text.Via
0
TEXT
8
PART_ATTR
10
0
20
46897.600839895
40
70
1
TYPE QUANTITY
0
TEXT
8
PART_ATTR
10
0
20
46777.600839895
40
70
1
QUANTITY Size/Dimension
0
TEXT
8
PART_ATTR
10
0
20
46657.600839895
40
70
1
ABBR 
0
TEXT
8
PART_ATTR
10
0
20
46537.600839895
40
70
1
UNIT 
0
TEXT
8
PART_ATTR
10
0
20
46417.600839895
40
70
1
MIN 
0
TEXT
8
PART_ATTR
10
0
20
46297.600839895
40
70
1
MAX 1000.00mil
0
TEXT
8
PART_ATTR
10
0
20
46177.600839895
40
70
1
INHERITANCE  PCB
0
TEXT
8
PART_ATTR
10
0
20
46057.600839895
40
70
1
INHERITANCE  PART DECAL
0
TEXT
8
PART_ATTR
10
0
20
45937.600839895
40
70
1
ECO_REGISTRATION N
0
TEXT
8
PART_ATTR
10
0
20
45817.600839895
40
70
1
READONLY Y
0
TEXT
8
PART_ATTR
10
0
20
45697.600839895
40
70
1
SYSTEM Y
0
TEXT
8
PART_ATTR
10
0
20
45577.600839895
40
70
1
HIDDEN Y
0
TEXT
8
PART_ATTR
10
0
20
45457.600839895
40
70
1
ATTRIBUTE Rules.Clearance.Text.Pad
0
TEXT
8
PART_ATTR
10
0
20
45337.600839895
40
70
1
TYPE QUANTITY
0
TEXT
8
PART_ATTR
10
0
20
45217.600839895
40
70
1
QUANTITY Size/Dimension
0
TEXT
8
PART_ATTR
10
0
20
45097.600839895
40
70
1
ABBR 
0
TEXT
8
PART_ATTR
10
0
20
44977.600839895
40
70
1
UNIT 
0
TEXT
8
PART_ATTR
10
0
20
44857.600839895
40
70
1
MIN 
0
TEXT
8
PART_ATTR
10
0
20
44737.600839895
40
70
1
MAX 1000.00mil
0
TEXT
8
PART_ATTR
10
0
20
44617.600839895
40
70
1
INHERITANCE  PCB
0
TEXT
8
PART_ATTR
10
0
20
44497.600839895
40
70
1
INHERITANCE  PART DECAL
0
TEXT
8
PART_ATTR
10
0
20
44377.600839895
40
70
1
ECO_REGISTRATION N
0
TEXT
8
PART_ATTR
10
0
20
44257.600839895
40
70
1
READONLY Y
0
TEXT
8
PART_ATTR
10
0
20
44137.600839895
40
70
1
SYSTEM Y
0
TEXT
8
PART_ATTR
10
0
20
44017.600839895
40
70
1
HIDDEN Y
0
TEXT
8
PART_ATTR
10
0
20
43897.600839895
40
70
1
ATTRIBUTE Rules.Clearance.Text.SMD
0
TEXT
8
PART_ATTR
10
0
20
43777.600839895
40
70
1
TYPE QUANTITY
0
TEXT
8
PART_ATTR
10
0
20
43657.600839895
40
70
1
QUANTITY Size/Dimension
0
TEXT
8
PART_ATTR
10
0
20
43537.600839895
40
70
1
ABBR 
0
TEXT
8
PART_ATTR
10
0
20
43417.600839895
40
70
1
UNIT 
0
TEXT
8
PART_ATTR
10
0
20
43297.600839895
40
70
1
MIN 
0
TEXT
8
PART_ATTR
10
0
20
43177.600839895
40
70
1
MAX 1000.00mil
0
TEXT
8
PART_ATTR
10
0
20
43057.600839895
40
70
1
INHERITANCE  PCB
0
TEXT
8
PART_ATTR
10
0
20
42937.600839895
40
70
1
INHERITANCE  PART DECAL
0
TEXT
8
PART_ATTR
10
0
20
42817.600839895
40
70
1
ECO_REGISTRATION N
0
TEXT
8
PART_ATTR
10
0
20
42697.600839895
40
70
1
READONLY Y
0
TEXT
8
PART_ATTR
10
0
20
42577.600839895
40
70
1
SYSTEM Y
0
TEXT
8
PART_ATTR
10
0
20
42457.600839895
40
70
1
HIDDEN Y
0
TEXT
8
PART_ATTR
10
0
20
42337.600839895
40
70
1
ATTRIBUTE Rules.Clearance.Board.Trace
0
TEXT
8
PART_ATTR
10
0
20
42217.600839895
40
70
1
TYPE QUANTITY
0
TEXT
8
PART_ATTR
10
0
20
42097.600839895
40
70
1
QUANTITY Size/Dimension
0
TEXT
8
PART_ATTR
10
0
20
41977.600839895
40
70
1
ABBR 
0
TEXT
8
PART_ATTR
10
0
20
41857.600839895
40
70
1
UNIT 
0
TEXT
8
PART_ATTR
10
0
20
41737.600839895
40
70
1
MIN 
0
TEXT
8
PART_ATTR
10
0
20
41617.600839895
40
70
1
MAX 1000.00mil
0
TEXT
8
PART_ATTR
10
0
20
41497.600839895
40
70
1
INHERITANCE  PCB
0
TEXT
8
PART_ATTR
10
0
20
41377.600839895
40
70
1
INHERITANCE  PART DECAL
0
TEXT
8
PART_ATTR
10
0
20
41257.600839895
40
70
1
ECO_REGISTRATION N
0
TEXT
8
PART_ATTR
10
0
20
41137.600839895
40
70
1
READONLY Y
0
TEXT
8
PART_ATTR
10
0
20
41017.600839895
40
70
1
SYSTEM Y
0
TEXT
8
PART_ATTR
10
0
20
40897.600839895
40
70
1
HIDDEN Y
0
TEXT
8
PART_ATTR
10
0
20
40777.600839895
40
70
1
ATTRIBUTE Rules.Clearance.Board.Via
0
TEXT
8
PART_ATTR
10
0
20
40657.600839895
40
70
1
TYPE QUANTITY
0
TEXT
8
PART_ATTR
10
0
20
40537.600839895
40
70
1
QUANTITY Size/Dimension
0
TEXT
8
PART_ATTR
10
0
20
40417.600839895
40
70
1
ABBR 
0
TEXT
8
PART_ATTR
10
0
20
40297.600839895
40
70
1
UNIT 
0
TEXT
8
PART_ATTR
10
0
20
40177.600839895
40
70
1
MIN 
0
TEXT
8
PART_ATTR
10
0
20
40057.600839895
40
70
1
MAX 1000.00mil
0
TEXT
8
PART_ATTR
10
0
20
39937.600839895
40
70
1
INHERITANCE  PCB
0
TEXT
8
PART_ATTR
10
0
20
39817.600839895
40
70
1
INHERITANCE  PART DECAL
0
TEXT
8
PART_ATTR
10
0
20
39697.600839895
40
70
1
ECO_REGISTRATION N
0
TEXT
8
PART_ATTR
10
0
20
39577.600839895
40
70
1
READONLY Y
0
TEXT
8
PART_ATTR
10
0
20
39457.600839895
40
70
1
SYSTEM Y
0
TEXT
8
PART_ATTR
10
0
20
39337.600839895
40
70
1
HIDDEN Y
0
TEXT
8
PART_ATTR
10
0
20
39217.600839895
40
70
1
ATTRIBUTE Rules.Clearance.Board.Pad
0
TEXT
8
PART_ATTR
10
0
20
39097.600839895
40
70
1
TYPE QUANTITY
0
TEXT
8
PART_ATTR
10
0
20
38977.600839895
40
70
1
QUANTITY Size/Dimension
0
TEXT
8
PART_ATTR
10
0
20
38857.600839895
40
70
1
ABBR 
0
TEXT
8
PART_ATTR
10
0
20
38737.600839895
40
70
1
UNIT 
0
TEXT
8
PART_ATTR
10
0
20
38617.600839895
40
70
1
MIN 
0
TEXT
8
PART_ATTR
10
0
20
38497.600839895
40
70
1
MAX 1000.00mil
0
TEXT
8
PART_ATTR
10
0
20
38377.600839895
40
70
1
INHERITANCE  PCB
0
TEXT
8
PART_ATTR
10
0
20
38257.600839895
40
70
1
INHERITANCE  PART DECAL
0
TEXT
8
PART_ATTR
10
0
20
38137.600839895
40
70
1
ECO_REGISTRATION N
0
TEXT
8
PART_ATTR
10
0
20
38017.600839895
40
70
1
READONLY Y
0
TEXT
8
PART_ATTR
10
0
20
37897.600839895
40
70
1
SYSTEM Y
0
TEXT
8
PART_ATTR
10
0
20
37777.600839895
40
70
1
HIDDEN Y
0
TEXT
8
PART_ATTR
10
0
20
37657.600839895
40
70
1
ATTRIBUTE Rules.Clearance.Board.SMD
0
TEXT
8
PART_ATTR
10
0
20
37537.600839895
40
70
1
TYPE QUANTITY
0
TEXT
8
PART_ATTR
10
0
20
37417.600839895
40
70
1
QUANTITY Size/Dimension
0
TEXT
8
PART_ATTR
10
0
20
37297.600839895
40
70
1
ABBR 
0
TEXT
8
PART_ATTR
10
0
20
37177.600839895
40
70
1
UNIT 
0
TEXT
8
PART_ATTR
10
0
20
37057.600839895
40
70
1
MIN 
0
TEXT
8
PART_ATTR
10
0
20
36937.600839895
40
70
1
MAX 1000.00mil
0
TEXT
8
PART_ATTR
10
0
20
36817.600839895
40
70
1
INHERITANCE  PCB
0
TEXT
8
PART_ATTR
10
0
20
36697.600839895
40
70
1
INHERITANCE  PART DECAL
0
TEXT
8
PART_ATTR
10
0
20
36577.600839895
40
70
1
ECO_REGISTRATION N
0
TEXT
8
PART_ATTR
10
0
20
36457.600839895
40
70
1
READONLY Y
0
TEXT
8
PART_ATTR
10
0
20
36337.600839895
40
70
1
SYSTEM Y
0
TEXT
8
PART_ATTR
10
0
20
36217.600839895
40
70
1
HIDDEN Y
0
TEXT
8
PART_ATTR
10
0
20
36097.600839895
40
70
1
ATTRIBUTE Rules.Clearance.Drill.Trace
0
TEXT
8
PART_ATTR
10
0
20
35977.600839895
40
70
1
TYPE QUANTITY
0
TEXT
8
PART_ATTR
10
0
20
35857.600839895
40
70
1
QUANTITY Size/Dimension
0
TEXT
8
PART_ATTR
10
0
20
35737.600839895
40
70
1
ABBR 
0
TEXT
8
PART_ATTR
10
0
20
35617.600839895
40
70
1
UNIT 
0
TEXT
8
PART_ATTR
10
0
20
35497.600839895
40
70
1
MIN 
0
TEXT
8
PART_ATTR
10
0
20
35377.600839895
40
70
1
MAX 1000.00mil
0
TEXT
8
PART_ATTR
10
0
20
35257.600839895
40
70
1
INHERITANCE  PCB
0
TEXT
8
PART_ATTR
10
0
20
35137.600839895
40
70
1
INHERITANCE  PART DECAL
0
TEXT
8
PART_ATTR
10
0
20
35017.600839895
40
70
1
ECO_REGISTRATION N
0
TEXT
8
PART_ATTR
10
0
20
34897.600839895
40
70
1
READONLY Y
0
TEXT
8
PART_ATTR
10
0
20
34777.600839895
40
70
1
SYSTEM Y
0
TEXT
8
PART_ATTR
10
0
20
34657.600839895
40
70
1
HIDDEN Y
0
TEXT
8
PART_ATTR
10
0
20
34537.600839895
40
70
1
ATTRIBUTE Rules.Clearance.Drill.Via
0
TEXT
8
PART_ATTR
10
0
20
34417.600839895
40
70
1
TYPE QUANTITY
0
TEXT
8
PART_ATTR
10
0
20
34297.600839895
40
70
1
QUANTITY Size/Dimension
0
TEXT
8
PART_ATTR
10
0
20
34177.600839895
40
70
1
ABBR 
0
TEXT
8
PART_ATTR
10
0
20
34057.600839895
40
70
1
UNIT 
0
TEXT
8
PART_ATTR
10
0
20
33937.600839895
40
70
1
MIN 
0
TEXT
8
PART_ATTR
10
0
20
33817.600839895
40
70
1
MAX 1000.00mil
0
TEXT
8
PART_ATTR
10
0
20
33697.600839895
40
70
1
INHERITANCE  PCB
0
TEXT
8
PART_ATTR
10
0
20
33577.600839895
40
70
1
INHERITANCE  PART DECAL
0
TEXT
8
PART_ATTR
10
0
20
33457.600839895
40
70
1
ECO_REGISTRATION N
0
TEXT
8
PART_ATTR
10
0
20
33337.600839895
40
70
1
READONLY Y
0
TEXT
8
PART_ATTR
10
0
20
33217.600839895
40
70
1
SYSTEM Y
0
TEXT
8
PART_ATTR
10
0
20
33097.600839895
40
70
1
HIDDEN Y
0
TEXT
8
PART_ATTR
10
0
20
32977.600839895
40
70
1
ATTRIBUTE Rules.Clearance.Drill.Pad
0
TEXT
8
PART_ATTR
10
0
20
32857.600839895
40
70
1
TYPE QUANTITY
0
TEXT
8
PART_ATTR
10
0
20
32737.600839895
40
70
1
QUANTITY Size/Dimension
0
TEXT
8
PART_ATTR
10
0
20
32617.600839895
40
70
1
ABBR 
0
TEXT
8
PART_ATTR
10
0
20
32497.600839895
40
70
1
UNIT 
0
TEXT
8
PART_ATTR
10
0
20
32377.600839895
40
70
1
MIN 
0
TEXT
8
PART_ATTR
10
0
20
32257.600839895
40
70
1
MAX 1000.00mil
0
TEXT
8
PART_ATTR
10
0
20
32137.600839895
40
70
1
INHERITANCE  PCB
0
TEXT
8
PART_ATTR
10
0
20
32017.600839895
40
70
1
INHERITANCE  PART DECAL
0
TEXT
8
PART_ATTR
10
0
20
31897.600839895
40
70
1
ECO_REGISTRATION N
0
TEXT
8
PART_ATTR
10
0
20
31777.600839895
40
70
1
READONLY Y
0
TEXT
8
PART_ATTR
10
0
20
31657.600839895
40
70
1
SYSTEM Y
0
TEXT
8
PART_ATTR
10
0
20
31537.600839895
40
70
1
HIDDEN Y
0
TEXT
8
PART_ATTR
10
0
20
31417.600839895
40
70
1
ATTRIBUTE Rules.Clearance.Drill.SMD
0
TEXT
8
PART_ATTR
10
0
20
31297.600839895
40
70
1
TYPE QUANTITY
0
TEXT
8
PART_ATTR
10
0
20
31177.600839895
40
70
1
QUANTITY Size/Dimension
0
TEXT
8
PART_ATTR
10
0
20
31057.600839895
40
70
1
ABBR 
0
TEXT
8
PART_ATTR
10
0
20
30937.600839895
40
70
1
UNIT 
0
TEXT
8
PART_ATTR
10
0
20
30817.600839895
40
70
1
MIN 
0
TEXT
8
PART_ATTR
10
0
20
30697.600839895
40
70
1
MAX 1000.00mil
0
TEXT
8
PART_ATTR
10
0
20
30577.600839895
40
70
1
INHERITANCE  PCB
0
TEXT
8
PART_ATTR
10
0
20
30457.600839895
40
70
1
INHERITANCE  PART DECAL
0
TEXT
8
PART_ATTR
10
0
20
30337.600839895
40
70
1
ECO_REGISTRATION N
0
TEXT
8
PART_ATTR
10
0
20
30217.600839895
40
70
1
READONLY Y
0
TEXT
8
PART_ATTR
10
0
20
30097.600839895
40
70
1
SYSTEM Y
0
TEXT
8
PART_ATTR
10
0
20
29977.600839895
40
70
1
HIDDEN Y
0
TEXT
8
PART_ATTR
10
0
20
29857.600839895
40
70
1
ATTRIBUTE Rules.SameNet.SMD.Via
0
TEXT
8
PART_ATTR
10
0
20
29737.600839895
40
70
1
TYPE QUANTITY
0
TEXT
8
PART_ATTR
10
0
20
29617.600839895
40
70
1
QUANTITY Size/Dimension
0
TEXT
8
PART_ATTR
10
0
20
29497.600839895
40
70
1
ABBR 
0
TEXT
8
PART_ATTR
10
0
20
29377.600839895
40
70
1
UNIT 
0
TEXT
8
PART_ATTR
10
0
20
29257.600839895
40
70
1
MIN 
0
TEXT
8
PART_ATTR
10
0
20
29137.600839895
40
70
1
MAX 1000.00mil
0
TEXT
8
PART_ATTR
10
0
20
29017.600839895
40
70
1
INHERITANCE  PCB
0
TEXT
8
PART_ATTR
10
0
20
28897.600839895
40
70
1
INHERITANCE  PART DECAL
0
TEXT
8
PART_ATTR
10
0
20
28777.600839895
40
70
1
ECO_REGISTRATION N
0
TEXT
8
PART_ATTR
10
0
20
28657.600839895
40
70
1
READONLY Y
0
TEXT
8
PART_ATTR
10
0
20
28537.600839895
40
70
1
SYSTEM Y
0
TEXT
8
PART_ATTR
10
0
20
28417.600839895
40
70
1
HIDDEN Y
0
TEXT
8
PART_ATTR
10
0
20
28297.600839895
40
70
1
ATTRIBUTE Rules.SameNet.SMD.Crn
0
TEXT
8
PART_ATTR
10
0
20
28177.600839895
40
70
1
TYPE QUANTITY
0
TEXT
8
PART_ATTR
10
0
20
28057.600839895
40
70
1
QUANTITY Size/Dimension
0
TEXT
8
PART_ATTR
10
0
20
27937.600839895
40
70
1
ABBR 
0
TEXT
8
PART_ATTR
10
0
20
27817.600839895
40
70
1
UNIT 
0
TEXT
8
PART_ATTR
10
0
20
27697.600839895
40
70
1
MIN 
0
TEXT
8
PART_ATTR
10
0
20
27577.600839895
40
70
1
MAX 1000.00mil
0
TEXT
8
PART_ATTR
10
0
20
27457.600839895
40
70
1
INHERITANCE  PCB
0
TEXT
8
PART_ATTR
10
0
20
27337.600839895
40
70
1
INHERITANCE  PART DECAL
0
TEXT
8
PART_ATTR
10
0
20
27217.600839895
40
70
1
ECO_REGISTRATION N
0
TEXT
8
PART_ATTR
10
0
20
27097.600839895
40
70
1
READONLY Y
0
TEXT
8
PART_ATTR
10
0
20
26977.600839895
40
70
1
SYSTEM Y
0
TEXT
8
PART_ATTR
10
0
20
26857.600839895
40
70
1
HIDDEN Y
0
TEXT
8
PART_ATTR
10
0
20
26737.600839895
40
70
1
ATTRIBUTE Rules.SameNet.Via.Via
0
TEXT
8
PART_ATTR
10
0
20
26617.600839895
40
70
1
TYPE QUANTITY
0
TEXT
8
PART_ATTR
10
0
20
26497.600839895
40
70
1
QUANTITY Size/Dimension
0
TEXT
8
PART_ATTR
10
0
20
26377.600839895
40
70
1
ABBR 
0
TEXT
8
PART_ATTR
10
0
20
26257.600839895
40
70
1
UNIT 
0
TEXT
8
PART_ATTR
10
0
20
26137.600839895
40
70
1
MIN 
0
TEXT
8
PART_ATTR
10
0
20
26017.600839895
40
70
1
MAX 1000.00mil
0
TEXT
8
PART_ATTR
10
0
20
25897.600839895
40
70
1
INHERITANCE  PCB
0
TEXT
8
PART_ATTR
10
0
20
25777.600839895
40
70
1
INHERITANCE  PART DECAL
0
TEXT
8
PART_ATTR
10
0
20
25657.600839895
40
70
1
ECO_REGISTRATION N
0
TEXT
8
PART_ATTR
10
0
20
25537.600839895
40
70
1
READONLY Y
0
TEXT
8
PART_ATTR
10
0
20
25417.600839895
40
70
1
SYSTEM Y
0
TEXT
8
PART_ATTR
10
0
20
25297.600839895
40
70
1
HIDDEN Y
0
TEXT
8
PART_ATTR
10
0
20
25177.600839895
40
70
1
ATTRIBUTE Rules.SameNet.Pad.Crn
0
TEXT
8
PART_ATTR
10
0
20
25057.600839895
40
70
1
TYPE QUANTITY
0
TEXT
8
PART_ATTR
10
0
20
24937.600839895
40
70
1
QUANTITY Size/Dimension
0
TEXT
8
PART_ATTR
10
0
20
24817.600839895
40
70
1
ABBR 
0
TEXT
8
PART_ATTR
10
0
20
24697.600839895
40
70
1
UNIT 
0
TEXT
8
PART_ATTR
10
0
20
24577.600839895
40
70
1
MIN 
0
TEXT
8
PART_ATTR
10
0
20
24457.600839895
40
70
1
MAX 1000.00mil
0
TEXT
8
PART_ATTR
10
0
20
24337.600839895
40
70
1
INHERITANCE  PCB
0
TEXT
8
PART_ATTR
10
0
20
24217.600839895
40
70
1
INHERITANCE  PART DECAL
0
TEXT
8
PART_ATTR
10
0
20
24097.600839895
40
70
1
ECO_REGISTRATION N
0
TEXT
8
PART_ATTR
10
0
20
23977.600839895
40
70
1
READONLY Y
0
TEXT
8
PART_ATTR
10
0
20
23857.600839895
40
70
1
SYSTEM Y
0
TEXT
8
PART_ATTR
10
0
20
23737.600839895
40
70
1
HIDDEN Y
0
TEXT
8
PART_ATTR
10
0
20
23617.600839895
40
70
1
ATTRIBUTE Rules.SameNet.Trace.Crn
0
TEXT
8
PART_ATTR
10
0
20
23497.600839895
40
70
1
TYPE QUANTITY
0
TEXT
8
PART_ATTR
10
0
20
23377.600839895
40
70
1
QUANTITY Size/Dimension
0
TEXT
8
PART_ATTR
10
0
20
23257.600839895
40
70
1
ABBR 
0
TEXT
8
PART_ATTR
10
0
20
23137.600839895
40
70
1
UNIT 
0
TEXT
8
PART_ATTR
10
0
20
23017.600839895
40
70
1
MIN 
0
TEXT
8
PART_ATTR
10
0
20
22897.600839895
40
70
1
MAX 1000.00mil
0
TEXT
8
PART_ATTR
10
0
20
22777.600839895
40
70
1
INHERITANCE  PCB
0
TEXT
8
PART_ATTR
10
0
20
22657.600839895
40
70
1
INHERITANCE  PART DECAL
0
TEXT
8
PART_ATTR
10
0
20
22537.600839895
40
70
1
ECO_REGISTRATION N
0
TEXT
8
PART_ATTR
10
0
20
22417.600839895
40
70
1
READONLY Y
0
TEXT
8
PART_ATTR
10
0
20
22297.600839895
40
70
1
SYSTEM Y
0
TEXT
8
PART_ATTR
10
0
20
22177.600839895
40
70
1
HIDDEN Y
0
TEXT
8
PART_ATTR
10
0
20
22057.600839895
40
70
1
ATTRIBUTE Rules.Width.Minimum
0
TEXT
8
PART_ATTR
10
0
20
21937.600839895
40
70
1
TYPE QUANTITY
0
TEXT
8
PART_ATTR
10
0
20
21817.600839895
40
70
1
QUANTITY Size/Dimension
0
TEXT
8
PART_ATTR
10
0
20
21697.600839895
40
70
1
ABBR 
0
TEXT
8
PART_ATTR
10
0
20
21577.600839895
40
70
1
UNIT 
0
TEXT
8
PART_ATTR
10
0
20
21457.600839895
40
70
1
MIN 
0
TEXT
8
PART_ATTR
10
0
20
21337.600839895
40
70
1
MAX 250.00mil
0
TEXT
8
PART_ATTR
10
0
20
21217.600839895
40
70
1
INHERITANCE  PCB
0
TEXT
8
PART_ATTR
10
0
20
21097.600839895
40
70
1
INHERITANCE  PART DECAL
0
TEXT
8
PART_ATTR
10
0
20
20977.600839895
40
70
1
ECO_REGISTRATION N
0
TEXT
8
PART_ATTR
10
0
20
20857.600839895
40
70
1
READONLY Y
0
TEXT
8
PART_ATTR
10
0
20
20737.600839895
40
70
1
SYSTEM Y
0
TEXT
8
PART_ATTR
10
0
20
20617.600839895
40
70
1
HIDDEN Y
0
TEXT
8
PART_ATTR
10
0
20
20497.600839895
40
70
1
ATTRIBUTE Rules.Width.Recommended
0
TEXT
8
PART_ATTR
10
0
20
20377.600839895
40
70
1
TYPE QUANTITY
0
TEXT
8
PART_ATTR
10
0
20
20257.600839895
40
70
1
QUANTITY Size/Dimension
0
TEXT
8
PART_ATTR
10
0
20
20137.600839895
40
70
1
ABBR 
0
TEXT
8
PART_ATTR
10
0
20
20017.600839895
40
70
1
UNIT 
0
TEXT
8
PART_ATTR
10
0
20
19897.600839895
40
70
1
MIN 
0
TEXT
8
PART_ATTR
10
0
20
19777.600839895
40
70
1
MAX 250.00mil
0
TEXT
8
PART_ATTR
10
0
20
19657.600839895
40
70
1
INHERITANCE  PCB
0
TEXT
8
PART_ATTR
10
0
20
19537.600839895
40
70
1
INHERITANCE  PART DECAL
0
TEXT
8
PART_ATTR
10
0
20
19417.600839895
40
70
1
ECO_REGISTRATION N
0
TEXT
8
PART_ATTR
10
0
20
19297.600839895
40
70
1
READONLY Y
0
TEXT
8
PART_ATTR
10
0
20
19177.600839895
40
70
1
SYSTEM Y
0
TEXT
8
PART_ATTR
10
0
20
19057.600839895
40
70
1
HIDDEN Y
0
TEXT
8
PART_ATTR
10
0
20
18937.600839895
40
70
1
ATTRIBUTE Rules.Width.Maximum
0
TEXT
8
PART_ATTR
10
0
20
18817.600839895
40
70
1
TYPE QUANTITY
0
TEXT
8
PART_ATTR
10
0
20
18697.600839895
40
70
1
QUANTITY Size/Dimension
0
TEXT
8
PART_ATTR
10
0
20
18577.600839895
40
70
1
ABBR 
0
TEXT
8
PART_ATTR
10
0
20
18457.600839895
40
70
1
UNIT 
0
TEXT
8
PART_ATTR
10
0
20
18337.600839895
40
70
1
MIN 
0
TEXT
8
PART_ATTR
10
0
20
18217.600839895
40
70
1
MAX 250.00mil
0
TEXT
8
PART_ATTR
10
0
20
18097.600839895
40
70
1
INHERITANCE  PCB
0
TEXT
8
PART_ATTR
10
0
20
17977.600839895
40
70
1
INHERITANCE  PART DECAL
0
TEXT
8
PART_ATTR
10
0
20
17857.600839895
40
70
1
ECO_REGISTRATION N
0
TEXT
8
PART_ATTR
10
0
20
17737.600839895
40
70
1
READONLY Y
0
TEXT
8
PART_ATTR
10
0
20
17617.600839895
40
70
1
SYSTEM Y
0
TEXT
8
PART_ATTR
10
0
20
17497.600839895
40
70
1
HIDDEN Y
0
TEXT
8
PART_ATTR
10
0
20
17377.600839895
40
70
1
ATTRIBUTE Placement.Grid.Use
0
TEXT
8
PART_ATTR
10
0
20
17257.600839895
40
70
1
TYPE BOOLEAN
0
TEXT
8
PART_ATTR
10
0
20
17137.600839895
40
70
1
INHERITANCE  PCB
0
TEXT
8
PART_ATTR
10
0
20
17017.600839895
40
70
1
ECO_REGISTRATION N
0
TEXT
8
PART_ATTR
10
0
20
16897.600839895
40
70
1
READONLY Y
0
TEXT
8
PART_ATTR
10
0
20
16777.600839895
40
70
1
SYSTEM Y
0
TEXT
8
PART_ATTR
10
0
20
16657.600839895
40
70
1
HIDDEN Y
0
TEXT
8
PART_ATTR
10
0
20
16537.600839895
40
70
1
ATTRIBUTE Placement.Grid.X
0
TEXT
8
PART_ATTR
10
0
20
16417.600839895
40
70
1
TYPE QUANTITY
0
TEXT
8
PART_ATTR
10
0
20
16297.600839895
40
70
1
QUANTITY Size/Dimension
0
TEXT
8
PART_ATTR
10
0
20
16177.600839895
40
70
1
ABBR 
0
TEXT
8
PART_ATTR
10
0
20
16057.600839895
40
70
1
UNIT 
0
TEXT
8
PART_ATTR
10
0
20
15937.600839895
40
70
1
MIN 
0
TEXT
8
PART_ATTR
10
0
20
15817.600839895
40
70
1
MAX 2000.00mil
0
TEXT
8
PART_ATTR
10
0
20
15697.600839895
40
70
1
INHERITANCE  PCB
0
TEXT
8
PART_ATTR
10
0
20
15577.600839895
40
70
1
ECO_REGISTRATION N
0
TEXT
8
PART_ATTR
10
0
20
15457.600839895
40
70
1
READONLY Y
0
TEXT
8
PART_ATTR
10
0
20
15337.600839895
40
70
1
SYSTEM Y
0
TEXT
8
PART_ATTR
10
0
20
15217.600839895
40
70
1
HIDDEN Y
0
TEXT
8
PART_ATTR
10
0
20
15097.600839895
40
70
1
ATTRIBUTE Placement.Grid.Y
0
TEXT
8
PART_ATTR
10
0
20
14977.600839895
40
70
1
TYPE QUANTITY
0
TEXT
8
PART_ATTR
10
0
20
14857.600839895
40
70
1
QUANTITY Size/Dimension
0
TEXT
8
PART_ATTR
10
0
20
14737.600839895
40
70
1
ABBR 
0
TEXT
8
PART_ATTR
10
0
20
14617.600839895
40
70
1
UNIT 
0
TEXT
8
PART_ATTR
10
0
20
14497.600839895
40
70
1
MIN 
0
TEXT
8
PART_ATTR
10
0
20
14377.600839895
40
70
1
MAX 2000.00mil
0
TEXT
8
PART_ATTR
10
0
20
14257.600839895
40
70
1
INHERITANCE  PCB
0
TEXT
8
PART_ATTR
10
0
20
14137.600839895
40
70
1
ECO_REGISTRATION N
0
TEXT
8
PART_ATTR
10
0
20
14017.600839895
40
70
1
READONLY Y
0
TEXT
8
PART_ATTR
10
0
20
13897.600839895
40
70
1
SYSTEM Y
0
TEXT
8
PART_ATTR
10
0
20
13777.600839895
40
70
1
HIDDEN Y
0
TEXT
8
PART_ATTR
10
0
20
13657.600839895
40
70
1
ATTRIBUTE Accordion.Amplitude.Min
0
TEXT
8
PART_ATTR
10
0
20
13537.600839895
40
70
1
TYPE INTEGER
0
TEXT
8
PART_ATTR
10
0
20
13417.600839895
40
70
1
MIN 3
0
TEXT
8
PART_ATTR
10
0
20
13297.600839895
40
70
1
MAX 30
0
TEXT
8
PART_ATTR
10
0
20
13177.600839895
40
70
1
INHERITANCE  PCB
0
TEXT
8
PART_ATTR
10
0
20
13057.600839895
40
70
1
ECO_REGISTRATION N
0
TEXT
8
PART_ATTR
10
0
20
12937.600839895
40
70
1
READONLY Y
0
TEXT
8
PART_ATTR
10
0
20
12817.600839895
40
70
1
SYSTEM Y
0
TEXT
8
PART_ATTR
10
0
20
12697.600839895
40
70
1
HIDDEN Y
0
TEXT
8
PART_ATTR
10
0
20
12577.600839895
40
70
1
ATTRIBUTE Accordion.Gap.Min
0
TEXT
8
PART_ATTR
10
0
20
12457.600839895
40
70
1
TYPE INTEGER
0
TEXT
8
PART_ATTR
10
0
20
12337.600839895
40
70
1
MIN 1
0
TEXT
8
PART_ATTR
10
0
20
12217.600839895
40
70
1
MAX 10
0
TEXT
8
PART_ATTR
10
0
20
12097.600839895
40
70
1
INHERITANCE  PCB
0
TEXT
8
PART_ATTR
10
0
20
11977.600839895
40
70
1
ECO_REGISTRATION N
0
TEXT
8
PART_ATTR
10
0
20
11857.600839895
40
70
1
READONLY Y
0
TEXT
8
PART_ATTR
10
0
20
11737.600839895
40
70
1
SYSTEM Y
0
TEXT
8
PART_ATTR
10
0
20
11617.600839895
40
70
1
HIDDEN Y
0
TEXT
8
PART_ATTR
10
0
20
11497.600839895
40
70
1
ATTRIBUTE Routing.MaxChannelWidth
0
TEXT
8
PART_ATTR
10
0
20
11377.600839895
40
70
1
TYPE QUANTITY
0
TEXT
8
PART_ATTR
10
0
20
11257.600839895
40
70
1
QUANTITY Size/Dimension
0
TEXT
8
PART_ATTR
10
0
20
11137.600839895
40
70
1
ABBR 
0
TEXT
8
PART_ATTR
10
0
20
11017.600839895
40
70
1
UNIT 
0
TEXT
8
PART_ATTR
10
0
20
10897.600839895
40
70
1
MIN 
0
TEXT
8
PART_ATTR
10
0
20
10777.600839895
40
70
1
MAX 10000.00mil
0
TEXT
8
PART_ATTR
10
0
20
10657.600839895
40
70
1
INHERITANCE  PCB
0
TEXT
8
PART_ATTR
10
0
20
10537.600839895
40
70
1
ECO_REGISTRATION N
0
TEXT
8
PART_ATTR
10
0
20
10417.600839895
40
70
1
READONLY Y
0
TEXT
8
PART_ATTR
10
0
20
10297.600839895
40
70
1
SYSTEM Y
0
TEXT
8
PART_ATTR
10
0
20
10177.600839895
40
70
1
HIDDEN Y
0
TEXT
8
PART_ATTR
10
0
20
10057.600839895
40
70
1
ATTRIBUTE Routing.SoftLengthRrules
0
TEXT
8
PART_ATTR
10
0
20
9937.600839895
40
70
1
TYPE BOOLEAN
0
TEXT
8
PART_ATTR
10
0
20
9817.600839895
40
70
1
INHERITANCE  PCB
0
TEXT
8
PART_ATTR
10
0
20
9697.600839895
40
70
1
ECO_REGISTRATION N
0
TEXT
8
PART_ATTR
10
0
20
9577.600839895
40
70
1
READONLY Y
0
TEXT
8
PART_ATTR
10
0
20
9457.600839895
40
70
1
SYSTEM Y
0
TEXT
8
PART_ATTR
10
0
20
9337.600839895
40
70
1
HIDDEN Y
0
TEXT
8
PART_ATTR
10
0
20
9217.600839895
40
70
1
ATTRIBUTE Routing.MeanderBeforeTune
0
TEXT
8
PART_ATTR
10
0
20
9097.600839895
40
70
1
TYPE BOOLEAN
0
TEXT
8
PART_ATTR
10
0
20
8977.600839895
40
70
1
INHERITANCE  PCB
0
TEXT
8
PART_ATTR
10
0
20
8857.600839895
40
70
1
ECO_REGISTRATION N
0
TEXT
8
PART_ATTR
10
0
20
8737.600839895
40
70
1
READONLY Y
0
TEXT
8
PART_ATTR
10
0
20
8617.600839895
40
70
1
SYSTEM Y
0
TEXT
8
PART_ATTR
10
0
20
8497.600839895
40
70
1
HIDDEN Y
0
TEXT
8
PART_ATTR
10
0
20
8377.600839895
40
70
1
ATTRIBUTE MatchLength.Name
0
TEXT
8
PART_ATTR
10
0
20
8257.600839895
40
70
1
TYPE FREETEXT
0
TEXT
8
PART_ATTR
10
0
20
8137.600839895
40
70
1
INHERITANCE  NET NETCLASS
0
TEXT
8
PART_ATTR
10
0
20
8017.600839895
40
70
1
INHERITANCE  PINPAIR GROUP
0
TEXT
8
PART_ATTR
10
0
20
7897.600839895
40
70
1
ECO_REGISTRATION N
0
TEXT
8
PART_ATTR
10
0
20
7777.600839895
40
70
1
READONLY Y
0
TEXT
8
PART_ATTR
10
0
20
7657.600839895
40
70
1
SYSTEM Y
0
TEXT
8
PART_ATTR
10
0
20
7537.600839895
40
70
1
HIDDEN Y
0
TEXT
8
PART_ATTR
10
0
20
7417.600839895
40
70
1
ATTRIBUTE Planning.Scheduled
0
TEXT
8
PART_ATTR
10
0
20
7297.600839895
40
70
1
TYPE BOOLEAN
0
TEXT
8
PART_ATTR
10
0
20
7177.600839895
40
70
1
INHERITANCE  NET
0
TEXT
8
PART_ATTR
10
0
20
7057.600839895
40
70
1
ECO_REGISTRATION Y
0
TEXT
8
PART_ATTR
10
0
20
6937.600839895
40
70
1
READONLY Y
0
TEXT
8
PART_ATTR
10
0
20
6817.600839895
40
70
1
SYSTEM Y
0
TEXT
8
PART_ATTR
10
0
20
6697.600839895
40
70
1
HIDDEN Y
0
TEXT
8
PART_ATTR
10
0
20
6577.600839895
40
70
1
ATTRIBUTE Library.Timestamp
0
TEXT
8
PART_ATTR
10
0
20
6457.600839895
40
70
1
TYPE FREETEXT
0
TEXT
8
PART_ATTR
10
0
20
6337.600839895
40
70
1
ECO_REGISTRATION N
0
TEXT
8
PART_ATTR
10
0
20
6217.600839895
40
70
1
READONLY Y
0
TEXT
8
PART_ATTR
10
0
20
6097.600839895
40
70
1
SYSTEM Y
0
TEXT
8
PART_ATTR
10
0
20
5977.600839895
40
70
1
HIDDEN Y
0
TEXT
8
PART_ATTR
10
0
20
5857.600839895
40
70
1
ATTRIBUTE Design.Timestamp
0
TEXT
8
PART_ATTR
10
0
20
5737.600839895
40
70
1
TYPE FREETEXT
0
TEXT
8
PART_ATTR
10
0
20
5617.600839895
40
70
1
ECO_REGISTRATION N
0
TEXT
8
PART_ATTR
10
0
20
5497.600839895
40
70
1
READONLY Y
0
TEXT
8
PART_ATTR
10
0
20
5377.600839895
40
70
1
SYSTEM Y
0
TEXT
8
PART_ATTR
10
0
20
5257.600839895
40
70
1
HIDDEN Y
0
TEXT
8
PART_ATTR
10
0
20
5137.600839895
40
70
1
ATTRIBUTE VALUES
0
TEXT
8
PART_ATTR
10
0
20
5017.600839895
40
70
1
PCB DEFAULT
0
TEXT
8
PART_ATTR
10
0
20
4897.600839895
40
70
1
Accordion.Amplitude.Min 3
0
TEXT
8
PART_ATTR
10
0
20
4777.600839895
40
70
1
Accordion.Gap.Min 1
0
TEXT
8
PART_ATTR
10
0
20
4657.600839895
40
70
1
AutoDimensioning.Line_Layer 24
0
TEXT
8
PART_ATTR
10
0
20
4537.600839895
40
70
1
AutoDimensioning.Marker_Shape YYNNNY
0
TEXT
8
PART_ATTR
10
0
20
4417.600839895
40
70
1
AutoDimensioning.Preview_Type 1
0
TEXT
8
PART_ATTR
10
0
20
4297.600839895
40
70
1
AutoDimensioning.Text_AngularPrecision 0 0 0
0
TEXT
8
PART_ATTR
10
0
20
4177.600839895
40
70
1
AutoDimensioning.Text_Layer 24
0
TEXT
8
PART_ATTR
10
0
20
4057.600839895
40
70
1
AutoDimensioning.Text_NumberPrecision 0 1 2
0
TEXT
8
PART_ATTR
10
0
20
3937.600839895
40
70
1
AutoDimensioning.Text_Suffix mil##mm##"
0
TEXT
8
PART_ATTR
10
0
20
3817.600839895
40
70
1
DFT."Allow Stubs" Yes
0
TEXT
8
PART_ATTR
10
0
20
3697.600839895
40
70
1
DFT."Generate Test Points" No
0
TEXT
8
PART_ATTR
10
0
20
3577.600839895
40
70
1
DFT."Grid X-Coordinate" 25.00mil
0
TEXT
8
PART_ATTR
10
0
20
3457.600839895
40
70
1
DFT."Grid Y-Coordinate" 25.00mil
0
TEXT
8
PART_ATTR
10
0
20
3337.600839895
40
70
1
DFT."Insert Test Point Vias" No
0
TEXT
8
PART_ATTR
10
0
20
3217.600839895
40
70
1
DFT."Preserve Test Points" No
0
TEXT
8
PART_ATTR
10
0
20
3097.600839895
40
70
1
DFT."Probe Pins" Yes
0
TEXT
8
PART_ATTR
10
0
20
2977.600839895
40
70
1
DFT."Probe to Pad Clearance" 6.00mil
0
TEXT
8
PART_ATTR
10
0
20
2857.600839895
40
70
1
DFT."Probe to Trace Clearance" 6.00mil
0
TEXT
8
PART_ATTR
10
0
20
2737.600839895
40
70
1
DFT."Stub Length" 500.00mil
0
TEXT
8
PART_ATTR
10
0
20
2617.600839895
40
70
1
DFT."Use Via Grid" Yes
0
TEXT
8
PART_ATTR
10
0
20
2497.600839895
40
70
1
Placement.Grid.Use No
0
TEXT
8
PART_ATTR
10
0
20
2377.600839895
40
70
1
Placement.Grid.X 100.00mil
0
TEXT
8
PART_ATTR
10
0
20
2257.600839895
40
70
1
Placement.Grid.Y 100.00mil
0
TEXT
8
PART_ATTR
10
0
20
2137.600839895
40
70
1
Routing.MaxChannelWidth 100.00mil
0
TEXT
8
PART_ATTR
10
0
20
2017.600839895
40
70
1
Routing.MeanderBeforeTune No
0
TEXT
8
PART_ATTR
10
0
20
1897.600839895
40
70
1
Routing.SoftLengthRrules Yes
0
ENDBLK
999
*** POWERPCB  2DLINE ***
999
*** POWERPCB  COPPER ***
999
*** POWERPCB  COPPER POUR ***
999
*** POWERPCB  GENERAL KEEPOUT ***
999
*** POWERPCB  COMPONENT ***
0
BLOCK
2
PART_TOP_0
8
0
10
0
20
0
3
PART_TOP_0
70
64
0
INSERT
2
SYM_TOP_2
8
0
10
0
20
0
0
INSERT
2
PKG_0
8
0
10
0
20
0
0
TEXT
8
LABEL_INFO
10
190
20
-355
40
70
1
0 0 0 2 0 1
73
2
11
190
21
-355
41
0.75
7
W10
0
TEXT
8
LABEL_ATTRIBUTE
10
190
20
-355
40
70
1
PartType
73
2
11
190
21
-355
41
0.75
7
W10
0
TEXT
8
PART_TYPE_01
10
190
20
-355
40
70
1
RN41_GND
73
3
11
190
21
-355
41
0.75
7
W10
0
TEXT
8
PART_NAME_TOP
10
190
20
-355
40
70
1
K1
73
3
11
190
21
-355
41
0.75
7
W10
0
TEXT
8
PART_INFO
10
190
20
-455
40
70
1
000000
73
3
11
190
21
-455
41
0.75
7
W10
0
TEXT
8
PART_PTS
10
190
20
-555
40
70
1
1 2 3 4 5 6 7 8 9 10 11 12 13 14 15 16 17 18 19 20 21 22 23 24 25 26 27 28 29 30 31 32 33 34 35 36 37 38 39 
73
3
11
190
21
-555
41
0.75
7
W10
0
ENDBLK
0
BLOCK
2
SYM_TOP_2
8
0
10
0
20
0
3
SYM_TOP_2
70
64
0
TEXT
8
SYM_NAME
10
0.0000262467
20
120
40
70
1
RN41_GND
71
2
50
15.0283333333
41
0.75
0
TEXT
8
SYM_PART_TYPE_01
10
190
20
-355
40
70
1
 
73
2
11
190
21
-355
41
0.75
7
W10R0
0
TEXT
8
SYM_PART_NAME_01
10
190
20
-355
40
70
1
 
41
0.75
7
W10R0
0
INSERT
2
PART_BODY_TOP_1
8
0
10
0
20
0
0
INSERT
2
STK_TOP_3
8
0
10
0
20
0
0
INSERT
2
STK_TOP_3
8
0
10
0
20
-47.2440944882
0
INSERT
2
STK_TOP_3
8
0
10
0
20
-94.4881889764
0
INSERT
2
STK_TOP_3
8
0
10
0
20
-141.7322834646
0
INSERT
2
STK_TOP_3
8
0
10
0
20
-188.9763779528
0
INSERT
2
STK_TOP_3
8
0
10
0
20
-236.2204724409
0
INSERT
2
STK_TOP_3
8
0
10
0
20
-283.4645669291
0
INSERT
2
STK_TOP_3
8
0
10
0
20
-330.7086614173
0
INSERT
2
STK_TOP_3
8
0
10
0
20
-377.9527559055
0
INSERT
2
STK_TOP_3
8
0
10
0
20
-425.1968503937
0
INSERT
2
STK_TOP_3
8
0
10
0
20
-472.4409448819
0
INSERT
2
STK_TOP_3
8
0
10
0
20
-519.6850393701
0
INSERT
2
STK_TOP_3
8
0
10
519.6850393701
20
-519.6850393701
0
INSERT
2
STK_TOP_3
8
0
10
519.6850393701
20
-472.4409448819
0
INSERT
2
STK_TOP_3
8
0
10
519.6850393701
20
-425.1968503937
0
INSERT
2
STK_TOP_3
8
0
10
519.6850393701
20
-377.9527559055
0
INSERT
2
STK_TOP_3
8
0
10
519.6850393701
20
-330.7086614173
0
INSERT
2
STK_TOP_3
8
0
10
519.6850393701
20
-283.4645669291
0
INSERT
2
STK_TOP_3
8
0
10
519.6850393701
20
-236.2204724409
0
INSERT
2
STK_TOP_3
8
0
10
519.6850393701
20
-188.9763779528
0
INSERT
2
STK_TOP_3
8
0
10
519.6850393701
20
-141.7322834646
0
INSERT
2
STK_TOP_3
8
0
10
519.6850393701
20
-94.4881889764
0
INSERT
2
STK_TOP_3
8
0
10
519.6850393701
20
-47.2440944882
0
INSERT
2
STK_TOP_3
8
0
10
519.6850393701
20
0
0
INSERT
2
STK_TOP_4
8
0
10
464.5669291339
20
74.8031496063
0
INSERT
2
STK_TOP_5
8
0
10
401.5748031496
20
74.8031496063
0
INSERT
2
STK_TOP_4
8
0
10
338.5826771654
20
74.8031496063
0
INSERT
2
STK_TOP_4
8
0
10
381.8897637795
20
-629.9212598425
0
INSERT
2
STK_TOP_4
8
0
10
137.7952755906
20
-629.9212598425
0
INSERT
2
STK_TOP_4
8
0
10
422.8346456693
20
-629.9212598425
0
INSERT
2
STK_TOP_4
8
0
10
329.1338582677
20
-629.9212598425
0
INSERT
2
STK_TOP_4
8
0
10
284.2519685039
20
-629.9212598425
0
INSERT
2
STK_TOP_4
8
0
10
235.4330708661
20
-629.9212598425
0
INSERT
2
STK_TOP_4
8
0
10
190.5511811024
20
-629.9212598425
0
INSERT
2
STK_TOP_4
8
0
10
97.6377952756
20
-629.9212598425
0
INSERT
2
STK_TOP_8
8
0
10
0
20
118.1102362205
0
INSERT
2
STK_TOP_9
8
0
10
517.7165354331
20
118.1102362205
0
INSERT
2
STK_TOP_9
8
0
10
0
20
-622.0472440945
0
INSERT
2
STK_TOP_8
8
0
10
523.6220472441
20
-624.0157480315
0
ENDBLK
0
BLOCK
2
PKG_0
8
0
10
0
20
0
3
PKG_0
70
64
0
TEXT
8
PKG_INFO
10
0
20
0
40
70
1
*SYM:= 2
0
TEXT
8
PKG_INFO
10
0
20
-120
40
70
1
*PKG:=0 0 RN41_GND UND
0
TEXT
8
PKG_INFO
10
0
20
-240
40
70
1
*PINNM:=1 2 3 4 5 6 7 8 9 10 11 12 13 14 15 16 17 18 19 20 21 22 23 24 25 26 27 28 29 30 31 32 33 34 35 36 37 38 39
0
ENDBLK
0
BLOCK
2
PART_BODY_TOP_1
8
0
10
0
20
0
3
PART_BODY_TOP_1
70
64
0
POLYLINE
8
PART_TOP_2DLINE_00
66
1
40
10
41
10
70
1
0
VERTEX
8
PART_TOP_2DLINE_00
10
550.6519422572
20
-656.1023622047
0
VERTEX
8
PART_TOP_2DLINE_00
10
-31.4960629921
20
-656.1023622047
0
VERTEX
8
PART_TOP_2DLINE_00
10
-31.4960629921
20
394.4965091864
0
VERTEX
8
PART_TOP_2DLINE_00
10
551.4190551181
20
393.1185564304
0
SEQEND
0
INSERT
2
SMOOTH_10
8
PART_TOP_2DLINE_00
10
550.6519422572
20
-656.1023622047
0
INSERT
2
SMOOTH_10
8
PART_TOP_2DLINE_00
10
-31.4960629921
20
-656.1023622047
0
INSERT
2
SMOOTH_10
8
PART_TOP_2DLINE_00
10
-31.4960629921
20
394.4965091864
0
INSERT
2
SMOOTH_10
8
PART_TOP_2DLINE_00
10
551.4190551181
20
393.1185564304
0
ENDBLK
0
BLOCK
2
STK_TOP_3
8
0
10
0
20
0
3
STK_TOP_3
70
64
0
INSERT
2
DRIL_HOLE_0
8
DRIL_PLTE_THRU_01
10
0
20
0
0
INSERT
2
DRIL_HOLE_0
8
DRIL_PLTE_THRU_02
10
0
20
0
0
INSERT
2
PAD_0
8
PADS_INNER
10
0
20
0
0
INSERT
2
PAD_0
8
PADS_BOT
10
0
20
0
0
INSERT
2
PAD_1
8
PADS_TOP
10
0
20
0
0
ENDBLK
0
BLOCK
2
STK_TOP_4
8
0
10
0
20
0
3
STK_TOP_4
70
64
0
INSERT
2
DRIL_HOLE_0
8
DRIL_PLTE_THRU_01
10
0
20
0
0
INSERT
2
DRIL_HOLE_0
8
DRIL_PLTE_THRU_02
10
0
20
0
0
INSERT
2
PAD_0
8
PADS_INNER
10
0
20
0
0
INSERT
2
PAD_0
8
PADS_BOT
10
0
20
0
0
INSERT
2
PAD_1
8
PADS_TOP
10
0
20
0
50
90
0
ENDBLK
0
BLOCK
2
STK_TOP_5
8
0
10
0
20
0
3
STK_TOP_5
70
64
0
INSERT
2
DRIL_HOLE_0
8
DRIL_PLTE_THRU_01
10
0
20
0
0
INSERT
2
DRIL_HOLE_0
8
DRIL_PLTE_THRU_02
10
0
20
0
0
INSERT
2
PAD_0
8
PADS_INNER
10
0
20
0
0
INSERT
2
PAD_0
8
PADS_BOT
10
0
20
0
0
INSERT
2
PAD_0
8
PADS_TOP
10
0
20
0
0
ENDBLK
0
BLOCK
2
STK_TOP_8
8
0
10
0
20
0
3
STK_TOP_8
70
64
0
INSERT
2
DRIL_HOLE_0
8
DRIL_PLTE_THRU_01
10
0
20
0
0
INSERT
2
DRIL_HOLE_0
8
DRIL_PLTE_THRU_02
10
0
20
0
0
INSERT
2
PAD_0
8
PADS_INNER
10
0
20
0
0
INSERT
2
PAD_0
8
PADS_BOT
10
0
20
0
0
INSERT
2
PAD_2
8
PADS_TOP
10
0
20
0
50
45
0
ENDBLK
0
BLOCK
2
STK_TOP_9
8
0
10
0
20
0
3
STK_TOP_9
70
64
0
INSERT
2
DRIL_HOLE_0
8
DRIL_PLTE_THRU_01
10
0
20
0
0
INSERT
2
DRIL_HOLE_0
8
DRIL_PLTE_THRU_02
10
0
20
0
0
INSERT
2
PAD_0
8
PADS_INNER
10
0
20
0
0
INSERT
2
PAD_0
8
PADS_BOT
10
0
20
0
0
INSERT
2
PAD_2
8
PADS_TOP
10
0
20
0
50
135
0
ENDBLK
999
*** POWERPCB  PCB PARAMETER ***
0
BLOCK
2
PCB_PARAMS
8
0
10
0
20
0
3
PCB_PARAMS
70
64
999
 *  1.Job name           2.Backupfile name       3.CursorType
999
 *  4.TearDropFlag       5.HighlighNetsFlag      6.HatchDisplayFlag
999
 *  7.PadsFlag           8.TracksFlag            9.ViasFlag
999
 * 10.CopperFlag        11.LinesFlag            12.TextFlag
999
 * 13.TopComponentFlag  14.BottomComponentFlag
0
TEXT
8
PCB_PARAMS
10
0
20
-120
40
70
1
A:=rn41-GND.pcb <> 0 0 0 0 1 1 1 1 1 1 1 1
999
 *  1.RefDesHeight       2.RefDesWidth           3.DefaultWidth
999
 *  4.VGX                5.VGY                   6.OVR
999
 *  7.HatchGrid
0
TEXT
8
PCB_PARAMS
10
0
20
-240
40
70
1
B:=100 10 10 25 25 3 10
999
 *  1.ScaleFactor        2.NetAttributeFlags     3.BackupInterval
999
 *  4.WorkingLevel       5.HatchMode             6.HatchDirection
999
 *  7.ConnectionColor    8.BackgroundColor       9.ForegroundColor
999
 * 10.BoardOutlineColor
0
TEXT
8
PCB_PARAMS
10
0
20
-360
40
70
1
C:=50.8109321594 10002 20 1 0 0 8 0 8 8
999
 * MitreAngle0 - MitreAngle6
0
TEXT
8
PCB_PARAMS
10
0
20
-480
40
70
1
D:=324000000 324000000 324000000 324000000 324000000 324000000 162000000
999
 * Hatch & Keepout Parameters
0
TEXT
8
PCB_PARAMS
10
0
20
-600
40
70
1
E:=0.5 0 0 100 0 1
999
 * Fanout Parameters
0
TEXT
8
PCB_PARAMS
10
0
20
-720
40
70
1
F:=25 25 250 1 2 0 1 1 0 0 1 1 1 1
999
 * Pad Entry Parameters
0
TEXT
8
PCB_PARAMS
10
0
20
-840
40
70
1
P:= 1 1 1 1
999
 * DFF Parameters
0
TEXT
8
PCB_PARAMS
10
0
20
-960
40
70
1
Q:=89.9999 3967 114300 114300 114300 5 4 114300 114300 114300 114300 1 114300 1 114300 1 114300 0
0
ENDBLK
0
BLOCK
2
DRIL_SYMBOL_0
8
0
10
0
20
0
3
DRIL_SYMBOL_0
70
64
0
ENDBLK
999
*** POWERPCB  SMOOTH CIRCLE ***
0
BLOCK
2
SMOOTH_10
8
0
10
0
20
0
3
SMOOTH_10
70
64
0
POLYLINE
8
0
66
1
40
5
41
5
70
1
0
VERTEX
8
0
10
-2.5
20
0
42
1
0
VERTEX
8
0
10
2.5
20
0
42
1
0
SEQEND
0
ENDBLK
0
BLOCK
2
PAD_0
8
0
10
0
20
0
3
PAD_0
70
64
0
POLYLINE
8
0
70
1
66
1
0
VERTEX
8
0
10
0
20
0
42
1
0
VERTEX
8
0
10
0
20
0
42
1
0
SEQEND
0
ENDBLK
0
BLOCK
2
PAD_1
8
0
10
0
20
0
3
PAD_1
70
64
0
POLYLINE
8
0
66
1
40
31.4960629921
41
31.4960629921
0
VERTEX
8
0
10
-25.5905511811
20
0
0
VERTEX
8
0
10
25.5905511811
20
0
0
SEQEND
0
ENDBLK
0
BLOCK
2
PAD_2
8
0
10
0
20
0
3
PAD_2
70
64
0
POLYLINE
8
0
70
1
66
1
40
15.7480314961
41
15.7480314961
0
VERTEX
8
0
10
-23.6220472441
20
-7.874015748
0
VERTEX
8
0
10
23.6220472441
20
-7.874015748
42
1
0
VERTEX
8
0
10
23.6220472441
20
7.874015748
0
VERTEX
8
0
10
-23.6220472441
20
7.874015748
42
1
0
SEQEND
0
ENDBLK
999
*** POWERPCB  DRILL HOLE ***
0
BLOCK
2
DRIL_HOLE_0
8
0
10
0
20
0
3
DRIL_HOLE_0
70
64
0
POLYLINE
8
0
66
1
70
1
0
VERTEX
8
0
10
0
20
0
42
1
0
VERTEX
8
0
10
0
20
0
42
1
0
SEQEND
0
INSERT
2
DRIL_SYMBOL_0
8
0
10
0
20
0
0
ENDBLK
0
ENDSEC
0
SECTION
2
ENTITIES
999
*** POWERPCB  DBLAYER ***
0
INSERT
2
DBLAYERS
8
0
10
0
20
0
999
*** POWERPCB  BOARD ***
0
INSERT
2
ATTRIBUTES
8
0
10
0
20
0
999
*** POWERPCB  2DLINE ***
999
*** POWERPCB  COPPER ***
999
*** POWERPCB  FREE TEXT ***
0
TEXT
8
TEXT_01
10
60
20
700
40
35
1
1
41
0.75
7
W5
0
TEXT
8
TEXT_01
10
60
20
650
40
35
1
2
41
0.75
7
W5
0
TEXT
8
TEXT_01
10
60
20
600
40
35
1
3
41
0.75
7
W5
0
TEXT
8
TEXT_01
10
60
20
550
40
35
1
4
41
0.75
7
W5
0
TEXT
8
TEXT_01
10
60
20
500
40
35
1
5
41
0.75
7
W5
0
TEXT
8
TEXT_01
10
60
20
450
40
35
1
6
41
0.75
7
W5
0
TEXT
8
TEXT_01
10
60
20
400
40
35
1
7
41
0.75
7
W5
0
TEXT
8
TEXT_01
10
60
20
360
40
35
1
8
41
0.75
7
W5
0
TEXT
8
TEXT_01
10
50
20
320
40
35
1
9
41
0.75
7
W5
0
TEXT
8
TEXT_01
10
40
20
270
40
35
1
10
41
0.75
7
W5
0
TEXT
8
TEXT_01
10
40
20
220
40
35
1
11
41
0.75
7
W5
0
TEXT
8
TEXT_01
10
40
20
170
40
35
1
12
41
0.75
7
W5
0
TEXT
8
TEXT_01
10
690
20
700
40
35
1
24
41
0.75
7
W5
0
TEXT
8
TEXT_01
10
690
20
650
40
35
1
23
41
0.75
7
W5
0
TEXT
8
TEXT_01
10
690
20
600
40
35
1
22
41
0.75
7
W5
0
TEXT
8
TEXT_01
10
690
20
550
40
35
1
21
41
0.75
7
W5
0
TEXT
8
TEXT_01
10
690
20
510
40
35
1
20
41
0.75
7
W5
0
TEXT
8
TEXT_01
10
690
20
460
40
35
1
19
41
0.75
7
W5
0
TEXT
8
TEXT_01
10
690
20
410
40
35
1
18
41
0.75
7
W5
0
TEXT
8
TEXT_01
10
690
20
220
40
35
1
14
41
0.75
7
W5
0
TEXT
8
TEXT_01
10
690
20
170
40
35
1
13
41
0.75
7
W5
0
TEXT
8
TEXT_01
10
690
20
270
40
35
1
15
41
0.75
7
W5
0
TEXT
8
TEXT_01
10
690
20
370
40
35
1
17
41
0.75
7
W5
0
TEXT
8
TEXT_01
10
690
20
320
40
35
1
16
41
0.75
7
W5
0
TEXT
8
TEXT_01
10
180
20
0
40
35
1
35
41
0.75
7
W5
0
TEXT
8
TEXT_01
10
240
20
0
40
35
1
29
41
0.75
7
W5
0
TEXT
8
TEXT_01
10
290
20
0
40
35
1
34
41
0.75
7
W5
0
TEXT
8
TEXT_01
10
440
20
820
40
35
1
27
41
0.75
7
W5
0
TEXT
8
TEXT_01
10
560
20
820
40
35
1
25
41
0.75
7
W5
0
TEXT
8
TEXT_01
10
340
20
0
40
35
1
33
41
0.75
7
W5
0
TEXT
8
TEXT_01
10
390
20
0
40
35
1
32
41
0.75
7
W5
0
TEXT
8
TEXT_01
10
440
20
0
40
35
1
31
41
0.75
7
W5
0
TEXT
8
TEXT_01
10
490
20
0
40
35
1
28
41
0.75
7
W5
0
TEXT
8
TEXT_01
10
540
20
0
40
35
1
30
41
0.75
7
W5
0
TEXT
8
TEXT_01
10
210
20
560
40
140
1
RN41
41
0.75
7
W10
999
*** POWERPCB  COPPER POUR ***
999
*** POWERPCB  GENERAL KEEPOUT ***
999
*** POWERPCB  COMPONENT ***
0
INSERT
2
PART_TOP_0
8
0
10
120
20
710
999
*** POWERPCB  LINK/TRACE ***
999
*** POWERPCB  PCB PARAMETER ***
0
INSERT
2
PCB_PARAMS
8
0
10
0
20
0
0
ENDSEC
0
EOF
