G75*
G70*
%OFA0B0*%
%FSLAX24Y24*%
%IPPOS*%
%LPD*%
%AMOC8*
5,1,8,0,0,1.08239X$1,22.5*
%
%ADD10R,0.0198X0.0671*%
%ADD11R,0.0316X0.0946*%
%ADD12R,0.1360X0.1064*%
%ADD13R,0.0505X0.0493*%
%ADD14R,0.0513X0.0474*%
%ADD15R,0.0474X0.0513*%
%ADD16OC8,0.0966*%
%ADD17R,0.1143X0.0710*%
%ADD18R,0.0789X0.0946*%
%ADD19OC8,0.0640*%
%ADD20R,0.0640X0.0640*%
%ADD21OC8,0.0680*%
%ADD22R,0.0178X0.0375*%
%ADD23R,0.0395X0.0395*%
%ADD24R,0.0380X0.2380*%
%ADD25R,0.0380X0.1780*%
%ADD26C,0.0410*%
D10*
X018633Y006896D03*
X018889Y006896D03*
X019145Y006896D03*
X019401Y006896D03*
X019657Y006896D03*
X019913Y006896D03*
X020169Y006896D03*
X020169Y009415D03*
X019913Y009415D03*
X019657Y009415D03*
X019401Y009415D03*
X019145Y009415D03*
X018889Y009415D03*
X018633Y009415D03*
D11*
X011314Y008386D03*
X010814Y008386D03*
X010314Y008386D03*
X009814Y008386D03*
X009814Y006338D03*
X010314Y006338D03*
X010814Y006338D03*
X011314Y006338D03*
D12*
X007538Y006360D03*
X007538Y008723D03*
D13*
X009287Y008315D03*
X009287Y007626D03*
D14*
X006398Y005135D03*
X007067Y005135D03*
X007214Y010089D03*
X006545Y010089D03*
X006546Y010886D03*
X007215Y010886D03*
X017521Y009415D03*
X018190Y009415D03*
X019324Y010145D03*
X019993Y010145D03*
X019904Y005295D03*
X020573Y005295D03*
D15*
X020866Y006812D03*
X020866Y007481D03*
D16*
X020840Y015474D03*
X019658Y015474D03*
X019658Y016655D03*
X020839Y016655D03*
X011852Y016655D03*
X010671Y016655D03*
X010671Y015474D03*
X011852Y015474D03*
D17*
X012461Y009625D03*
X012461Y008522D03*
X013700Y008522D03*
X013700Y009625D03*
X013594Y007421D03*
X013594Y006319D03*
X014821Y006321D03*
X014821Y007423D03*
X012364Y007419D03*
X012364Y006317D03*
D18*
X011033Y009449D03*
X009025Y009449D03*
D19*
X009721Y012465D03*
X010721Y012465D03*
X011721Y012465D03*
X012721Y012465D03*
X013721Y012465D03*
X014721Y012465D03*
X015721Y012465D03*
X016721Y012465D03*
X017721Y012465D03*
X018721Y012465D03*
X019721Y012465D03*
X020721Y012465D03*
X020721Y013465D03*
X019721Y013465D03*
X018721Y013465D03*
X017721Y013465D03*
X016721Y013465D03*
X015721Y013465D03*
X014721Y013465D03*
X013721Y013465D03*
X012721Y013465D03*
X011721Y013465D03*
X010721Y013465D03*
X009721Y013465D03*
X009721Y003466D03*
X010721Y003466D03*
X011721Y003466D03*
X012721Y003466D03*
X013721Y003466D03*
X014721Y003466D03*
X015721Y003466D03*
X016721Y003466D03*
X017721Y003466D03*
X018721Y003466D03*
X019721Y003466D03*
X020721Y003466D03*
X021721Y003466D03*
X020721Y002466D03*
X019721Y002466D03*
X018721Y002466D03*
X017721Y002466D03*
X016721Y002466D03*
X015721Y002466D03*
X014721Y002466D03*
X013721Y002466D03*
X012721Y002466D03*
X011721Y002466D03*
X010721Y002466D03*
X009721Y002466D03*
X021721Y013465D03*
D20*
X021721Y012465D03*
X021721Y002466D03*
D21*
X022435Y004257D03*
X020235Y004285D03*
X015231Y008555D03*
D22*
X016323Y008789D03*
X016520Y008789D03*
X016716Y008789D03*
X016913Y008789D03*
X016913Y007568D03*
X016716Y007568D03*
X016520Y007568D03*
X016323Y007568D03*
D23*
X022673Y016114D03*
X023263Y016114D03*
D24*
X005717Y009494D03*
X002717Y009494D03*
X002719Y006251D03*
X005719Y006251D03*
D25*
X004719Y005451D03*
X003719Y007051D03*
X004717Y008694D03*
X003717Y010294D03*
D26*
X003231Y010125D03*
X004351Y006934D03*
X006492Y006359D03*
X007968Y004243D03*
X008094Y003172D03*
X013658Y004056D03*
X013622Y004535D03*
X015803Y004897D03*
X015808Y005990D03*
X015522Y006871D03*
X016905Y007962D03*
X016233Y008293D03*
X016750Y009893D03*
X016220Y010018D03*
X015502Y010027D03*
X015000Y010130D03*
X017620Y011780D03*
X018365Y010114D03*
X019471Y008867D03*
X019867Y008715D03*
X020699Y007946D03*
X020092Y007514D03*
X020214Y006310D03*
X020574Y006014D03*
X021207Y006263D03*
X019578Y006298D03*
X018389Y006377D03*
X017933Y006411D03*
X017881Y004676D03*
X018507Y004672D03*
X021266Y003978D03*
X019251Y001972D03*
X020190Y001763D03*
X015415Y001494D03*
X018531Y008538D03*
X018215Y008855D03*
X019879Y011880D03*
X019290Y013911D03*
X018412Y014243D03*
X017844Y014564D03*
X018146Y015247D03*
X022337Y015654D03*
X023275Y015187D03*
X007772Y010331D03*
M02*
