G75*
G70*
%OFA0B0*%
%FSLAX24Y24*%
%IPPOS*%
%LPD*%
%AMOC8*
5,1,8,0,0,1.08239X$1,22.5*
%
%ADD10OC8,0.0886*%
%ADD11OC8,0.0560*%
%ADD12R,0.0560X0.0560*%
%ADD13R,0.0460X0.0630*%
%ADD14OC8,0.0600*%
%ADD15C,0.0252*%
%ADD16R,0.0531X0.0591*%
%ADD17R,0.0394X0.0551*%
%ADD18R,0.0512X0.0394*%
%ADD19R,0.0591X0.0295*%
%ADD20R,0.0433X0.0394*%
%ADD21R,0.0630X0.0460*%
%ADD22R,0.0394X0.0433*%
%ADD23C,0.0080*%
%ADD24C,0.0330*%
%ADD25C,0.0160*%
D10*
X010671Y015474D03*
X011852Y015474D03*
X011852Y016655D03*
X010671Y016655D03*
X019658Y016655D03*
X020839Y016655D03*
X020840Y015474D03*
X019658Y015474D03*
D11*
X019721Y013465D03*
X018721Y013465D03*
X017721Y013465D03*
X016721Y013465D03*
X015721Y013465D03*
X015721Y012465D03*
X016721Y012465D03*
X017721Y012465D03*
X018721Y012465D03*
X019721Y012465D03*
X020721Y012465D03*
X020721Y013465D03*
X021721Y013465D03*
X014721Y013465D03*
X013721Y013465D03*
X012721Y013465D03*
X011721Y013465D03*
X010721Y013465D03*
X009721Y013465D03*
X009721Y012465D03*
X010721Y012465D03*
X011721Y012465D03*
X012721Y012465D03*
X013721Y012465D03*
X014721Y012465D03*
X014721Y003466D03*
X013721Y003466D03*
X012721Y003466D03*
X011721Y003466D03*
X010721Y003466D03*
X009721Y003466D03*
X009721Y002466D03*
X010721Y002466D03*
X011721Y002466D03*
X012721Y002466D03*
X013721Y002466D03*
X014721Y002466D03*
X015721Y002466D03*
X016721Y002466D03*
X017721Y002466D03*
X018721Y002466D03*
X019721Y002466D03*
X020721Y002466D03*
X020721Y003466D03*
X019721Y003466D03*
X018721Y003466D03*
X017721Y003466D03*
X016721Y003466D03*
X015721Y003466D03*
X021721Y003466D03*
D12*
X021721Y002466D03*
X021721Y012465D03*
D13*
X014686Y001690D03*
X014086Y001690D03*
D14*
X020235Y004285D03*
X022435Y004257D03*
X015231Y008555D03*
D15*
X014358Y009197D02*
X014098Y009197D01*
X014098Y009259D01*
X014358Y009259D01*
X014358Y009197D01*
X015299Y010476D02*
X015361Y010476D01*
X015299Y010476D02*
X015299Y010736D01*
X015361Y010736D01*
X015361Y010476D01*
X015361Y010727D02*
X015299Y010727D01*
X015771Y010476D02*
X015833Y010476D01*
X015771Y010476D02*
X015771Y010736D01*
X015833Y010736D01*
X015833Y010476D01*
X015833Y010727D02*
X015771Y010727D01*
X016244Y010476D02*
X016306Y010476D01*
X016244Y010476D02*
X016244Y010736D01*
X016306Y010736D01*
X016306Y010476D01*
X016306Y010727D02*
X016244Y010727D01*
X016716Y010476D02*
X016778Y010476D01*
X016716Y010476D02*
X016716Y010736D01*
X016778Y010736D01*
X016778Y010476D01*
X016778Y010727D02*
X016716Y010727D01*
X017189Y010476D02*
X017251Y010476D01*
X017189Y010476D02*
X017189Y010736D01*
X017251Y010736D01*
X017251Y010476D01*
X017251Y010727D02*
X017189Y010727D01*
X017661Y010476D02*
X017723Y010476D01*
X017661Y010476D02*
X017661Y010736D01*
X017723Y010736D01*
X017723Y010476D01*
X017723Y010727D02*
X017661Y010727D01*
X018134Y010476D02*
X018196Y010476D01*
X018134Y010476D02*
X018134Y010736D01*
X018196Y010736D01*
X018196Y010476D01*
X018196Y010727D02*
X018134Y010727D01*
X018606Y010476D02*
X018668Y010476D01*
X018606Y010476D02*
X018606Y010736D01*
X018668Y010736D01*
X018668Y010476D01*
X018668Y010727D02*
X018606Y010727D01*
X019078Y010476D02*
X019140Y010476D01*
X019078Y010476D02*
X019078Y010736D01*
X019140Y010736D01*
X019140Y010476D01*
X019140Y010727D02*
X019078Y010727D01*
X019551Y010476D02*
X019613Y010476D01*
X019551Y010476D02*
X019551Y010736D01*
X019613Y010736D01*
X019613Y010476D01*
X019613Y010727D02*
X019551Y010727D01*
X020023Y010476D02*
X020085Y010476D01*
X020023Y010476D02*
X020023Y010736D01*
X020085Y010736D01*
X020085Y010476D01*
X020085Y010727D02*
X020023Y010727D01*
X020496Y010476D02*
X020558Y010476D01*
X020496Y010476D02*
X020496Y010736D01*
X020558Y010736D01*
X020558Y010476D01*
X020558Y010727D02*
X020496Y010727D01*
X021440Y009866D02*
X021700Y009866D01*
X021440Y009866D02*
X021440Y009928D01*
X021700Y009928D01*
X021700Y009866D01*
X021700Y008606D02*
X021440Y008606D01*
X021440Y008668D01*
X021700Y008668D01*
X021700Y008606D01*
X020558Y005279D02*
X020496Y005279D01*
X020496Y005539D01*
X020558Y005539D01*
X020558Y005279D01*
X020558Y005530D02*
X020496Y005530D01*
X020085Y005279D02*
X020023Y005279D01*
X020023Y005539D01*
X020085Y005539D01*
X020085Y005279D01*
X020085Y005530D02*
X020023Y005530D01*
X019613Y005279D02*
X019551Y005279D01*
X019551Y005539D01*
X019613Y005539D01*
X019613Y005279D01*
X019613Y005530D02*
X019551Y005530D01*
X019140Y005279D02*
X019078Y005279D01*
X019078Y005539D01*
X019140Y005539D01*
X019140Y005279D01*
X019140Y005530D02*
X019078Y005530D01*
X018668Y005279D02*
X018606Y005279D01*
X018606Y005539D01*
X018668Y005539D01*
X018668Y005279D01*
X018668Y005530D02*
X018606Y005530D01*
X018196Y005279D02*
X018134Y005279D01*
X018134Y005539D01*
X018196Y005539D01*
X018196Y005279D01*
X018196Y005530D02*
X018134Y005530D01*
X017723Y005279D02*
X017661Y005279D01*
X017661Y005539D01*
X017723Y005539D01*
X017723Y005279D01*
X017723Y005530D02*
X017661Y005530D01*
X017251Y005279D02*
X017189Y005279D01*
X017189Y005539D01*
X017251Y005539D01*
X017251Y005279D01*
X017251Y005530D02*
X017189Y005530D01*
X016778Y005279D02*
X016716Y005279D01*
X016716Y005539D01*
X016778Y005539D01*
X016778Y005279D01*
X016778Y005530D02*
X016716Y005530D01*
X016306Y005279D02*
X016244Y005279D01*
X016244Y005539D01*
X016306Y005539D01*
X016306Y005279D01*
X016306Y005530D02*
X016244Y005530D01*
X015833Y005279D02*
X015771Y005279D01*
X015771Y005539D01*
X015833Y005539D01*
X015833Y005279D01*
X015833Y005530D02*
X015771Y005530D01*
X015361Y005279D02*
X015299Y005279D01*
X015299Y005539D01*
X015361Y005539D01*
X015361Y005279D01*
X015361Y005530D02*
X015299Y005530D01*
X014358Y006756D02*
X014098Y006756D01*
X014098Y006818D01*
X014358Y006818D01*
X014358Y006756D01*
D16*
X002844Y005280D03*
X002450Y010654D03*
D17*
X004035Y005221D03*
D18*
X008858Y005447D03*
D19*
X008877Y005979D03*
X008877Y006412D03*
X008877Y006845D03*
X008877Y007278D03*
X008877Y007711D03*
X008877Y008144D03*
X008877Y008577D03*
X008877Y009010D03*
D20*
X008773Y003746D03*
X008103Y003746D03*
X016189Y011258D03*
X016858Y011258D03*
X019115Y011299D03*
X019784Y011299D03*
D21*
X022925Y011853D03*
X022925Y012453D03*
D22*
X022929Y013252D03*
X022929Y013922D03*
D23*
X002428Y010977D02*
X002428Y004847D01*
X007286Y004847D01*
X007651Y004847D01*
X007908Y004589D01*
X007908Y004589D01*
X007908Y004589D01*
X007908Y004568D01*
X008000Y004568D01*
X006534Y006034D01*
X006427Y006034D01*
X006308Y006083D01*
X006217Y006175D01*
X006167Y006294D01*
X006167Y006424D01*
X006217Y006543D01*
X006308Y006634D01*
X006427Y006684D01*
X006557Y006684D01*
X006676Y006634D01*
X006768Y006543D01*
X006817Y006424D01*
X006817Y006317D01*
X007787Y005347D01*
X007787Y008660D01*
X007904Y008777D01*
X008070Y008777D01*
X008422Y008777D01*
X008422Y008791D01*
X008425Y008793D01*
X008422Y008796D01*
X008422Y009224D01*
X008516Y009318D01*
X009239Y009318D01*
X009333Y009224D01*
X009333Y008796D01*
X009330Y008793D01*
X009333Y008791D01*
X009333Y008363D01*
X009330Y008360D01*
X009333Y008358D01*
X009333Y008344D01*
X009418Y008344D01*
X010796Y006966D01*
X010913Y006849D01*
X010913Y005199D01*
X011109Y005003D01*
X013251Y005003D01*
X013417Y005003D01*
X013560Y004860D01*
X013686Y004860D01*
X013806Y004810D01*
X013897Y004719D01*
X013947Y004599D01*
X013947Y004470D01*
X013897Y004350D01*
X013860Y004314D01*
X013933Y004240D01*
X013983Y004121D01*
X013983Y003991D01*
X013934Y003874D01*
X014161Y003648D01*
X014161Y003283D01*
X013903Y003026D01*
X013539Y003026D01*
X013281Y003283D01*
X013281Y003648D01*
X013312Y003679D01*
X013034Y003957D01*
X013034Y003957D01*
X013015Y003976D01*
X010682Y003976D01*
X010565Y004093D01*
X009803Y004856D01*
X009803Y005021D01*
X009803Y006590D01*
X009331Y007062D01*
X009239Y006970D01*
X008516Y006970D01*
X008422Y007064D01*
X008422Y007492D01*
X008425Y007494D01*
X008422Y007497D01*
X008422Y007925D01*
X008425Y007927D01*
X008422Y007930D01*
X008422Y008358D01*
X008425Y008360D01*
X008422Y008363D01*
X008422Y008377D01*
X008187Y008377D01*
X008187Y006229D01*
X008422Y006464D01*
X008422Y006626D01*
X008516Y006719D01*
X009239Y006719D01*
X009333Y006626D01*
X009333Y006198D01*
X009330Y006195D01*
X009333Y006192D01*
X009333Y005765D01*
X009274Y005706D01*
X009274Y005184D01*
X009180Y005090D01*
X008734Y005090D01*
X009509Y004315D01*
X009509Y004149D01*
X009509Y003153D01*
X010411Y003153D01*
X010281Y003283D01*
X010281Y003648D01*
X010539Y003906D01*
X010903Y003906D01*
X011161Y003648D01*
X011161Y003283D01*
X011031Y003153D01*
X011411Y003153D01*
X011281Y003283D01*
X011281Y003648D01*
X011539Y003906D01*
X011903Y003906D01*
X012161Y003648D01*
X012161Y003283D01*
X012031Y003153D01*
X012316Y003153D01*
X012433Y003036D01*
X012564Y002906D01*
X012903Y002906D01*
X013161Y002648D01*
X013161Y002283D01*
X012903Y002026D01*
X012539Y002026D01*
X012281Y002283D01*
X012281Y002623D01*
X012151Y002753D01*
X012056Y002753D01*
X012161Y002648D01*
X012161Y002283D01*
X011903Y002026D01*
X011605Y002026D01*
X011289Y001709D01*
X011123Y001709D01*
X009453Y001709D01*
X009336Y001826D01*
X008944Y002218D01*
X008944Y002383D01*
X008944Y003389D01*
X008490Y003389D01*
X008438Y003441D01*
X008386Y003389D01*
X008337Y003389D01*
X008370Y003356D01*
X008419Y003236D01*
X008419Y003107D01*
X008370Y002988D01*
X008279Y002896D01*
X008159Y002847D01*
X008030Y002847D01*
X007910Y002896D01*
X007908Y002898D01*
X007909Y001409D01*
X014296Y001409D01*
X014296Y002072D01*
X014389Y002165D01*
X014399Y002165D01*
X014281Y002283D01*
X014281Y002648D01*
X014539Y002906D01*
X014903Y002906D01*
X015161Y002648D01*
X015161Y002283D01*
X015012Y002135D01*
X015075Y002072D01*
X015075Y001409D01*
X015099Y001409D01*
X015090Y001429D01*
X015090Y001558D01*
X015140Y001678D01*
X015231Y001769D01*
X015351Y001819D01*
X015480Y001819D01*
X015599Y001769D01*
X015675Y001694D01*
X019074Y001694D01*
X019067Y001697D01*
X018975Y001788D01*
X018926Y001907D01*
X018926Y002037D01*
X018934Y002056D01*
X018903Y002026D01*
X018539Y002026D01*
X018281Y002283D01*
X018281Y002648D01*
X018387Y002754D01*
X018300Y002754D01*
X018135Y002754D01*
X017863Y003026D01*
X017539Y003026D01*
X017281Y003283D01*
X017281Y003648D01*
X017539Y003906D01*
X017903Y003906D01*
X018161Y003648D01*
X018161Y003293D01*
X018300Y003154D01*
X018410Y003154D01*
X018281Y003283D01*
X018281Y003648D01*
X018539Y003906D01*
X018903Y003906D01*
X019161Y003648D01*
X019161Y003283D01*
X019031Y003154D01*
X019062Y003154D01*
X019179Y003037D01*
X019425Y002791D01*
X019539Y002906D01*
X019903Y002906D01*
X020036Y002773D01*
X020036Y002914D01*
X020036Y003079D01*
X020281Y003324D01*
X020281Y003648D01*
X020539Y003906D01*
X020903Y003906D01*
X020973Y003836D01*
X020941Y003913D01*
X020941Y004042D01*
X020990Y004162D01*
X021082Y004253D01*
X021201Y004302D01*
X021330Y004302D01*
X021443Y004256D01*
X021441Y004932D01*
X021409Y004932D01*
X021385Y004955D01*
X021214Y004785D01*
X021097Y004668D01*
X020503Y004668D01*
X020695Y004476D01*
X020695Y004095D01*
X020425Y003825D01*
X020044Y003825D01*
X019775Y004095D01*
X019775Y004476D01*
X019967Y004668D01*
X018930Y004668D01*
X018832Y004668D01*
X018832Y004608D01*
X018782Y004488D01*
X018691Y004397D01*
X018571Y004347D01*
X018442Y004347D01*
X018323Y004397D01*
X018245Y004474D01*
X018139Y004475D01*
X018065Y004401D01*
X017945Y004351D01*
X017816Y004351D01*
X017696Y004401D01*
X017605Y004492D01*
X017556Y004612D01*
X017556Y004741D01*
X017605Y004860D01*
X017696Y004952D01*
X017796Y004993D01*
X017542Y004993D01*
X017456Y005079D01*
X017370Y004993D01*
X017070Y004993D01*
X016983Y005079D01*
X016897Y004993D01*
X016597Y004993D01*
X016511Y005079D01*
X016425Y004993D01*
X016125Y004993D01*
X016108Y005010D01*
X016128Y004962D01*
X016128Y004832D01*
X016078Y004713D01*
X015987Y004622D01*
X015867Y004572D01*
X015738Y004572D01*
X015619Y004622D01*
X015527Y004713D01*
X015478Y004832D01*
X015478Y004962D01*
X015527Y005081D01*
X015546Y005100D01*
X015485Y005160D01*
X015485Y005657D01*
X015583Y005755D01*
X015532Y005805D01*
X015483Y005925D01*
X015483Y006054D01*
X015532Y006174D01*
X015624Y006265D01*
X015743Y006314D01*
X015872Y006314D01*
X015992Y006265D01*
X016083Y006174D01*
X016133Y006054D01*
X016133Y005925D01*
X016083Y005805D01*
X016027Y005749D01*
X016039Y005738D01*
X016125Y005825D01*
X016425Y005825D01*
X016511Y005738D01*
X016597Y005825D01*
X016897Y005825D01*
X016983Y005738D01*
X017070Y005825D01*
X017370Y005825D01*
X017456Y005738D01*
X017542Y005825D01*
X017842Y005825D01*
X017928Y005738D01*
X018015Y005825D01*
X018237Y005825D01*
X017975Y006086D01*
X017868Y006086D01*
X017749Y006136D01*
X017657Y006227D01*
X017608Y006346D01*
X017608Y006476D01*
X017657Y006595D01*
X017749Y006687D01*
X017868Y006736D01*
X017998Y006736D01*
X018117Y006687D01*
X018178Y006626D01*
X018189Y006637D01*
X018189Y007226D01*
X018189Y007392D01*
X019359Y008562D01*
X019287Y008591D01*
X019196Y008683D01*
X019146Y008802D01*
X019146Y008931D01*
X019196Y009051D01*
X019287Y009142D01*
X019348Y009168D01*
X019373Y009193D01*
X019510Y009193D01*
X019567Y009249D01*
X019732Y009249D01*
X020250Y009249D01*
X020367Y009132D01*
X020367Y008967D01*
X020367Y008562D01*
X020658Y008270D01*
X020764Y008270D01*
X020884Y008221D01*
X020975Y008130D01*
X021024Y008010D01*
X021024Y007881D01*
X020975Y007761D01*
X020884Y007670D01*
X020764Y007621D01*
X020635Y007621D01*
X020515Y007670D01*
X020424Y007761D01*
X020374Y007881D01*
X020374Y007989D01*
X020021Y008343D01*
X019968Y008397D01*
X019968Y008405D01*
X019931Y008390D01*
X019802Y008390D01*
X019767Y008404D01*
X018589Y007226D01*
X018589Y006637D01*
X018665Y006561D01*
X018714Y006442D01*
X018714Y006313D01*
X018673Y006214D01*
X019261Y006214D01*
X019253Y006233D01*
X019253Y006362D01*
X019302Y006482D01*
X019394Y006573D01*
X019513Y006622D01*
X019642Y006622D01*
X019762Y006573D01*
X019839Y006496D01*
X019940Y006495D01*
X020030Y006585D01*
X020149Y006635D01*
X020278Y006635D01*
X020398Y006585D01*
X020489Y006494D01*
X020978Y006494D01*
X021023Y006538D02*
X020931Y006447D01*
X020882Y006328D01*
X020882Y006198D01*
X020931Y006079D01*
X021008Y006002D01*
X021011Y005147D01*
X020932Y005068D01*
X020279Y005068D01*
X020372Y005160D01*
X020372Y005657D01*
X020215Y005814D01*
X020314Y005814D01*
X020390Y005739D01*
X020509Y005689D01*
X020639Y005689D01*
X020758Y005739D01*
X020849Y005830D01*
X020899Y005950D01*
X020899Y006079D01*
X020849Y006198D01*
X020758Y006290D01*
X020639Y006339D01*
X020539Y006339D01*
X020539Y006374D01*
X020489Y006494D01*
X020522Y006415D02*
X020918Y006415D01*
X020885Y006337D02*
X020645Y006337D01*
X020790Y006258D02*
X020882Y006258D01*
X020889Y006180D02*
X020857Y006180D01*
X020890Y006101D02*
X020922Y006101D01*
X020899Y006022D02*
X020987Y006022D01*
X020990Y006034D02*
X020172Y006853D01*
X020172Y007429D01*
X020088Y007514D01*
X020092Y007514D01*
X020092Y007507D01*
X020090Y007505D01*
X020092Y007507D02*
X020096Y007512D01*
X020140Y007512D01*
X020758Y007512D01*
X020885Y007672D02*
X021153Y007672D01*
X021153Y007750D02*
X020964Y007750D01*
X021003Y007829D02*
X021153Y007829D01*
X021153Y007908D02*
X021024Y007908D01*
X021024Y007986D02*
X021153Y007986D01*
X021153Y008065D02*
X021002Y008065D01*
X020961Y008143D02*
X021153Y008143D01*
X021153Y008222D02*
X020882Y008222D01*
X020628Y008300D02*
X021153Y008300D01*
X021154Y008379D02*
X020550Y008379D01*
X020472Y008457D02*
X021154Y008457D01*
X021154Y008536D02*
X020394Y008536D01*
X020367Y008614D02*
X021154Y008614D01*
X021154Y008693D02*
X020367Y008693D01*
X020367Y008771D02*
X020627Y008771D01*
X020627Y008764D02*
X021154Y008764D01*
X021152Y006588D01*
X021142Y006588D01*
X021023Y006538D01*
X021104Y006572D02*
X020411Y006572D01*
X020214Y006310D02*
X020184Y006294D01*
X019578Y006298D01*
X019275Y006415D02*
X018714Y006415D01*
X018714Y006337D02*
X019253Y006337D01*
X019253Y006258D02*
X018691Y006258D01*
X018693Y006494D02*
X019314Y006494D01*
X019393Y006572D02*
X018654Y006572D01*
X018589Y006651D02*
X021152Y006651D01*
X021152Y006729D02*
X018589Y006729D01*
X018589Y006808D02*
X021152Y006808D01*
X021152Y006886D02*
X018589Y006886D01*
X018589Y006965D02*
X021152Y006965D01*
X021152Y007044D02*
X018589Y007044D01*
X018589Y007122D02*
X021152Y007122D01*
X021152Y007201D02*
X018589Y007201D01*
X018642Y007279D02*
X021152Y007279D01*
X021153Y007358D02*
X018721Y007358D01*
X018799Y007436D02*
X021153Y007436D01*
X021153Y007515D02*
X018878Y007515D01*
X018956Y007593D02*
X021153Y007593D01*
X020699Y007946D02*
X020168Y008480D01*
X020168Y009049D01*
X019649Y009049D01*
X019471Y008871D01*
X019471Y008867D01*
X019456Y008993D01*
X019340Y009164D02*
X018731Y009164D01*
X018731Y009086D02*
X019230Y009086D01*
X019177Y009007D02*
X018731Y009007D01*
X018731Y008929D02*
X019146Y008929D01*
X019146Y008850D02*
X018731Y008850D01*
X018731Y008798D02*
X018731Y009872D01*
X018731Y010038D01*
X018690Y010079D01*
X018690Y010178D01*
X018686Y010190D01*
X018787Y010190D01*
X018873Y010276D01*
X018959Y010190D01*
X019259Y010190D01*
X019346Y010276D01*
X019432Y010190D01*
X019446Y010190D01*
X019653Y009983D01*
X019818Y009983D01*
X020940Y009983D01*
X021057Y010100D01*
X021057Y010266D01*
X021057Y011475D01*
X021079Y011497D01*
X021435Y011497D01*
X021436Y011096D01*
X021413Y011096D01*
X021155Y010839D01*
X021155Y010620D01*
X021155Y009825D01*
X020627Y009825D01*
X020627Y008764D01*
X020627Y008850D02*
X020367Y008850D01*
X020367Y008929D02*
X020627Y008929D01*
X020627Y009007D02*
X020367Y009007D01*
X020367Y009086D02*
X020627Y009086D01*
X020627Y009164D02*
X020335Y009164D01*
X020257Y009243D02*
X020627Y009243D01*
X020627Y009321D02*
X018731Y009321D01*
X018731Y009243D02*
X019560Y009243D01*
X019798Y008717D02*
X019867Y008715D01*
X019798Y008717D02*
X018389Y007309D01*
X018389Y006377D01*
X018330Y006014D02*
X017933Y006411D01*
X017705Y006180D02*
X016077Y006180D01*
X016113Y006101D02*
X017832Y006101D01*
X018039Y006022D02*
X016133Y006022D01*
X016133Y005944D02*
X018117Y005944D01*
X018196Y005865D02*
X016108Y005865D01*
X016087Y005787D02*
X016065Y005787D01*
X015808Y005990D02*
X015802Y005984D01*
X015802Y005409D01*
X015815Y005421D01*
X015815Y004909D01*
X015803Y004897D01*
X016100Y004766D02*
X017566Y004766D01*
X017556Y004687D02*
X016052Y004687D01*
X015956Y004609D02*
X017557Y004609D01*
X017589Y004530D02*
X013947Y004530D01*
X013943Y004609D02*
X015650Y004609D01*
X015553Y004687D02*
X013910Y004687D01*
X013850Y004766D02*
X015505Y004766D01*
X015478Y004844D02*
X013723Y004844D01*
X013496Y004923D02*
X015478Y004923D01*
X015494Y005001D02*
X013418Y005001D01*
X013334Y004803D02*
X013605Y004531D01*
X013609Y004535D01*
X013622Y004535D01*
X013513Y004643D01*
X013334Y004803D02*
X011026Y004803D01*
X010713Y005116D01*
X010713Y006766D01*
X009335Y008144D01*
X008877Y008144D01*
X008877Y008577D02*
X007987Y008577D01*
X007987Y005198D01*
X009144Y004041D01*
X009144Y002301D01*
X009536Y001909D01*
X011206Y001909D01*
X011728Y002431D01*
X011721Y002438D01*
X011721Y002466D01*
X011721Y002439D01*
X011721Y002439D01*
X012051Y002174D02*
X012390Y002174D01*
X012312Y002252D02*
X012130Y002252D01*
X012161Y002331D02*
X012281Y002331D01*
X012281Y002409D02*
X012161Y002409D01*
X012161Y002488D02*
X012281Y002488D01*
X012281Y002567D02*
X012161Y002567D01*
X012161Y002645D02*
X012259Y002645D01*
X012180Y002724D02*
X012085Y002724D01*
X012233Y002953D02*
X009353Y002953D01*
X009309Y002997D01*
X009309Y004232D01*
X008318Y005224D01*
X008318Y006077D01*
X008648Y006407D01*
X008882Y006407D01*
X008877Y006412D01*
X008882Y006407D02*
X008883Y006407D01*
X008877Y006845D02*
X009357Y006845D01*
X009686Y006515D01*
X009686Y004860D01*
X010589Y003957D01*
X010168Y003957D01*
X009677Y003466D01*
X009721Y003466D01*
X009677Y003466D02*
X009671Y003460D01*
X009509Y003431D02*
X010281Y003431D01*
X010281Y003509D02*
X009509Y003509D01*
X009509Y003588D02*
X010281Y003588D01*
X010299Y003666D02*
X009509Y003666D01*
X009509Y003745D02*
X010378Y003745D01*
X010456Y003823D02*
X009509Y003823D01*
X009509Y003902D02*
X010535Y003902D01*
X010589Y003957D02*
X012891Y003957D01*
X013222Y003626D01*
X013222Y002091D01*
X013629Y001685D01*
X014095Y001685D01*
X014110Y001670D01*
X014119Y001657D02*
X014086Y001690D01*
X014089Y001690D01*
X014095Y001685D01*
X014119Y001657D02*
X014150Y001657D01*
X014150Y004229D01*
X015330Y005409D01*
X014212Y006526D01*
X014212Y006784D01*
X014224Y006784D01*
X014228Y006787D01*
X014228Y007654D01*
X015054Y008481D01*
X015049Y008486D01*
X015231Y008555D01*
X015053Y008482D01*
X015053Y008229D01*
X015365Y007917D01*
X016860Y007917D01*
X016905Y007962D01*
X017162Y007750D02*
X010011Y007750D01*
X009933Y007829D02*
X017241Y007829D01*
X017319Y007908D02*
X009854Y007908D01*
X009776Y007986D02*
X016126Y007986D01*
X016169Y007968D02*
X016298Y007968D01*
X016418Y008018D01*
X016509Y008109D01*
X016558Y008229D01*
X016558Y008358D01*
X016509Y008477D01*
X016431Y008555D01*
X016431Y009263D01*
X016434Y009266D01*
X016434Y009276D01*
X016715Y009568D01*
X016815Y009568D01*
X016934Y009618D01*
X017026Y009709D01*
X017075Y009828D01*
X017075Y009958D01*
X017026Y010077D01*
X016934Y010169D01*
X016883Y010190D01*
X016897Y010190D01*
X016983Y010276D01*
X017070Y010190D01*
X017370Y010190D01*
X017456Y010276D01*
X017542Y010190D01*
X017842Y010190D01*
X017928Y010276D01*
X018015Y010190D01*
X018045Y010190D01*
X018040Y010178D01*
X018040Y010049D01*
X018090Y009929D01*
X018181Y009838D01*
X018301Y009789D01*
X018331Y009789D01*
X018331Y009159D01*
X018279Y009180D01*
X018150Y009180D01*
X018031Y009131D01*
X017939Y009039D01*
X017890Y008920D01*
X017890Y008791D01*
X017939Y008671D01*
X018011Y008599D01*
X016827Y007415D01*
X015783Y007415D01*
X015666Y007298D01*
X015564Y007196D01*
X015457Y007196D01*
X015337Y007146D01*
X015246Y007055D01*
X015197Y006935D01*
X015197Y006806D01*
X015246Y006687D01*
X015337Y006595D01*
X015457Y006546D01*
X015586Y006546D01*
X015706Y006595D01*
X015797Y006687D01*
X015847Y006806D01*
X015847Y006913D01*
X015949Y007015D01*
X016827Y007015D01*
X016993Y007015D01*
X018294Y008316D01*
X018347Y008263D01*
X018467Y008213D01*
X018596Y008213D01*
X018716Y008263D01*
X018807Y008354D01*
X018856Y008474D01*
X018856Y008603D01*
X018807Y008722D01*
X018731Y008798D01*
X018758Y008771D02*
X019159Y008771D01*
X019191Y008693D02*
X018819Y008693D01*
X018852Y008614D02*
X019264Y008614D01*
X019333Y008536D02*
X018856Y008536D01*
X018850Y008457D02*
X019255Y008457D01*
X019176Y008379D02*
X018817Y008379D01*
X018753Y008300D02*
X019098Y008300D01*
X019019Y008222D02*
X018616Y008222D01*
X018446Y008222D02*
X018199Y008222D01*
X018278Y008300D02*
X018310Y008300D01*
X018215Y008520D02*
X018215Y008855D01*
X017996Y008614D02*
X016431Y008614D01*
X016431Y008693D02*
X017930Y008693D01*
X017898Y008771D02*
X016431Y008771D01*
X016431Y008850D02*
X017890Y008850D01*
X017893Y008929D02*
X016431Y008929D01*
X016431Y009007D02*
X017926Y009007D01*
X017985Y009086D02*
X016431Y009086D01*
X016431Y009164D02*
X018111Y009164D01*
X018318Y009164D02*
X018331Y009164D01*
X018331Y009243D02*
X016431Y009243D01*
X016478Y009321D02*
X018331Y009321D01*
X018331Y009400D02*
X016553Y009400D01*
X016629Y009478D02*
X018331Y009478D01*
X018331Y009557D02*
X016704Y009557D01*
X016952Y009635D02*
X018331Y009635D01*
X018331Y009714D02*
X017028Y009714D01*
X017060Y009793D02*
X018291Y009793D01*
X018148Y009871D02*
X017075Y009871D01*
X017075Y009950D02*
X018082Y009950D01*
X018049Y010028D02*
X017046Y010028D01*
X016996Y010107D02*
X018040Y010107D01*
X018043Y010185D02*
X016894Y010185D01*
X016971Y010264D02*
X016996Y010264D01*
X016750Y009893D02*
X016234Y009357D01*
X016234Y009349D01*
X016231Y009352D01*
X016231Y009352D01*
X016231Y008295D01*
X016233Y008293D01*
X016003Y008065D02*
X009697Y008065D01*
X009619Y008143D02*
X015944Y008143D01*
X015958Y008109D02*
X016049Y008018D01*
X016169Y007968D01*
X016341Y007986D02*
X017398Y007986D01*
X017476Y008065D02*
X016464Y008065D01*
X016523Y008143D02*
X017555Y008143D01*
X017633Y008222D02*
X016555Y008222D01*
X016558Y008300D02*
X017712Y008300D01*
X017791Y008379D02*
X016550Y008379D01*
X016517Y008457D02*
X017869Y008457D01*
X017948Y008536D02*
X016450Y008536D01*
X016031Y008551D02*
X015958Y008477D01*
X015908Y008358D01*
X015908Y008229D01*
X015958Y008109D01*
X015911Y008222D02*
X009540Y008222D01*
X009462Y008300D02*
X015908Y008300D01*
X015917Y008379D02*
X009333Y008379D01*
X009333Y008457D02*
X015950Y008457D01*
X016016Y008536D02*
X009333Y008536D01*
X009333Y008614D02*
X016031Y008614D01*
X016031Y008551D02*
X016031Y009435D01*
X016031Y009435D01*
X016034Y009438D01*
X016034Y009439D01*
X016091Y009496D01*
X016280Y009693D01*
X016155Y009693D01*
X016035Y009742D01*
X015944Y009834D01*
X015895Y009953D01*
X015895Y009955D01*
X015827Y010022D01*
X015827Y009962D01*
X015777Y009842D01*
X015686Y009751D01*
X015567Y009702D01*
X015437Y009702D01*
X015318Y009751D01*
X015226Y009842D01*
X015211Y009881D01*
X015184Y009854D01*
X015064Y009805D01*
X014935Y009805D01*
X014816Y009854D01*
X014724Y009945D01*
X014675Y010065D01*
X014675Y010194D01*
X014724Y010314D01*
X014800Y010389D01*
X014800Y011896D01*
X014800Y012025D01*
X014539Y012025D01*
X014281Y012283D01*
X014281Y012647D01*
X014539Y012905D01*
X014903Y012905D01*
X015040Y012769D01*
X015040Y013162D01*
X014903Y013025D01*
X014539Y013025D01*
X014281Y013283D01*
X014281Y013647D01*
X014539Y013905D01*
X014903Y013905D01*
X015040Y013769D01*
X015040Y014043D01*
X011567Y014043D01*
X011161Y013638D01*
X011161Y013283D01*
X010903Y013025D01*
X010539Y013025D01*
X010281Y013283D01*
X010281Y013647D01*
X010539Y013905D01*
X010863Y013905D01*
X011393Y014435D01*
X011381Y014448D01*
X011068Y014761D01*
X011068Y014926D01*
X011068Y015018D01*
X010921Y014871D01*
X010421Y014871D01*
X010068Y015224D01*
X010068Y015723D01*
X010409Y016064D01*
X010068Y016405D01*
X010068Y016905D01*
X010421Y017258D01*
X010921Y017258D01*
X011274Y016905D01*
X011274Y016405D01*
X011183Y016314D01*
X011350Y016147D01*
X011468Y016030D01*
X011468Y015942D01*
X011602Y016077D01*
X012102Y016077D01*
X012455Y015724D01*
X012455Y015224D01*
X012415Y015185D01*
X012516Y015084D01*
X017862Y015084D01*
X017821Y015182D01*
X017821Y015311D01*
X017871Y015431D01*
X017962Y015522D01*
X018081Y015572D01*
X018211Y015572D01*
X018268Y015548D01*
X019091Y016370D01*
X019055Y016405D01*
X019055Y016905D01*
X019409Y017258D01*
X019908Y017258D01*
X020261Y016905D01*
X020261Y016405D01*
X019920Y016064D01*
X020249Y015736D01*
X020590Y016077D01*
X021089Y016077D01*
X021424Y015742D01*
X021419Y017547D01*
X007908Y017547D01*
X007908Y011599D01*
X014800Y011599D01*
X014800Y011521D02*
X007908Y011521D01*
X007908Y011599D02*
X007908Y011599D01*
X007908Y011235D01*
X007651Y010977D01*
X007651Y010977D01*
X007286Y010977D01*
X007286Y010977D01*
X002428Y010977D01*
X002428Y010971D02*
X014800Y010971D01*
X014800Y011049D02*
X007723Y011049D01*
X007801Y011128D02*
X014800Y011128D01*
X014800Y011206D02*
X007880Y011206D01*
X007908Y011285D02*
X014800Y011285D01*
X014800Y011363D02*
X007908Y011363D01*
X007908Y011442D02*
X014800Y011442D01*
X014800Y011678D02*
X007908Y011678D01*
X007908Y011756D02*
X014800Y011756D01*
X014800Y011835D02*
X007908Y011835D01*
X007908Y011913D02*
X014800Y011913D01*
X014800Y011992D02*
X007908Y011992D01*
X007908Y012070D02*
X010494Y012070D01*
X010539Y012025D02*
X010903Y012025D01*
X011161Y012283D01*
X011161Y012647D01*
X010903Y012905D01*
X010539Y012905D01*
X010281Y012647D01*
X010281Y012283D01*
X010539Y012025D01*
X010415Y012149D02*
X007908Y012149D01*
X007908Y012227D02*
X010337Y012227D01*
X010281Y012306D02*
X007908Y012306D01*
X007908Y012384D02*
X010281Y012384D01*
X010281Y012463D02*
X007908Y012463D01*
X007908Y012542D02*
X010281Y012542D01*
X010281Y012620D02*
X007908Y012620D01*
X007908Y012699D02*
X010332Y012699D01*
X010411Y012777D02*
X007908Y012777D01*
X007908Y012856D02*
X010489Y012856D01*
X010473Y013091D02*
X009969Y013091D01*
X009903Y013025D02*
X010161Y013283D01*
X010161Y013647D01*
X009903Y013905D01*
X009539Y013905D01*
X009281Y013647D01*
X009281Y013283D01*
X009539Y013025D01*
X009903Y013025D01*
X010048Y013170D02*
X010394Y013170D01*
X010316Y013248D02*
X010126Y013248D01*
X010161Y013327D02*
X010281Y013327D01*
X010281Y013406D02*
X010161Y013406D01*
X010161Y013484D02*
X010281Y013484D01*
X010281Y013563D02*
X010161Y013563D01*
X010161Y013641D02*
X010281Y013641D01*
X010353Y013720D02*
X010089Y013720D01*
X010010Y013798D02*
X010432Y013798D01*
X010510Y013877D02*
X009932Y013877D01*
X009510Y013877D02*
X007908Y013877D01*
X007908Y013955D02*
X010913Y013955D01*
X010992Y014034D02*
X007908Y014034D01*
X007908Y014112D02*
X011070Y014112D01*
X011149Y014191D02*
X007908Y014191D01*
X007908Y014270D02*
X011227Y014270D01*
X011306Y014348D02*
X007908Y014348D01*
X007908Y014427D02*
X011384Y014427D01*
X011323Y014505D02*
X007908Y014505D01*
X007908Y014584D02*
X011245Y014584D01*
X011166Y014662D02*
X007908Y014662D01*
X007908Y014741D02*
X011088Y014741D01*
X011068Y014819D02*
X007908Y014819D01*
X007908Y014898D02*
X010394Y014898D01*
X010316Y014976D02*
X007908Y014976D01*
X007908Y015055D02*
X010237Y015055D01*
X010158Y015134D02*
X007908Y015134D01*
X007908Y015212D02*
X010080Y015212D01*
X010068Y015291D02*
X007908Y015291D01*
X007908Y015369D02*
X010068Y015369D01*
X010068Y015448D02*
X007908Y015448D01*
X007908Y015526D02*
X010068Y015526D01*
X010068Y015605D02*
X007908Y015605D01*
X007908Y015683D02*
X010068Y015683D01*
X010106Y015762D02*
X007908Y015762D01*
X007908Y015840D02*
X010185Y015840D01*
X010263Y015919D02*
X007908Y015919D01*
X007908Y015997D02*
X010342Y015997D01*
X010397Y016076D02*
X007908Y016076D01*
X007908Y016155D02*
X010319Y016155D01*
X010240Y016233D02*
X007908Y016233D01*
X007908Y016312D02*
X010162Y016312D01*
X010083Y016390D02*
X007908Y016390D01*
X007908Y016469D02*
X010068Y016469D01*
X010068Y016547D02*
X007908Y016547D01*
X007908Y016626D02*
X010068Y016626D01*
X010068Y016704D02*
X007908Y016704D01*
X007908Y016783D02*
X010068Y016783D01*
X010068Y016861D02*
X007908Y016861D01*
X007908Y016940D02*
X010103Y016940D01*
X010182Y017019D02*
X007908Y017019D01*
X007908Y017097D02*
X010261Y017097D01*
X010339Y017176D02*
X007908Y017176D01*
X007908Y017254D02*
X010418Y017254D01*
X010924Y017254D02*
X019405Y017254D01*
X019326Y017176D02*
X011003Y017176D01*
X011081Y017097D02*
X019248Y017097D01*
X019169Y017019D02*
X011160Y017019D01*
X011238Y016940D02*
X019091Y016940D01*
X019055Y016861D02*
X011274Y016861D01*
X011274Y016783D02*
X019055Y016783D01*
X019055Y016704D02*
X011274Y016704D01*
X011274Y016626D02*
X019055Y016626D01*
X019055Y016547D02*
X011274Y016547D01*
X011274Y016469D02*
X019055Y016469D01*
X019071Y016390D02*
X011259Y016390D01*
X011186Y016312D02*
X019032Y016312D01*
X018954Y016233D02*
X011264Y016233D01*
X011343Y016155D02*
X018875Y016155D01*
X018796Y016076D02*
X012102Y016076D01*
X012181Y015997D02*
X018718Y015997D01*
X018639Y015919D02*
X012259Y015919D01*
X012338Y015840D02*
X018561Y015840D01*
X018482Y015762D02*
X012417Y015762D01*
X012455Y015683D02*
X018404Y015683D01*
X018325Y015605D02*
X012455Y015605D01*
X012455Y015526D02*
X017972Y015526D01*
X017887Y015448D02*
X012455Y015448D01*
X012455Y015369D02*
X017845Y015369D01*
X017821Y015291D02*
X012455Y015291D01*
X012443Y015212D02*
X017821Y015212D01*
X017841Y015134D02*
X012467Y015134D01*
X012433Y014884D02*
X020224Y014884D01*
X020251Y014884D01*
X020840Y015472D01*
X020840Y015474D01*
X020840Y015394D01*
X020817Y015368D02*
X020817Y015452D01*
X020840Y015474D01*
X021326Y015840D02*
X021423Y015840D01*
X021424Y015762D02*
X021404Y015762D01*
X021423Y015919D02*
X021247Y015919D01*
X021169Y015997D02*
X021423Y015997D01*
X021423Y016076D02*
X021090Y016076D01*
X021423Y016155D02*
X020010Y016155D01*
X020089Y016233D02*
X021422Y016233D01*
X021422Y016312D02*
X020167Y016312D01*
X020246Y016390D02*
X021422Y016390D01*
X021422Y016469D02*
X020261Y016469D01*
X020261Y016547D02*
X021421Y016547D01*
X021421Y016626D02*
X020261Y016626D01*
X020261Y016704D02*
X021421Y016704D01*
X021421Y016783D02*
X020261Y016783D01*
X020261Y016861D02*
X021421Y016861D01*
X021420Y016940D02*
X020226Y016940D01*
X020147Y017019D02*
X021420Y017019D01*
X021420Y017097D02*
X020069Y017097D01*
X019990Y017176D02*
X021420Y017176D01*
X021420Y017254D02*
X019912Y017254D01*
X019660Y016674D02*
X019658Y016672D01*
X019658Y016655D01*
X018250Y015247D01*
X018146Y015247D01*
X017844Y014564D02*
X017884Y014530D01*
X011581Y014530D01*
X011268Y014844D01*
X011268Y015947D01*
X010671Y016544D01*
X010671Y016655D01*
X011421Y016076D02*
X011602Y016076D01*
X011523Y015997D02*
X011468Y015997D01*
X011852Y015474D02*
X011852Y015465D01*
X012433Y014884D01*
X011852Y015463D02*
X011852Y015474D01*
X011068Y014976D02*
X011026Y014976D01*
X011068Y014898D02*
X010947Y014898D01*
X011484Y014243D02*
X010712Y013472D01*
X010718Y013465D01*
X010721Y013465D01*
X011048Y013170D02*
X011394Y013170D01*
X011316Y013248D02*
X011126Y013248D01*
X011161Y013327D02*
X011281Y013327D01*
X011281Y013283D02*
X011539Y013025D01*
X011903Y013025D01*
X012161Y013283D01*
X012161Y013647D01*
X011903Y013905D01*
X011539Y013905D01*
X011281Y013647D01*
X011281Y013283D01*
X011281Y013406D02*
X011161Y013406D01*
X011161Y013484D02*
X011281Y013484D01*
X011281Y013563D02*
X011161Y013563D01*
X011165Y013641D02*
X011281Y013641D01*
X011243Y013720D02*
X011353Y013720D01*
X011322Y013798D02*
X011432Y013798D01*
X011400Y013877D02*
X011510Y013877D01*
X011479Y013955D02*
X015040Y013955D01*
X015040Y013877D02*
X014932Y013877D01*
X015010Y013798D02*
X015040Y013798D01*
X015040Y014034D02*
X011557Y014034D01*
X011484Y014243D02*
X015240Y014243D01*
X015240Y012219D01*
X015000Y011978D01*
X015000Y010130D01*
X014753Y010342D02*
X002428Y010342D01*
X002428Y010264D02*
X014704Y010264D01*
X014675Y010185D02*
X002428Y010185D01*
X002428Y010107D02*
X014675Y010107D01*
X014690Y010028D02*
X002428Y010028D01*
X002428Y009950D02*
X014722Y009950D01*
X014798Y009871D02*
X002428Y009871D01*
X002428Y009793D02*
X015276Y009793D01*
X015215Y009871D02*
X015201Y009871D01*
X015407Y009714D02*
X002428Y009714D01*
X002428Y009635D02*
X016225Y009635D01*
X016149Y009557D02*
X002428Y009557D01*
X002428Y009478D02*
X016073Y009478D01*
X016031Y009400D02*
X002428Y009400D01*
X002428Y009321D02*
X016031Y009321D01*
X016031Y009243D02*
X009314Y009243D01*
X009333Y009164D02*
X016031Y009164D01*
X016031Y009086D02*
X009333Y009086D01*
X009333Y009007D02*
X016031Y009007D01*
X016031Y008929D02*
X009333Y008929D01*
X009333Y008850D02*
X016031Y008850D01*
X016031Y008771D02*
X009333Y008771D01*
X009333Y008693D02*
X016031Y008693D01*
X015231Y008555D02*
X015049Y008476D01*
X015041Y008469D01*
X014283Y009228D01*
X014228Y009228D01*
X014800Y010421D02*
X002428Y010421D01*
X002428Y010499D02*
X014800Y010499D01*
X014800Y010578D02*
X002428Y010578D01*
X002428Y010657D02*
X014800Y010657D01*
X014800Y010735D02*
X002428Y010735D01*
X002428Y010814D02*
X014800Y010814D01*
X014800Y010892D02*
X002428Y010892D01*
X002450Y010654D02*
X002702Y010654D01*
X003231Y010125D01*
X002428Y009243D02*
X008441Y009243D01*
X008422Y009164D02*
X002428Y009164D01*
X002428Y009086D02*
X008422Y009086D01*
X008422Y009007D02*
X002428Y009007D01*
X002428Y008929D02*
X008422Y008929D01*
X008422Y008850D02*
X002428Y008850D01*
X002428Y008771D02*
X007899Y008771D01*
X007820Y008693D02*
X002428Y008693D01*
X002428Y008614D02*
X007787Y008614D01*
X007787Y008536D02*
X002428Y008536D01*
X002428Y008457D02*
X007787Y008457D01*
X007787Y008379D02*
X002428Y008379D01*
X002428Y008300D02*
X007787Y008300D01*
X007787Y008222D02*
X002428Y008222D01*
X002428Y008143D02*
X007787Y008143D01*
X007787Y008065D02*
X002428Y008065D01*
X002428Y007986D02*
X007787Y007986D01*
X007787Y007908D02*
X002428Y007908D01*
X002428Y007829D02*
X007787Y007829D01*
X007787Y007750D02*
X002428Y007750D01*
X002428Y007672D02*
X007787Y007672D01*
X007787Y007593D02*
X002428Y007593D01*
X002428Y007515D02*
X007787Y007515D01*
X007787Y007436D02*
X002428Y007436D01*
X002428Y007358D02*
X007787Y007358D01*
X007787Y007279D02*
X002428Y007279D01*
X002428Y007201D02*
X007787Y007201D01*
X007787Y007122D02*
X002428Y007122D01*
X002428Y007044D02*
X007787Y007044D01*
X007787Y006965D02*
X002428Y006965D01*
X002428Y006886D02*
X007787Y006886D01*
X007787Y006808D02*
X002428Y006808D01*
X002428Y006729D02*
X007787Y006729D01*
X007787Y006651D02*
X006637Y006651D01*
X006738Y006572D02*
X007787Y006572D01*
X007787Y006494D02*
X006788Y006494D01*
X006817Y006415D02*
X007787Y006415D01*
X007787Y006337D02*
X006817Y006337D01*
X006876Y006258D02*
X007787Y006258D01*
X007787Y006180D02*
X006954Y006180D01*
X007033Y006101D02*
X007787Y006101D01*
X007787Y006022D02*
X007111Y006022D01*
X007190Y005944D02*
X007787Y005944D01*
X007787Y005865D02*
X007268Y005865D01*
X007347Y005787D02*
X007787Y005787D01*
X007787Y005708D02*
X007426Y005708D01*
X007504Y005630D02*
X007787Y005630D01*
X007787Y005551D02*
X007583Y005551D01*
X007661Y005473D02*
X007787Y005473D01*
X007787Y005394D02*
X007740Y005394D01*
X007488Y005080D02*
X002428Y005080D01*
X002428Y005159D02*
X007410Y005159D01*
X007331Y005237D02*
X002428Y005237D01*
X002428Y005316D02*
X007253Y005316D01*
X007174Y005394D02*
X002428Y005394D01*
X002428Y005473D02*
X007096Y005473D01*
X007017Y005551D02*
X002428Y005551D01*
X002428Y005630D02*
X006939Y005630D01*
X006860Y005708D02*
X002428Y005708D01*
X002428Y005787D02*
X006781Y005787D01*
X006703Y005865D02*
X002428Y005865D01*
X002428Y005944D02*
X006624Y005944D01*
X006546Y006022D02*
X002428Y006022D01*
X002428Y006101D02*
X006290Y006101D01*
X006215Y006180D02*
X002428Y006180D01*
X002428Y006258D02*
X006182Y006258D01*
X006167Y006337D02*
X002428Y006337D01*
X002428Y006415D02*
X006167Y006415D01*
X006196Y006494D02*
X002428Y006494D01*
X002428Y006572D02*
X006246Y006572D01*
X006348Y006651D02*
X002428Y006651D01*
X002844Y005280D02*
X003999Y005280D01*
X004059Y005221D01*
X004035Y005221D01*
X004035Y006618D01*
X004351Y006934D01*
X004059Y005221D02*
X004062Y005217D01*
X002428Y005001D02*
X007567Y005001D01*
X007645Y004923D02*
X002428Y004923D01*
X006492Y006359D02*
X008773Y004078D01*
X008773Y003746D01*
X008448Y003431D02*
X008428Y003431D01*
X008372Y003352D02*
X008944Y003352D01*
X008944Y003273D02*
X008404Y003273D01*
X008419Y003195D02*
X008944Y003195D01*
X008944Y003116D02*
X008419Y003116D01*
X008391Y003038D02*
X008944Y003038D01*
X008944Y002959D02*
X008342Y002959D01*
X008241Y002881D02*
X008944Y002881D01*
X008944Y002802D02*
X007908Y002802D01*
X007908Y002724D02*
X008944Y002724D01*
X008944Y002645D02*
X007908Y002645D01*
X007908Y002567D02*
X008944Y002567D01*
X008944Y002488D02*
X007908Y002488D01*
X007908Y002409D02*
X008944Y002409D01*
X008944Y002331D02*
X007908Y002331D01*
X007908Y002252D02*
X008944Y002252D01*
X008988Y002174D02*
X007908Y002174D01*
X007909Y002095D02*
X009066Y002095D01*
X009145Y002017D02*
X007909Y002017D01*
X007909Y001938D02*
X009223Y001938D01*
X009302Y001860D02*
X007909Y001860D01*
X007909Y001781D02*
X009381Y001781D01*
X007909Y001703D02*
X014296Y001703D01*
X014296Y001781D02*
X011361Y001781D01*
X011439Y001860D02*
X014296Y001860D01*
X014296Y001938D02*
X011518Y001938D01*
X011596Y002017D02*
X014296Y002017D01*
X014319Y002095D02*
X013973Y002095D01*
X013903Y002026D02*
X014161Y002283D01*
X014161Y002648D01*
X013903Y002906D01*
X013539Y002906D01*
X013281Y002648D01*
X013281Y002283D01*
X013539Y002026D01*
X013903Y002026D01*
X014051Y002174D02*
X014390Y002174D01*
X014312Y002252D02*
X014130Y002252D01*
X014161Y002331D02*
X014281Y002331D01*
X014281Y002409D02*
X014161Y002409D01*
X014161Y002488D02*
X014281Y002488D01*
X014281Y002567D02*
X014161Y002567D01*
X014161Y002645D02*
X014281Y002645D01*
X014357Y002724D02*
X014085Y002724D01*
X014006Y002802D02*
X014435Y002802D01*
X014514Y002881D02*
X013928Y002881D01*
X013915Y003038D02*
X014526Y003038D01*
X014539Y003026D02*
X014903Y003026D01*
X015161Y003283D01*
X015161Y003648D01*
X014903Y003906D01*
X014539Y003906D01*
X014281Y003648D01*
X014281Y003283D01*
X014539Y003026D01*
X014448Y003116D02*
X013994Y003116D01*
X014073Y003195D02*
X014369Y003195D01*
X014291Y003273D02*
X014151Y003273D01*
X014161Y003352D02*
X014281Y003352D01*
X014281Y003431D02*
X014161Y003431D01*
X014161Y003509D02*
X014281Y003509D01*
X014281Y003588D02*
X014161Y003588D01*
X014143Y003666D02*
X014299Y003666D01*
X014378Y003745D02*
X014064Y003745D01*
X013985Y003823D02*
X014456Y003823D01*
X014535Y003902D02*
X013946Y003902D01*
X013978Y003980D02*
X019889Y003980D01*
X019903Y003906D02*
X019539Y003906D01*
X019281Y003648D01*
X019281Y003283D01*
X019539Y003026D01*
X019903Y003026D01*
X020161Y003283D01*
X020161Y003648D01*
X019903Y003906D01*
X019907Y003902D02*
X019968Y003902D01*
X019985Y003823D02*
X020456Y003823D01*
X020502Y003902D02*
X020535Y003902D01*
X020580Y003980D02*
X020941Y003980D01*
X020945Y003902D02*
X020907Y003902D01*
X020948Y004059D02*
X020659Y004059D01*
X020695Y004137D02*
X020980Y004137D01*
X021045Y004216D02*
X020695Y004216D01*
X020695Y004295D02*
X021182Y004295D01*
X021350Y004295D02*
X021443Y004295D01*
X021443Y004373D02*
X020695Y004373D01*
X020695Y004452D02*
X021443Y004452D01*
X021442Y004530D02*
X020641Y004530D01*
X020562Y004609D02*
X021442Y004609D01*
X021442Y004687D02*
X021116Y004687D01*
X021195Y004766D02*
X021442Y004766D01*
X021441Y004844D02*
X021274Y004844D01*
X021352Y004923D02*
X021441Y004923D01*
X021211Y005064D02*
X021015Y004868D01*
X018847Y004868D01*
X018637Y005078D01*
X018637Y005412D01*
X018637Y005412D01*
X018637Y005409D01*
X018637Y005412D02*
X018615Y005434D01*
X017977Y005787D02*
X017880Y005787D01*
X017504Y005787D02*
X017407Y005787D01*
X017032Y005787D02*
X016935Y005787D01*
X016559Y005787D02*
X016462Y005787D01*
X015999Y006258D02*
X017645Y006258D01*
X017612Y006337D02*
X010913Y006337D01*
X010913Y006415D02*
X017608Y006415D01*
X017615Y006494D02*
X010913Y006494D01*
X010913Y006572D02*
X015393Y006572D01*
X015282Y006651D02*
X010913Y006651D01*
X010913Y006729D02*
X015228Y006729D01*
X015197Y006808D02*
X010913Y006808D01*
X010875Y006886D02*
X015197Y006886D01*
X015209Y006965D02*
X010797Y006965D01*
X010718Y007044D02*
X015241Y007044D01*
X015313Y007122D02*
X010640Y007122D01*
X010561Y007201D02*
X015569Y007201D01*
X015647Y007279D02*
X010483Y007279D01*
X010404Y007358D02*
X015726Y007358D01*
X015866Y007215D02*
X016910Y007215D01*
X018215Y008520D01*
X018531Y008538D02*
X018531Y009955D01*
X018365Y010121D01*
X018365Y010121D01*
X018365Y010114D01*
X018498Y009981D01*
X018690Y010107D02*
X019529Y010107D01*
X019450Y010185D02*
X018688Y010185D01*
X018731Y010028D02*
X019608Y010028D01*
X019735Y010183D02*
X019588Y010331D01*
X019588Y010575D01*
X019570Y010592D01*
X019582Y010604D01*
X019582Y010606D01*
X019358Y010264D02*
X019333Y010264D01*
X019109Y010606D02*
X019109Y011310D01*
X019115Y011315D01*
X019115Y011299D01*
X019115Y011315D02*
X019122Y011323D01*
X019029Y011780D02*
X019714Y012465D01*
X019721Y012465D01*
X020232Y012233D02*
X019879Y011880D01*
X020232Y012233D02*
X020232Y014878D01*
X020226Y014884D01*
X020224Y014884D01*
X019290Y013911D02*
X018166Y013911D01*
X017721Y013465D01*
X018412Y014243D02*
X015240Y014243D01*
X015240Y014245D01*
X014510Y013877D02*
X013932Y013877D01*
X013903Y013905D02*
X013539Y013905D01*
X013281Y013647D01*
X013281Y013283D01*
X013539Y013025D01*
X013903Y013025D01*
X014161Y013283D01*
X014161Y013647D01*
X013903Y013905D01*
X014010Y013798D02*
X014432Y013798D01*
X014353Y013720D02*
X014089Y013720D01*
X014161Y013641D02*
X014281Y013641D01*
X014281Y013563D02*
X014161Y013563D01*
X014161Y013484D02*
X014281Y013484D01*
X014281Y013406D02*
X014161Y013406D01*
X014161Y013327D02*
X014281Y013327D01*
X014316Y013248D02*
X014126Y013248D01*
X014048Y013170D02*
X014394Y013170D01*
X014473Y013091D02*
X013969Y013091D01*
X013903Y012905D02*
X013539Y012905D01*
X013281Y012647D01*
X013281Y012283D01*
X013539Y012025D01*
X013903Y012025D01*
X014161Y012283D01*
X014161Y012647D01*
X013903Y012905D01*
X013953Y012856D02*
X014489Y012856D01*
X014411Y012777D02*
X014031Y012777D01*
X014110Y012699D02*
X014332Y012699D01*
X014281Y012620D02*
X014161Y012620D01*
X014161Y012542D02*
X014281Y012542D01*
X014281Y012463D02*
X014161Y012463D01*
X014161Y012384D02*
X014281Y012384D01*
X014281Y012306D02*
X014161Y012306D01*
X014105Y012227D02*
X014337Y012227D01*
X014415Y012149D02*
X014027Y012149D01*
X013948Y012070D02*
X014494Y012070D01*
X015031Y012777D02*
X015040Y012777D01*
X015040Y012856D02*
X014953Y012856D01*
X015040Y012934D02*
X007908Y012934D01*
X007908Y013013D02*
X015040Y013013D01*
X015040Y013091D02*
X014969Y013091D01*
X013510Y013877D02*
X012932Y013877D01*
X012903Y013905D02*
X012539Y013905D01*
X012281Y013647D01*
X012281Y013283D01*
X012539Y013025D01*
X012903Y013025D01*
X013161Y013283D01*
X013161Y013647D01*
X012903Y013905D01*
X013010Y013798D02*
X013432Y013798D01*
X013353Y013720D02*
X013089Y013720D01*
X013161Y013641D02*
X013281Y013641D01*
X013281Y013563D02*
X013161Y013563D01*
X013161Y013484D02*
X013281Y013484D01*
X013281Y013406D02*
X013161Y013406D01*
X013161Y013327D02*
X013281Y013327D01*
X013316Y013248D02*
X013126Y013248D01*
X013048Y013170D02*
X013394Y013170D01*
X013473Y013091D02*
X012969Y013091D01*
X012903Y012905D02*
X012539Y012905D01*
X012281Y012647D01*
X012281Y012283D01*
X012539Y012025D01*
X012903Y012025D01*
X013161Y012283D01*
X013161Y012647D01*
X012903Y012905D01*
X012953Y012856D02*
X013489Y012856D01*
X013411Y012777D02*
X013031Y012777D01*
X013110Y012699D02*
X013332Y012699D01*
X013281Y012620D02*
X013161Y012620D01*
X013161Y012542D02*
X013281Y012542D01*
X013281Y012463D02*
X013161Y012463D01*
X013161Y012384D02*
X013281Y012384D01*
X013281Y012306D02*
X013161Y012306D01*
X013105Y012227D02*
X013337Y012227D01*
X013415Y012149D02*
X013027Y012149D01*
X012948Y012070D02*
X013494Y012070D01*
X012494Y012070D02*
X011948Y012070D01*
X011903Y012025D02*
X012161Y012283D01*
X012161Y012647D01*
X011903Y012905D01*
X011539Y012905D01*
X011281Y012647D01*
X011281Y012283D01*
X011539Y012025D01*
X011903Y012025D01*
X012027Y012149D02*
X012415Y012149D01*
X012337Y012227D02*
X012105Y012227D01*
X012161Y012306D02*
X012281Y012306D01*
X012281Y012384D02*
X012161Y012384D01*
X012161Y012463D02*
X012281Y012463D01*
X012281Y012542D02*
X012161Y012542D01*
X012161Y012620D02*
X012281Y012620D01*
X012332Y012699D02*
X012110Y012699D01*
X012031Y012777D02*
X012411Y012777D01*
X012489Y012856D02*
X011953Y012856D01*
X011969Y013091D02*
X012473Y013091D01*
X012394Y013170D02*
X012048Y013170D01*
X012126Y013248D02*
X012316Y013248D01*
X012281Y013327D02*
X012161Y013327D01*
X012161Y013406D02*
X012281Y013406D01*
X012281Y013484D02*
X012161Y013484D01*
X012161Y013563D02*
X012281Y013563D01*
X012281Y013641D02*
X012161Y013641D01*
X012089Y013720D02*
X012353Y013720D01*
X012432Y013798D02*
X012010Y013798D01*
X011932Y013877D02*
X012510Y013877D01*
X011473Y013091D02*
X010969Y013091D01*
X010953Y012856D02*
X011489Y012856D01*
X011411Y012777D02*
X011031Y012777D01*
X011110Y012699D02*
X011332Y012699D01*
X011281Y012620D02*
X011161Y012620D01*
X011161Y012542D02*
X011281Y012542D01*
X011281Y012463D02*
X011161Y012463D01*
X011161Y012384D02*
X011281Y012384D01*
X011281Y012306D02*
X011161Y012306D01*
X011105Y012227D02*
X011337Y012227D01*
X011415Y012149D02*
X011027Y012149D01*
X010948Y012070D02*
X011494Y012070D01*
X009473Y013091D02*
X007908Y013091D01*
X007908Y013170D02*
X009394Y013170D01*
X009316Y013248D02*
X007908Y013248D01*
X007908Y013327D02*
X009281Y013327D01*
X009281Y013406D02*
X007908Y013406D01*
X007908Y013484D02*
X009281Y013484D01*
X009281Y013563D02*
X007908Y013563D01*
X007908Y013641D02*
X009281Y013641D01*
X009353Y013720D02*
X007908Y013720D01*
X007908Y013798D02*
X009432Y013798D01*
X011856Y016561D02*
X011856Y016659D01*
X011852Y016655D01*
X011856Y016659D02*
X011856Y016663D01*
X007908Y017333D02*
X021419Y017333D01*
X021419Y017411D02*
X007908Y017411D01*
X007908Y017490D02*
X021419Y017490D01*
X020589Y016076D02*
X019932Y016076D01*
X019987Y015997D02*
X020511Y015997D01*
X020432Y015919D02*
X020066Y015919D01*
X020144Y015840D02*
X020354Y015840D01*
X020275Y015762D02*
X020223Y015762D01*
X022337Y015654D02*
X022338Y015654D01*
X022340Y015654D01*
X022341Y015653D01*
X022341Y012228D01*
X022054Y011941D01*
X020949Y011941D01*
X020307Y011299D01*
X019784Y011299D01*
X019029Y011780D02*
X017620Y011780D01*
X016904Y011210D02*
X016747Y011053D01*
X016747Y010606D01*
X016275Y010606D02*
X016275Y011100D01*
X016173Y011201D01*
X016189Y011217D01*
X016189Y011258D01*
X016858Y011256D02*
X016858Y011258D01*
X016858Y011256D02*
X016904Y011210D01*
X015816Y010618D02*
X015816Y010314D01*
X015816Y010314D01*
X015817Y010315D01*
X016114Y010018D01*
X016220Y010018D01*
X016104Y009714D02*
X015597Y009714D01*
X015728Y009793D02*
X015985Y009793D01*
X015929Y009871D02*
X015789Y009871D01*
X015822Y009950D02*
X015896Y009950D01*
X015502Y010027D02*
X015502Y010135D01*
X015324Y010313D01*
X015330Y010313D01*
X015330Y010606D01*
X015322Y010315D02*
X015324Y010313D01*
X015802Y010606D02*
X015815Y010618D01*
X015816Y010618D01*
X017444Y010264D02*
X017468Y010264D01*
X017916Y010264D02*
X017940Y010264D01*
X018731Y009950D02*
X021155Y009950D01*
X021155Y010028D02*
X020985Y010028D01*
X021057Y010107D02*
X021155Y010107D01*
X021155Y010185D02*
X021057Y010185D01*
X021057Y010264D02*
X021155Y010264D01*
X021155Y010342D02*
X021057Y010342D01*
X021057Y010421D02*
X021155Y010421D01*
X021155Y010499D02*
X021057Y010499D01*
X021057Y010578D02*
X021155Y010578D01*
X021155Y010657D02*
X021057Y010657D01*
X021057Y010735D02*
X021155Y010735D01*
X021155Y010814D02*
X021057Y010814D01*
X021057Y010892D02*
X021209Y010892D01*
X021288Y010971D02*
X021057Y010971D01*
X021057Y011049D02*
X021366Y011049D01*
X021436Y011128D02*
X021057Y011128D01*
X021057Y011206D02*
X021436Y011206D01*
X021436Y011285D02*
X021057Y011285D01*
X021057Y011363D02*
X021436Y011363D01*
X021435Y011442D02*
X021057Y011442D01*
X020857Y011558D02*
X020857Y010183D01*
X019735Y010183D01*
X018885Y010264D02*
X018861Y010264D01*
X018731Y009871D02*
X021155Y009871D01*
X020627Y009793D02*
X018731Y009793D01*
X018731Y009714D02*
X020627Y009714D01*
X020627Y009635D02*
X018731Y009635D01*
X018731Y009557D02*
X020627Y009557D01*
X020627Y009478D02*
X018731Y009478D01*
X018731Y009400D02*
X020627Y009400D01*
X021202Y008687D02*
X021245Y008643D01*
X021384Y008600D02*
X021422Y008637D01*
X021570Y008637D01*
X021556Y008637D01*
X021541Y008652D01*
X021532Y008643D01*
X020396Y007829D02*
X019192Y007829D01*
X019270Y007908D02*
X020374Y007908D01*
X020374Y007986D02*
X019349Y007986D01*
X019427Y008065D02*
X020299Y008065D01*
X020220Y008143D02*
X019506Y008143D01*
X019585Y008222D02*
X020142Y008222D01*
X020064Y008300D02*
X019663Y008300D01*
X019742Y008379D02*
X019986Y008379D01*
X020435Y007750D02*
X019113Y007750D01*
X019035Y007672D02*
X020513Y007672D01*
X020143Y007509D02*
X020140Y007512D01*
X020088Y007514D02*
X020085Y007517D01*
X018940Y008143D02*
X018120Y008143D01*
X018042Y008065D02*
X018862Y008065D01*
X018783Y007986D02*
X017963Y007986D01*
X017885Y007908D02*
X018705Y007908D01*
X018626Y007829D02*
X017806Y007829D01*
X017728Y007750D02*
X018548Y007750D01*
X018469Y007672D02*
X017649Y007672D01*
X017571Y007593D02*
X018391Y007593D01*
X018312Y007515D02*
X017492Y007515D01*
X017414Y007436D02*
X018234Y007436D01*
X018189Y007358D02*
X017335Y007358D01*
X017256Y007279D02*
X018189Y007279D01*
X018189Y007201D02*
X017178Y007201D01*
X017099Y007122D02*
X018189Y007122D01*
X018189Y007044D02*
X017021Y007044D01*
X016848Y007436D02*
X010326Y007436D01*
X010247Y007515D02*
X016927Y007515D01*
X017005Y007593D02*
X010169Y007593D01*
X010090Y007672D02*
X017084Y007672D01*
X017713Y006651D02*
X015761Y006651D01*
X015815Y006729D02*
X017852Y006729D01*
X018014Y006729D02*
X018189Y006729D01*
X018189Y006651D02*
X018153Y006651D01*
X018189Y006808D02*
X015847Y006808D01*
X015847Y006886D02*
X018189Y006886D01*
X018189Y006965D02*
X015899Y006965D01*
X015866Y007215D02*
X015522Y006871D01*
X015650Y006572D02*
X017648Y006572D01*
X018330Y006014D02*
X020574Y006014D01*
X020806Y005787D02*
X021008Y005787D01*
X020990Y005848D02*
X020990Y006034D01*
X021008Y005944D02*
X020896Y005944D01*
X020864Y005865D02*
X021008Y005865D01*
X020990Y005848D02*
X020551Y005409D01*
X020527Y005409D01*
X020372Y005394D02*
X021010Y005394D01*
X021010Y005316D02*
X020372Y005316D01*
X020372Y005237D02*
X021010Y005237D01*
X021011Y005159D02*
X020370Y005159D01*
X020291Y005080D02*
X020944Y005080D01*
X021211Y005064D02*
X021207Y006263D01*
X021009Y005708D02*
X020684Y005708D01*
X020463Y005708D02*
X020321Y005708D01*
X020342Y005787D02*
X020242Y005787D01*
X020372Y005630D02*
X021009Y005630D01*
X021009Y005551D02*
X020372Y005551D01*
X020372Y005473D02*
X021009Y005473D01*
X019908Y004609D02*
X018832Y004609D01*
X018799Y004530D02*
X019829Y004530D01*
X019775Y004452D02*
X018746Y004452D01*
X018633Y004373D02*
X019775Y004373D01*
X019775Y004295D02*
X013879Y004295D01*
X013906Y004373D02*
X017764Y004373D01*
X017646Y004452D02*
X013939Y004452D01*
X013943Y004216D02*
X019775Y004216D01*
X019775Y004137D02*
X013976Y004137D01*
X013983Y004059D02*
X019811Y004059D01*
X019535Y003902D02*
X018907Y003902D01*
X018985Y003823D02*
X019456Y003823D01*
X019378Y003745D02*
X019064Y003745D01*
X019143Y003666D02*
X019299Y003666D01*
X019281Y003588D02*
X019161Y003588D01*
X019161Y003509D02*
X019281Y003509D01*
X019281Y003431D02*
X019161Y003431D01*
X019161Y003352D02*
X019281Y003352D01*
X019291Y003273D02*
X019151Y003273D01*
X019073Y003195D02*
X019369Y003195D01*
X019448Y003116D02*
X019100Y003116D01*
X019178Y003038D02*
X019526Y003038D01*
X019514Y002881D02*
X019335Y002881D01*
X019257Y002959D02*
X020036Y002959D01*
X020036Y002881D02*
X019928Y002881D01*
X020006Y002802D02*
X020036Y002802D01*
X020236Y002996D02*
X020714Y003475D01*
X020721Y003468D01*
X020721Y003466D01*
X020378Y003745D02*
X020064Y003745D01*
X020143Y003666D02*
X020299Y003666D01*
X020281Y003588D02*
X020161Y003588D01*
X020161Y003509D02*
X020281Y003509D01*
X020281Y003431D02*
X020161Y003431D01*
X020161Y003352D02*
X020281Y003352D01*
X020230Y003273D02*
X020151Y003273D01*
X020152Y003195D02*
X020073Y003195D01*
X020073Y003116D02*
X019994Y003116D01*
X020036Y003038D02*
X019915Y003038D01*
X020236Y002996D02*
X020236Y002309D01*
X019421Y001494D01*
X015415Y001494D01*
X015117Y001624D02*
X015075Y001624D01*
X015075Y001546D02*
X015090Y001546D01*
X015090Y001467D02*
X015075Y001467D01*
X015075Y001703D02*
X015164Y001703D01*
X015075Y001781D02*
X015260Y001781D01*
X015075Y001860D02*
X018946Y001860D01*
X018926Y001938D02*
X015075Y001938D01*
X015075Y002017D02*
X018926Y002017D01*
X019251Y001972D02*
X019251Y002682D01*
X018979Y002954D01*
X018217Y002954D01*
X017706Y003466D01*
X017721Y003466D01*
X017706Y003466D02*
X017695Y003476D01*
X017456Y003823D02*
X016985Y003823D01*
X016907Y003902D02*
X017535Y003902D01*
X017378Y003745D02*
X017064Y003745D01*
X017143Y003666D02*
X017299Y003666D01*
X017281Y003588D02*
X017161Y003588D01*
X017161Y003648D02*
X017161Y003283D01*
X016903Y003026D01*
X016539Y003026D01*
X016281Y003283D01*
X016281Y003648D01*
X016539Y003906D01*
X016903Y003906D01*
X017161Y003648D01*
X017161Y003509D02*
X017281Y003509D01*
X017281Y003431D02*
X017161Y003431D01*
X017161Y003352D02*
X017281Y003352D01*
X017291Y003273D02*
X017151Y003273D01*
X017073Y003195D02*
X017369Y003195D01*
X017448Y003116D02*
X016994Y003116D01*
X016915Y003038D02*
X017526Y003038D01*
X017539Y002906D02*
X017281Y002648D01*
X017281Y002283D01*
X017539Y002026D01*
X017903Y002026D01*
X018161Y002283D01*
X018161Y002648D01*
X017903Y002906D01*
X017539Y002906D01*
X017514Y002881D02*
X016928Y002881D01*
X016903Y002906D02*
X016539Y002906D01*
X016281Y002648D01*
X016281Y002283D01*
X016539Y002026D01*
X016903Y002026D01*
X017161Y002283D01*
X017161Y002648D01*
X016903Y002906D01*
X017006Y002802D02*
X017435Y002802D01*
X017357Y002724D02*
X017085Y002724D01*
X017161Y002645D02*
X017281Y002645D01*
X017281Y002567D02*
X017161Y002567D01*
X017161Y002488D02*
X017281Y002488D01*
X017281Y002409D02*
X017161Y002409D01*
X017161Y002331D02*
X017281Y002331D01*
X017312Y002252D02*
X017130Y002252D01*
X017051Y002174D02*
X017390Y002174D01*
X017469Y002095D02*
X016973Y002095D01*
X016469Y002095D02*
X015973Y002095D01*
X015903Y002026D02*
X016161Y002283D01*
X016161Y002648D01*
X015903Y002906D01*
X015539Y002906D01*
X015281Y002648D01*
X015281Y002283D01*
X015539Y002026D01*
X015903Y002026D01*
X016051Y002174D02*
X016390Y002174D01*
X016312Y002252D02*
X016130Y002252D01*
X016161Y002331D02*
X016281Y002331D01*
X016281Y002409D02*
X016161Y002409D01*
X016161Y002488D02*
X016281Y002488D01*
X016281Y002567D02*
X016161Y002567D01*
X016161Y002645D02*
X016281Y002645D01*
X016357Y002724D02*
X016085Y002724D01*
X016006Y002802D02*
X016435Y002802D01*
X016514Y002881D02*
X015928Y002881D01*
X015903Y003026D02*
X015539Y003026D01*
X015281Y003283D01*
X015281Y003648D01*
X015539Y003906D01*
X015903Y003906D01*
X016161Y003648D01*
X016161Y003283D01*
X015903Y003026D01*
X015915Y003038D02*
X016526Y003038D01*
X016448Y003116D02*
X015994Y003116D01*
X016073Y003195D02*
X016369Y003195D01*
X016291Y003273D02*
X016151Y003273D01*
X016161Y003352D02*
X016281Y003352D01*
X016281Y003431D02*
X016161Y003431D01*
X016161Y003509D02*
X016281Y003509D01*
X016281Y003588D02*
X016161Y003588D01*
X016143Y003666D02*
X016299Y003666D01*
X016378Y003745D02*
X016064Y003745D01*
X015985Y003823D02*
X016456Y003823D01*
X016535Y003902D02*
X015907Y003902D01*
X015535Y003902D02*
X014907Y003902D01*
X014985Y003823D02*
X015456Y003823D01*
X015378Y003745D02*
X015064Y003745D01*
X015143Y003666D02*
X015299Y003666D01*
X015281Y003588D02*
X015161Y003588D01*
X015161Y003509D02*
X015281Y003509D01*
X015281Y003431D02*
X015161Y003431D01*
X015161Y003352D02*
X015281Y003352D01*
X015291Y003273D02*
X015151Y003273D01*
X015073Y003195D02*
X015369Y003195D01*
X015448Y003116D02*
X014994Y003116D01*
X014915Y003038D02*
X015526Y003038D01*
X015514Y002881D02*
X014928Y002881D01*
X015006Y002802D02*
X015435Y002802D01*
X015357Y002724D02*
X015085Y002724D01*
X015161Y002645D02*
X015281Y002645D01*
X015281Y002567D02*
X015161Y002567D01*
X015161Y002488D02*
X015281Y002488D01*
X015281Y002409D02*
X015161Y002409D01*
X015161Y002331D02*
X015281Y002331D01*
X015312Y002252D02*
X015130Y002252D01*
X015051Y002174D02*
X015390Y002174D01*
X015469Y002095D02*
X015052Y002095D01*
X014721Y002466D02*
X014716Y002466D01*
X014686Y002435D01*
X014686Y001690D01*
X014296Y001624D02*
X007909Y001624D01*
X007909Y001546D02*
X014296Y001546D01*
X014296Y001467D02*
X007909Y001467D01*
X007908Y002881D02*
X007947Y002881D01*
X008094Y003172D02*
X008103Y003172D01*
X008103Y003746D01*
X008068Y003746D01*
X008060Y003738D01*
X007975Y003823D01*
X007975Y004249D01*
X007974Y004249D01*
X007968Y004243D01*
X007960Y004609D02*
X007889Y004609D01*
X007881Y004687D02*
X007810Y004687D01*
X007802Y004766D02*
X007732Y004766D01*
X007724Y004844D02*
X007653Y004844D01*
X008744Y005080D02*
X009803Y005080D01*
X009803Y005159D02*
X009248Y005159D01*
X009274Y005237D02*
X009803Y005237D01*
X009803Y005316D02*
X009274Y005316D01*
X009274Y005394D02*
X009803Y005394D01*
X009803Y005473D02*
X009274Y005473D01*
X009274Y005551D02*
X009803Y005551D01*
X009803Y005630D02*
X009274Y005630D01*
X009276Y005708D02*
X009803Y005708D01*
X009803Y005787D02*
X009333Y005787D01*
X009333Y005865D02*
X009803Y005865D01*
X009803Y005944D02*
X009333Y005944D01*
X009333Y006022D02*
X009803Y006022D01*
X009803Y006101D02*
X009333Y006101D01*
X009333Y006180D02*
X009803Y006180D01*
X009803Y006258D02*
X009333Y006258D01*
X009333Y006337D02*
X009803Y006337D01*
X009803Y006415D02*
X009333Y006415D01*
X009333Y006494D02*
X009803Y006494D01*
X009803Y006572D02*
X009333Y006572D01*
X009307Y006651D02*
X009741Y006651D01*
X009663Y006729D02*
X008187Y006729D01*
X008187Y006651D02*
X008448Y006651D01*
X008422Y006572D02*
X008187Y006572D01*
X008187Y006494D02*
X008422Y006494D01*
X008373Y006415D02*
X008187Y006415D01*
X008187Y006337D02*
X008295Y006337D01*
X008216Y006258D02*
X008187Y006258D01*
X008187Y006808D02*
X009584Y006808D01*
X009506Y006886D02*
X008187Y006886D01*
X008187Y006965D02*
X009427Y006965D01*
X009349Y007044D02*
X009312Y007044D01*
X009398Y007277D02*
X008874Y007277D01*
X008857Y007260D01*
X008874Y007277D02*
X008875Y007278D01*
X008877Y007278D01*
X008877Y007711D02*
X009361Y007711D01*
X010326Y006746D01*
X010326Y005074D01*
X010911Y004489D01*
X013209Y004489D01*
X013292Y004406D01*
X013295Y004409D01*
X013295Y004419D01*
X013658Y004056D01*
X013729Y003545D02*
X013116Y004157D01*
X013116Y004157D01*
X013102Y004171D01*
X013115Y004176D02*
X013125Y004166D01*
X013116Y004157D01*
X013115Y004176D02*
X010765Y004176D01*
X010003Y004938D01*
X010003Y006672D01*
X009398Y007277D01*
X008422Y007279D02*
X008187Y007279D01*
X008187Y007201D02*
X008422Y007201D01*
X008422Y007122D02*
X008187Y007122D01*
X008187Y007044D02*
X008442Y007044D01*
X008422Y007358D02*
X008187Y007358D01*
X008187Y007436D02*
X008422Y007436D01*
X008422Y007515D02*
X008187Y007515D01*
X008187Y007593D02*
X008422Y007593D01*
X008422Y007672D02*
X008187Y007672D01*
X008187Y007750D02*
X008422Y007750D01*
X008422Y007829D02*
X008187Y007829D01*
X008187Y007908D02*
X008422Y007908D01*
X008422Y007986D02*
X008187Y007986D01*
X008187Y008065D02*
X008422Y008065D01*
X008422Y008143D02*
X008187Y008143D01*
X008187Y008222D02*
X008422Y008222D01*
X008422Y008300D02*
X008187Y008300D01*
X010913Y006258D02*
X015617Y006258D01*
X015538Y006180D02*
X010913Y006180D01*
X010913Y006101D02*
X015502Y006101D01*
X015483Y006022D02*
X010913Y006022D01*
X010913Y005944D02*
X015483Y005944D01*
X015507Y005865D02*
X010913Y005865D01*
X010913Y005787D02*
X015551Y005787D01*
X015536Y005708D02*
X010913Y005708D01*
X010913Y005630D02*
X015485Y005630D01*
X015485Y005551D02*
X010913Y005551D01*
X010913Y005473D02*
X015485Y005473D01*
X015485Y005394D02*
X010913Y005394D01*
X010913Y005316D02*
X015485Y005316D01*
X015485Y005237D02*
X010913Y005237D01*
X010953Y005159D02*
X015487Y005159D01*
X015527Y005080D02*
X011032Y005080D01*
X010207Y004452D02*
X009372Y004452D01*
X009294Y004530D02*
X010128Y004530D01*
X010049Y004609D02*
X009215Y004609D01*
X009137Y004687D02*
X009971Y004687D01*
X009892Y004766D02*
X009058Y004766D01*
X008980Y004844D02*
X009814Y004844D01*
X009803Y004923D02*
X008901Y004923D01*
X008823Y005001D02*
X009803Y005001D01*
X009451Y004373D02*
X010285Y004373D01*
X010364Y004295D02*
X009509Y004295D01*
X009509Y004216D02*
X010442Y004216D01*
X010521Y004137D02*
X009509Y004137D01*
X009509Y004059D02*
X010599Y004059D01*
X010678Y003980D02*
X009509Y003980D01*
X009509Y003352D02*
X010281Y003352D01*
X010291Y003273D02*
X009509Y003273D01*
X009509Y003195D02*
X010369Y003195D01*
X011073Y003195D02*
X011369Y003195D01*
X011291Y003273D02*
X011151Y003273D01*
X011161Y003352D02*
X011281Y003352D01*
X011281Y003431D02*
X011161Y003431D01*
X011161Y003509D02*
X011281Y003509D01*
X011281Y003588D02*
X011161Y003588D01*
X011143Y003666D02*
X011299Y003666D01*
X011378Y003745D02*
X011064Y003745D01*
X010985Y003823D02*
X011456Y003823D01*
X011535Y003902D02*
X010907Y003902D01*
X011907Y003902D02*
X012535Y003902D01*
X012539Y003906D02*
X012281Y003648D01*
X012281Y003283D01*
X012539Y003026D01*
X012903Y003026D01*
X013161Y003283D01*
X013161Y003648D01*
X012903Y003906D01*
X012539Y003906D01*
X012456Y003823D02*
X011985Y003823D01*
X012064Y003745D02*
X012378Y003745D01*
X012299Y003666D02*
X012143Y003666D01*
X012161Y003588D02*
X012281Y003588D01*
X012281Y003509D02*
X012161Y003509D01*
X012161Y003431D02*
X012281Y003431D01*
X012281Y003352D02*
X012161Y003352D01*
X012151Y003273D02*
X012291Y003273D01*
X012369Y003195D02*
X012073Y003195D01*
X012233Y002953D02*
X012721Y002466D01*
X013006Y002802D02*
X013435Y002802D01*
X013357Y002724D02*
X013085Y002724D01*
X013161Y002645D02*
X013281Y002645D01*
X013281Y002567D02*
X013161Y002567D01*
X013161Y002488D02*
X013281Y002488D01*
X013281Y002409D02*
X013161Y002409D01*
X013161Y002331D02*
X013281Y002331D01*
X013312Y002252D02*
X013130Y002252D01*
X013051Y002174D02*
X013390Y002174D01*
X013469Y002095D02*
X012973Y002095D01*
X012469Y002095D02*
X011973Y002095D01*
X012510Y002959D02*
X017929Y002959D01*
X017928Y002881D02*
X018008Y002881D01*
X018006Y002802D02*
X018086Y002802D01*
X018085Y002724D02*
X018357Y002724D01*
X018281Y002645D02*
X018161Y002645D01*
X018161Y002567D02*
X018281Y002567D01*
X018281Y002488D02*
X018161Y002488D01*
X018161Y002409D02*
X018281Y002409D01*
X018281Y002331D02*
X018161Y002331D01*
X018130Y002252D02*
X018312Y002252D01*
X018390Y002174D02*
X018051Y002174D01*
X017973Y002095D02*
X018469Y002095D01*
X018982Y001781D02*
X015571Y001781D01*
X015666Y001703D02*
X019061Y001703D01*
X020190Y001763D02*
X020211Y001742D01*
X020723Y001742D01*
X021266Y002285D01*
X021266Y003978D01*
X019435Y002802D02*
X019414Y002802D01*
X018369Y003195D02*
X018259Y003195D01*
X018291Y003273D02*
X018181Y003273D01*
X018161Y003352D02*
X018281Y003352D01*
X018281Y003431D02*
X018161Y003431D01*
X018161Y003509D02*
X018281Y003509D01*
X018281Y003588D02*
X018161Y003588D01*
X018143Y003666D02*
X018299Y003666D01*
X018378Y003745D02*
X018064Y003745D01*
X017985Y003823D02*
X018456Y003823D01*
X018535Y003902D02*
X017907Y003902D01*
X017998Y004373D02*
X018380Y004373D01*
X018268Y004452D02*
X018115Y004452D01*
X017881Y004676D02*
X018507Y004672D01*
X017668Y004923D02*
X016128Y004923D01*
X016128Y004844D02*
X017598Y004844D01*
X017534Y005001D02*
X017378Y005001D01*
X017061Y005001D02*
X016906Y005001D01*
X016589Y005001D02*
X016433Y005001D01*
X016116Y005001D02*
X016111Y005001D01*
X015815Y005421D02*
X015815Y005441D01*
X013729Y003545D02*
X013729Y003458D01*
X013721Y003466D01*
X013729Y003458D02*
X013729Y003449D01*
X013281Y003431D02*
X013161Y003431D01*
X013161Y003509D02*
X013281Y003509D01*
X013281Y003588D02*
X013161Y003588D01*
X013143Y003666D02*
X013299Y003666D01*
X013246Y003745D02*
X013064Y003745D01*
X012985Y003823D02*
X013167Y003823D01*
X013089Y003902D02*
X012907Y003902D01*
X013161Y003352D02*
X013281Y003352D01*
X013291Y003273D02*
X013151Y003273D01*
X013073Y003195D02*
X013369Y003195D01*
X013448Y003116D02*
X012994Y003116D01*
X012915Y003038D02*
X013526Y003038D01*
X013514Y002881D02*
X012928Y002881D01*
X012526Y003038D02*
X012431Y003038D01*
X012448Y003116D02*
X012353Y003116D01*
X019763Y006572D02*
X020017Y006572D01*
X020857Y011558D02*
X020996Y011697D01*
X022769Y011697D01*
X022925Y011853D01*
X022911Y012438D02*
X022925Y012452D01*
X022929Y012457D01*
X022929Y013252D01*
X022935Y013922D02*
X023275Y014261D01*
X023275Y015187D01*
X022935Y013922D02*
X022929Y013922D01*
X022925Y012453D02*
X022925Y012452D01*
D24*
X019879Y011880D03*
X017620Y011780D03*
X018365Y010114D03*
X016750Y009893D03*
X016220Y010018D03*
X015502Y010027D03*
X015000Y010130D03*
X016233Y008293D03*
X016905Y007962D03*
X015522Y006871D03*
X015808Y005990D03*
X015803Y004897D03*
X017881Y004676D03*
X018507Y004672D03*
X018389Y006377D03*
X017933Y006411D03*
X019578Y006298D03*
X020214Y006310D03*
X020574Y006014D03*
X021207Y006263D03*
X020092Y007514D03*
X020699Y007946D03*
X019867Y008715D03*
X019471Y008867D03*
X018531Y008538D03*
X018215Y008855D03*
X013622Y004535D03*
X013658Y004056D03*
X015415Y001494D03*
X019251Y001972D03*
X020190Y001763D03*
X021266Y003978D03*
X019290Y013911D03*
X018412Y014243D03*
X017844Y014564D03*
X018146Y015247D03*
X022337Y015654D03*
X023275Y015187D03*
X007968Y004243D03*
X008094Y003172D03*
X006492Y006359D03*
X004351Y006934D03*
X003231Y010125D03*
X007772Y010331D03*
D25*
X020586Y009896D02*
X020586Y008687D01*
X021202Y008687D01*
X021245Y008643D02*
X021532Y008643D01*
X021384Y008600D02*
X021384Y008138D01*
X020758Y007512D01*
X020586Y009896D02*
X021562Y009896D01*
X021562Y009897D01*
X021570Y009897D01*
M02*
