G75*
G70*
%OFA0B0*%
%FSLAX24Y24*%
%IPPOS*%
%LPD*%
%AMOC8*
5,1,8,0,0,1.08239X$1,22.5*
%
%ADD10C,0.0000*%
%ADD11C,0.0039*%
%ADD12C,0.0050*%
%ADD13C,0.0040*%
%ADD14C,0.0120*%
%ADD15C,0.0060*%
%ADD16C,0.0100*%
%ADD17R,0.0118X0.0827*%
%ADD18C,0.0020*%
%ADD19C,0.0070*%
%ADD20C,0.0030*%
%ADD21R,0.0098X0.0098*%
D10*
X001989Y004407D02*
X001989Y011417D01*
X007468Y011417D01*
X007468Y017987D01*
X024028Y017987D01*
X024028Y010656D01*
X021595Y010656D01*
X021591Y005372D01*
X024028Y005372D01*
X024028Y000969D01*
X007469Y000969D01*
X007468Y004407D01*
X001989Y004407D01*
D11*
X016224Y007785D02*
X016224Y008572D01*
X017012Y008572D01*
X017012Y007785D01*
X016224Y007785D01*
X016224Y007902D02*
X017012Y007902D01*
X018383Y007540D02*
X020419Y007540D01*
X020425Y007368D02*
X020425Y008943D01*
X018377Y008943D01*
X018377Y007368D01*
X020425Y007368D01*
D12*
X018224Y007375D02*
X017774Y007375D01*
X017774Y007300D02*
X017774Y007450D01*
X017849Y007607D02*
X018149Y007607D01*
X018224Y007682D01*
X018224Y007832D01*
X018149Y007907D01*
X018224Y008067D02*
X018224Y008367D01*
X018224Y008217D02*
X017774Y008217D01*
X017924Y008067D01*
X017849Y007907D02*
X017774Y007832D01*
X017774Y007682D01*
X017849Y007607D01*
X018224Y007450D02*
X018224Y007300D01*
X022423Y003595D02*
X022498Y003670D01*
X022649Y003670D01*
X022724Y003595D01*
X022724Y003520D01*
X022423Y003219D01*
X022724Y003219D01*
X022560Y002641D02*
X022560Y002191D01*
X022410Y002191D02*
X022710Y002191D01*
X022410Y002491D02*
X022560Y002641D01*
X016107Y001841D02*
X015956Y001766D01*
X015806Y001616D01*
X016031Y001616D01*
X016107Y001541D01*
X016107Y001466D01*
X016031Y001391D01*
X015881Y001391D01*
X015806Y001466D01*
X015806Y001616D01*
X015646Y001691D02*
X015646Y001766D01*
X015571Y001841D01*
X015421Y001841D01*
X015346Y001766D01*
X015646Y001691D02*
X015346Y001391D01*
X015646Y001391D01*
X009775Y010040D02*
X009475Y010040D01*
X009625Y010040D02*
X009625Y010490D01*
X009475Y010340D01*
X009315Y010415D02*
X009315Y010115D01*
X009240Y010040D01*
X009015Y010040D01*
X009015Y010490D01*
X009240Y010490D01*
X009315Y010415D01*
X009412Y015269D02*
X009487Y015269D01*
X009487Y015344D01*
X009412Y015344D01*
X009412Y015269D01*
X009252Y015419D02*
X009252Y015719D01*
X008952Y015719D02*
X008952Y015419D01*
X009102Y015269D01*
X009252Y015419D01*
X009643Y015269D02*
X009943Y015569D01*
X009943Y015644D01*
X009868Y015719D01*
X009718Y015719D01*
X009643Y015644D01*
X009643Y015269D02*
X009943Y015269D01*
X008792Y015344D02*
X008717Y015269D01*
X008567Y015269D01*
X008492Y015344D01*
X008492Y015419D01*
X008567Y015494D01*
X008717Y015494D01*
X008792Y015419D01*
X008792Y015344D01*
X008717Y015494D02*
X008792Y015569D01*
X008792Y015644D01*
X008717Y015719D01*
X008567Y015719D01*
X008492Y015644D01*
X008492Y015569D01*
X008567Y015494D01*
X008332Y015269D02*
X008031Y015269D01*
X008181Y015269D02*
X008181Y015719D01*
X008031Y015569D01*
X008125Y016436D02*
X008050Y016511D01*
X008125Y016436D02*
X008275Y016436D01*
X008350Y016511D01*
X008350Y016586D01*
X008275Y016661D01*
X008125Y016661D01*
X008050Y016736D01*
X008050Y016811D01*
X008125Y016886D01*
X008275Y016886D01*
X008350Y016811D01*
X008510Y016886D02*
X008510Y016436D01*
X008810Y016436D01*
X008970Y016436D02*
X008970Y016886D01*
X009196Y016886D01*
X009271Y016811D01*
X009271Y016661D01*
X009196Y016586D01*
X008970Y016586D01*
X009120Y016586D02*
X009271Y016436D01*
X009431Y016436D02*
X009431Y016511D01*
X009506Y016511D01*
X009506Y016436D01*
X009431Y016436D01*
X009661Y016436D02*
X009961Y016736D01*
X009961Y016811D01*
X009886Y016886D01*
X009736Y016886D01*
X009661Y016811D01*
X009661Y016436D02*
X009961Y016436D01*
X008810Y016886D02*
X008510Y016886D01*
X008510Y016661D02*
X008660Y016661D01*
X007893Y016436D02*
X007743Y016436D01*
X007818Y016436D02*
X007818Y016886D01*
X007743Y016886D02*
X007893Y016886D01*
X012499Y016842D02*
X012499Y016542D01*
X012574Y016467D01*
X012724Y016467D01*
X012799Y016542D01*
X012799Y016692D01*
X012649Y016692D01*
X012499Y016842D02*
X012574Y016917D01*
X012724Y016917D01*
X012799Y016842D01*
X012959Y016917D02*
X013260Y016467D01*
X013260Y016917D01*
X013420Y016917D02*
X013645Y016917D01*
X013720Y016842D01*
X013720Y016542D01*
X013645Y016467D01*
X013420Y016467D01*
X013420Y016917D01*
X012959Y016917D02*
X012959Y016467D01*
X013010Y015730D02*
X012935Y015655D01*
X012935Y015580D01*
X013010Y015505D01*
X013160Y015505D01*
X013235Y015430D01*
X013235Y015355D01*
X013160Y015280D01*
X013010Y015280D01*
X012935Y015355D01*
X012775Y015280D02*
X012474Y015280D01*
X012474Y015730D01*
X012775Y015730D01*
X013010Y015730D02*
X013160Y015730D01*
X013235Y015655D01*
X013395Y015730D02*
X013395Y015280D01*
X013695Y015280D01*
X013855Y015280D02*
X013855Y015730D01*
X014081Y015730D01*
X014156Y015655D01*
X014156Y015505D01*
X014081Y015430D01*
X013855Y015430D01*
X014006Y015430D02*
X014156Y015280D01*
X014316Y015280D02*
X014316Y015355D01*
X014391Y015355D01*
X014391Y015280D01*
X014316Y015280D01*
X014546Y015280D02*
X014846Y015580D01*
X014846Y015655D01*
X014771Y015730D01*
X014621Y015730D01*
X014546Y015655D01*
X014546Y015280D02*
X014846Y015280D01*
X013695Y015730D02*
X013395Y015730D01*
X013395Y015505D02*
X013545Y015505D01*
X012625Y015505D02*
X012474Y015505D01*
X013880Y016467D02*
X013955Y016467D01*
X013955Y016542D01*
X013880Y016542D01*
X013880Y016467D01*
X014110Y016467D02*
X014411Y016767D01*
X014411Y016842D01*
X014336Y016917D01*
X014185Y016917D01*
X014110Y016842D01*
X014110Y016467D02*
X014411Y016467D01*
X016736Y016407D02*
X016886Y016407D01*
X016811Y016407D02*
X016811Y016857D01*
X016736Y016857D02*
X016886Y016857D01*
X017043Y016782D02*
X017043Y016707D01*
X017118Y016632D01*
X017268Y016632D01*
X017344Y016557D01*
X017344Y016482D01*
X017268Y016407D01*
X017118Y016407D01*
X017043Y016482D01*
X017043Y016782D02*
X017118Y016857D01*
X017268Y016857D01*
X017344Y016782D01*
X017504Y016857D02*
X017504Y016407D01*
X017804Y016407D01*
X017964Y016407D02*
X017964Y016857D01*
X018189Y016857D01*
X018264Y016782D01*
X018264Y016632D01*
X018189Y016557D01*
X017964Y016557D01*
X018114Y016557D02*
X018264Y016407D01*
X018424Y016407D02*
X018499Y016407D01*
X018499Y016482D01*
X018424Y016482D01*
X018424Y016407D01*
X018654Y016407D02*
X018955Y016407D01*
X018805Y016407D02*
X018805Y016857D01*
X018654Y016707D01*
X017804Y016857D02*
X017504Y016857D01*
X017504Y016632D02*
X017654Y016632D01*
X017714Y015671D02*
X017564Y015671D01*
X017489Y015596D01*
X017489Y015521D01*
X017564Y015446D01*
X017714Y015446D01*
X017789Y015371D01*
X017789Y015296D01*
X017714Y015221D01*
X017564Y015221D01*
X017489Y015296D01*
X017489Y015371D01*
X017564Y015446D01*
X017714Y015446D02*
X017789Y015521D01*
X017789Y015596D01*
X017714Y015671D01*
X017949Y015671D02*
X017949Y015371D01*
X018099Y015221D01*
X018249Y015371D01*
X018249Y015671D01*
X018640Y015521D02*
X018790Y015671D01*
X018790Y015221D01*
X018640Y015221D02*
X018940Y015221D01*
X018485Y015221D02*
X018410Y015221D01*
X018410Y015296D01*
X018485Y015296D01*
X018485Y015221D01*
X017329Y015221D02*
X017029Y015221D01*
X017179Y015221D02*
X017179Y015671D01*
X017029Y015521D01*
X021445Y015523D02*
X021595Y015523D01*
X021445Y015748D02*
X021445Y015298D01*
X021745Y015298D01*
X021905Y015373D02*
X021980Y015298D01*
X022130Y015298D01*
X022205Y015373D01*
X022205Y015448D01*
X022130Y015523D01*
X021980Y015523D01*
X021905Y015598D01*
X021905Y015673D01*
X021980Y015748D01*
X022130Y015748D01*
X022205Y015673D01*
X022365Y015748D02*
X022365Y015298D01*
X022666Y015298D01*
X022826Y015298D02*
X022826Y015748D01*
X023051Y015748D01*
X023126Y015673D01*
X023126Y015523D01*
X023051Y015448D01*
X022826Y015448D01*
X022976Y015448D02*
X023126Y015298D01*
X023286Y015298D02*
X023361Y015298D01*
X023361Y015373D01*
X023286Y015373D01*
X023286Y015298D01*
X023516Y015298D02*
X023817Y015298D01*
X023666Y015298D02*
X023666Y015748D01*
X023516Y015598D01*
X022666Y015748D02*
X022365Y015748D01*
X022365Y015523D02*
X022516Y015523D01*
X021745Y015748D02*
X021445Y015748D01*
X021521Y016475D02*
X021671Y016475D01*
X021747Y016550D01*
X021747Y016700D01*
X021596Y016700D01*
X021446Y016850D02*
X021446Y016550D01*
X021521Y016475D01*
X021446Y016850D02*
X021521Y016925D01*
X021671Y016925D01*
X021747Y016850D01*
X021907Y016925D02*
X022207Y016475D01*
X022207Y016925D01*
X022367Y016925D02*
X022592Y016925D01*
X022667Y016850D01*
X022667Y016550D01*
X022592Y016475D01*
X022367Y016475D01*
X022367Y016925D01*
X021907Y016925D02*
X021907Y016475D01*
X022827Y016475D02*
X022902Y016475D01*
X022902Y016550D01*
X022827Y016550D01*
X022827Y016475D01*
X023058Y016475D02*
X023358Y016475D01*
X023208Y016475D02*
X023208Y016925D01*
X023058Y016775D01*
X022649Y013669D02*
X022498Y013669D01*
X022423Y013594D01*
X022649Y013669D02*
X022724Y013594D01*
X022724Y013519D01*
X022423Y013219D01*
X022724Y013219D01*
X022560Y012641D02*
X022560Y012190D01*
X022410Y012190D02*
X022710Y012190D01*
X022410Y012491D02*
X022560Y012641D01*
X016107Y011841D02*
X015957Y011766D01*
X015806Y011615D01*
X016032Y011615D01*
X016107Y011540D01*
X016107Y011465D01*
X016032Y011390D01*
X015881Y011390D01*
X015806Y011465D01*
X015806Y011615D01*
X015646Y011691D02*
X015646Y011766D01*
X015571Y011841D01*
X015421Y011841D01*
X015346Y011766D01*
X015646Y011691D02*
X015346Y011390D01*
X015646Y011390D01*
X002348Y010635D02*
X002348Y008343D01*
X002337Y008936D02*
X002029Y008936D01*
X002029Y009985D01*
X002325Y009985D01*
X002349Y007391D02*
X002349Y005100D01*
X002338Y005692D02*
X002030Y005692D01*
X002030Y006741D01*
X002327Y006741D01*
D13*
X003948Y005763D02*
X004101Y005610D01*
X004024Y005456D02*
X003948Y005379D01*
X003948Y005226D01*
X004024Y005149D01*
X004101Y005149D01*
X004178Y005226D01*
X004178Y005379D01*
X004255Y005456D01*
X004331Y005456D01*
X004408Y005379D01*
X004408Y005226D01*
X004331Y005149D01*
X004408Y005610D02*
X004408Y005917D01*
X004408Y005763D02*
X003948Y005763D01*
X007397Y005411D02*
X007397Y005104D01*
X007474Y005028D01*
X007627Y005028D01*
X007704Y005104D01*
X007857Y005028D02*
X008164Y005028D01*
X008011Y005028D02*
X008011Y005488D01*
X007857Y005335D01*
X007704Y005411D02*
X007627Y005488D01*
X007474Y005488D01*
X007397Y005411D01*
X008318Y005335D02*
X008471Y005488D01*
X008471Y005028D01*
X008318Y005028D02*
X008624Y005028D01*
X009016Y006698D02*
X009323Y006698D01*
X009400Y006774D01*
X009400Y006928D01*
X009323Y007004D01*
X009323Y007158D02*
X009400Y007235D01*
X009400Y007388D01*
X009323Y007465D01*
X009169Y007465D01*
X009093Y007388D01*
X009093Y007311D01*
X009169Y007158D01*
X008939Y007158D01*
X008939Y007465D01*
X008567Y007387D02*
X008260Y007387D01*
X008413Y007387D02*
X008413Y007847D01*
X008260Y007694D01*
X008106Y007387D02*
X007799Y007387D01*
X007799Y007847D01*
X008939Y006928D02*
X008939Y006774D01*
X009016Y006698D01*
X008939Y006928D02*
X009016Y007004D01*
X009930Y007181D02*
X010084Y007181D01*
X010007Y007181D02*
X010007Y007641D01*
X009930Y007641D02*
X010084Y007641D01*
X010237Y007564D02*
X010237Y007258D01*
X010314Y007181D01*
X010467Y007181D01*
X010544Y007258D01*
X010697Y007258D02*
X010774Y007181D01*
X010928Y007181D01*
X011004Y007258D01*
X011004Y007334D01*
X010928Y007411D01*
X010851Y007411D01*
X010928Y007411D02*
X011004Y007488D01*
X011004Y007564D01*
X010928Y007641D01*
X010774Y007641D01*
X010697Y007564D01*
X010544Y007564D02*
X010467Y007641D01*
X010314Y007641D01*
X010237Y007564D01*
X011840Y005818D02*
X011763Y005741D01*
X011763Y005434D01*
X011840Y005357D01*
X011993Y005357D01*
X012070Y005434D01*
X012223Y005434D02*
X012300Y005357D01*
X012453Y005357D01*
X012530Y005434D01*
X012530Y005741D01*
X012453Y005818D01*
X012300Y005818D01*
X012223Y005741D01*
X012223Y005664D01*
X012300Y005588D01*
X012530Y005588D01*
X012070Y005741D02*
X011993Y005818D01*
X011840Y005818D01*
X013219Y005743D02*
X013219Y005436D01*
X013296Y005360D01*
X013449Y005360D01*
X013526Y005436D01*
X013679Y005436D02*
X013679Y005513D01*
X013756Y005590D01*
X013909Y005590D01*
X013986Y005513D01*
X013986Y005436D01*
X013909Y005360D01*
X013756Y005360D01*
X013679Y005436D01*
X013756Y005590D02*
X013679Y005666D01*
X013679Y005743D01*
X013756Y005820D01*
X013909Y005820D01*
X013986Y005743D01*
X013986Y005666D01*
X013909Y005590D01*
X014143Y005442D02*
X014220Y005365D01*
X014373Y005365D01*
X014450Y005442D01*
X014603Y005365D02*
X014910Y005365D01*
X014757Y005365D02*
X014757Y005826D01*
X014603Y005672D01*
X014450Y005749D02*
X014373Y005826D01*
X014220Y005826D01*
X014143Y005749D01*
X014143Y005442D01*
X013526Y005743D02*
X013449Y005820D01*
X013296Y005820D01*
X013219Y005743D01*
X015064Y005749D02*
X015064Y005442D01*
X015371Y005749D01*
X015371Y005442D01*
X015294Y005365D01*
X015140Y005365D01*
X015064Y005442D01*
X015064Y005749D02*
X015140Y005826D01*
X015294Y005826D01*
X015371Y005749D01*
X019404Y005788D02*
X019634Y005788D01*
X019711Y005864D01*
X019711Y006018D01*
X019634Y006095D01*
X019404Y006095D01*
X019404Y005634D01*
X019557Y005788D02*
X019711Y005634D01*
X019864Y005711D02*
X019941Y005634D01*
X020094Y005634D01*
X020171Y005711D01*
X020171Y005788D01*
X020094Y005864D01*
X020017Y005864D01*
X020094Y005864D02*
X020171Y005941D01*
X020171Y006018D01*
X020094Y006095D01*
X019941Y006095D01*
X019864Y006018D01*
X020630Y005965D02*
X020630Y005735D01*
X021090Y005735D01*
X020937Y005735D02*
X020937Y005965D01*
X020860Y006041D01*
X020706Y006041D01*
X020630Y005965D01*
X020937Y005888D02*
X021090Y006041D01*
X020860Y006195D02*
X020630Y006425D01*
X021090Y006425D01*
X020860Y006502D02*
X020860Y006195D01*
X018293Y009785D02*
X017986Y009785D01*
X018139Y009785D02*
X018139Y010246D01*
X017986Y010092D01*
X017832Y010015D02*
X017755Y009939D01*
X017525Y009939D01*
X017679Y009939D02*
X017832Y009785D01*
X017832Y010015D02*
X017832Y010169D01*
X017755Y010246D01*
X017525Y010246D01*
X017525Y009785D01*
X019183Y010631D02*
X019183Y011091D01*
X019413Y011091D01*
X019490Y011014D01*
X019490Y010861D01*
X019413Y010784D01*
X019183Y010784D01*
X019336Y010784D02*
X019490Y010631D01*
X019643Y010631D02*
X019950Y010938D01*
X019950Y011014D01*
X019873Y011091D01*
X019720Y011091D01*
X019643Y011014D01*
X019643Y010631D02*
X019950Y010631D01*
X014044Y010582D02*
X014044Y010505D01*
X013737Y010198D01*
X013737Y010122D01*
X013583Y010198D02*
X013506Y010122D01*
X013353Y010122D01*
X013276Y010198D01*
X013276Y010505D01*
X013353Y010582D01*
X013506Y010582D01*
X013583Y010505D01*
X013737Y010582D02*
X014044Y010582D01*
X012779Y010593D02*
X012626Y010516D01*
X012472Y010363D01*
X012702Y010363D01*
X012779Y010286D01*
X012779Y010209D01*
X012702Y010133D01*
X012549Y010133D01*
X012472Y010209D01*
X012472Y010363D01*
X012319Y010516D02*
X012242Y010593D01*
X012089Y010593D01*
X012012Y010516D01*
X012012Y010209D01*
X012089Y010133D01*
X012242Y010133D01*
X012319Y010209D01*
X008295Y010614D02*
X008295Y010921D01*
X008218Y010997D01*
X008065Y010997D01*
X007988Y010921D01*
X007988Y010844D01*
X008065Y010767D01*
X008295Y010767D01*
X008295Y010614D02*
X008218Y010537D01*
X008065Y010537D01*
X007988Y010614D01*
X007835Y010537D02*
X007681Y010690D01*
X007758Y010690D02*
X007528Y010690D01*
X007528Y010537D02*
X007528Y010997D01*
X007758Y010997D01*
X007835Y010921D01*
X007835Y010767D01*
X007758Y010690D01*
X007440Y009836D02*
X007286Y009836D01*
X007209Y009759D01*
X007440Y009836D02*
X007516Y009759D01*
X007516Y009682D01*
X007209Y009375D01*
X007516Y009375D01*
X007056Y009375D02*
X006749Y009375D01*
X006902Y009375D02*
X006902Y009836D01*
X006749Y009682D01*
X006596Y009759D02*
X006519Y009836D01*
X006365Y009836D01*
X006289Y009759D01*
X006289Y009452D01*
X006365Y009375D01*
X006519Y009375D01*
X006596Y009452D01*
X004489Y009735D02*
X004412Y009658D01*
X004489Y009735D02*
X004489Y009888D01*
X004412Y009965D01*
X004335Y009965D01*
X004259Y009888D01*
X004259Y009735D01*
X004182Y009658D01*
X004105Y009658D01*
X004029Y009735D01*
X004029Y009888D01*
X004105Y009965D01*
X004105Y010119D02*
X004029Y010195D01*
X004029Y010349D01*
X004105Y010425D01*
X004182Y010425D01*
X004489Y010119D01*
X004489Y010425D01*
D14*
X006258Y008821D02*
X006258Y006262D01*
X008817Y006262D01*
X008817Y008821D01*
X006258Y008821D01*
D15*
X007721Y011215D02*
X009421Y011215D01*
X009421Y011265D01*
X010021Y011265D01*
X010021Y011215D01*
X010571Y011215D01*
X010721Y011415D01*
X010921Y011415D01*
X011521Y011415D01*
X011721Y011415D01*
X011871Y011215D01*
X014921Y011215D01*
X014921Y011615D01*
X014921Y011715D01*
X011521Y011715D01*
X010921Y011715D01*
X008221Y011715D01*
X008221Y014215D01*
X023221Y014215D01*
X023221Y011715D01*
X021521Y011715D01*
X020921Y011715D01*
X016521Y011715D01*
X016521Y011615D01*
X016521Y011215D01*
X014921Y011215D01*
X014921Y011715D02*
X014921Y012015D01*
X016521Y012015D01*
X016521Y011715D01*
X016521Y011215D02*
X020571Y011215D01*
X020721Y011415D01*
X020921Y011415D01*
X021521Y011415D01*
X021521Y011615D01*
X021521Y011715D01*
X021521Y011415D02*
X021721Y011415D01*
X021871Y011215D01*
X023721Y011215D01*
X023721Y014715D01*
X023221Y014715D01*
X023221Y014815D01*
X022721Y014815D01*
X022721Y014715D01*
X015971Y014715D01*
X015971Y014815D01*
X015471Y014815D01*
X015471Y014715D01*
X008721Y014715D01*
X008721Y014815D01*
X008221Y014815D01*
X008221Y014715D01*
X007721Y014715D01*
X007721Y011215D01*
X010921Y011415D02*
X010921Y011615D01*
X010921Y011715D01*
X011521Y011715D02*
X011521Y011615D01*
X011521Y011415D01*
X011652Y014924D02*
X012052Y014924D01*
X012402Y015274D01*
X012402Y015674D01*
X012052Y016024D01*
X011652Y016024D01*
X011302Y015674D01*
X011302Y015274D01*
X011652Y014924D01*
X011221Y015274D02*
X011221Y015674D01*
X010871Y016024D01*
X010471Y016024D01*
X010121Y015674D01*
X010121Y015274D01*
X010471Y014924D01*
X010871Y014924D01*
X011221Y015274D01*
X010871Y016105D02*
X010471Y016105D01*
X010121Y016455D01*
X010121Y016855D01*
X010471Y017205D01*
X010871Y017205D01*
X011221Y016855D01*
X011221Y016455D01*
X010871Y016105D01*
X011302Y016455D02*
X011652Y016105D01*
X012052Y016105D01*
X012402Y016455D01*
X012402Y016855D01*
X012052Y017205D01*
X011652Y017205D01*
X011302Y016855D01*
X011302Y016455D01*
X019108Y016455D02*
X019458Y016105D01*
X019858Y016105D01*
X020208Y016455D01*
X020208Y016855D01*
X019858Y017205D01*
X019458Y017205D01*
X019108Y016855D01*
X019108Y016455D01*
X019458Y016024D02*
X019858Y016024D01*
X020208Y015674D01*
X020208Y015274D01*
X019858Y014924D01*
X019458Y014924D01*
X019108Y015274D01*
X019108Y015674D01*
X019458Y016024D01*
X020290Y015674D02*
X020640Y016024D01*
X021040Y016024D01*
X021390Y015674D01*
X021390Y015274D01*
X021040Y014924D01*
X020640Y014924D01*
X020290Y015274D01*
X020290Y015674D01*
X020639Y016105D02*
X021039Y016105D01*
X021389Y016455D01*
X021389Y016855D01*
X021039Y017205D01*
X020639Y017205D01*
X020289Y016855D01*
X020289Y016455D01*
X020639Y016105D01*
X020921Y011715D02*
X020921Y011615D01*
X020921Y011415D01*
X022721Y004816D02*
X022721Y004716D01*
X015971Y004716D01*
X015971Y004816D01*
X015471Y004816D01*
X015471Y004716D01*
X008721Y004716D01*
X008721Y004816D01*
X008221Y004816D01*
X008221Y004716D01*
X007721Y004716D01*
X007721Y001216D01*
X009421Y001216D01*
X009421Y001266D01*
X010021Y001266D01*
X010021Y001216D01*
X010571Y001216D01*
X010721Y001416D01*
X010921Y001416D01*
X011521Y001416D01*
X011721Y001416D01*
X011871Y001216D01*
X014921Y001216D01*
X014921Y001616D01*
X014921Y001716D01*
X011521Y001716D01*
X010921Y001716D01*
X008221Y001716D01*
X008221Y004216D01*
X023221Y004216D01*
X023221Y001716D01*
X021521Y001716D01*
X020921Y001716D01*
X016521Y001716D01*
X016521Y001616D01*
X016521Y001216D01*
X014921Y001216D01*
X014921Y001716D02*
X014921Y002016D01*
X016521Y002016D01*
X016521Y001716D01*
X016521Y001216D02*
X020571Y001216D01*
X020721Y001416D01*
X020921Y001416D01*
X021521Y001416D01*
X021521Y001616D01*
X021521Y001716D01*
X021521Y001416D02*
X021721Y001416D01*
X021871Y001216D01*
X023721Y001216D01*
X023721Y004716D01*
X023221Y004716D01*
X023221Y004816D01*
X022721Y004816D01*
X020921Y001716D02*
X020921Y001616D01*
X020921Y001416D01*
X011521Y001416D02*
X011521Y001616D01*
X011521Y001716D01*
X010921Y001716D02*
X010921Y001616D01*
X010921Y001416D01*
D16*
X010049Y009174D02*
X009557Y009449D01*
X010049Y009725D01*
X010049Y009174D01*
D17*
X009537Y009449D03*
D18*
X010921Y011615D02*
X008121Y011615D01*
X008121Y014315D01*
X023321Y014315D01*
X023321Y011615D01*
X021521Y011615D01*
X020921Y011615D02*
X016521Y011615D01*
X014921Y011615D02*
X011521Y011615D01*
X008121Y004316D02*
X008121Y001616D01*
X010921Y001616D01*
X011521Y001616D02*
X014921Y001616D01*
X016521Y001616D02*
X020921Y001616D01*
X021521Y001616D02*
X023321Y001616D01*
X023321Y004316D01*
X008121Y004316D01*
D19*
X014352Y010406D02*
X014772Y010406D01*
X014996Y010406D02*
X015417Y011036D01*
X015641Y011036D02*
X016061Y011036D01*
X015851Y011036D02*
X015851Y010406D01*
X016285Y010406D02*
X016706Y010826D01*
X016706Y010931D01*
X016600Y011036D01*
X016390Y011036D01*
X016285Y010931D01*
X016285Y010406D02*
X016706Y010406D01*
X015417Y010406D02*
X014996Y011036D01*
X014772Y011036D02*
X014352Y011036D01*
X014352Y010406D01*
X014352Y010721D02*
X014562Y010721D01*
X016155Y005549D02*
X016155Y004918D01*
X016575Y004918D01*
X016799Y004918D02*
X017220Y005549D01*
X017444Y005549D02*
X017864Y005549D01*
X017654Y005549D02*
X017654Y004918D01*
X017220Y004918D02*
X016799Y005549D01*
X016575Y005549D02*
X016155Y005549D01*
X016155Y005233D02*
X016365Y005233D01*
X018088Y005339D02*
X018298Y005549D01*
X018298Y004918D01*
X018088Y004918D02*
X018509Y004918D01*
D20*
X016020Y007817D02*
X016020Y007941D01*
X016020Y007879D02*
X015650Y007879D01*
X015650Y007817D02*
X015650Y007941D01*
X015711Y008063D02*
X015958Y008063D01*
X016020Y008124D01*
X016020Y008248D01*
X015958Y008310D01*
X015835Y008431D02*
X015835Y008678D01*
X016020Y008616D02*
X015650Y008616D01*
X015835Y008431D01*
X015711Y008310D02*
X015650Y008248D01*
X015650Y008124D01*
X015711Y008063D01*
X021920Y015967D02*
X022065Y015967D01*
X022113Y016016D01*
X022113Y016209D01*
X022065Y016257D01*
X021920Y016257D01*
X021920Y015967D01*
X022214Y015967D02*
X022408Y016161D01*
X022408Y016209D01*
X022359Y016257D01*
X022263Y016257D01*
X022214Y016209D01*
X022214Y015967D02*
X022408Y015967D01*
D21*
X022919Y016114D03*
M02*
