G75*
G70*
%OFA0B0*%
%FSLAX24Y24*%
%IPPOS*%
%LPD*%
%AMOC8*
5,1,8,0,0,1.08239X$1,22.5*
%
%ADD10OC8,0.0966*%
%ADD11OC8,0.0640*%
%ADD12R,0.0640X0.0640*%
%ADD13R,0.0540X0.0710*%
%ADD14R,0.0060X0.0720*%
%ADD15OC8,0.0680*%
%ADD16C,0.0316*%
%ADD17R,0.0611X0.0671*%
%ADD18R,0.0474X0.0631*%
%ADD19R,0.0592X0.0474*%
%ADD20R,0.0671X0.0375*%
%ADD21R,0.0513X0.0474*%
%ADD22R,0.0710X0.0540*%
%ADD23R,0.0720X0.0060*%
%ADD24R,0.0474X0.0513*%
%ADD25C,0.0410*%
D10*
X010671Y015474D03*
X011852Y015474D03*
X011852Y016655D03*
X010671Y016655D03*
X019658Y016655D03*
X020839Y016655D03*
X020840Y015474D03*
X019658Y015474D03*
D11*
X019721Y013465D03*
X018721Y013465D03*
X017721Y013465D03*
X016721Y013465D03*
X015721Y013465D03*
X015721Y012465D03*
X016721Y012465D03*
X017721Y012465D03*
X018721Y012465D03*
X019721Y012465D03*
X020721Y012465D03*
X020721Y013465D03*
X021721Y013465D03*
X014721Y013465D03*
X013721Y013465D03*
X012721Y013465D03*
X011721Y013465D03*
X010721Y013465D03*
X009721Y013465D03*
X009721Y012465D03*
X010721Y012465D03*
X011721Y012465D03*
X012721Y012465D03*
X013721Y012465D03*
X014721Y012465D03*
X014721Y003466D03*
X013721Y003466D03*
X012721Y003466D03*
X011721Y003466D03*
X010721Y003466D03*
X009721Y003466D03*
X009721Y002466D03*
X010721Y002466D03*
X011721Y002466D03*
X012721Y002466D03*
X013721Y002466D03*
X014721Y002466D03*
X015721Y002466D03*
X016721Y002466D03*
X017721Y002466D03*
X018721Y002466D03*
X019721Y002466D03*
X020721Y002466D03*
X020721Y003466D03*
X019721Y003466D03*
X018721Y003466D03*
X017721Y003466D03*
X016721Y003466D03*
X015721Y003466D03*
X021721Y003466D03*
D12*
X021721Y002466D03*
X021721Y012465D03*
D13*
X014686Y001690D03*
X014086Y001690D03*
D14*
X014386Y001690D03*
D15*
X020235Y004285D03*
X022435Y004257D03*
X015231Y008555D03*
D16*
X014366Y009189D02*
X014090Y009189D01*
X014090Y009267D01*
X014366Y009267D01*
X014366Y009189D01*
X015291Y010468D02*
X015369Y010468D01*
X015291Y010468D02*
X015291Y010744D01*
X015369Y010744D01*
X015369Y010468D01*
X015763Y010468D02*
X015841Y010468D01*
X015763Y010468D02*
X015763Y010744D01*
X015841Y010744D01*
X015841Y010468D01*
X016236Y010468D02*
X016314Y010468D01*
X016236Y010468D02*
X016236Y010744D01*
X016314Y010744D01*
X016314Y010468D01*
X016708Y010468D02*
X016786Y010468D01*
X016708Y010468D02*
X016708Y010744D01*
X016786Y010744D01*
X016786Y010468D01*
X017181Y010468D02*
X017259Y010468D01*
X017181Y010468D02*
X017181Y010744D01*
X017259Y010744D01*
X017259Y010468D01*
X017653Y010468D02*
X017731Y010468D01*
X017653Y010468D02*
X017653Y010744D01*
X017731Y010744D01*
X017731Y010468D01*
X018126Y010468D02*
X018204Y010468D01*
X018126Y010468D02*
X018126Y010744D01*
X018204Y010744D01*
X018204Y010468D01*
X018598Y010468D02*
X018676Y010468D01*
X018598Y010468D02*
X018598Y010744D01*
X018676Y010744D01*
X018676Y010468D01*
X019070Y010468D02*
X019148Y010468D01*
X019070Y010468D02*
X019070Y010744D01*
X019148Y010744D01*
X019148Y010468D01*
X019543Y010468D02*
X019621Y010468D01*
X019543Y010468D02*
X019543Y010744D01*
X019621Y010744D01*
X019621Y010468D01*
X020015Y010468D02*
X020093Y010468D01*
X020015Y010468D02*
X020015Y010744D01*
X020093Y010744D01*
X020093Y010468D01*
X020488Y010468D02*
X020566Y010468D01*
X020488Y010468D02*
X020488Y010744D01*
X020566Y010744D01*
X020566Y010468D01*
X021432Y009858D02*
X021708Y009858D01*
X021432Y009858D02*
X021432Y009936D01*
X021708Y009936D01*
X021708Y009858D01*
X021708Y008598D02*
X021432Y008598D01*
X021432Y008676D01*
X021708Y008676D01*
X021708Y008598D01*
X020566Y005271D02*
X020488Y005271D01*
X020488Y005547D01*
X020566Y005547D01*
X020566Y005271D01*
X020093Y005271D02*
X020015Y005271D01*
X020015Y005547D01*
X020093Y005547D01*
X020093Y005271D01*
X019621Y005271D02*
X019543Y005271D01*
X019543Y005547D01*
X019621Y005547D01*
X019621Y005271D01*
X019148Y005271D02*
X019070Y005271D01*
X019070Y005547D01*
X019148Y005547D01*
X019148Y005271D01*
X018676Y005271D02*
X018598Y005271D01*
X018598Y005547D01*
X018676Y005547D01*
X018676Y005271D01*
X018204Y005271D02*
X018126Y005271D01*
X018126Y005547D01*
X018204Y005547D01*
X018204Y005271D01*
X017731Y005271D02*
X017653Y005271D01*
X017653Y005547D01*
X017731Y005547D01*
X017731Y005271D01*
X017259Y005271D02*
X017181Y005271D01*
X017181Y005547D01*
X017259Y005547D01*
X017259Y005271D01*
X016786Y005271D02*
X016708Y005271D01*
X016708Y005547D01*
X016786Y005547D01*
X016786Y005271D01*
X016314Y005271D02*
X016236Y005271D01*
X016236Y005547D01*
X016314Y005547D01*
X016314Y005271D01*
X015841Y005271D02*
X015763Y005271D01*
X015763Y005547D01*
X015841Y005547D01*
X015841Y005271D01*
X015369Y005271D02*
X015291Y005271D01*
X015291Y005547D01*
X015369Y005547D01*
X015369Y005271D01*
X014366Y006748D02*
X014090Y006748D01*
X014090Y006826D01*
X014366Y006826D01*
X014366Y006748D01*
D17*
X002844Y005280D03*
X002450Y010654D03*
D18*
X004035Y005221D03*
D19*
X008858Y005447D03*
D20*
X008877Y005979D03*
X008877Y006412D03*
X008877Y006845D03*
X008877Y007278D03*
X008877Y007711D03*
X008877Y008144D03*
X008877Y008577D03*
X008877Y009010D03*
D21*
X008773Y003746D03*
X008103Y003746D03*
X016189Y011258D03*
X016858Y011258D03*
X019115Y011299D03*
X019784Y011299D03*
D22*
X022925Y011853D03*
X022925Y012453D03*
D23*
X022925Y012153D03*
D24*
X022929Y013252D03*
X022929Y013922D03*
D25*
X023275Y015187D03*
X022337Y015654D03*
X019290Y013911D03*
X018412Y014243D03*
X017844Y014564D03*
X018146Y015247D03*
X019879Y011880D03*
X017620Y011780D03*
X018365Y010114D03*
X016750Y009893D03*
X016220Y010018D03*
X015502Y010027D03*
X015000Y010130D03*
X016233Y008293D03*
X016905Y007962D03*
X015522Y006871D03*
X015808Y005990D03*
X015803Y004897D03*
X017881Y004676D03*
X018507Y004672D03*
X018389Y006377D03*
X017933Y006411D03*
X019578Y006298D03*
X020214Y006310D03*
X020574Y006014D03*
X021207Y006263D03*
X020092Y007514D03*
X020699Y007946D03*
X019867Y008715D03*
X019471Y008867D03*
X018531Y008538D03*
X018215Y008855D03*
X013622Y004535D03*
X013658Y004056D03*
X015415Y001494D03*
X019251Y001972D03*
X020190Y001763D03*
X021266Y003978D03*
X008094Y003172D03*
X007968Y004243D03*
X006492Y006359D03*
X004351Y006934D03*
X003231Y010125D03*
X007772Y010331D03*
M02*
