G75*
G70*
%OFA0B0*%
%FSLAX24Y24*%
%IPPOS*%
%LPD*%
%AMOC8*
5,1,8,0,0,1.08239X$1,22.5*
%
%ADD10C,0.0000*%
%ADD11C,0.0060*%
%ADD12C,0.0040*%
%ADD13C,0.0030*%
%ADD14C,0.0050*%
%ADD15C,0.0080*%
D10*
X001989Y004407D02*
X001989Y011417D01*
X007468Y011417D01*
X007468Y017987D01*
X024028Y017987D01*
X024028Y010656D01*
X021595Y010656D01*
X021591Y005372D01*
X024028Y005372D01*
X024028Y000969D01*
X007469Y000969D01*
X007468Y004407D01*
X001989Y004407D01*
D11*
X011072Y005348D02*
X011188Y005231D01*
X011655Y005231D01*
X011772Y005348D01*
X011772Y005581D01*
X011655Y005698D01*
X011422Y005931D02*
X011188Y005931D01*
X011072Y006048D01*
X011072Y006281D01*
X011188Y006398D01*
X011422Y006398D01*
X011539Y006281D01*
X011539Y006048D01*
X011422Y005931D01*
X011188Y005698D02*
X011072Y005581D01*
X011072Y005348D01*
X012266Y005240D02*
X012967Y005240D01*
X012734Y005473D01*
X012967Y005707D01*
X012266Y005707D01*
X012383Y005940D02*
X012266Y006056D01*
X012266Y006290D01*
X012383Y006407D01*
X012617Y006407D01*
X012734Y006290D01*
X012734Y006056D01*
X012617Y005940D01*
X012383Y005940D01*
X012266Y006639D02*
X012266Y006873D01*
X012266Y006756D02*
X012967Y006756D01*
X012967Y006639D01*
X012617Y007106D02*
X012383Y007106D01*
X012266Y007223D01*
X012266Y007456D01*
X012500Y007573D02*
X012500Y007106D01*
X012617Y007106D02*
X012734Y007223D01*
X012734Y007456D01*
X012617Y007573D01*
X012500Y007573D01*
X012617Y007806D02*
X012383Y007806D01*
X012266Y007922D01*
X012266Y008273D01*
X012383Y008506D02*
X012266Y008622D01*
X012266Y008973D01*
X012734Y008973D01*
X012734Y009205D02*
X012734Y009556D01*
X012617Y009672D01*
X012383Y009672D01*
X012266Y009556D01*
X012266Y009205D01*
X012967Y009205D01*
X012734Y008506D02*
X012383Y008506D01*
X012734Y008273D02*
X012734Y007922D01*
X012617Y007806D01*
X011655Y007447D02*
X011188Y007447D01*
X011072Y007564D01*
X011072Y007797D02*
X011539Y007797D01*
X011539Y007564D02*
X011539Y007330D01*
X011422Y007098D02*
X011072Y007098D01*
X011422Y007098D02*
X011539Y006981D01*
X011539Y006631D01*
X011072Y006631D01*
X011305Y007797D02*
X011539Y008030D01*
X011539Y008147D01*
X011422Y008380D02*
X011188Y008380D01*
X011072Y008497D01*
X011072Y008730D01*
X011188Y008847D01*
X011422Y008847D01*
X011539Y008730D01*
X011539Y008497D01*
X011422Y008380D01*
X011772Y009080D02*
X011772Y009197D01*
X011072Y009197D01*
X011072Y009313D02*
X011072Y009080D01*
X011072Y009546D02*
X011072Y009780D01*
X011072Y009663D02*
X011772Y009663D01*
X011772Y009546D01*
X011422Y010013D02*
X011188Y010013D01*
X011072Y010130D01*
X011072Y010363D01*
X011305Y010480D02*
X011305Y010013D01*
X011422Y010013D02*
X011539Y010130D01*
X011539Y010363D01*
X011422Y010480D01*
X011305Y010480D01*
X011305Y010713D02*
X011539Y010946D01*
X011539Y011063D01*
X011539Y010713D02*
X011072Y010713D01*
X012266Y010605D02*
X012266Y010955D01*
X012383Y011072D01*
X012500Y010955D01*
X012500Y010722D01*
X012617Y010605D01*
X012734Y010722D01*
X012734Y011072D01*
X012617Y010372D02*
X012500Y010372D01*
X012500Y009905D01*
X012383Y009905D02*
X012617Y009905D01*
X012734Y010022D01*
X012734Y010255D01*
X012617Y010372D01*
X012266Y010255D02*
X012266Y010022D01*
X012383Y009905D01*
X014731Y008805D02*
X014731Y008305D01*
X014981Y008055D01*
X015481Y008055D01*
X015731Y008305D01*
X015731Y008805D01*
X015481Y009055D01*
X014981Y009055D01*
X014731Y008805D01*
X019735Y004535D02*
X019735Y004035D01*
X019985Y003785D01*
X020485Y003785D01*
X020735Y004035D01*
X020735Y004535D01*
X020485Y004785D01*
X019985Y004785D01*
X019735Y004535D01*
X021935Y004507D02*
X021935Y004007D01*
X022185Y003757D01*
X022685Y003757D01*
X022935Y004007D01*
X022935Y004507D01*
X022685Y004757D01*
X022185Y004757D01*
X021935Y004507D01*
X015036Y001990D02*
X015036Y001390D01*
X015034Y001370D01*
X015028Y001352D01*
X015019Y001334D01*
X015007Y001319D01*
X014992Y001307D01*
X014974Y001298D01*
X014956Y001292D01*
X014936Y001290D01*
X013836Y001290D01*
X013816Y001292D01*
X013798Y001298D01*
X013780Y001307D01*
X013765Y001319D01*
X013753Y001334D01*
X013744Y001352D01*
X013738Y001370D01*
X013736Y001390D01*
X013736Y001990D01*
X013738Y002010D01*
X013744Y002028D01*
X013753Y002046D01*
X013765Y002061D01*
X013780Y002073D01*
X013798Y002082D01*
X013816Y002088D01*
X013836Y002090D01*
X014936Y002090D01*
X014956Y002088D01*
X014974Y002082D01*
X014992Y002073D01*
X015007Y002061D01*
X015019Y002046D01*
X015028Y002028D01*
X015034Y002010D01*
X015036Y001990D01*
X022625Y011503D02*
X023225Y011503D01*
X023245Y011505D01*
X023263Y011511D01*
X023281Y011520D01*
X023296Y011532D01*
X023308Y011547D01*
X023317Y011565D01*
X023323Y011583D01*
X023325Y011603D01*
X023325Y012703D01*
X023323Y012723D01*
X023317Y012741D01*
X023308Y012759D01*
X023296Y012774D01*
X023281Y012786D01*
X023263Y012795D01*
X023245Y012801D01*
X023225Y012803D01*
X022625Y012803D01*
X022605Y012801D01*
X022587Y012795D01*
X022569Y012786D01*
X022554Y012774D01*
X022542Y012759D01*
X022533Y012741D01*
X022527Y012723D01*
X022525Y012703D01*
X022525Y011603D01*
X022527Y011583D01*
X022533Y011565D01*
X022542Y011547D01*
X022554Y011532D01*
X022569Y011520D01*
X022587Y011511D01*
X022605Y011505D01*
X022625Y011503D01*
X016959Y015911D02*
X016843Y015794D01*
X016609Y015794D01*
X016492Y015911D01*
X016260Y015911D02*
X016143Y015794D01*
X015909Y015794D01*
X015792Y015911D01*
X015560Y015911D02*
X015443Y015794D01*
X015209Y015794D01*
X015093Y015911D01*
X015093Y016028D01*
X015209Y016144D01*
X015443Y016144D01*
X015560Y016261D01*
X015560Y016378D01*
X015443Y016495D01*
X015209Y016495D01*
X015093Y016378D01*
X014860Y016495D02*
X014860Y015794D01*
X014393Y015794D01*
X015792Y016378D02*
X015909Y016495D01*
X016143Y016495D01*
X016260Y016378D01*
X016260Y015911D01*
X016492Y016378D02*
X016609Y016495D01*
X016843Y016495D01*
X016959Y016378D01*
X016959Y015911D01*
D12*
X017268Y011681D02*
X017191Y011604D01*
X017191Y011451D01*
X017268Y011374D01*
X017421Y011374D02*
X017498Y011528D01*
X017498Y011604D01*
X017421Y011681D01*
X017268Y011681D01*
X017652Y011681D02*
X017652Y011374D01*
X017421Y011374D01*
X017421Y011221D02*
X017345Y011144D01*
X017345Y010914D01*
X017345Y011067D02*
X017191Y011221D01*
X017421Y011221D02*
X017575Y011221D01*
X017652Y011144D01*
X017652Y010914D01*
X017191Y010914D01*
X020135Y010802D02*
X020595Y010802D01*
X020595Y011032D01*
X020519Y011109D01*
X020365Y011109D01*
X020289Y011032D01*
X020289Y010802D01*
X020289Y010955D02*
X020135Y011109D01*
X020212Y011262D02*
X020135Y011339D01*
X020135Y011492D01*
X020212Y011569D01*
X020289Y011569D01*
X020365Y011492D01*
X020365Y011262D01*
X020212Y011262D01*
X020365Y011262D02*
X020519Y011415D01*
X020595Y011569D01*
X022842Y014253D02*
X022842Y014329D01*
X022535Y014636D01*
X022535Y014713D01*
X022842Y014713D01*
X022996Y014636D02*
X023073Y014713D01*
X023303Y014713D01*
X023303Y014253D01*
X023303Y014406D02*
X023073Y014406D01*
X022996Y014483D01*
X022996Y014636D01*
X023149Y014406D02*
X022996Y014253D01*
X015654Y004601D02*
X015741Y004514D01*
X015741Y004167D01*
X015654Y004081D01*
X015481Y004081D01*
X015394Y004167D01*
X015394Y004514D02*
X015481Y004601D01*
X015654Y004601D01*
X016425Y004428D02*
X016599Y004081D01*
X016772Y004428D01*
X016941Y004341D02*
X016941Y004254D01*
X017288Y004254D01*
X017288Y004167D02*
X017288Y004341D01*
X017201Y004428D01*
X017028Y004428D01*
X016941Y004341D01*
X017028Y004081D02*
X017201Y004081D01*
X017288Y004167D01*
X017457Y004428D02*
X017544Y004428D01*
X017717Y004254D01*
X017717Y004081D02*
X017717Y004428D01*
X014710Y004514D02*
X014623Y004601D01*
X014449Y004601D01*
X014363Y004514D01*
X014363Y004428D01*
X014710Y004081D01*
X014363Y004081D01*
X014194Y004081D02*
X013847Y004428D01*
X013847Y004514D01*
X013934Y004601D01*
X014107Y004601D01*
X014194Y004514D01*
X014194Y004081D02*
X013847Y004081D01*
X013678Y004341D02*
X013331Y004341D01*
X013163Y004341D02*
X012989Y004341D01*
X013163Y004601D02*
X012816Y004601D01*
X012560Y004428D02*
X012387Y004428D01*
X012300Y004341D01*
X012300Y004254D01*
X012647Y004254D01*
X012647Y004167D02*
X012647Y004341D01*
X012560Y004428D01*
X012647Y004167D02*
X012560Y004081D01*
X012387Y004081D01*
X012131Y004081D02*
X011871Y004081D01*
X011784Y004167D01*
X011784Y004341D01*
X011871Y004428D01*
X012131Y004428D01*
X012131Y004601D02*
X012131Y004081D01*
X011616Y004341D02*
X011269Y004341D01*
X011100Y004514D02*
X011013Y004601D01*
X010840Y004601D01*
X010753Y004514D01*
X010753Y004428D01*
X011100Y004081D01*
X010753Y004081D01*
X010585Y004167D02*
X010238Y004514D01*
X010238Y004167D01*
X010324Y004081D01*
X010498Y004081D01*
X010585Y004167D01*
X010585Y004514D01*
X010498Y004601D01*
X010324Y004601D01*
X010238Y004514D01*
X010069Y004514D02*
X009982Y004601D01*
X009809Y004601D01*
X009722Y004514D01*
X010069Y004167D01*
X009982Y004081D01*
X009809Y004081D01*
X009722Y004167D01*
X009722Y004514D01*
X009553Y004514D02*
X009553Y004428D01*
X009467Y004341D01*
X009293Y004341D01*
X009206Y004254D01*
X009206Y004167D01*
X009293Y004081D01*
X009467Y004081D01*
X009553Y004167D01*
X009553Y004254D01*
X009467Y004341D01*
X009293Y004341D02*
X009206Y004428D01*
X009206Y004514D01*
X009293Y004601D01*
X009467Y004601D01*
X009553Y004514D01*
X010069Y004514D02*
X010069Y004167D01*
X009285Y003290D02*
X009055Y003290D01*
X008979Y003214D01*
X008979Y003060D01*
X009055Y002983D01*
X009285Y002983D01*
X009132Y002983D02*
X008979Y002830D01*
X008825Y002907D02*
X008825Y002983D01*
X008748Y003060D01*
X008595Y003060D01*
X008518Y002983D01*
X008518Y002907D01*
X008595Y002830D01*
X008748Y002830D01*
X008825Y002907D01*
X008748Y003060D02*
X008825Y003137D01*
X008825Y003214D01*
X008748Y003290D01*
X008595Y003290D01*
X008518Y003214D01*
X008518Y003137D01*
X008595Y003060D01*
X009285Y002830D02*
X009285Y003290D01*
X013163Y004081D02*
X013163Y004601D01*
X005976Y007236D02*
X005900Y007160D01*
X005823Y007160D01*
X005746Y007236D01*
X005746Y007390D01*
X005670Y007466D01*
X005593Y007466D01*
X005516Y007390D01*
X005516Y007236D01*
X005593Y007160D01*
X005976Y007236D02*
X005976Y007390D01*
X005900Y007466D01*
X005976Y007620D02*
X005516Y007620D01*
X005670Y007620D02*
X005976Y007927D01*
X005976Y008080D02*
X005976Y008387D01*
X005976Y008234D02*
X005516Y008234D01*
X005516Y007927D02*
X005746Y007697D01*
X005823Y008541D02*
X005976Y008694D01*
X005516Y008694D01*
X005516Y008541D02*
X005516Y008848D01*
D13*
X023299Y004509D02*
X023299Y004324D01*
X023299Y004202D02*
X023484Y004202D01*
X023546Y004140D01*
X023484Y004079D01*
X023299Y004079D01*
X023299Y003955D02*
X023546Y003955D01*
X023546Y004017D01*
X023484Y004079D01*
X023484Y004324D02*
X023546Y004385D01*
X023546Y004570D01*
X023422Y004509D02*
X023422Y004385D01*
X023484Y004324D01*
X023422Y004509D02*
X023360Y004570D01*
X023299Y004509D01*
X023299Y003834D02*
X023299Y003649D01*
X023360Y003587D01*
X023422Y003649D01*
X023422Y003834D01*
X023484Y003834D02*
X023299Y003834D01*
X023484Y003834D02*
X023546Y003772D01*
X023546Y003649D01*
X023299Y003465D02*
X023299Y003341D01*
X023299Y003403D02*
X023546Y003403D01*
X023546Y003341D01*
X023669Y003403D02*
X023731Y003403D01*
X023669Y003158D02*
X023299Y003158D01*
X023299Y003219D02*
X023299Y003096D01*
X023299Y002974D02*
X023299Y002850D01*
X023299Y002912D02*
X023669Y002912D01*
X023669Y002850D01*
X023669Y002667D02*
X023731Y002667D01*
X023546Y002667D02*
X023546Y002605D01*
X023546Y002667D02*
X023299Y002667D01*
X023299Y002728D02*
X023299Y002605D01*
X023299Y002484D02*
X023669Y002484D01*
X023669Y002237D02*
X023299Y002237D01*
X023422Y002360D01*
X023299Y002484D01*
X023669Y003096D02*
X023669Y003158D01*
X023607Y001747D02*
X023484Y001747D01*
X023422Y001685D01*
X023422Y001500D01*
X023299Y001500D02*
X023669Y001500D01*
X023669Y001685D01*
X023607Y001747D01*
D14*
X021813Y003979D02*
X021813Y004279D01*
X021813Y004129D02*
X021363Y004129D01*
X021363Y004439D02*
X021813Y004739D01*
X021738Y004899D02*
X021438Y004899D01*
X021738Y005200D01*
X021438Y005200D01*
X021363Y005125D01*
X021363Y004974D01*
X021438Y004899D01*
X021363Y004739D02*
X021813Y004439D01*
X021738Y004899D02*
X021813Y004974D01*
X021813Y005125D01*
X021738Y005200D01*
X019669Y004510D02*
X019669Y004060D01*
X019669Y004210D02*
X019444Y004210D01*
X019369Y004285D01*
X019369Y004435D01*
X019444Y004510D01*
X019669Y004510D01*
X019519Y004210D02*
X019369Y004060D01*
X019208Y004060D02*
X018908Y004510D01*
X018748Y004435D02*
X018673Y004510D01*
X018523Y004510D01*
X018448Y004435D01*
X018748Y004135D01*
X018673Y004060D01*
X018523Y004060D01*
X018448Y004135D01*
X018448Y004435D01*
X018748Y004435D02*
X018748Y004135D01*
X018908Y004060D02*
X019208Y004510D01*
X013611Y001867D02*
X013611Y001792D01*
X013536Y001717D01*
X013386Y001717D01*
X013311Y001642D01*
X013311Y001567D01*
X013386Y001492D01*
X013536Y001492D01*
X013611Y001567D01*
X013611Y001867D02*
X013536Y001942D01*
X013386Y001942D01*
X013311Y001867D01*
X013000Y001942D02*
X012850Y001942D01*
X012925Y001942D02*
X012925Y001567D01*
X013000Y001492D01*
X013075Y001492D01*
X013150Y001567D01*
X012690Y001492D02*
X012390Y001492D01*
X012540Y001492D02*
X012540Y001942D01*
X012690Y001792D01*
X015511Y009300D02*
X015436Y009375D01*
X015436Y009525D01*
X015586Y009525D01*
X015436Y009675D02*
X015511Y009750D01*
X015661Y009750D01*
X015736Y009675D01*
X015736Y009375D01*
X015661Y009300D01*
X015511Y009300D01*
X022401Y010888D02*
X022701Y010888D01*
X022401Y011188D01*
X022401Y011263D01*
X022476Y011338D01*
X022626Y011338D01*
X022701Y011263D01*
X022861Y011338D02*
X023012Y011338D01*
X022937Y011338D02*
X022937Y010963D01*
X023012Y010888D01*
X023087Y010888D01*
X023162Y010963D01*
X023322Y010963D02*
X023397Y010888D01*
X023547Y010888D01*
X023622Y010963D01*
X023547Y011113D02*
X023397Y011113D01*
X023322Y011038D01*
X023322Y010963D01*
X023547Y011113D02*
X023622Y011188D01*
X023622Y011263D01*
X023547Y011338D01*
X023397Y011338D01*
X023322Y011263D01*
D15*
X023598Y010606D02*
X023991Y010606D01*
X023991Y010212D01*
X022023Y010606D02*
X021629Y010606D01*
X021235Y010606D01*
X023991Y005802D02*
X023991Y005409D01*
X023598Y005409D01*
X022023Y005409D02*
X021629Y005409D01*
X021235Y005409D01*
X014621Y005409D02*
X014228Y005409D01*
X014228Y005802D01*
X008956Y005103D02*
X004429Y005103D01*
X003681Y005103D02*
X003287Y005103D01*
X002657Y005782D02*
X002657Y006175D01*
X002913Y006175D01*
X002971Y006262D01*
X003025Y006352D01*
X003077Y006443D01*
X003124Y006536D01*
X003169Y006631D01*
X003209Y006728D01*
X003246Y006826D01*
X003279Y006925D01*
X003308Y007025D01*
X003334Y007127D01*
X003356Y007230D01*
X003373Y007333D01*
X003387Y007437D01*
X003397Y007541D01*
X003403Y007645D01*
X003405Y007750D01*
X003403Y007855D01*
X003397Y007959D01*
X003387Y008063D01*
X003373Y008167D01*
X003356Y008270D01*
X003334Y008373D01*
X003308Y008475D01*
X003279Y008575D01*
X003246Y008674D01*
X003209Y008772D01*
X003169Y008869D01*
X003124Y008964D01*
X003077Y009057D01*
X003025Y009148D01*
X002971Y009238D01*
X002913Y009325D01*
X002263Y009325D01*
X002263Y010112D01*
X002933Y010831D02*
X008956Y010831D01*
X008956Y009325D01*
X014228Y010212D02*
X014228Y010606D01*
X014621Y010606D01*
M02*
